M48
; DRILL file {KiCad 9.0.6} date 2026-04-06T12:23:19-0400
; FORMAT={-:-/ absolute / metric / decimal}
; #@! TF.CreationDate,2026-04-06T12:23:19-04:00
; #@! TF.GenerationSoftware,Kicad,Pcbnew,9.0.6
; #@! TF.FileFunction,NonPlated,1,2,NPTH
FMAT,2
METRIC
; #@! TA.AperFunction,NonPlated,NPTH,ComponentDrill
T1C0.650
; #@! TA.AperFunction,NonPlated,NPTH,ComponentDrill
T2C1.500
; #@! TA.AperFunction,NonPlated,NPTH,ComponentDrill
T3C2.200
; #@! TA.AperFunction,NonPlated,NPTH,ComponentDrill
T4C3.000
; #@! TA.AperFunction,NonPlated,NPTH,ComponentDrill
T5C5.100
%
G90
G05
T1
X154.86Y-30.165
X160.64Y-30.165
T3
X19.0Y-48.0
X19.5Y-89.5
X27.75Y-147.0
X77.25Y-127.5
X119.5Y-50.75
X120.0Y-89.5
X213.0Y-137.5
X214.5Y-89.25
X214.75Y-50.25
X275.5Y-38.5
X280.0Y-90.0
X280.5Y-146.0
T4
X24.25Y-131.4
X24.287Y-55.2
X26.65Y-112.35
X29.025Y-36.15
X29.025Y-74.25
X29.25Y-133.6
X29.287Y-57.4
X31.425Y-93.3
X31.65Y-114.55
X34.025Y-38.35
X34.025Y-76.45
X36.425Y-95.5
X43.3Y-131.4
X43.35Y-55.2
X48.1Y-112.35
X48.3Y-133.6
X48.35Y-57.4
X52.85Y-36.15
X52.85Y-74.25
X53.1Y-114.55
X57.587Y-93.3
X57.85Y-38.35
X57.85Y-76.45
X62.337Y-131.4
X62.45Y-55.2
X62.587Y-95.5
X67.15Y-112.35
X67.337Y-133.6
X67.45Y-57.4
X71.888Y-36.15
X71.9Y-74.25
X72.15Y-114.55
X76.7Y-93.3
X76.888Y-38.35
X76.9Y-76.45
X81.45Y-55.2
X81.7Y-95.5
X83.825Y-131.4
X86.15Y-112.35
X86.45Y-57.4
X88.825Y-133.6
X90.9Y-74.25
X90.938Y-36.15
X91.15Y-114.55
X95.7Y-93.3
X95.9Y-76.45
X95.938Y-38.35
X100.5Y-55.2
X100.7Y-95.5
X105.25Y-112.35
X105.5Y-57.4
X109.987Y-36.15
X110.0Y-74.25
X110.25Y-114.55
X114.75Y-93.3
X114.987Y-38.35
X115.0Y-76.45
X119.55Y-55.2
X119.75Y-95.5
X124.3Y-112.35
X124.55Y-57.4
X129.037Y-36.15
X129.05Y-74.25
X129.3Y-114.55
X133.85Y-93.3
X134.037Y-38.35
X134.05Y-76.45
X138.588Y-55.2
X138.85Y-95.5
X143.35Y-112.35
X143.588Y-57.4
X148.05Y-74.25
X148.1Y-36.15
X148.35Y-114.55
X152.9Y-93.3
X153.05Y-76.45
X153.1Y-38.35
X155.25Y-131.4
X157.65Y-55.2
X157.9Y-95.5
X160.25Y-133.6
X162.4Y-112.35
X162.65Y-57.4
X167.137Y-36.15
X167.15Y-74.25
X167.4Y-114.55
X171.9Y-93.3
X172.137Y-38.35
X172.15Y-76.45
X176.7Y-55.2
X176.9Y-95.5
X181.45Y-112.35
X181.7Y-57.4
X186.2Y-36.15
X186.2Y-74.25
X186.45Y-114.55
X190.95Y-93.3
X191.2Y-38.35
X191.2Y-76.45
X195.75Y-55.2
X195.95Y-95.5
X200.475Y-112.35
X200.75Y-57.4
X205.25Y-36.15
X205.25Y-74.25
X205.475Y-114.55
X210.0Y-93.3
X210.25Y-38.35
X210.25Y-76.45
X214.787Y-55.2
X215.0Y-95.5
X219.55Y-112.35
X219.787Y-57.4
X224.25Y-74.25
X224.3Y-36.15
X224.55Y-114.55
X226.7Y-131.4
X229.05Y-93.3
X229.25Y-76.45
X229.3Y-38.35
X231.7Y-133.6
X233.85Y-55.2
X234.05Y-95.5
X238.6Y-112.35
X238.85Y-57.4
X243.35Y-36.15
X243.35Y-74.25
X243.6Y-114.55
X248.1Y-93.3
X248.15Y-131.4
X248.35Y-38.35
X248.35Y-76.45
X252.887Y-55.2
X253.1Y-95.5
X253.15Y-133.6
X257.887Y-57.4
X262.4Y-36.15
X262.4Y-74.25
X267.2Y-93.3
X267.4Y-38.35
X267.4Y-76.45
X269.55Y-131.4
X272.2Y-95.5
X274.3Y-112.35
X274.55Y-133.6
X279.3Y-114.55
X281.45Y-55.2
X286.2Y-36.15
X286.225Y-74.25
X286.45Y-57.4
X288.625Y-93.3
X290.95Y-131.4
X291.2Y-38.35
X291.225Y-76.45
X293.625Y-95.5
X295.95Y-133.6
T5
X24.25Y-137.4
X24.287Y-61.2
X26.65Y-118.35
X29.025Y-42.15
X29.025Y-80.25
X31.425Y-99.3
X43.3Y-137.4
X43.35Y-61.2
X48.1Y-118.35
X52.85Y-42.15
X52.85Y-80.25
X57.587Y-99.3
X62.337Y-137.4
X62.45Y-61.2
X67.15Y-118.35
X71.888Y-42.15
X71.9Y-80.25
X76.7Y-99.3
X81.45Y-61.2
X83.825Y-137.4
X86.15Y-118.35
X90.9Y-80.25
X90.938Y-42.15
X95.7Y-99.3
X100.5Y-61.2
X105.25Y-118.35
X109.987Y-42.15
X110.0Y-80.25
X114.75Y-99.3
X119.55Y-61.2
X124.3Y-118.35
X129.037Y-42.15
X129.05Y-80.25
X133.85Y-99.3
X138.588Y-61.2
X143.35Y-118.35
X148.05Y-80.25
X148.1Y-42.15
X152.9Y-99.3
X155.25Y-137.4
X157.65Y-61.2
X162.4Y-118.35
X167.137Y-42.15
X167.15Y-80.25
X171.9Y-99.3
X176.7Y-61.2
X181.45Y-118.35
X186.2Y-42.15
X186.2Y-80.25
X190.95Y-99.3
X195.75Y-61.2
X200.475Y-118.35
X205.25Y-42.15
X205.25Y-80.25
X210.0Y-99.3
X214.787Y-61.2
X219.55Y-118.35
X224.25Y-80.25
X224.3Y-42.15
X226.7Y-137.4
X229.05Y-99.3
X233.85Y-61.2
X238.6Y-118.35
X243.35Y-42.15
X243.35Y-80.25
X248.1Y-99.3
X248.15Y-137.4
X252.887Y-61.2
X262.4Y-42.15
X262.4Y-80.25
X267.2Y-99.3
X269.55Y-137.4
X274.3Y-118.35
X281.45Y-61.2
X286.2Y-42.15
X286.225Y-80.25
X288.625Y-99.3
X290.95Y-137.4
T2
G00X19.25Y-142.3
M15
G01X19.25Y-142.8
M16
G05
G00X19.287Y-66.1
M15
G01X19.287Y-66.6
M16
G05
G00X21.65Y-123.25
M15
G01X21.65Y-123.75
M16
G05
G00X24.025Y-47.05
M15
G01X24.025Y-47.55
M16
G05
G00X24.025Y-85.15
M15
G01X24.025Y-85.65
M16
G05
G00X26.425Y-104.2
M15
G01X26.425Y-104.7
M16
G05
G00X38.3Y-142.3
M15
G01X38.3Y-142.8
M16
G05
G00X38.35Y-66.1
M15
G01X38.35Y-66.6
M16
G05
G00X43.1Y-123.25
M15
G01X43.1Y-123.75
M16
G05
G00X47.85Y-47.05
M15
G01X47.85Y-47.55
M16
G05
G00X47.85Y-85.15
M15
G01X47.85Y-85.65
M16
G05
G00X52.587Y-104.2
M15
G01X52.587Y-104.7
M16
G05
G00X57.337Y-142.3
M15
G01X57.337Y-142.8
M16
G05
G00X57.45Y-66.1
M15
G01X57.45Y-66.6
M16
G05
G00X62.15Y-123.25
M15
G01X62.15Y-123.75
M16
G05
G00X66.888Y-47.05
M15
G01X66.888Y-47.55
M16
G05
G00X66.9Y-85.15
M15
G01X66.9Y-85.65
M16
G05
G00X71.7Y-104.2
M15
G01X71.7Y-104.7
M16
G05
G00X76.45Y-66.1
M15
G01X76.45Y-66.6
M16
G05
G00X78.825Y-142.3
M15
G01X78.825Y-142.8
M16
G05
G00X81.15Y-123.25
M15
G01X81.15Y-123.75
M16
G05
G00X85.9Y-85.15
M15
G01X85.9Y-85.65
M16
G05
G00X85.938Y-47.05
M15
G01X85.938Y-47.55
M16
G05
G00X90.7Y-104.2
M15
G01X90.7Y-104.7
M16
G05
G00X95.5Y-66.1
M15
G01X95.5Y-66.6
M16
G05
G00X100.25Y-123.25
M15
G01X100.25Y-123.75
M16
G05
G00X104.987Y-47.05
M15
G01X104.987Y-47.55
M16
G05
G00X105.0Y-85.15
M15
G01X105.0Y-85.65
M16
G05
G00X109.75Y-104.2
M15
G01X109.75Y-104.7
M16
G05
G00X114.55Y-66.1
M15
G01X114.55Y-66.6
M16
G05
G00X119.3Y-123.25
M15
G01X119.3Y-123.75
M16
G05
G00X124.037Y-47.05
M15
G01X124.037Y-47.55
M16
G05
G00X124.05Y-85.15
M15
G01X124.05Y-85.65
M16
G05
G00X128.85Y-104.2
M15
G01X128.85Y-104.7
M16
G05
G00X133.588Y-66.1
M15
G01X133.588Y-66.6
M16
G05
G00X138.35Y-123.25
M15
G01X138.35Y-123.75
M16
G05
G00X143.05Y-85.15
M15
G01X143.05Y-85.65
M16
G05
G00X143.1Y-47.05
M15
G01X143.1Y-47.55
M16
G05
G00X147.9Y-104.2
M15
G01X147.9Y-104.7
M16
G05
G00X150.25Y-142.3
M15
G01X150.25Y-142.8
M16
G05
G00X152.65Y-66.1
M15
G01X152.65Y-66.6
M16
G05
G00X157.4Y-123.25
M15
G01X157.4Y-123.75
M16
G05
G00X162.137Y-47.05
M15
G01X162.137Y-47.55
M16
G05
G00X162.15Y-85.15
M15
G01X162.15Y-85.65
M16
G05
G00X166.9Y-104.2
M15
G01X166.9Y-104.7
M16
G05
G00X171.7Y-66.1
M15
G01X171.7Y-66.6
M16
G05
G00X176.45Y-123.25
M15
G01X176.45Y-123.75
M16
G05
G00X181.2Y-47.05
M15
G01X181.2Y-47.55
M16
G05
G00X181.2Y-85.15
M15
G01X181.2Y-85.65
M16
G05
G00X185.95Y-104.2
M15
G01X185.95Y-104.7
M16
G05
G00X190.75Y-66.1
M15
G01X190.75Y-66.6
M16
G05
G00X195.475Y-123.25
M15
G01X195.475Y-123.75
M16
G05
G00X200.25Y-47.05
M15
G01X200.25Y-47.55
M16
G05
G00X200.25Y-85.15
M15
G01X200.25Y-85.65
M16
G05
G00X205.0Y-104.2
M15
G01X205.0Y-104.7
M16
G05
G00X209.787Y-66.1
M15
G01X209.787Y-66.6
M16
G05
G00X214.55Y-123.25
M15
G01X214.55Y-123.75
M16
G05
G00X219.25Y-85.15
M15
G01X219.25Y-85.65
M16
G05
G00X219.3Y-47.05
M15
G01X219.3Y-47.55
M16
G05
G00X221.7Y-142.3
M15
G01X221.7Y-142.8
M16
G05
G00X224.05Y-104.2
M15
G01X224.05Y-104.7
M16
G05
G00X228.85Y-66.1
M15
G01X228.85Y-66.6
M16
G05
G00X233.6Y-123.25
M15
G01X233.6Y-123.75
M16
G05
G00X238.35Y-47.05
M15
G01X238.35Y-47.55
M16
G05
G00X238.35Y-85.15
M15
G01X238.35Y-85.65
M16
G05
G00X243.1Y-104.2
M15
G01X243.1Y-104.7
M16
G05
G00X243.15Y-142.3
M15
G01X243.15Y-142.8
M16
G05
G00X247.887Y-66.1
M15
G01X247.887Y-66.6
M16
G05
G00X257.4Y-47.05
M15
G01X257.4Y-47.55
M16
G05
G00X257.4Y-85.15
M15
G01X257.4Y-85.65
M16
G05
G00X262.2Y-104.2
M15
G01X262.2Y-104.7
M16
G05
G00X264.55Y-142.3
M15
G01X264.55Y-142.8
M16
G05
G00X269.3Y-123.25
M15
G01X269.3Y-123.75
M16
G05
G00X276.45Y-66.1
M15
G01X276.45Y-66.6
M16
G05
G00X281.2Y-47.05
M15
G01X281.2Y-47.55
M16
G05
G00X281.225Y-85.15
M15
G01X281.225Y-85.65
M16
G05
G00X283.625Y-104.2
M15
G01X283.625Y-104.7
M16
G05
G00X285.95Y-142.3
M15
G01X285.95Y-142.8
M16
G05
M30
