%TF.GenerationSoftware,KiCad,Pcbnew,9.0.6*%
%TF.CreationDate,2026-04-06T15:34:17-04:00*%
%TF.ProjectId,new-keyboard-pcb,6e65772d-6b65-4796-926f-6172642d7063,rev?*%
%TF.SameCoordinates,Original*%
%TF.FileFunction,Copper,L1,Top*%
%TF.FilePolarity,Positive*%
%FSLAX46Y46*%
G04 Gerber Fmt 4.6, Leading zero omitted, Abs format (unit mm)*
G04 Created by KiCad (PCBNEW 9.0.6) date 2026-04-06 15:34:17*
%MOMM*%
%LPD*%
G01*
G04 APERTURE LIST*
%TA.AperFunction,ComponentPad*%
%ADD10R,1.700000X1.700000*%
%TD*%
%TA.AperFunction,ComponentPad*%
%ADD11C,1.700000*%
%TD*%
%TA.AperFunction,ComponentPad*%
%ADD12R,1.500000X1.500000*%
%TD*%
%TA.AperFunction,ComponentPad*%
%ADD13C,1.500000*%
%TD*%
%TA.AperFunction,ComponentPad*%
%ADD14O,1.000000X1.600000*%
%TD*%
%TA.AperFunction,ComponentPad*%
%ADD15O,1.000000X2.100000*%
%TD*%
%TA.AperFunction,ViaPad*%
%ADD16C,0.600000*%
%TD*%
%TA.AperFunction,Conductor*%
%ADD17C,0.381000*%
%TD*%
%TA.AperFunction,Conductor*%
%ADD18C,0.254000*%
%TD*%
G04 APERTURE END LIST*
D10*
%TO.P,J1,1,VTref*%
%TO.N,+3.3V*%
X174750000Y-141540000D03*
D11*
%TO.P,J1,2,SWDIO/TMS*%
%TO.N,SWDIO*%
X172210000Y-141540000D03*
%TO.P,J1,3,GND*%
%TO.N,GND*%
X174750000Y-139000000D03*
%TO.P,J1,4,SWCLK/TCK*%
%TO.N,SWCLK*%
X172210000Y-139000000D03*
%TO.P,J1,5,GND*%
%TO.N,GND*%
X174750000Y-136460000D03*
%TO.P,J1,6,SWO/TDO*%
%TO.N,unconnected-(J1-SWO{slash}TDO-Pad6)*%
X172210000Y-136460000D03*
%TO.P,J1,7,KEY*%
%TO.N,unconnected-(J1-KEY-Pad7)*%
X174750000Y-133920000D03*
%TO.P,J1,8,NC/TDI*%
%TO.N,unconnected-(J1-NC{slash}TDI-Pad8)*%
X172210000Y-133920000D03*
%TO.P,J1,9,GNDDetect*%
%TO.N,unconnected-(J1-GNDDetect-Pad9)*%
X174750000Y-131380000D03*
%TO.P,J1,10,~{RESET}*%
%TO.N,RESET*%
X172210000Y-131380000D03*
%TD*%
D12*
%TO.P,J4,1,Pin_1*%
%TO.N,ROW0B*%
X299500000Y-44750000D03*
D13*
%TO.P,J4,2,Pin_2*%
%TO.N,COL14MAIN*%
X299500000Y-47290000D03*
%TO.P,J4,3,Pin_3*%
%TO.N,COL15MAIN*%
X299500000Y-49830000D03*
%TO.P,J4,4,Pin_4*%
%TO.N,COL16MAIN*%
X299500000Y-52370000D03*
%TO.P,J4,5,Pin_5*%
%TO.N,COL17MAIN*%
X299500000Y-54910000D03*
%TD*%
D12*
%TO.P,J2,1,Pin_1*%
%TO.N,ROW1B*%
X299500000Y-117340000D03*
D13*
%TO.P,J2,2,Pin_2*%
%TO.N,ROW2B*%
X299500000Y-119880000D03*
%TO.P,J2,3,Pin_3*%
%TO.N,ROW3B*%
X299500000Y-122420000D03*
%TO.P,J2,4,Pin_4*%
%TO.N,ROW4B*%
X299500000Y-124960000D03*
%TO.P,J2,5,Pin_5*%
%TO.N,ROW5B*%
X299500000Y-127500000D03*
%TD*%
D14*
%TO.P,USB1,13,SHIELD*%
%TO.N,Earth*%
X153430000Y-26515000D03*
D15*
X153430000Y-30695000D03*
D14*
X162070000Y-26515000D03*
D15*
X162070000Y-30695000D03*
%TD*%
D16*
%TO.N,SWDIO*%
X165500000Y-145000000D03*
%TO.N,SWCLK*%
X164741051Y-144373000D03*
%TO.N,ROW2B*%
X160000000Y-85750000D03*
%TO.N,ROW0B*%
X165750000Y-47500000D03*
%TO.N,COL0*%
X122000000Y-132500000D03*
%TO.N,ROW3A*%
X126218506Y-145500000D03*
%TO.N,COL1*%
X65000000Y-100000000D03*
%TO.N,COL0*%
X294000000Y-79500000D03*
%TO.N,RESET*%
X120513996Y-135986004D03*
%TO.N,COL0*%
X289000000Y-61000000D03*
%TO.N,COL3*%
X93500000Y-118500000D03*
%TO.N,COL0*%
X39000000Y-99000000D03*
%TO.N,COL2*%
X79500000Y-42000000D03*
%TO.N,COL0*%
X32000000Y-60500000D03*
%TO.N,SWCLK*%
X132500000Y-134500000D03*
%TO.N,COL0*%
X32000000Y-137000000D03*
%TO.N,COL1*%
X270000000Y-42500000D03*
%TO.N,SWDIO*%
X141434313Y-135127000D03*
%TO.N,Net-(U1-IO2)*%
X156000000Y-46250000D03*
%TO.N,COL2*%
X250500000Y-80500000D03*
%TO.N,ROW0A*%
X120500000Y-47000000D03*
%TO.N,+3.3V*%
X125750000Y-140127000D03*
%TO.N,SWDIO*%
X132000000Y-135127000D03*
%TO.N,+3.3V*%
X131000000Y-129018500D03*
%TO.N,Net-(U1-IO2)*%
X153929199Y-115240546D03*
%TO.N,COL15MAIN*%
X130000000Y-143500000D03*
%TO.N,COL1*%
X60500000Y-80500000D03*
%TO.N,+3.3V*%
X182000000Y-144250000D03*
%TO.N,COL1*%
X260500000Y-60500000D03*
X98500000Y-136250000D03*
%TO.N,COL2*%
X255500000Y-137500000D03*
%TO.N,COL1*%
X270000000Y-79500000D03*
%TO.N,COL2*%
X97750000Y-135250000D03*
%TO.N,COL14MAIN*%
X270500000Y-48000000D03*
%TO.N,COL2*%
X70000000Y-137500000D03*
%TO.N,ROW5B*%
X142500000Y-133500000D03*
%TO.N,COL1*%
X282000000Y-118000000D03*
%TO.N,COL2*%
X251000000Y-42000000D03*
%TO.N,COL3*%
X97000000Y-134250000D03*
%TO.N,ROW5A*%
X127728412Y-143757515D03*
%TO.N,SWCLK*%
X142000000Y-134500000D03*
%TO.N,ROW3B*%
X159250000Y-123000000D03*
%TO.N,ROW5A*%
X127724156Y-145500000D03*
%TO.N,COL3*%
X234000000Y-137500000D03*
X236500000Y-99500000D03*
%TO.N,COL15MAIN*%
X270750000Y-49000000D03*
%TO.N,COL4*%
X122500000Y-100000000D03*
%TO.N,RESET*%
X147250000Y-129250000D03*
%TO.N,COL2*%
X255500000Y-99500000D03*
%TO.N,ROW1B*%
X150000000Y-69250000D03*
%TO.N,COL0*%
X37000000Y-42000000D03*
X34500000Y-118000000D03*
%TO.N,COL1*%
X100000000Y-136250000D03*
X60500000Y-42000000D03*
%TO.N,ROW4B*%
X145500000Y-126750000D03*
%TO.N,COL1*%
X122750000Y-130000000D03*
%TO.N,ROW1B*%
X153625000Y-68875000D03*
%TO.N,COL5*%
X198500000Y-100500000D03*
%TO.N,COL3*%
X98500000Y-42000000D03*
%TO.N,COL0*%
X294000000Y-42000000D03*
X37000000Y-80000000D03*
%TO.N,COL2*%
X100000000Y-135250000D03*
%TO.N,+3.3V*%
X182000000Y-146000000D03*
%TO.N,COL2*%
X74500000Y-118500000D03*
%TO.N,COL6*%
X179500000Y-100000000D03*
%TO.N,COL17MAIN*%
X128479051Y-145235175D03*
%TO.N,ROW2B*%
X159250000Y-89000000D03*
%TO.N,COL4*%
X101500000Y-127000000D03*
X217500000Y-99500000D03*
%TO.N,COL6*%
X146500000Y-61500000D03*
%TO.N,GND*%
X167250000Y-123500000D03*
%TO.N,ROW1A*%
X95500000Y-124500000D03*
%TO.N,COL16MAIN*%
X129241051Y-143752983D03*
%TO.N,COL2*%
X69500000Y-61500000D03*
%TO.N,COL1*%
X51000000Y-62000000D03*
%TO.N,ROW3B*%
X150002983Y-125991051D03*
%TO.N,COL5*%
X141500000Y-100000000D03*
%TO.N,ROW4B*%
X149750000Y-126750000D03*
%TO.N,COL2*%
X84000000Y-99500000D03*
%TO.N,COL3*%
X100000000Y-134250000D03*
%TO.N,Net-(U1-IO1)*%
X154750000Y-115250000D03*
%TO.N,COL3*%
X227000000Y-118000000D03*
X222500000Y-61500000D03*
X124004000Y-130000000D03*
%TO.N,COL1*%
X274500000Y-99500000D03*
%TO.N,COL2*%
X241500000Y-61000000D03*
%TO.N,COL5*%
X189000000Y-118500000D03*
X126500000Y-62000000D03*
%TO.N,COL4*%
X117000000Y-80500000D03*
%TO.N,ROW5B*%
X140750000Y-131750000D03*
%TO.N,VCC*%
X156000000Y-42000000D03*
X158000000Y-42000000D03*
%TO.N,COL2*%
X79500000Y-81000000D03*
%TO.N,COL3*%
X103000000Y-99500000D03*
%TO.N,COL4*%
X213000000Y-42000000D03*
X212500000Y-80500000D03*
X108000000Y-61500000D03*
X103250000Y-129750000D03*
%TO.N,COL5*%
X137000000Y-42000000D03*
%TO.N,GND*%
X135750000Y-145500000D03*
%TO.N,COL5*%
X125258000Y-130000000D03*
X136000000Y-80500000D03*
X184000000Y-61500000D03*
%TO.N,ROW1B*%
X147250000Y-69250000D03*
%TO.N,COL4*%
X207500000Y-118500000D03*
%TO.N,COL1*%
X50500000Y-137500000D03*
%TO.N,COL3*%
X91500000Y-137000000D03*
%TO.N,COL5*%
X114500000Y-124500000D03*
%TO.N,COL3*%
X232000000Y-42000000D03*
%TO.N,ROW4A*%
X126971329Y-145229341D03*
%TO.N,ROW1B*%
X136750000Y-124250000D03*
%TO.N,COL6*%
X154500000Y-41500000D03*
%TO.N,COL4*%
X112500000Y-118500000D03*
%TO.N,COL5*%
X132000000Y-118000000D03*
%TO.N,COL6*%
X165000000Y-61500000D03*
X160500000Y-100000000D03*
X162500000Y-137000000D03*
X155000000Y-81000000D03*
X126000000Y-130500000D03*
X174500000Y-41500000D03*
%TO.N,COL17MAIN*%
X274000000Y-148123000D03*
%TO.N,COL6*%
X151000000Y-118000000D03*
X174500000Y-80500000D03*
X169500000Y-119000000D03*
%TO.N,COL3*%
X88500000Y-61500000D03*
%TO.N,COL5*%
X193000000Y-80500000D03*
%TO.N,COL17MAIN*%
X271250000Y-51000000D03*
%TO.N,COL16MAIN*%
X129233950Y-145500000D03*
X273500000Y-147496000D03*
X271000000Y-50000000D03*
%TO.N,COL5*%
X104500000Y-129750000D03*
%TO.N,ROW0B*%
X135750000Y-124250000D03*
%TO.N,COL3*%
X231500000Y-80000000D03*
%TO.N,COL15MAIN*%
X129991977Y-145244266D03*
X273000000Y-146868000D03*
%TO.N,COL14MAIN*%
X130750000Y-143790887D03*
X272500000Y-146241000D03*
X130750000Y-145500000D03*
%TO.N,COL1*%
X55500000Y-119000000D03*
%TO.N,COL0*%
X296500000Y-99000000D03*
%TO.N,GND*%
X159250000Y-51000000D03*
%TO.N,ROW0B*%
X131500000Y-126250000D03*
%TO.N,COL2*%
X246000000Y-118500000D03*
%TO.N,Net-(U1-IO1)*%
X158000000Y-46250000D03*
%TO.N,COL0*%
X298500000Y-137500000D03*
%TO.N,COL4*%
X203000000Y-61500000D03*
%TO.N,ROW0B*%
X156500000Y-68000000D03*
%TO.N,ROW1A*%
X101750000Y-67750000D03*
%TO.N,ROW1B*%
X128500000Y-130000000D03*
X132000000Y-127000000D03*
%TO.N,ROW2A*%
X106500000Y-86750000D03*
X94750000Y-124000000D03*
%TO.N,ROW3A*%
X93750000Y-124000000D03*
X103500000Y-104250000D03*
X126220928Y-143760403D03*
%TO.N,COL2*%
X123377000Y-130565687D03*
%TO.N,ROW3B*%
X169000000Y-105750000D03*
%TO.N,ROW4A*%
X126974156Y-143490864D03*
%TO.N,COL3*%
X98500000Y-80500000D03*
%TO.N,COL4*%
X118000000Y-42000000D03*
%TO.N,COL17MAIN*%
X128483950Y-143494521D03*
%TO.N,COL1*%
X277000000Y-137500000D03*
%TO.N,ROW3B*%
X145247017Y-125991051D03*
%TO.N,COL5*%
X194000000Y-42000000D03*
%TO.N,COL4*%
X124631000Y-130567954D03*
%TO.N,GND*%
X155750000Y-36250000D03*
X161100000Y-36250000D03*
X148000000Y-144000000D03*
%TO.N,+3.3V*%
X123983140Y-139983140D03*
X117860500Y-139889500D03*
X129500000Y-129000000D03*
X117500000Y-135500000D03*
%TO.N,+5V*%
X152500000Y-124250000D03*
X148750000Y-140250000D03*
X152250000Y-119500000D03*
X152000000Y-126000000D03*
%TO.N,ROW0A*%
X127250000Y-123500000D03*
X126750000Y-130000000D03*
X126750000Y-126750000D03*
%TO.N,ROW0B*%
X146750000Y-68500000D03*
X166500000Y-67000000D03*
X149250000Y-68500000D03*
X127377000Y-130565687D03*
%TO.N,GND*%
X169000000Y-125250000D03*
%TD*%
D17*
%TO.N,GND*%
X174250000Y-90000000D02*
X174500000Y-90250000D01*
D18*
%TO.N,ROW0B*%
X135750000Y-124250000D02*
X135750000Y-113500000D01*
%TO.N,SWDIO*%
X168750000Y-145000000D02*
X172210000Y-141540000D01*
%TO.N,COL15MAIN*%
X285500000Y-122250000D02*
X285500000Y-112036936D01*
D17*
%TO.N,+5V*%
X152500000Y-124250000D02*
X152500000Y-119750000D01*
D18*
%TO.N,ROW1B*%
X153625000Y-68875000D02*
X153250000Y-69250000D01*
%TO.N,COL2*%
X255500000Y-137500000D02*
X245000000Y-148000000D01*
%TO.N,Net-(U1-IO2)*%
X162750000Y-105250000D02*
X154500000Y-113500000D01*
%TO.N,COL14MAIN*%
X272500000Y-146241000D02*
X279000000Y-139741000D01*
%TO.N,Net-(U1-IO1)*%
X164000000Y-81000000D02*
X164000000Y-82250000D01*
%TO.N,COL5*%
X194000000Y-73500000D02*
X184000000Y-63500000D01*
D17*
%TO.N,GND*%
X169750000Y-77250000D02*
X169750000Y-78000000D01*
D18*
%TO.N,COL4*%
X117000000Y-80500000D02*
X117000000Y-82500000D01*
%TO.N,COL6*%
X160500000Y-100000000D02*
X160500000Y-103500000D01*
%TO.N,COL0*%
X39000000Y-113500000D02*
X34500000Y-118000000D01*
%TO.N,ROW4B*%
X149750000Y-126750000D02*
X145500000Y-126750000D01*
%TO.N,COL1*%
X260500000Y-60500000D02*
X260500000Y-52000000D01*
%TO.N,COL14MAIN*%
X130750000Y-143790887D02*
X130750000Y-145500000D01*
%TO.N,COL16MAIN*%
X271750000Y-69500000D02*
X267500000Y-65250000D01*
%TO.N,Net-(U1-IO1)*%
X164250000Y-104500000D02*
X154750000Y-114000000D01*
%TO.N,COL2*%
X69500000Y-61500000D02*
X69500000Y-65000000D01*
%TO.N,ROW0B*%
X164250000Y-64750000D02*
X164250000Y-60750000D01*
%TO.N,COL6*%
X151000000Y-45000000D02*
X154500000Y-41500000D01*
%TO.N,COL2*%
X97750000Y-138643467D02*
X97750000Y-135250000D01*
%TO.N,ROW4A*%
X126971329Y-144989196D02*
X126974156Y-144986369D01*
%TO.N,Net-(U1-IO1)*%
X164000000Y-79250000D02*
X164000000Y-81000000D01*
%TO.N,COL3*%
X124004000Y-128967066D02*
X124004000Y-130000000D01*
D17*
%TO.N,GND*%
X159250000Y-51000000D02*
X160000000Y-51750000D01*
D18*
%TO.N,COL2*%
X79500000Y-46000000D02*
X73500000Y-52000000D01*
X80500000Y-74000000D02*
X80500000Y-80000000D01*
%TO.N,COL5*%
X114500000Y-124500000D02*
X117500000Y-121500000D01*
%TO.N,COL17MAIN*%
X280500000Y-141500000D02*
X280500000Y-128536936D01*
%TO.N,COL2*%
X97750000Y-132463066D02*
X103713066Y-126500000D01*
%TO.N,COL1*%
X103811533Y-127045000D02*
X120795000Y-127045000D01*
%TO.N,ROW5A*%
X127724156Y-145500000D02*
X127724156Y-145259136D01*
%TO.N,ROW0B*%
X127377000Y-129738873D02*
X127375000Y-129736873D01*
%TO.N,COL2*%
X85500000Y-91500000D02*
X85500000Y-98000000D01*
%TO.N,COL1*%
X60500000Y-87000000D02*
X65000000Y-91500000D01*
%TO.N,RESET*%
X127763996Y-135986004D02*
X120513996Y-135986004D01*
D17*
%TO.N,GND*%
X176500000Y-140750000D02*
X174750000Y-139000000D01*
D18*
%TO.N,COL2*%
X76500000Y-72000000D02*
X78500000Y-72000000D01*
%TO.N,COL1*%
X101000000Y-142250000D02*
X101000000Y-137250000D01*
X50500000Y-143250000D02*
X53000000Y-145750000D01*
%TO.N,Net-(U1-IO2)*%
X161000000Y-72250000D02*
X161000000Y-77000000D01*
%TO.N,COL5*%
X184000000Y-61500000D02*
X184000000Y-57000000D01*
%TO.N,COL3*%
X98500000Y-46000000D02*
X92000000Y-52500000D01*
%TO.N,SWDIO*%
X165500000Y-145000000D02*
X168750000Y-145000000D01*
%TO.N,COL1*%
X277000000Y-137500000D02*
X266000000Y-148500000D01*
%TO.N,COL3*%
X98534800Y-131034800D02*
X103569599Y-126000000D01*
%TO.N,ROW1B*%
X128500000Y-129111873D02*
X130611873Y-127000000D01*
%TO.N,COL0*%
X91000000Y-146250000D02*
X91430402Y-146250000D01*
%TO.N,COL5*%
X143000000Y-92500000D02*
X143000000Y-98500000D01*
X121446063Y-125053937D02*
X125257999Y-128865873D01*
%TO.N,COL2*%
X73500000Y-52000000D02*
X73500000Y-57500000D01*
%TO.N,COL1*%
X98500000Y-138536934D02*
X98500000Y-136250000D01*
%TO.N,COL0*%
X294000000Y-66000000D02*
X294000000Y-79500000D01*
%TO.N,COL4*%
X197500000Y-147000000D02*
X177893467Y-147000000D01*
%TO.N,COL0*%
X99250000Y-132250000D02*
X99250000Y-137250000D01*
%TO.N,ROW0A*%
X126750000Y-130000000D02*
X126750000Y-126750000D01*
%TO.N,COL0*%
X32000000Y-60500000D02*
X32000000Y-67000000D01*
%TO.N,COL5*%
X138500000Y-73500000D02*
X138500000Y-78000000D01*
%TO.N,COL17MAIN*%
X286500000Y-122536936D02*
X286500000Y-111750000D01*
%TO.N,SWCLK*%
X132500000Y-134500000D02*
X142000000Y-134500000D01*
%TO.N,Net-(U1-IO2)*%
X168000000Y-87000000D02*
X168000000Y-91250000D01*
%TO.N,COL1*%
X51000000Y-66000000D02*
X56500000Y-71500000D01*
%TO.N,COL16MAIN*%
X267500000Y-53500000D02*
X271000000Y-50000000D01*
%TO.N,COL3*%
X224000000Y-147500000D02*
X107750000Y-147500000D01*
%TO.N,COL15MAIN*%
X129991051Y-144741051D02*
X130000000Y-144732102D01*
D17*
%TO.N,GND*%
X169000000Y-125250000D02*
X173500000Y-125250000D01*
X149691500Y-145691500D02*
X148000000Y-144000000D01*
D18*
%TO.N,Net-(U1-IO1)*%
X168500000Y-99250000D02*
X168500000Y-100250000D01*
%TO.N,Net-(U1-IO2)*%
X153000000Y-62750000D02*
X161000000Y-70750000D01*
%TO.N,COL1*%
X277000000Y-123000000D02*
X282000000Y-118000000D01*
%TO.N,COL2*%
X91143467Y-145250000D02*
X97750000Y-138643467D01*
%TO.N,SWDIO*%
X132000000Y-135127000D02*
X141434313Y-135127000D01*
%TO.N,Net-(U1-IO2)*%
X152750000Y-50750000D02*
X151545000Y-51955000D01*
X156000000Y-46250000D02*
X156000000Y-47500000D01*
%TO.N,COL0*%
X34500000Y-118000000D02*
X34500000Y-134500000D01*
%TO.N,COL14MAIN*%
X275500000Y-89750000D02*
X274000000Y-88250000D01*
%TO.N,COL16MAIN*%
X279000000Y-99500000D02*
X276545000Y-97045000D01*
%TO.N,COL5*%
X121446063Y-122946063D02*
X121446063Y-125053937D01*
X132000000Y-70500000D02*
X135500000Y-70500000D01*
%TO.N,COL1*%
X65000000Y-100000000D02*
X65000000Y-103500000D01*
%TO.N,COL3*%
X101500000Y-90000000D02*
X102500000Y-90000000D01*
X93034800Y-131034800D02*
X93000000Y-131000000D01*
%TO.N,COL4*%
X212500000Y-80500000D02*
X217500000Y-85500000D01*
%TO.N,COL3*%
X103569599Y-126000000D02*
X121036934Y-126000000D01*
%TO.N,+3.3V*%
X130981500Y-129000000D02*
X131000000Y-129018500D01*
%TO.N,COL2*%
X70000000Y-142750000D02*
X72500000Y-145250000D01*
%TO.N,Net-(U1-IO2)*%
X165500000Y-84500000D02*
X168000000Y-87000000D01*
%TO.N,COL14MAIN*%
X279000000Y-128000000D02*
X285000000Y-122000000D01*
%TO.N,COL4*%
X115500000Y-115500000D02*
X112500000Y-118500000D01*
%TO.N,COL2*%
X69500000Y-65000000D02*
X76500000Y-72000000D01*
%TO.N,Net-(U1-IO2)*%
X163500000Y-82500000D02*
X165500000Y-84500000D01*
%TO.N,COL2*%
X80500000Y-80000000D02*
X79500000Y-81000000D01*
%TO.N,Net-(U1-IO2)*%
X153929199Y-114070801D02*
X153929199Y-115240546D01*
%TO.N,COL2*%
X103713066Y-126500000D02*
X120893467Y-126500000D01*
%TO.N,Net-(U1-IO2)*%
X156000000Y-47500000D02*
X152750000Y-50750000D01*
%TO.N,COL0*%
X41000000Y-97000000D02*
X39000000Y-99000000D01*
%TO.N,Net-(U1-IO2)*%
X163500000Y-81500000D02*
X163500000Y-82500000D01*
%TO.N,COL3*%
X98500000Y-87000000D02*
X101500000Y-90000000D01*
%TO.N,COL5*%
X135500000Y-70500000D02*
X138500000Y-73500000D01*
%TO.N,Net-(U1-IO2)*%
X161000000Y-77000000D02*
X162750000Y-78750000D01*
X168000000Y-100000000D02*
X162750000Y-105250000D01*
%TO.N,ROW0B*%
X149250000Y-68500000D02*
X152250000Y-68500000D01*
X131500000Y-126250000D02*
X130250000Y-126250000D01*
%TO.N,COL1*%
X57000000Y-111500000D02*
X57000000Y-117500000D01*
%TO.N,COL0*%
X122000000Y-132500000D02*
X122000000Y-129000000D01*
%TO.N,COL3*%
X236500000Y-85000000D02*
X231500000Y-80000000D01*
%TO.N,Net-(U1-IO1)*%
X161500000Y-75750000D02*
X161500000Y-76750000D01*
X158000000Y-46250000D02*
X152000000Y-52250000D01*
%TO.N,ROW1A*%
X107000000Y-87250000D02*
X107250000Y-87000000D01*
%TO.N,COL4*%
X124631000Y-128950599D02*
X124631000Y-130567954D01*
%TO.N,Net-(U1-IO2)*%
X151545000Y-61295000D02*
X153000000Y-62750000D01*
%TO.N,COL0*%
X34500000Y-52500000D02*
X34500000Y-58000000D01*
%TO.N,Net-(U1-IO2)*%
X154500000Y-113500000D02*
X153929199Y-114070801D01*
%TO.N,COL3*%
X222500000Y-56000000D02*
X232000000Y-46500000D01*
D17*
%TO.N,GND*%
X164750000Y-114250000D02*
X164750000Y-115750000D01*
D18*
%TO.N,ROW0A*%
X122000000Y-58750000D02*
X122000000Y-54500000D01*
%TO.N,Net-(U1-IO1)*%
X155000000Y-64000000D02*
X161500000Y-70500000D01*
%TO.N,ROW0B*%
X127377000Y-130565687D02*
X127377000Y-129738873D01*
%TO.N,COL0*%
X37000000Y-80000000D02*
X41000000Y-84000000D01*
%TO.N,Net-(U1-IO1)*%
X163250000Y-78500000D02*
X164000000Y-79250000D01*
D17*
%TO.N,GND*%
X171250000Y-79500000D02*
X171750000Y-80000000D01*
D18*
%TO.N,COL5*%
X136000000Y-80500000D02*
X136000000Y-85500000D01*
%TO.N,Net-(U1-IO1)*%
X161500000Y-70500000D02*
X161500000Y-75750000D01*
X164000000Y-82250000D02*
X166500000Y-84750000D01*
X154750000Y-114000000D02*
X154750000Y-115250000D01*
X168500000Y-86750000D02*
X168500000Y-99250000D01*
%TO.N,COL1*%
X50500000Y-137500000D02*
X50500000Y-143250000D01*
%TO.N,COL16MAIN*%
X273504000Y-147496000D02*
X280000000Y-141000000D01*
D17*
%TO.N,+5V*%
X150000000Y-128500000D02*
X152000000Y-126500000D01*
X146750000Y-131750000D02*
X150000000Y-128500000D01*
D18*
%TO.N,COL3*%
X100000000Y-79000000D02*
X98500000Y-80500000D01*
%TO.N,COL2*%
X246000000Y-118500000D02*
X255500000Y-128000000D01*
%TO.N,COL17MAIN*%
X275500000Y-87500000D02*
X275500000Y-75750000D01*
%TO.N,COL4*%
X118000000Y-42000000D02*
X118000000Y-45000000D01*
X108000000Y-147000000D02*
X103250000Y-142250000D01*
D17*
%TO.N,GND*%
X152691500Y-145691500D02*
X174308500Y-145691500D01*
D18*
%TO.N,ROW0B*%
X143500000Y-78000000D02*
X143500000Y-72500000D01*
%TO.N,COL0*%
X37000000Y-72000000D02*
X37000000Y-80000000D01*
X34500000Y-58000000D02*
X32000000Y-60500000D01*
%TO.N,COL14MAIN*%
X285000000Y-112180404D02*
X278000000Y-105180404D01*
%TO.N,COL15MAIN*%
X276000000Y-89500000D02*
X274500000Y-88000000D01*
%TO.N,COL0*%
X104000000Y-127500000D02*
X99250000Y-132250000D01*
X120500000Y-127500000D02*
X104000000Y-127500000D01*
%TO.N,COL6*%
X167500000Y-59000000D02*
X165000000Y-61500000D01*
%TO.N,COL0*%
X289000000Y-47000000D02*
X289000000Y-61000000D01*
X287000000Y-149000000D02*
X298500000Y-137500000D01*
%TO.N,COL1*%
X260500000Y-52000000D02*
X270000000Y-42500000D01*
%TO.N,COL0*%
X37000000Y-50000000D02*
X34500000Y-52500000D01*
X296500000Y-129000000D02*
X298500000Y-131000000D01*
%TO.N,COL2*%
X74500000Y-133000000D02*
X70000000Y-137500000D01*
X84000000Y-99500000D02*
X84000000Y-103500000D01*
%TO.N,COL5*%
X120000000Y-121500000D02*
X121446063Y-122946063D01*
%TO.N,COL16MAIN*%
X275000000Y-87750000D02*
X275000000Y-76000000D01*
%TO.N,COL6*%
X156000000Y-75000000D02*
X156000000Y-80000000D01*
%TO.N,COL0*%
X32000000Y-137000000D02*
X32000000Y-142750000D01*
%TO.N,ROW3A*%
X96250000Y-116750000D02*
X96250000Y-112500000D01*
%TO.N,COL0*%
X41000000Y-84000000D02*
X41000000Y-97000000D01*
%TO.N,COL4*%
X123500000Y-89000000D02*
X123500000Y-99000000D01*
%TO.N,ROW2B*%
X160000000Y-88250000D02*
X160000000Y-85750000D01*
%TO.N,COL3*%
X93000000Y-135500000D02*
X91500000Y-137000000D01*
%TO.N,COL1*%
X65000000Y-103500000D02*
X57000000Y-111500000D01*
%TO.N,ROW1B*%
X144500000Y-83000000D02*
X144000000Y-82500000D01*
%TO.N,COL16MAIN*%
X267500000Y-65250000D02*
X267500000Y-53500000D01*
%TO.N,COL5*%
X189000000Y-118500000D02*
X189000000Y-110000000D01*
%TO.N,COL0*%
X32000000Y-142750000D02*
X35500000Y-146250000D01*
%TO.N,RESET*%
X147250000Y-129250000D02*
X134500000Y-129250000D01*
%TO.N,ROW2A*%
X96250000Y-117500000D02*
X96750000Y-117000000D01*
%TO.N,COL0*%
X32000000Y-67000000D02*
X37000000Y-72000000D01*
%TO.N,COL4*%
X101500000Y-127000000D02*
X103000000Y-125500000D01*
%TO.N,ROW0B*%
X145500000Y-84750000D02*
X144000000Y-83250000D01*
%TO.N,COL2*%
X241500000Y-51500000D02*
X241500000Y-61000000D01*
%TO.N,ROW1B*%
X140750000Y-109250000D02*
X146000000Y-104000000D01*
%TO.N,COL4*%
X207500000Y-118500000D02*
X207500000Y-137000000D01*
X103000000Y-125500000D02*
X113238873Y-125500000D01*
%TO.N,COL0*%
X34500000Y-134500000D02*
X32000000Y-137000000D01*
%TO.N,COL6*%
X151000000Y-121000000D02*
X151000000Y-118000000D01*
%TO.N,COL1*%
X53500000Y-59500000D02*
X51000000Y-62000000D01*
%TO.N,ROW2A*%
X96750000Y-117000000D02*
X96750000Y-112500000D01*
%TO.N,COL4*%
X103250000Y-142250000D02*
X103250000Y-129750000D01*
%TO.N,ROW0B*%
X144000000Y-83250000D02*
X143500000Y-82750000D01*
%TO.N,Net-(U1-IO1)*%
X168500000Y-100250000D02*
X164250000Y-104500000D01*
%TO.N,COL1*%
X274500000Y-104500000D02*
X274500000Y-99500000D01*
%TO.N,COL3*%
X92000000Y-52500000D02*
X92000000Y-58000000D01*
%TO.N,COL1*%
X282000000Y-112000000D02*
X274500000Y-104500000D01*
%TO.N,COL15MAIN*%
X129991051Y-145243340D02*
X129991051Y-144741051D01*
%TO.N,COL1*%
X56500000Y-71500000D02*
X58500000Y-71500000D01*
X266000000Y-148500000D02*
X107250000Y-148500000D01*
%TO.N,COL6*%
X153000000Y-73500000D02*
X154500000Y-73500000D01*
%TO.N,COL1*%
X91286934Y-145750000D02*
X98500000Y-138536934D01*
X51000000Y-62000000D02*
X51000000Y-66000000D01*
%TO.N,COL4*%
X112500000Y-118500000D02*
X112500000Y-124761127D01*
%TO.N,COL1*%
X270000000Y-86000000D02*
X270000000Y-79500000D01*
%TO.N,+3.3V*%
X125750000Y-140127000D02*
X124127000Y-140127000D01*
%TO.N,COL1*%
X60500000Y-42000000D02*
X60500000Y-46000000D01*
X274500000Y-99500000D02*
X274500000Y-90500000D01*
X65000000Y-91500000D02*
X65000000Y-100000000D01*
X274500000Y-90500000D02*
X270000000Y-86000000D01*
X270000000Y-72500000D02*
X260500000Y-63000000D01*
%TO.N,COL4*%
X112500000Y-124761127D02*
X113238873Y-125500000D01*
%TO.N,COL3*%
X103000000Y-103500000D02*
X95500000Y-111000000D01*
%TO.N,COL0*%
X99250000Y-141250000D02*
X107000000Y-149000000D01*
%TO.N,COL1*%
X60500000Y-80500000D02*
X60500000Y-87000000D01*
X51500000Y-136500000D02*
X50500000Y-137500000D01*
X55500000Y-130000000D02*
X51500000Y-134000000D01*
X270000000Y-79500000D02*
X270000000Y-72500000D01*
%TO.N,ROW1B*%
X144000000Y-82500000D02*
X144000000Y-72500000D01*
%TO.N,COL2*%
X79500000Y-81000000D02*
X79500000Y-87500000D01*
%TO.N,Net-(U1-IO2)*%
X151545000Y-51955000D02*
X151545000Y-61295000D01*
%TO.N,COL1*%
X51500000Y-134000000D02*
X51500000Y-136500000D01*
X260500000Y-63000000D02*
X260500000Y-60500000D01*
%TO.N,COL4*%
X121180401Y-125500000D02*
X124631000Y-128950599D01*
%TO.N,ROW3B*%
X149994034Y-126000000D02*
X145255966Y-126000000D01*
%TO.N,COL17MAIN*%
X277000000Y-89000000D02*
X275500000Y-87500000D01*
%TO.N,COL3*%
X93000000Y-131000000D02*
X93000000Y-135500000D01*
%TO.N,COL5*%
X104500000Y-142750000D02*
X108250000Y-146500000D01*
%TO.N,COL2*%
X79500000Y-42000000D02*
X79500000Y-46000000D01*
X107500000Y-148000000D02*
X101500000Y-142000000D01*
%TO.N,COL6*%
X180500000Y-92500000D02*
X174500000Y-86500000D01*
%TO.N,COL2*%
X91000000Y-145250000D02*
X91143467Y-145250000D01*
%TO.N,COL4*%
X207500000Y-137000000D02*
X197500000Y-147000000D01*
%TO.N,COL2*%
X255500000Y-85500000D02*
X255500000Y-99500000D01*
X101500000Y-136750000D02*
X100000000Y-135250000D01*
%TO.N,ROW1B*%
X130611873Y-127000000D02*
X132000000Y-127000000D01*
%TO.N,COL0*%
X91430402Y-146250000D02*
X99250000Y-138430402D01*
%TO.N,COL2*%
X123377000Y-128983533D02*
X123377000Y-130565687D01*
X78500000Y-72000000D02*
X80500000Y-74000000D01*
X251000000Y-42000000D02*
X241500000Y-51500000D01*
X255500000Y-109000000D02*
X246000000Y-118500000D01*
X85500000Y-98000000D02*
X84000000Y-99500000D01*
%TO.N,ROW3A*%
X93750000Y-119250000D02*
X95750000Y-117250000D01*
%TO.N,COL2*%
X78000000Y-115000000D02*
X74500000Y-118500000D01*
X81000000Y-89000000D02*
X83000000Y-89000000D01*
X74500000Y-118500000D02*
X74500000Y-133000000D01*
%TO.N,COL0*%
X37000000Y-42000000D02*
X37000000Y-50000000D01*
%TO.N,COL2*%
X101500000Y-142000000D02*
X101500000Y-136750000D01*
%TO.N,COL16MAIN*%
X286000000Y-111893468D02*
X279000000Y-104893468D01*
%TO.N,COL2*%
X250500000Y-71161286D02*
X250500000Y-80500000D01*
%TO.N,ROW0A*%
X125750000Y-104000000D02*
X125750000Y-62500000D01*
%TO.N,Net-(U1-IO2)*%
X162750000Y-78750000D02*
X163500000Y-79500000D01*
%TO.N,COL2*%
X79500000Y-87500000D02*
X81000000Y-89000000D01*
X73500000Y-57500000D02*
X69500000Y-61500000D01*
%TO.N,ROW5A*%
X127728412Y-145254880D02*
X127728412Y-143757515D01*
%TO.N,COL2*%
X255500000Y-128000000D02*
X255500000Y-137500000D01*
%TO.N,COL0*%
X99250000Y-138430402D02*
X99250000Y-137250000D01*
%TO.N,COL5*%
X189000000Y-110000000D02*
X198500000Y-100500000D01*
%TO.N,ROW1B*%
X146000000Y-99750000D02*
X146000000Y-84500000D01*
%TO.N,COL3*%
X95500000Y-111000000D02*
X95500000Y-116500000D01*
%TO.N,COL1*%
X91000000Y-145750000D02*
X91286934Y-145750000D01*
%TO.N,COL5*%
X125257999Y-128865873D02*
X125258000Y-128865873D01*
%TO.N,COL4*%
X217500000Y-99500000D02*
X217500000Y-108500000D01*
%TO.N,COL2*%
X120893467Y-126500000D02*
X123377000Y-128983533D01*
%TO.N,ROW1B*%
X128500000Y-130000000D02*
X128500000Y-129111873D01*
%TO.N,COL3*%
X98534800Y-131034800D02*
X93034800Y-131034800D01*
%TO.N,ROW0B*%
X152250000Y-68500000D02*
X152500000Y-68250000D01*
%TO.N,COL3*%
X227000000Y-109000000D02*
X236500000Y-99500000D01*
D17*
%TO.N,GND*%
X164750000Y-115750000D02*
X166750000Y-117750000D01*
D18*
%TO.N,COL3*%
X227000000Y-124000000D02*
X227000000Y-118000000D01*
X98500000Y-42000000D02*
X98500000Y-46000000D01*
%TO.N,ROW0B*%
X130250000Y-126250000D02*
X127375000Y-129125000D01*
%TO.N,COL3*%
X227000000Y-118000000D02*
X227000000Y-109000000D01*
X222500000Y-61500000D02*
X222500000Y-56000000D01*
X92000000Y-58000000D02*
X88500000Y-61500000D01*
D17*
%TO.N,GND*%
X160000000Y-57500000D02*
X160000000Y-58500000D01*
D18*
%TO.N,COL3*%
X100000000Y-73500000D02*
X100000000Y-79000000D01*
%TO.N,COL2*%
X250500000Y-80500000D02*
X255500000Y-85500000D01*
%TO.N,COL3*%
X231500000Y-80000000D02*
X231500000Y-75000000D01*
%TO.N,COL1*%
X107250000Y-148500000D02*
X101000000Y-142250000D01*
%TO.N,COL2*%
X255500000Y-99500000D02*
X255500000Y-109000000D01*
%TO.N,COL1*%
X53000000Y-145750000D02*
X91000000Y-145750000D01*
%TO.N,COL5*%
X126500000Y-65000000D02*
X132000000Y-70500000D01*
%TO.N,COL1*%
X58500000Y-71500000D02*
X60500000Y-73500000D01*
%TO.N,COL4*%
X108000000Y-61500000D02*
X108000000Y-66500000D01*
%TO.N,COL3*%
X98000000Y-71500000D02*
X100000000Y-73500000D01*
X222500000Y-66000000D02*
X222500000Y-61500000D01*
X97000000Y-132569599D02*
X98534800Y-131034800D01*
%TO.N,COL6*%
X126058003Y-126441997D02*
X127372000Y-125128000D01*
%TO.N,COL3*%
X93000000Y-119000000D02*
X93000000Y-131000000D01*
%TO.N,COL1*%
X55500000Y-119000000D02*
X55500000Y-130000000D01*
%TO.N,COL5*%
X138500000Y-78000000D02*
X136000000Y-80500000D01*
%TO.N,COL0*%
X294000000Y-42000000D02*
X289000000Y-47000000D01*
%TO.N,COL3*%
X98500000Y-80500000D02*
X98500000Y-87000000D01*
X234000000Y-137500000D02*
X224000000Y-147500000D01*
X95500000Y-116500000D02*
X93500000Y-118500000D01*
X103000000Y-99500000D02*
X103000000Y-103500000D01*
%TO.N,ROW5A*%
X127724156Y-145259136D02*
X127728412Y-145254880D01*
%TO.N,COL3*%
X231500000Y-75000000D02*
X222500000Y-66000000D01*
X88500000Y-61500000D02*
X88500000Y-65000000D01*
%TO.N,COL4*%
X110500000Y-59000000D02*
X108000000Y-61500000D01*
%TO.N,COL3*%
X121036934Y-126000000D02*
X124004000Y-128967066D01*
X88500000Y-65000000D02*
X95000000Y-71500000D01*
%TO.N,ROW2A*%
X104250000Y-100250000D02*
X105750000Y-98750000D01*
%TO.N,COL3*%
X107750000Y-147500000D02*
X102000000Y-141750000D01*
%TO.N,COL4*%
X113238873Y-125500000D02*
X114250000Y-125500000D01*
%TO.N,COL3*%
X234000000Y-131000000D02*
X227000000Y-124000000D01*
%TO.N,COL1*%
X57000000Y-117500000D02*
X55500000Y-119000000D01*
%TO.N,COL3*%
X93500000Y-118500000D02*
X93000000Y-119000000D01*
%TO.N,COL5*%
X134000000Y-116000000D02*
X132000000Y-118000000D01*
%TO.N,COL1*%
X53500000Y-53000000D02*
X53500000Y-59500000D01*
%TO.N,COL4*%
X123500000Y-99000000D02*
X122500000Y-100000000D01*
%TO.N,SWCLK*%
X166837000Y-144373000D02*
X172210000Y-139000000D01*
%TO.N,COL5*%
X136000000Y-85500000D02*
X143000000Y-92500000D01*
%TO.N,COL0*%
X289000000Y-61000000D02*
X294000000Y-66000000D01*
%TO.N,COL5*%
X143000000Y-98500000D02*
X141500000Y-100000000D01*
X137000000Y-42000000D02*
X137000000Y-47500000D01*
%TO.N,COL15MAIN*%
X129991977Y-145244266D02*
X129991051Y-145243340D01*
%TO.N,COL5*%
X194000000Y-47000000D02*
X194000000Y-42000000D01*
%TO.N,COL4*%
X116500000Y-70500000D02*
X118500000Y-72500000D01*
X122500000Y-100000000D02*
X122500000Y-103000000D01*
%TO.N,COL5*%
X125258000Y-128865873D02*
X125258000Y-130000000D01*
%TO.N,COL4*%
X115500000Y-110000000D02*
X115500000Y-115500000D01*
X118500000Y-72500000D02*
X118500000Y-79000000D01*
%TO.N,COL5*%
X193000000Y-80500000D02*
X194000000Y-79500000D01*
%TO.N,COL4*%
X217500000Y-108500000D02*
X207500000Y-118500000D01*
%TO.N,Net-(U1-IO1)*%
X161500000Y-76750000D02*
X163250000Y-78500000D01*
%TO.N,COL0*%
X39000000Y-99000000D02*
X39000000Y-113500000D01*
%TO.N,Net-(U1-IO2)*%
X163500000Y-79500000D02*
X163500000Y-81500000D01*
%TO.N,COL2*%
X241500000Y-61000000D02*
X241500000Y-62161286D01*
%TO.N,COL3*%
X102000000Y-141750000D02*
X102000000Y-136250000D01*
%TO.N,COL0*%
X35500000Y-146250000D02*
X91000000Y-146250000D01*
%TO.N,COL5*%
X198500000Y-86000000D02*
X193000000Y-80500000D01*
%TO.N,ROW0B*%
X145500000Y-103750000D02*
X145500000Y-100750000D01*
%TO.N,COL4*%
X203000000Y-52000000D02*
X203000000Y-61500000D01*
D17*
%TO.N,GND*%
X171750000Y-86250000D02*
X171750000Y-87500000D01*
D18*
%TO.N,COL4*%
X203000000Y-61500000D02*
X203000000Y-63000000D01*
X110500000Y-52500000D02*
X110500000Y-59000000D01*
X213000000Y-42000000D02*
X203000000Y-52000000D01*
%TO.N,COL17MAIN*%
X277000000Y-96750000D02*
X277000000Y-89000000D01*
%TO.N,COL4*%
X122500000Y-103000000D02*
X115500000Y-110000000D01*
D17*
%TO.N,GND*%
X160000000Y-51750000D02*
X160000000Y-57500000D01*
D18*
%TO.N,COL4*%
X118500000Y-79000000D02*
X117000000Y-80500000D01*
X112000000Y-70500000D02*
X116500000Y-70500000D01*
X118000000Y-45000000D02*
X110500000Y-52500000D01*
%TO.N,COL5*%
X104500000Y-129750000D02*
X104500000Y-142750000D01*
%TO.N,COL15MAIN*%
X130000000Y-144732102D02*
X130000000Y-143500000D01*
%TO.N,COL4*%
X117000000Y-82500000D02*
X123500000Y-89000000D01*
X212500000Y-72500000D02*
X212500000Y-80500000D01*
%TO.N,COL6*%
X156000000Y-80000000D02*
X155000000Y-81000000D01*
%TO.N,Net-(U1-IO1)*%
X152000000Y-52250000D02*
X152000000Y-61000000D01*
%TO.N,COL4*%
X217500000Y-85500000D02*
X217500000Y-99500000D01*
D17*
%TO.N,GND*%
X169750000Y-71750000D02*
X169750000Y-77250000D01*
D18*
%TO.N,COL2*%
X72500000Y-145250000D02*
X91000000Y-145250000D01*
%TO.N,COL5*%
X178500000Y-146500000D02*
X189000000Y-136000000D01*
X184000000Y-57000000D02*
X194000000Y-47000000D01*
X117500000Y-121500000D02*
X120000000Y-121500000D01*
%TO.N,ROW1B*%
X136750000Y-113250000D02*
X140750000Y-109250000D01*
%TO.N,COL4*%
X108000000Y-66500000D02*
X112000000Y-70500000D01*
%TO.N,COL0*%
X296500000Y-82000000D02*
X296500000Y-99000000D01*
%TO.N,COL1*%
X120795000Y-127045000D02*
X122750000Y-129000000D01*
%TO.N,COL5*%
X184000000Y-63500000D02*
X184000000Y-61500000D01*
X134000000Y-111000000D02*
X134000000Y-116000000D01*
X198500000Y-100500000D02*
X198500000Y-86000000D01*
X129000000Y-59500000D02*
X126500000Y-62000000D01*
X108250000Y-146500000D02*
X178500000Y-146500000D01*
X141500000Y-103500000D02*
X134000000Y-111000000D01*
X132000000Y-120750000D02*
X132000000Y-118000000D01*
D17*
%TO.N,GND*%
X152691500Y-145691500D02*
X149691500Y-145691500D01*
D18*
%TO.N,COL5*%
X194000000Y-79500000D02*
X194000000Y-73500000D01*
%TO.N,COL2*%
X245000000Y-148000000D02*
X107500000Y-148000000D01*
%TO.N,COL5*%
X122750000Y-124250000D02*
X128500000Y-124250000D01*
%TO.N,COL3*%
X105000000Y-97500000D02*
X103000000Y-99500000D01*
%TO.N,COL6*%
X151000000Y-113000000D02*
X151000000Y-118000000D01*
%TO.N,COL5*%
X121446063Y-122946063D02*
X122750000Y-124250000D01*
%TO.N,Net-(U1-IO2)*%
X168000000Y-91250000D02*
X168000000Y-100000000D01*
%TO.N,COL3*%
X232000000Y-46500000D02*
X232000000Y-42000000D01*
%TO.N,ROW1B*%
X146000000Y-84500000D02*
X144500000Y-83000000D01*
D17*
%TO.N,GND*%
X176500000Y-143500000D02*
X176500000Y-140750000D01*
D18*
%TO.N,ROW3A*%
X126220928Y-145258954D02*
X126220928Y-143760403D01*
%TO.N,COL6*%
X180500000Y-99000000D02*
X180500000Y-92500000D01*
X167372000Y-125128000D02*
X169500000Y-123000000D01*
X154500000Y-73500000D02*
X156000000Y-75000000D01*
X175000000Y-80000000D02*
X175000000Y-73500000D01*
X171000000Y-69500000D02*
X165000000Y-63500000D01*
X167372000Y-132128000D02*
X167372000Y-125128000D01*
X155000000Y-81000000D02*
X155000000Y-86000000D01*
X169500000Y-119000000D02*
X169500000Y-110000000D01*
X174500000Y-86500000D02*
X174500000Y-80500000D01*
X146500000Y-61500000D02*
X146500000Y-67000000D01*
%TO.N,COL15MAIN*%
X267000000Y-65500000D02*
X267000000Y-52750000D01*
%TO.N,COL6*%
X174500000Y-46500000D02*
X167500000Y-53500000D01*
X146872000Y-125128000D02*
X167372000Y-125128000D01*
X160500000Y-91500000D02*
X160500000Y-100000000D01*
X146872000Y-125128000D02*
X151000000Y-121000000D01*
X127372000Y-125128000D02*
X146872000Y-125128000D01*
%TO.N,COL2*%
X84000000Y-103500000D02*
X78000000Y-109500000D01*
%TO.N,Net-(U1-IO2)*%
X161000000Y-70750000D02*
X161000000Y-72250000D01*
%TO.N,COL6*%
X146500000Y-67000000D02*
X153000000Y-73500000D01*
X169500000Y-110000000D02*
X179500000Y-100000000D01*
X167500000Y-53500000D02*
X167500000Y-59000000D01*
X179500000Y-100000000D02*
X180500000Y-99000000D01*
X146500000Y-49500000D02*
X146500000Y-61500000D01*
X174500000Y-80500000D02*
X175000000Y-80000000D01*
X155000000Y-86000000D02*
X160500000Y-91500000D01*
%TO.N,COL3*%
X97000000Y-134250000D02*
X97000000Y-132569599D01*
%TO.N,COL6*%
X126058003Y-130441997D02*
X126058003Y-126441997D01*
X169500000Y-123000000D02*
X169500000Y-119000000D01*
X174500000Y-41500000D02*
X174500000Y-46500000D01*
X160500000Y-103500000D02*
X151000000Y-113000000D01*
X126000000Y-130500000D02*
X126058003Y-130441997D01*
%TO.N,ROW0B*%
X143500000Y-71750000D02*
X146750000Y-68500000D01*
%TO.N,COL1*%
X122750000Y-129000000D02*
X122750000Y-130000000D01*
%TO.N,COL5*%
X126500000Y-62000000D02*
X126500000Y-65000000D01*
%TO.N,COL2*%
X70000000Y-137500000D02*
X70000000Y-142750000D01*
%TO.N,COL1*%
X101000000Y-137250000D02*
X100000000Y-136250000D01*
%TO.N,ROW3A*%
X95750000Y-117250000D02*
X96250000Y-116750000D01*
%TO.N,COL17MAIN*%
X279500000Y-104750000D02*
X279500000Y-99250000D01*
%TO.N,COL1*%
X60500000Y-73500000D02*
X60500000Y-80500000D01*
%TO.N,COL17MAIN*%
X128478412Y-145234536D02*
X128478412Y-143500059D01*
%TO.N,COL1*%
X60500000Y-46000000D02*
X53500000Y-53000000D01*
%TO.N,COL17MAIN*%
X286500000Y-111750000D02*
X279500000Y-104750000D01*
X274000000Y-148000000D02*
X280500000Y-141500000D01*
X279500000Y-99250000D02*
X277000000Y-96750000D01*
X275500000Y-75750000D02*
X272250000Y-72500000D01*
%TO.N,COL3*%
X102500000Y-90000000D02*
X105000000Y-92500000D01*
%TO.N,ROW1B*%
X146000000Y-104000000D02*
X146000000Y-99750000D01*
%TO.N,COL17MAIN*%
X274000000Y-148123000D02*
X274000000Y-148000000D01*
X272250000Y-72500000D02*
X272250000Y-69250000D01*
X280500000Y-128536936D02*
X286500000Y-122536936D01*
X268000000Y-54250000D02*
X271250000Y-51000000D01*
%TO.N,COL6*%
X151000000Y-45000000D02*
X146500000Y-49500000D01*
%TO.N,COL16MAIN*%
X129233950Y-143760084D02*
X129241051Y-143752983D01*
%TO.N,COL0*%
X298500000Y-131000000D02*
X298500000Y-137500000D01*
%TO.N,COL16MAIN*%
X129233950Y-145500000D02*
X129233950Y-143760084D01*
%TO.N,ROW1A*%
X101750000Y-78250000D02*
X101750000Y-67750000D01*
%TO.N,COL16MAIN*%
X286000000Y-122393468D02*
X286000000Y-111893468D01*
X279000000Y-104893468D02*
X279000000Y-99500000D01*
%TO.N,COL14MAIN*%
X270750000Y-70000000D02*
X266500000Y-65750000D01*
%TO.N,COL16MAIN*%
X271750000Y-72750000D02*
X271750000Y-69500000D01*
%TO.N,ROW3A*%
X93750000Y-124000000D02*
X93750000Y-119250000D01*
%TO.N,COL16MAIN*%
X280000000Y-141000000D02*
X280000000Y-128393468D01*
%TO.N,RESET*%
X134500000Y-129250000D02*
X127763996Y-135986004D01*
%TO.N,COL16MAIN*%
X275000000Y-76000000D02*
X271750000Y-72750000D01*
X276545000Y-97045000D02*
X276545000Y-89295000D01*
X276545000Y-89295000D02*
X275000000Y-87750000D01*
%TO.N,COL1*%
X98500000Y-136250000D02*
X98500000Y-132356533D01*
%TO.N,COL17MAIN*%
X268000000Y-65000000D02*
X268000000Y-54250000D01*
%TO.N,COL0*%
X296500000Y-99000000D02*
X296500000Y-129000000D01*
%TO.N,COL15MAIN*%
X279500000Y-128250000D02*
X285500000Y-122250000D01*
X271250000Y-73000000D02*
X271250000Y-69750000D01*
X274500000Y-88000000D02*
X274500000Y-76250000D01*
X273131000Y-146869000D02*
X279500000Y-140500000D01*
X278500000Y-105036936D02*
X278500000Y-99750000D01*
X273000000Y-146868000D02*
X273001000Y-146869000D01*
X285500000Y-112036936D02*
X278500000Y-105036936D01*
X274500000Y-76250000D02*
X271250000Y-73000000D01*
%TO.N,COL6*%
X175000000Y-73500000D02*
X171000000Y-69500000D01*
%TO.N,COL15MAIN*%
X273001000Y-146869000D02*
X273131000Y-146869000D01*
X278500000Y-99750000D02*
X276000000Y-97250000D01*
X276000000Y-97250000D02*
X276000000Y-89500000D01*
X279500000Y-140500000D02*
X279500000Y-128250000D01*
X267000000Y-52750000D02*
X270750000Y-49000000D01*
X271250000Y-69750000D02*
X267000000Y-65500000D01*
D17*
%TO.N,+5V*%
X148750000Y-139250000D02*
X146750000Y-137250000D01*
D18*
%TO.N,Net-(U1-IO1)*%
X166500000Y-84750000D02*
X168500000Y-86750000D01*
%TO.N,ROW1A*%
X104750000Y-100500000D02*
X106000000Y-99250000D01*
%TO.N,COL0*%
X294000000Y-79500000D02*
X296500000Y-82000000D01*
%TO.N,COL3*%
X234000000Y-137500000D02*
X234000000Y-131000000D01*
%TO.N,ROW0A*%
X126750000Y-113750000D02*
X126750000Y-105000000D01*
%TO.N,COL3*%
X105000000Y-92500000D02*
X105000000Y-97500000D01*
%TO.N,COL14MAIN*%
X275500000Y-97500000D02*
X275500000Y-89750000D01*
X266500000Y-52000000D02*
X270500000Y-48000000D01*
D17*
%TO.N,GND*%
X160000000Y-58500000D02*
X162250000Y-60750000D01*
D18*
%TO.N,COL14MAIN*%
X274000000Y-76500000D02*
X270750000Y-73250000D01*
X278000000Y-105180404D02*
X278000000Y-100000000D01*
%TO.N,COL16MAIN*%
X273500000Y-147496000D02*
X273504000Y-147496000D01*
%TO.N,COL1*%
X98500000Y-132356533D02*
X103811533Y-127045000D01*
%TO.N,+3.3V*%
X124127000Y-140127000D02*
X123983140Y-139983140D01*
%TO.N,COL14MAIN*%
X278000000Y-100000000D02*
X275500000Y-97500000D01*
%TO.N,ROW0B*%
X143500000Y-82750000D02*
X143500000Y-78000000D01*
%TO.N,COL14MAIN*%
X266500000Y-65750000D02*
X266500000Y-52000000D01*
%TO.N,COL17MAIN*%
X128478412Y-143500059D02*
X128483950Y-143494521D01*
%TO.N,COL14MAIN*%
X270750000Y-73250000D02*
X270750000Y-70000000D01*
%TO.N,ROW1A*%
X107250000Y-83750000D02*
X101750000Y-78250000D01*
%TO.N,COL14MAIN*%
X279000000Y-139741000D02*
X279000000Y-128000000D01*
X285000000Y-122000000D02*
X285000000Y-112180404D01*
%TO.N,ROW0A*%
X122000000Y-54500000D02*
X122000000Y-48500000D01*
%TO.N,ROW5B*%
X142500000Y-133500000D02*
X140750000Y-131750000D01*
%TO.N,COL14MAIN*%
X274000000Y-88250000D02*
X274000000Y-76500000D01*
%TO.N,ROW1A*%
X97250000Y-117250000D02*
X97250000Y-114250000D01*
X97250000Y-112750000D02*
X103250000Y-106750000D01*
D17*
%TO.N,GND*%
X172000000Y-105250000D02*
X164750000Y-112500000D01*
X174308500Y-145691500D02*
X176500000Y-143500000D01*
D18*
%TO.N,ROW0A*%
X127750000Y-117000000D02*
X126750000Y-116000000D01*
%TO.N,ROW0B*%
X166500000Y-67000000D02*
X164250000Y-64750000D01*
D17*
%TO.N,GND*%
X177000000Y-128750000D02*
X177000000Y-134210000D01*
X171750000Y-80000000D02*
X171750000Y-86250000D01*
D18*
X174750000Y-139000000D02*
X174750000Y-136460000D01*
D17*
X162250000Y-60750000D02*
X162250000Y-64250000D01*
D18*
%TO.N,COL5*%
X189000000Y-136000000D02*
X189000000Y-118500000D01*
X137000000Y-47500000D02*
X129000000Y-55500000D01*
%TO.N,COL0*%
X107000000Y-149000000D02*
X287000000Y-149000000D01*
D17*
%TO.N,GND*%
X174500000Y-90250000D02*
X174500000Y-95250000D01*
D18*
%TO.N,COL0*%
X122000000Y-129000000D02*
X120500000Y-127500000D01*
%TO.N,COL3*%
X95000000Y-71500000D02*
X98000000Y-71500000D01*
D17*
%TO.N,+3.3V*%
X182000000Y-144250000D02*
X182000000Y-146000000D01*
X117500000Y-135500000D02*
X117500000Y-139529000D01*
D18*
X129500000Y-129000000D02*
X130981500Y-129000000D01*
%TO.N,COL2*%
X97750000Y-135250000D02*
X97750000Y-132463066D01*
D17*
%TO.N,+3.3V*%
X117500000Y-139529000D02*
X117860500Y-139889500D01*
D18*
%TO.N,COL3*%
X102000000Y-136250000D02*
X100000000Y-134250000D01*
%TO.N,COL2*%
X78000000Y-109500000D02*
X78000000Y-115000000D01*
%TO.N,ROW4A*%
X126971329Y-145229341D02*
X126971329Y-144989196D01*
%TO.N,ROW0B*%
X145500000Y-87250000D02*
X145500000Y-84750000D01*
%TO.N,VCC*%
X158000000Y-42000000D02*
X156000000Y-42000000D01*
%TO.N,ROW1A*%
X104750000Y-105250000D02*
X104750000Y-101000000D01*
D17*
%TO.N,+5V*%
X152000000Y-126500000D02*
X152000000Y-126000000D01*
X146750000Y-137250000D02*
X146750000Y-131750000D01*
D18*
%TO.N,COL4*%
X203000000Y-63000000D02*
X212500000Y-72500000D01*
%TO.N,ROW0B*%
X152500000Y-68250000D02*
X152750000Y-68000000D01*
D17*
%TO.N,+5V*%
X148750000Y-140250000D02*
X148750000Y-139250000D01*
D18*
%TO.N,ROW2B*%
X159250000Y-89000000D02*
X160000000Y-88250000D01*
D17*
%TO.N,+5V*%
X152500000Y-119750000D02*
X152250000Y-119500000D01*
D18*
%TO.N,COL4*%
X177893467Y-147000000D02*
X108000000Y-147000000D01*
%TO.N,COL1*%
X277000000Y-137500000D02*
X277000000Y-123000000D01*
%TO.N,ROW0A*%
X122000000Y-48500000D02*
X120500000Y-47000000D01*
X125750000Y-62500000D02*
X123250000Y-60000000D01*
X123250000Y-60000000D02*
X122000000Y-58750000D01*
X126750000Y-105000000D02*
X125750000Y-104000000D01*
X127750000Y-123000000D02*
X127750000Y-117000000D01*
X126750000Y-116000000D02*
X126750000Y-113750000D01*
%TO.N,COL2*%
X241500000Y-62161286D02*
X250500000Y-71161286D01*
%TO.N,COL17MAIN*%
X128479051Y-145235175D02*
X128478412Y-145234536D01*
%TO.N,ROW0B*%
X143500000Y-72500000D02*
X143500000Y-71750000D01*
X164250000Y-60750000D02*
X165750000Y-59250000D01*
X145500000Y-100750000D02*
X145500000Y-87250000D01*
X127375000Y-129125000D02*
X127375000Y-129736873D01*
X137750000Y-111500000D02*
X145500000Y-103750000D01*
%TO.N,ROW1A*%
X104750000Y-101000000D02*
X104750000Y-100500000D01*
%TO.N,ROW0B*%
X165750000Y-59250000D02*
X165750000Y-47500000D01*
X135750000Y-113500000D02*
X137750000Y-111500000D01*
%TO.N,COL5*%
X128500000Y-124250000D02*
X132000000Y-120750000D01*
%TO.N,COL0*%
X99250000Y-138430402D02*
X99250000Y-141250000D01*
%TO.N,ROW2A*%
X105750000Y-94000000D02*
X105750000Y-87500000D01*
%TO.N,COL4*%
X114250000Y-125500000D02*
X121180401Y-125500000D01*
%TO.N,COL2*%
X83000000Y-89000000D02*
X85500000Y-91500000D01*
%TO.N,SWCLK*%
X164741051Y-144373000D02*
X166837000Y-144373000D01*
%TO.N,COL5*%
X129000000Y-55500000D02*
X129000000Y-59500000D01*
%TO.N,ROW1A*%
X97250000Y-114250000D02*
X97250000Y-112750000D01*
X106250000Y-99000000D02*
X106250000Y-95500000D01*
X96500000Y-118000000D02*
X97250000Y-117250000D01*
X103250000Y-106750000D02*
X104750000Y-105250000D01*
X106000000Y-99250000D02*
X106250000Y-99000000D01*
X106250000Y-95500000D02*
X106250000Y-88000000D01*
X95500000Y-119000000D02*
X96500000Y-118000000D01*
X95500000Y-124500000D02*
X95500000Y-119000000D01*
X106250000Y-88000000D02*
X107000000Y-87250000D01*
%TO.N,COL6*%
X165000000Y-63500000D02*
X165000000Y-61500000D01*
%TO.N,ROW1A*%
X107250000Y-87000000D02*
X107250000Y-83750000D01*
%TO.N,COL16MAIN*%
X280000000Y-128393468D02*
X286000000Y-122393468D01*
%TO.N,ROW0A*%
X127250000Y-123500000D02*
X127750000Y-123000000D01*
%TO.N,ROW1B*%
X153250000Y-69250000D02*
X150000000Y-69250000D01*
X144000000Y-72500000D02*
X147250000Y-69250000D01*
X136750000Y-124250000D02*
X136750000Y-113250000D01*
%TO.N,ROW0B*%
X152750000Y-68000000D02*
X156500000Y-68000000D01*
%TO.N,ROW2A*%
X105750000Y-87500000D02*
X106500000Y-86750000D01*
X94750000Y-124000000D02*
X94750000Y-119000000D01*
X105750000Y-98750000D02*
X105750000Y-94000000D01*
X94750000Y-119000000D02*
X96250000Y-117500000D01*
X96750000Y-112500000D02*
X104250000Y-105000000D01*
X104250000Y-105000000D02*
X104250000Y-100250000D01*
%TO.N,COL17MAIN*%
X272250000Y-69250000D02*
X268000000Y-65000000D01*
%TO.N,COL6*%
X162500000Y-137000000D02*
X167372000Y-132128000D01*
%TO.N,COL3*%
X236500000Y-99500000D02*
X236500000Y-85000000D01*
%TO.N,Net-(U1-IO1)*%
X152000000Y-61000000D02*
X155000000Y-64000000D01*
%TO.N,COL1*%
X282000000Y-118000000D02*
X282000000Y-112000000D01*
%TO.N,COL5*%
X141500000Y-100000000D02*
X141500000Y-103500000D01*
%TO.N,ROW3A*%
X96250000Y-112500000D02*
X96250000Y-111500000D01*
X126218506Y-145261376D02*
X126220928Y-145258954D01*
X96250000Y-111500000D02*
X103500000Y-104250000D01*
X126218506Y-145500000D02*
X126218506Y-145261376D01*
%TO.N,ROW3B*%
X163500000Y-108000000D02*
X165750000Y-108000000D01*
X166750000Y-108000000D02*
X169000000Y-105750000D01*
X161750000Y-109750000D02*
X163500000Y-108000000D01*
X150002983Y-125991051D02*
X149994034Y-126000000D01*
X159250000Y-123000000D02*
X159250000Y-112250000D01*
X159250000Y-112250000D02*
X161750000Y-109750000D01*
X165750000Y-108000000D02*
X166750000Y-108000000D01*
X145255966Y-126000000D02*
X145247017Y-125991051D01*
%TO.N,ROW4A*%
X126974156Y-144986369D02*
X126974156Y-143490864D01*
D17*
%TO.N,GND*%
X173500000Y-125250000D02*
X177000000Y-128750000D01*
X135941500Y-145691500D02*
X135750000Y-145500000D01*
X176000000Y-98250000D02*
X176000000Y-101250000D01*
X171750000Y-87500000D02*
X174250000Y-90000000D01*
X174500000Y-96750000D02*
X176000000Y-98250000D01*
X166750000Y-123000000D02*
X167250000Y-123500000D01*
X149691500Y-145691500D02*
X135941500Y-145691500D01*
X164750000Y-112500000D02*
X164750000Y-114250000D01*
X176000000Y-101250000D02*
X172000000Y-105250000D01*
X166750000Y-117750000D02*
X166750000Y-123000000D01*
X169750000Y-78000000D02*
X171250000Y-79500000D01*
X177000000Y-134210000D02*
X174750000Y-136460000D01*
X155750000Y-36250000D02*
X161100000Y-36250000D01*
X174500000Y-95250000D02*
X174500000Y-96750000D01*
X162250000Y-64250000D02*
X169750000Y-71750000D01*
%TD*%
M02*
