%TF.GenerationSoftware,KiCad,Pcbnew,9.0.6*%
%TF.CreationDate,2026-04-07T13:25:13-04:00*%
%TF.ProjectId,new-keyboard-pcb,6e65772d-6b65-4796-926f-6172642d7063,rev?*%
%TF.SameCoordinates,Original*%
%TF.FileFunction,Copper,L2,Bot*%
%TF.FilePolarity,Positive*%
%FSLAX46Y46*%
G04 Gerber Fmt 4.6, Leading zero omitted, Abs format (unit mm)*
G04 Created by KiCad (PCBNEW 9.0.6) date 2026-04-07 13:25:13*
%MOMM*%
%LPD*%
G01*
G04 APERTURE LIST*
G04 Aperture macros list*
%AMRoundRect*
0 Rectangle with rounded corners*
0 $1 Rounding radius*
0 $2 $3 $4 $5 $6 $7 $8 $9 X,Y pos of 4 corners*
0 Add a 4 corners polygon primitive as box body*
4,1,4,$2,$3,$4,$5,$6,$7,$8,$9,$2,$3,0*
0 Add four circle primitives for the rounded corners*
1,1,$1+$1,$2,$3*
1,1,$1+$1,$4,$5*
1,1,$1+$1,$6,$7*
1,1,$1+$1,$8,$9*
0 Add four rect primitives between the rounded corners*
20,1,$1+$1,$2,$3,$4,$5,0*
20,1,$1+$1,$4,$5,$6,$7,0*
20,1,$1+$1,$6,$7,$8,$9,0*
20,1,$1+$1,$8,$9,$2,$3,0*%
G04 Aperture macros list end*
%TA.AperFunction,ComponentPad*%
%ADD10R,1.500000X1.500000*%
%TD*%
%TA.AperFunction,ComponentPad*%
%ADD11C,1.500000*%
%TD*%
%TA.AperFunction,SMDPad,CuDef*%
%ADD12RoundRect,0.250000X0.450000X-0.325000X0.450000X0.325000X-0.450000X0.325000X-0.450000X-0.325000X0*%
%TD*%
%TA.AperFunction,SMDPad,CuDef*%
%ADD13RoundRect,0.250000X-0.325000X-0.450000X0.325000X-0.450000X0.325000X0.450000X-0.325000X0.450000X0*%
%TD*%
%TA.AperFunction,SMDPad,CuDef*%
%ADD14RoundRect,0.200000X-1.100000X-1.100000X1.100000X-1.100000X1.100000X1.100000X-1.100000X1.100000X0*%
%TD*%
%TA.AperFunction,SMDPad,CuDef*%
%ADD15RoundRect,0.200000X-1.100000X1.100000X-1.100000X-1.100000X1.100000X-1.100000X1.100000X1.100000X0*%
%TD*%
%TA.AperFunction,ViaPad*%
%ADD16C,0.600000*%
%TD*%
%TA.AperFunction,Conductor*%
%ADD17C,0.254000*%
%TD*%
G04 APERTURE END LIST*
D10*
%TO.P,J3,1,Pin_1*%
%TO.N,ROW1C*%
X306743750Y-117340000D03*
D11*
%TO.P,J3,2,Pin_2*%
%TO.N,ROW2C*%
X306743750Y-119880000D03*
%TO.P,J3,3,Pin_3*%
%TO.N,ROW3C*%
X306743750Y-122420000D03*
%TO.P,J3,4,Pin_4*%
%TO.N,ROW4C*%
X306743750Y-124960000D03*
%TO.P,J3,5,Pin_5*%
%TO.N,ROW5C*%
X306743750Y-127500000D03*
%TD*%
D10*
%TO.P,J5,1,Pin_1*%
%TO.N,ROW0C*%
X306743750Y-44750000D03*
D11*
%TO.P,J5,2,Pin_2*%
%TO.N,COL14*%
X306743750Y-47290000D03*
%TO.P,J5,3,Pin_3*%
%TO.N,COL15*%
X306743750Y-49830000D03*
%TO.P,J5,4,Pin_4*%
%TO.N,COL16*%
X306743750Y-52370000D03*
%TO.P,J5,5,Pin_5*%
%TO.N,COL17*%
X306743750Y-54910000D03*
%TD*%
D12*
%TO.P,D69,1,K*%
%TO.N,ROW3C*%
X328706250Y-100025000D03*
%TO.P,D69,2,A*%
%TO.N,Net-(D69-A)*%
X328706250Y-97975000D03*
%TD*%
%TO.P,D18,1,K*%
%TO.N,ROW0C*%
X366993750Y-43025000D03*
%TO.P,D18,2,A*%
%TO.N,Net-(D18-A)*%
X366993750Y-40975000D03*
%TD*%
%TO.P,D98,1,K*%
%TO.N,ROW5C*%
X347793750Y-138025000D03*
%TO.P,D98,2,A*%
%TO.N,Net-(D98-A)*%
X347793750Y-135975000D03*
%TD*%
D13*
%TO.P,D71,1,K*%
%TO.N,ROW3C*%
X371918750Y-102500000D03*
%TO.P,D71,2,A*%
%TO.N,Net-(D71-A)*%
X373968750Y-102500000D03*
%TD*%
D12*
%TO.P,D96,1,K*%
%TO.N,ROW5C*%
X309618750Y-138000000D03*
%TO.P,D96,2,A*%
%TO.N,Net-(D96-A)*%
X309618750Y-135950000D03*
%TD*%
%TO.P,D16,1,K*%
%TO.N,ROW0C*%
X328743750Y-43025000D03*
%TO.P,D16,2,A*%
%TO.N,Net-(D16-A)*%
X328743750Y-40975000D03*
%TD*%
%TO.P,D35,1,K*%
%TO.N,ROW1C*%
X347843750Y-62025000D03*
%TO.P,D35,2,A*%
%TO.N,Net-(D35-A)*%
X347843750Y-59975000D03*
%TD*%
%TO.P,D50,1,K*%
%TO.N,ROW2C*%
X311993750Y-81025000D03*
%TO.P,D50,2,A*%
%TO.N,Net-(D50-A)*%
X311993750Y-78975000D03*
%TD*%
D14*
%TO.P,SW97,1,1*%
%TO.N,COL15*%
X343668750Y-133550000D03*
%TO.P,SW97,2,2*%
%TO.N,Net-(D97-A)*%
X331518750Y-131350000D03*
%TD*%
D12*
%TO.P,D97,1,K*%
%TO.N,ROW5C*%
X328668750Y-138050000D03*
%TO.P,D97,2,A*%
%TO.N,Net-(D97-A)*%
X328668750Y-136000000D03*
%TD*%
D13*
%TO.P,D53,1,K*%
%TO.N,ROW2C*%
X372293750Y-64100000D03*
%TO.P,D53,2,A*%
%TO.N,Net-(D53-A)*%
X374343750Y-64100000D03*
%TD*%
D14*
%TO.P,SW51,1,1*%
%TO.N,COL15*%
X343718750Y-76400000D03*
%TO.P,SW51,2,2*%
%TO.N,Net-(D51-A)*%
X331568750Y-74200000D03*
%TD*%
D12*
%TO.P,D99,1,K*%
%TO.N,ROW5C*%
X366893750Y-138000000D03*
%TO.P,D99,2,A*%
%TO.N,Net-(D99-A)*%
X366893750Y-135950000D03*
%TD*%
D15*
%TO.P,SW71,1,1*%
%TO.N,COL17*%
X377043750Y-117350000D03*
%TO.P,SW71,2,2*%
%TO.N,Net-(D71-A)*%
X379243750Y-105200000D03*
%TD*%
D14*
%TO.P,SW68,1,1*%
%TO.N,COL14*%
X324668750Y-95450000D03*
%TO.P,SW68,2,2*%
%TO.N,Net-(D68-A)*%
X312518750Y-93250000D03*
%TD*%
D15*
%TO.P,SW53,1,1*%
%TO.N,COL17*%
X377043750Y-79250000D03*
%TO.P,SW53,2,2*%
%TO.N,Net-(D53-A)*%
X379243750Y-67100000D03*
%TD*%
D12*
%TO.P,D33,1,K*%
%TO.N,ROW1C*%
X310993750Y-62000000D03*
%TO.P,D33,2,A*%
%TO.N,Net-(D33-A)*%
X310993750Y-59950000D03*
%TD*%
%TO.P,D34,1,K*%
%TO.N,ROW1C*%
X328743750Y-62025000D03*
%TO.P,D34,2,A*%
%TO.N,Net-(D34-A)*%
X328743750Y-59975000D03*
%TD*%
D14*
%TO.P,SW17,1,1*%
%TO.N,COL16*%
X362768750Y-38300000D03*
%TO.P,SW17,2,2*%
%TO.N,Net-(D17-A)*%
X350618750Y-36100000D03*
%TD*%
%TO.P,SW98,1,1*%
%TO.N,COL16*%
X362718750Y-133550000D03*
%TO.P,SW98,2,2*%
%TO.N,Net-(D98-A)*%
X350568750Y-131350000D03*
%TD*%
%TO.P,SW86,1,1*%
%TO.N,COL16*%
X362756250Y-114500000D03*
%TO.P,SW86,2,2*%
%TO.N,Net-(D86-A)*%
X350606250Y-112300000D03*
%TD*%
%TO.P,SW52,1,1*%
%TO.N,COL16*%
X362768750Y-76400000D03*
%TO.P,SW52,2,2*%
%TO.N,Net-(D52-A)*%
X350618750Y-74200000D03*
%TD*%
%TO.P,SW70,1,1*%
%TO.N,COL16*%
X362768750Y-95450000D03*
%TO.P,SW70,2,2*%
%TO.N,Net-(D70-A)*%
X350618750Y-93250000D03*
%TD*%
D12*
%TO.P,D70,1,K*%
%TO.N,ROW3C*%
X347843750Y-100050000D03*
%TO.P,D70,2,A*%
%TO.N,Net-(D70-A)*%
X347843750Y-98000000D03*
%TD*%
D14*
%TO.P,SW15,1,1*%
%TO.N,COL14*%
X324656250Y-38300000D03*
%TO.P,SW15,2,2*%
%TO.N,Net-(D15-A)*%
X312506250Y-36100000D03*
%TD*%
D12*
%TO.P,D68,1,K*%
%TO.N,ROW3C*%
X309618750Y-100025000D03*
%TO.P,D68,2,A*%
%TO.N,Net-(D68-A)*%
X309618750Y-97975000D03*
%TD*%
%TO.P,D86,1,K*%
%TO.N,ROW4C*%
X347806250Y-119050000D03*
%TO.P,D86,2,A*%
%TO.N,Net-(D86-A)*%
X347806250Y-117000000D03*
%TD*%
D14*
%TO.P,SW50,1,1*%
%TO.N,COL14*%
X324668750Y-76400000D03*
%TO.P,SW50,2,2*%
%TO.N,Net-(D50-A)*%
X312518750Y-74200000D03*
%TD*%
%TO.P,SW33,1,1*%
%TO.N,COL14*%
X324668750Y-57350000D03*
%TO.P,SW33,2,2*%
%TO.N,Net-(D33-A)*%
X312518750Y-55150000D03*
%TD*%
D12*
%TO.P,D85,1,K*%
%TO.N,ROW4C*%
X319168750Y-119025000D03*
%TO.P,D85,2,A*%
%TO.N,Net-(D85-A)*%
X319168750Y-116975000D03*
%TD*%
%TO.P,D17,1,K*%
%TO.N,ROW0C*%
X347843750Y-43025000D03*
%TO.P,D17,2,A*%
%TO.N,Net-(D17-A)*%
X347843750Y-40975000D03*
%TD*%
D14*
%TO.P,SW96,1,1*%
%TO.N,COL14*%
X324668750Y-133550000D03*
%TO.P,SW96,2,2*%
%TO.N,Net-(D96-A)*%
X312518750Y-131350000D03*
%TD*%
%TO.P,SW16,1,1*%
%TO.N,COL15*%
X343718750Y-38300000D03*
%TO.P,SW16,2,2*%
%TO.N,Net-(D16-A)*%
X331568750Y-36100000D03*
%TD*%
%TO.P,SW18,1,1*%
%TO.N,COL17*%
X381843750Y-38300000D03*
%TO.P,SW18,2,2*%
%TO.N,Net-(D18-A)*%
X369693750Y-36100000D03*
%TD*%
D12*
%TO.P,D52,1,K*%
%TO.N,ROW2C*%
X347843750Y-81025000D03*
%TO.P,D52,2,A*%
%TO.N,Net-(D52-A)*%
X347843750Y-78975000D03*
%TD*%
%TO.P,D15,1,K*%
%TO.N,ROW0C*%
X310993750Y-43025000D03*
%TO.P,D15,2,A*%
%TO.N,Net-(D15-A)*%
X310993750Y-40975000D03*
%TD*%
D14*
%TO.P,SW35,1,1*%
%TO.N,COL16*%
X362768750Y-57350000D03*
%TO.P,SW35,2,2*%
%TO.N,Net-(D35-A)*%
X350618750Y-55150000D03*
%TD*%
%TO.P,SW99,1,1*%
%TO.N,COL17*%
X381768750Y-133550000D03*
%TO.P,SW99,2,2*%
%TO.N,Net-(D99-A)*%
X369618750Y-131350000D03*
%TD*%
D12*
%TO.P,D51,1,K*%
%TO.N,ROW2C*%
X328743750Y-81025000D03*
%TO.P,D51,2,A*%
%TO.N,Net-(D51-A)*%
X328743750Y-78975000D03*
%TD*%
D14*
%TO.P,SW34,1,1*%
%TO.N,COL15*%
X343718750Y-57350000D03*
%TO.P,SW34,2,2*%
%TO.N,Net-(D34-A)*%
X331568750Y-55150000D03*
%TD*%
%TO.P,SW69,1,1*%
%TO.N,COL15*%
X343706250Y-95450000D03*
%TO.P,SW69,2,2*%
%TO.N,Net-(D69-A)*%
X331556250Y-93250000D03*
%TD*%
%TO.P,SW85,1,1*%
%TO.N,COL14*%
X334181250Y-114500000D03*
%TO.P,SW85,2,2*%
%TO.N,Net-(D85-A)*%
X322031250Y-112300000D03*
%TD*%
D16*
%TO.N,COL14*%
X323493750Y-80500000D03*
X323743750Y-137500000D03*
X323493750Y-61000000D03*
X333243750Y-118250000D03*
X323500000Y-42000000D03*
X323493750Y-99250000D03*
%TO.N,COL15*%
X342493750Y-79750000D03*
X341243750Y-50500000D03*
X342493750Y-99500000D03*
X342493750Y-61500000D03*
X342743750Y-137250000D03*
X342743750Y-41750000D03*
X320243750Y-50500000D03*
%TO.N,COL16*%
X361993750Y-80250000D03*
X319243750Y-51500000D03*
X361743750Y-99000000D03*
X360243750Y-51500000D03*
X361743750Y-41750000D03*
X361743750Y-61000000D03*
X361743750Y-137500000D03*
X361993750Y-118250000D03*
%TO.N,COL17*%
X380493750Y-42000000D03*
X380493750Y-138000000D03*
X380493750Y-52250000D03*
X376243750Y-83000000D03*
X318493750Y-52250000D03*
X375743750Y-120750000D03*
%TD*%
D17*
%TO.N,Net-(D15-A)*%
X310993750Y-40975000D02*
X310993750Y-37612500D01*
X310993750Y-37612500D02*
X312506250Y-36100000D01*
%TO.N,Net-(D16-A)*%
X328743750Y-40975000D02*
X328743750Y-38800000D01*
X331443750Y-36100000D02*
X331568750Y-36100000D01*
X328743750Y-38800000D02*
X331443750Y-36100000D01*
%TO.N,Net-(D17-A)*%
X350543750Y-36100000D02*
X350618750Y-36100000D01*
X347843750Y-38800000D02*
X350543750Y-36100000D01*
X347843750Y-40975000D02*
X347843750Y-38800000D01*
%TO.N,Net-(D18-A)*%
X366993750Y-38800000D02*
X369693750Y-36100000D01*
X366993750Y-40975000D02*
X366993750Y-38800000D01*
%TO.N,Net-(D33-A)*%
X310993750Y-56675000D02*
X312518750Y-55150000D01*
X310993750Y-59950000D02*
X310993750Y-56675000D01*
%TO.N,Net-(D34-A)*%
X328743750Y-59975000D02*
X328743750Y-57800000D01*
X331393750Y-55150000D02*
X331568750Y-55150000D01*
X328743750Y-57800000D02*
X331393750Y-55150000D01*
%TO.N,Net-(D35-A)*%
X350493750Y-55150000D02*
X350618750Y-55150000D01*
X347843750Y-59975000D02*
X347843750Y-57800000D01*
X347843750Y-57800000D02*
X350493750Y-55150000D01*
%TO.N,Net-(D50-A)*%
X311993750Y-74725000D02*
X312518750Y-74200000D01*
X311993750Y-78975000D02*
X311993750Y-74725000D01*
%TO.N,Net-(D51-A)*%
X328743750Y-76800000D02*
X331343750Y-74200000D01*
X331343750Y-74200000D02*
X331568750Y-74200000D01*
X328743750Y-78975000D02*
X328743750Y-76800000D01*
%TO.N,Net-(D52-A)*%
X347843750Y-76300000D02*
X349943750Y-74200000D01*
X347843750Y-78975000D02*
X347843750Y-76300000D01*
X349943750Y-74200000D02*
X350618750Y-74200000D01*
%TO.N,Net-(D53-A)*%
X374343750Y-64100000D02*
X376343750Y-64100000D01*
X379243750Y-67000000D02*
X379243750Y-67100000D01*
X376343750Y-64100000D02*
X379243750Y-67000000D01*
%TO.N,Net-(D68-A)*%
X312168750Y-93250000D02*
X312518750Y-93250000D01*
X309618750Y-97975000D02*
X309618750Y-95800000D01*
X309618750Y-95800000D02*
X312168750Y-93250000D01*
%TO.N,Net-(D69-A)*%
X328706250Y-97975000D02*
X328706250Y-95800000D01*
X331256250Y-93250000D02*
X331556250Y-93250000D01*
X328706250Y-95800000D02*
X331256250Y-93250000D01*
%TO.N,Net-(D70-A)*%
X350393750Y-93250000D02*
X350618750Y-93250000D01*
X347843750Y-95800000D02*
X350393750Y-93250000D01*
X347843750Y-98000000D02*
X347843750Y-95800000D01*
%TO.N,Net-(D71-A)*%
X379243750Y-105000000D02*
X379243750Y-105200000D01*
X373968750Y-102500000D02*
X376743750Y-102500000D01*
X376743750Y-102500000D02*
X379243750Y-105000000D01*
%TO.N,Net-(D85-A)*%
X319168750Y-116975000D02*
X319168750Y-114800000D01*
X321668750Y-112300000D02*
X322031250Y-112300000D01*
X319168750Y-114800000D02*
X321668750Y-112300000D01*
%TO.N,Net-(D86-A)*%
X350306250Y-112300000D02*
X350606250Y-112300000D01*
X347806250Y-117000000D02*
X347806250Y-114800000D01*
X347806250Y-114800000D02*
X350306250Y-112300000D01*
%TO.N,Net-(D96-A)*%
X309618750Y-135950000D02*
X309618750Y-133800000D01*
X312068750Y-131350000D02*
X312518750Y-131350000D01*
X309618750Y-133800000D02*
X312068750Y-131350000D01*
%TO.N,Net-(D97-A)*%
X328668750Y-136000000D02*
X328668750Y-133800000D01*
X328668750Y-133800000D02*
X331118750Y-131350000D01*
X331118750Y-131350000D02*
X331518750Y-131350000D01*
%TO.N,Net-(D98-A)*%
X347793750Y-133800000D02*
X350243750Y-131350000D01*
X350243750Y-131350000D02*
X350568750Y-131350000D01*
X347793750Y-135975000D02*
X347793750Y-133800000D01*
%TO.N,Net-(D99-A)*%
X366893750Y-133800000D02*
X369343750Y-131350000D01*
X366893750Y-135950000D02*
X366893750Y-133800000D01*
X369343750Y-131350000D02*
X369618750Y-131350000D01*
%TO.N,COL14*%
X324668750Y-79325000D02*
X323493750Y-80500000D01*
X324656250Y-40587500D02*
X323500000Y-41743750D01*
X324656250Y-38300000D02*
X324656250Y-40587500D01*
X323500000Y-41743750D02*
X323500000Y-42000000D01*
X324668750Y-57350000D02*
X324668750Y-59825000D01*
X324668750Y-133550000D02*
X324668750Y-136575000D01*
X324668750Y-76400000D02*
X324668750Y-79325000D01*
X334181250Y-114500000D02*
X334181250Y-117312500D01*
X324668750Y-59825000D02*
X323493750Y-61000000D01*
X324668750Y-136575000D02*
X323743750Y-137500000D01*
X324668750Y-98075000D02*
X323493750Y-99250000D01*
X324668750Y-95450000D02*
X324668750Y-98075000D01*
X334181250Y-117312500D02*
X333243750Y-118250000D01*
%TO.N,COL15*%
X343718750Y-76400000D02*
X343718750Y-78525000D01*
X321000000Y-50500000D02*
X324000000Y-47500000D01*
X343668750Y-133550000D02*
X343668750Y-136325000D01*
X343668750Y-136325000D02*
X342743750Y-137250000D01*
X343718750Y-40775000D02*
X342743750Y-41750000D01*
X343718750Y-60275000D02*
X342493750Y-61500000D01*
X343718750Y-57350000D02*
X343718750Y-60275000D01*
X343718750Y-38300000D02*
X343718750Y-40775000D01*
X331000000Y-50500000D02*
X341243750Y-50500000D01*
X343706250Y-98287500D02*
X342493750Y-99500000D01*
X343718750Y-78525000D02*
X342493750Y-79750000D01*
X320243750Y-50500000D02*
X321000000Y-50500000D01*
X324000000Y-47500000D02*
X328000000Y-47500000D01*
X343706250Y-95450000D02*
X343706250Y-98287500D01*
X328000000Y-47500000D02*
X331000000Y-50500000D01*
%TO.N,COL16*%
X362768750Y-38300000D02*
X362768750Y-40725000D01*
X331000000Y-51500000D02*
X360243750Y-51500000D01*
X362768750Y-59975000D02*
X361743750Y-61000000D01*
X362768750Y-40725000D02*
X361743750Y-41750000D01*
X362768750Y-95450000D02*
X362768750Y-97975000D01*
X319243750Y-51500000D02*
X321000000Y-51500000D01*
X362768750Y-79475000D02*
X361993750Y-80250000D01*
X362756250Y-114500000D02*
X362756250Y-117487500D01*
X362768750Y-97975000D02*
X361743750Y-99000000D01*
X362768750Y-57350000D02*
X362768750Y-59975000D01*
X362756250Y-117487500D02*
X361993750Y-118250000D01*
X362718750Y-133550000D02*
X362718750Y-136525000D01*
X362768750Y-76400000D02*
X362768750Y-79475000D01*
X321000000Y-51500000D02*
X324500000Y-48000000D01*
X324500000Y-48000000D02*
X327500000Y-48000000D01*
X362718750Y-136525000D02*
X361743750Y-137500000D01*
X327500000Y-48000000D02*
X331000000Y-51500000D01*
%TO.N,COL17*%
X321250000Y-52250000D02*
X325000000Y-48500000D01*
X325000000Y-48500000D02*
X327250000Y-48500000D01*
X377043750Y-79250000D02*
X377043750Y-82200000D01*
X327250000Y-48500000D02*
X331000000Y-52250000D01*
X381843750Y-40650000D02*
X380493750Y-42000000D01*
X375743750Y-57000000D02*
X380493750Y-52250000D01*
X331000000Y-52250000D02*
X365000000Y-52250000D01*
X381843750Y-38300000D02*
X381843750Y-40650000D01*
X377043750Y-117350000D02*
X377043750Y-119450000D01*
X365000000Y-52250000D02*
X369750000Y-57000000D01*
X381768750Y-136725000D02*
X380493750Y-138000000D01*
X377043750Y-82200000D02*
X376243750Y-83000000D01*
X381768750Y-133550000D02*
X381768750Y-136725000D01*
X369750000Y-57000000D02*
X375743750Y-57000000D01*
X377043750Y-119450000D02*
X375743750Y-120750000D01*
X318493750Y-52250000D02*
X321250000Y-52250000D01*
%TO.N,ROW0C*%
X306743750Y-44750000D02*
X309268750Y-44750000D01*
X345118750Y-45750000D02*
X347843750Y-43025000D01*
X331468750Y-45750000D02*
X345118750Y-45750000D01*
X313718750Y-45750000D02*
X326018750Y-45750000D01*
X347843750Y-43025000D02*
X350568750Y-45750000D01*
X310993750Y-43025000D02*
X313718750Y-45750000D01*
X364268750Y-45750000D02*
X366993750Y-43025000D01*
X350568750Y-45750000D02*
X364268750Y-45750000D01*
X326018750Y-45750000D02*
X328743750Y-43025000D01*
X328743750Y-43025000D02*
X331468750Y-45750000D01*
X309268750Y-44750000D02*
X310993750Y-43025000D01*
%TO.N,ROW1C*%
X310993750Y-62000000D02*
X313743750Y-64750000D01*
X328743750Y-62025000D02*
X331468750Y-64750000D01*
X313743750Y-64750000D02*
X326018750Y-64750000D01*
X306743750Y-66250000D02*
X306743750Y-117340000D01*
X345118750Y-64750000D02*
X347843750Y-62025000D01*
X326018750Y-64750000D02*
X328743750Y-62025000D01*
X310993750Y-62000000D02*
X306743750Y-66250000D01*
X331468750Y-64750000D02*
X345118750Y-64750000D01*
%TO.N,ROW2C*%
X331468750Y-83750000D02*
X345118750Y-83750000D01*
X347843750Y-81025000D02*
X350568750Y-83750000D01*
X369743750Y-76750000D02*
X369743750Y-66650000D01*
X314718750Y-83750000D02*
X326018750Y-83750000D01*
X345118750Y-83750000D02*
X347843750Y-81025000D01*
X350568750Y-83750000D02*
X362743750Y-83750000D01*
X308243750Y-118380000D02*
X308243750Y-90398786D01*
X362743750Y-83750000D02*
X369743750Y-76750000D01*
X314718750Y-83923786D02*
X314718750Y-83750000D01*
X306743750Y-119880000D02*
X308243750Y-118380000D01*
X326018750Y-83750000D02*
X328743750Y-81025000D01*
X328743750Y-81025000D02*
X331468750Y-83750000D01*
X311993750Y-81025000D02*
X314718750Y-83750000D01*
X369743750Y-66650000D02*
X372293750Y-64100000D01*
X308243750Y-90398786D02*
X314718750Y-83923786D01*
%TO.N,ROW3C*%
X363993750Y-101750000D02*
X371168750Y-101750000D01*
X312471750Y-102878000D02*
X312343750Y-102750000D01*
X350543750Y-102750000D02*
X362993750Y-102750000D01*
X347843750Y-100050000D02*
X350543750Y-102750000D01*
X312471750Y-116692000D02*
X312471750Y-102878000D01*
X325981250Y-102750000D02*
X328706250Y-100025000D01*
X306743750Y-122420000D02*
X312471750Y-116692000D01*
X309618750Y-100025000D02*
X312343750Y-102750000D01*
X371168750Y-101750000D02*
X371918750Y-102500000D01*
X345143750Y-102750000D02*
X347843750Y-100050000D01*
X362993750Y-102750000D02*
X363993750Y-101750000D01*
X312343750Y-102750000D02*
X325981250Y-102750000D01*
X331431250Y-102750000D02*
X345143750Y-102750000D01*
X328706250Y-100025000D02*
X331431250Y-102750000D01*
%TO.N,ROW4C*%
X314500000Y-126500000D02*
X319168750Y-121831250D01*
X321893750Y-121750000D02*
X345106250Y-121750000D01*
X308283750Y-126500000D02*
X314500000Y-126500000D01*
X319168750Y-121831250D02*
X319168750Y-119025000D01*
X345106250Y-121750000D02*
X347806250Y-119050000D01*
X306743750Y-124960000D02*
X308283750Y-126500000D01*
X319168750Y-119025000D02*
X321893750Y-121750000D01*
%TO.N,ROW5C*%
X344818750Y-141000000D02*
X347793750Y-138025000D01*
X350768750Y-141000000D02*
X363893750Y-141000000D01*
X328668750Y-138050000D02*
X331618750Y-141000000D01*
X309618750Y-138000000D02*
X306743750Y-135125000D01*
X312618750Y-141000000D02*
X325718750Y-141000000D01*
X306743750Y-135125000D02*
X306743750Y-127500000D01*
X325718750Y-141000000D02*
X328668750Y-138050000D01*
X331618750Y-141000000D02*
X344818750Y-141000000D01*
X309618750Y-138000000D02*
X312618750Y-141000000D01*
X347793750Y-138025000D02*
X350768750Y-141000000D01*
X363893750Y-141000000D02*
X366893750Y-138000000D01*
%TD*%
M02*
