%TF.GenerationSoftware,KiCad,Pcbnew,9.0.6*%
%TF.CreationDate,2026-04-07T13:25:13-04:00*%
%TF.ProjectId,new-keyboard-pcb,6e65772d-6b65-4796-926f-6172642d7063,rev?*%
%TF.SameCoordinates,Original*%
%TF.FileFunction,Soldermask,Top*%
%TF.FilePolarity,Negative*%
%FSLAX46Y46*%
G04 Gerber Fmt 4.6, Leading zero omitted, Abs format (unit mm)*
G04 Created by KiCad (PCBNEW 9.0.6) date 2026-04-07 13:25:13*
%MOMM*%
%LPD*%
G01*
G04 APERTURE LIST*
%ADD10R,1.500000X1.500000*%
%ADD11C,1.500000*%
%ADD12C,2.200000*%
%ADD13C,3.000000*%
%ADD14C,5.000000*%
%ADD15O,1.500000X2.000000*%
%ADD16O,2.000000X1.500000*%
G04 APERTURE END LIST*
D10*
%TO.C,J3*%
X306743750Y-117340000D03*
D11*
X306743750Y-119880000D03*
X306743750Y-122420000D03*
X306743750Y-124960000D03*
X306743750Y-127500000D03*
%TD*%
D12*
%TO.C,REF\u002A\u002A*%
X313500000Y-122500000D03*
%TD*%
%TO.C,REF\u002A\u002A*%
X371000000Y-124500000D03*
%TD*%
%TO.C,REF\u002A\u002A*%
X325500000Y-89500000D03*
%TD*%
%TO.C,REF\u002A\u002A*%
X370500000Y-82000000D03*
%TD*%
D10*
%TO.C,J5*%
X306743750Y-44750000D03*
D11*
X306743750Y-47290000D03*
X306743750Y-49830000D03*
X306743750Y-52370000D03*
X306743750Y-54910000D03*
%TD*%
D12*
%TO.C,REF\u002A\u002A*%
X373000000Y-53500000D03*
%TD*%
%TO.C,REF\u002A\u002A*%
X326000000Y-52000000D03*
%TD*%
D13*
%TO.C,SW97*%
X340093750Y-133550000D03*
D14*
X335093750Y-137350000D03*
D13*
X335093750Y-131350000D03*
D15*
X330093750Y-142500000D03*
%TD*%
D13*
%TO.C,SW51*%
X340143750Y-76400000D03*
D14*
X335143750Y-80200000D03*
D13*
X335143750Y-74200000D03*
D15*
X330143750Y-85350000D03*
%TD*%
D13*
%TO.C,SW71*%
X377043750Y-113775000D03*
D14*
X373243750Y-108775000D03*
D13*
X379243750Y-108775000D03*
D16*
X368093750Y-103775000D03*
%TD*%
D13*
%TO.C,SW68*%
X321093750Y-95450000D03*
D14*
X316093750Y-99250000D03*
D13*
X316093750Y-93250000D03*
D15*
X311093750Y-104400000D03*
%TD*%
D13*
%TO.C,SW53*%
X377043750Y-75675000D03*
D14*
X373243750Y-70675000D03*
D13*
X379243750Y-70675000D03*
D16*
X368093750Y-65675000D03*
%TD*%
D13*
%TO.C,SW17*%
X359193750Y-38300000D03*
D14*
X354193750Y-42100000D03*
D13*
X354193750Y-36100000D03*
D15*
X349193750Y-47250000D03*
%TD*%
D13*
%TO.C,SW98*%
X359143750Y-133550000D03*
D14*
X354143750Y-137350000D03*
D13*
X354143750Y-131350000D03*
D15*
X349143750Y-142500000D03*
%TD*%
D13*
%TO.C,SW86*%
X359181250Y-114500000D03*
D14*
X354181250Y-118300000D03*
D13*
X354181250Y-112300000D03*
D15*
X349181250Y-123450000D03*
%TD*%
D13*
%TO.C,SW52*%
X359193750Y-76400000D03*
D14*
X354193750Y-80200000D03*
D13*
X354193750Y-74200000D03*
D15*
X349193750Y-85350000D03*
%TD*%
D13*
%TO.C,SW70*%
X359193750Y-95450000D03*
D14*
X354193750Y-99250000D03*
D13*
X354193750Y-93250000D03*
D15*
X349193750Y-104400000D03*
%TD*%
D13*
%TO.C,SW15*%
X321081250Y-38300000D03*
D14*
X316081250Y-42100000D03*
D13*
X316081250Y-36100000D03*
D15*
X311081250Y-47250000D03*
%TD*%
D13*
%TO.C,SW50*%
X321093750Y-76400000D03*
D14*
X316093750Y-80200000D03*
D13*
X316093750Y-74200000D03*
D15*
X311093750Y-85350000D03*
%TD*%
D13*
%TO.C,SW33*%
X321093750Y-57350000D03*
D14*
X316093750Y-61150000D03*
D13*
X316093750Y-55150000D03*
D15*
X311093750Y-66300000D03*
%TD*%
D13*
%TO.C,SW96*%
X321093750Y-133550000D03*
D14*
X316093750Y-137350000D03*
D13*
X316093750Y-131350000D03*
D15*
X311093750Y-142500000D03*
%TD*%
D13*
%TO.C,SW16*%
X340143750Y-38300000D03*
D14*
X335143750Y-42100000D03*
D13*
X335143750Y-36100000D03*
D15*
X330143750Y-47250000D03*
%TD*%
D13*
%TO.C,SW18*%
X378268750Y-38300000D03*
D14*
X373268750Y-42100000D03*
D13*
X373268750Y-36100000D03*
D15*
X368268750Y-47250000D03*
%TD*%
D13*
%TO.C,SW35*%
X359193750Y-57350000D03*
D14*
X354193750Y-61150000D03*
D13*
X354193750Y-55150000D03*
D15*
X349193750Y-66300000D03*
%TD*%
D13*
%TO.C,SW99*%
X378193750Y-133550000D03*
D14*
X373193750Y-137350000D03*
D13*
X373193750Y-131350000D03*
D15*
X368193750Y-142500000D03*
%TD*%
D13*
%TO.C,SW34*%
X340143750Y-57350000D03*
D14*
X335143750Y-61150000D03*
D13*
X335143750Y-55150000D03*
D15*
X330143750Y-66300000D03*
%TD*%
D13*
%TO.C,SW69*%
X340131250Y-95450000D03*
D14*
X335131250Y-99250000D03*
D13*
X335131250Y-93250000D03*
D15*
X330131250Y-104400000D03*
%TD*%
D13*
%TO.C,SW85*%
X330606250Y-114500000D03*
D14*
X325606250Y-118300000D03*
D13*
X325606250Y-112300000D03*
D15*
X320606250Y-123450000D03*
%TD*%
M02*
