%TF.GenerationSoftware,KiCad,Pcbnew,9.0.6*%
%TF.CreationDate,2026-04-06T12:22:54-04:00*%
%TF.ProjectId,new-keyboard-pcb,6e65772d-6b65-4796-926f-6172642d7063,rev?*%
%TF.SameCoordinates,Original*%
%TF.FileFunction,Copper,L1,Top*%
%TF.FilePolarity,Positive*%
%FSLAX46Y46*%
G04 Gerber Fmt 4.6, Leading zero omitted, Abs format (unit mm)*
G04 Created by KiCad (PCBNEW 9.0.6) date 2026-04-06 12:22:54*
%MOMM*%
%LPD*%
G01*
G04 APERTURE LIST*
%TA.AperFunction,ComponentPad*%
%ADD10R,1.500000X1.500000*%
%TD*%
%TA.AperFunction,ComponentPad*%
%ADD11C,1.500000*%
%TD*%
%TA.AperFunction,ViaPad*%
%ADD12C,0.600000*%
%TD*%
%TA.AperFunction,Conductor*%
%ADD13C,0.254000*%
%TD*%
G04 APERTURE END LIST*
D10*
%TO.P,J3,1,Pin_1*%
%TO.N,ROW1C*%
X306743750Y-117340000D03*
D11*
%TO.P,J3,2,Pin_2*%
%TO.N,ROW2C*%
X306743750Y-119880000D03*
%TO.P,J3,3,Pin_3*%
%TO.N,ROW3C*%
X306743750Y-122420000D03*
%TO.P,J3,4,Pin_4*%
%TO.N,ROW4C*%
X306743750Y-124960000D03*
%TO.P,J3,5,Pin_5*%
%TO.N,ROW5C*%
X306743750Y-127500000D03*
%TD*%
D10*
%TO.P,J5,1,Pin_1*%
%TO.N,ROW0C*%
X306743750Y-44750000D03*
D11*
%TO.P,J5,2,Pin_2*%
%TO.N,COL14*%
X306743750Y-47290000D03*
%TO.P,J5,3,Pin_3*%
%TO.N,COL15*%
X306743750Y-49830000D03*
%TO.P,J5,4,Pin_4*%
%TO.N,COL16*%
X306743750Y-52370000D03*
%TO.P,J5,5,Pin_5*%
%TO.N,COL17*%
X306743750Y-54910000D03*
%TD*%
D12*
%TO.N,COL14*%
X323493750Y-80500000D03*
X323743750Y-137500000D03*
X323493750Y-61000000D03*
X333243750Y-118250000D03*
X323500000Y-42000000D03*
X323493750Y-99250000D03*
%TO.N,COL15*%
X342493750Y-79750000D03*
X341243750Y-50500000D03*
X342493750Y-99500000D03*
X342493750Y-61500000D03*
X342743750Y-137250000D03*
X342743750Y-41750000D03*
X320243750Y-50500000D03*
%TO.N,COL16*%
X361993750Y-80250000D03*
X319243750Y-51500000D03*
X361743750Y-99000000D03*
X360243750Y-51500000D03*
X361743750Y-41750000D03*
X361743750Y-61000000D03*
X361743750Y-137500000D03*
X361993750Y-118250000D03*
%TO.N,COL17*%
X380493750Y-42000000D03*
X380493750Y-138000000D03*
X380493750Y-52250000D03*
X376243750Y-83000000D03*
X318493750Y-52250000D03*
X375743750Y-120750000D03*
%TD*%
D13*
%TO.N,COL14*%
X323493750Y-99250000D02*
X323493750Y-92500000D01*
X323493750Y-92500000D02*
X322000000Y-91006250D01*
X322000000Y-91006250D02*
X322000000Y-87493750D01*
X322000000Y-87493750D02*
X323493750Y-86000000D01*
X323493750Y-86000000D02*
X323493750Y-80500000D01*
X323493750Y-61000000D02*
X323493750Y-55000000D01*
X323493750Y-55000000D02*
X323000000Y-54506250D01*
X323000000Y-54506250D02*
X323000000Y-49993750D01*
X323000000Y-49993750D02*
X323493750Y-49500000D01*
X323500000Y-42000000D02*
X323500000Y-43000000D01*
X323493750Y-43006250D02*
X323493750Y-49500000D01*
X323500000Y-43000000D02*
X323493750Y-43006250D01*
X333243750Y-121750000D02*
X333243750Y-118250000D01*
X306743750Y-47290000D02*
X308953750Y-49500000D01*
X333993750Y-117500000D02*
X333993750Y-112500000D01*
X323743750Y-137500000D02*
X323743750Y-131250000D01*
X323493750Y-80500000D02*
X323493750Y-61000000D01*
X333993750Y-112500000D02*
X323493750Y-102000000D01*
X333243750Y-118250000D02*
X333993750Y-117500000D01*
X323743750Y-131250000D02*
X333243750Y-121750000D01*
X308953750Y-49500000D02*
X323493750Y-49500000D01*
X323493750Y-102000000D02*
X323493750Y-99250000D01*
%TO.N,COL15*%
X342493750Y-79750000D02*
X342493750Y-99500000D01*
X341243750Y-50500000D02*
X342743750Y-50500000D01*
X342743750Y-41750000D02*
X342743750Y-50500000D01*
X342743750Y-61250000D02*
X342493750Y-61500000D01*
X342493750Y-137000000D02*
X342743750Y-137250000D01*
X342743750Y-50500000D02*
X342743750Y-51500000D01*
X307413750Y-50500000D02*
X320243750Y-50500000D01*
X342743750Y-51500000D02*
X342743750Y-61250000D01*
X342493750Y-61500000D02*
X342493750Y-79750000D01*
X342493750Y-99500000D02*
X342493750Y-137000000D01*
X306743750Y-49830000D02*
X307413750Y-50500000D01*
%TO.N,COL16*%
X361743750Y-61000000D02*
X361743750Y-51500000D01*
X361743750Y-50500000D02*
X361743750Y-41750000D01*
X361743750Y-118500000D02*
X361993750Y-118250000D01*
X361993750Y-99250000D02*
X361743750Y-99000000D01*
X361993750Y-118250000D02*
X361993750Y-99250000D01*
X361743750Y-51500000D02*
X361743750Y-50500000D01*
X361993750Y-80250000D02*
X361993750Y-61250000D01*
X361743750Y-137500000D02*
X361743750Y-118500000D01*
X360243750Y-51500000D02*
X361743750Y-51500000D01*
X306743750Y-52370000D02*
X307613750Y-51500000D01*
X307613750Y-51500000D02*
X319243750Y-51500000D01*
X361993750Y-61250000D02*
X361743750Y-61000000D01*
X361743750Y-80500000D02*
X361993750Y-80250000D01*
X361743750Y-99000000D02*
X361743750Y-80500000D01*
%TO.N,COL17*%
X381993750Y-49500000D02*
X381993750Y-52250000D01*
X380493750Y-42000000D02*
X381993750Y-43500000D01*
X375743750Y-120750000D02*
X380493750Y-125500000D01*
X380493750Y-52250000D02*
X381993750Y-52250000D01*
X381993750Y-88750000D02*
X381993750Y-110500000D01*
X381993750Y-43500000D02*
X381993750Y-49500000D01*
X309403750Y-52250000D02*
X318493750Y-52250000D01*
X381743750Y-115000000D02*
X375993750Y-120750000D01*
X381993750Y-52250000D02*
X381993750Y-77250000D01*
X380493750Y-125500000D02*
X380493750Y-138000000D01*
X381993750Y-110500000D02*
X381743750Y-110750000D01*
X381743750Y-110750000D02*
X381743750Y-115000000D01*
X306743750Y-54910000D02*
X309403750Y-52250000D01*
X375993750Y-120750000D02*
X375743750Y-120750000D01*
X381993750Y-77250000D02*
X376243750Y-83000000D01*
X376243750Y-83000000D02*
X381993750Y-88750000D01*
%TD*%
M02*
