%TF.GenerationSoftware,KiCad,Pcbnew,9.0.6*%
%TF.CreationDate,2026-04-06T12:22:54-04:00*%
%TF.ProjectId,new-keyboard-pcb,6e65772d-6b65-4796-926f-6172642d7063,rev?*%
%TF.SameCoordinates,Original*%
%TF.FileFunction,Legend,Bot*%
%TF.FilePolarity,Positive*%
%FSLAX46Y46*%
G04 Gerber Fmt 4.6, Leading zero omitted, Abs format (unit mm)*
G04 Created by KiCad (PCBNEW 9.0.6) date 2026-04-06 12:22:54*
%MOMM*%
%LPD*%
G01*
G04 APERTURE LIST*
%ADD10C,0.150000*%
%ADD11C,0.100000*%
%ADD12C,0.120000*%
G04 APERTURE END LIST*
D10*
X330811069Y-97785714D02*
X329811069Y-97785714D01*
X329811069Y-97785714D02*
X329811069Y-98023809D01*
X329811069Y-98023809D02*
X329858688Y-98166666D01*
X329858688Y-98166666D02*
X329953926Y-98261904D01*
X329953926Y-98261904D02*
X330049164Y-98309523D01*
X330049164Y-98309523D02*
X330239640Y-98357142D01*
X330239640Y-98357142D02*
X330382497Y-98357142D01*
X330382497Y-98357142D02*
X330572973Y-98309523D01*
X330572973Y-98309523D02*
X330668211Y-98261904D01*
X330668211Y-98261904D02*
X330763450Y-98166666D01*
X330763450Y-98166666D02*
X330811069Y-98023809D01*
X330811069Y-98023809D02*
X330811069Y-97785714D01*
X329811069Y-99214285D02*
X329811069Y-99023809D01*
X329811069Y-99023809D02*
X329858688Y-98928571D01*
X329858688Y-98928571D02*
X329906307Y-98880952D01*
X329906307Y-98880952D02*
X330049164Y-98785714D01*
X330049164Y-98785714D02*
X330239640Y-98738095D01*
X330239640Y-98738095D02*
X330620592Y-98738095D01*
X330620592Y-98738095D02*
X330715830Y-98785714D01*
X330715830Y-98785714D02*
X330763450Y-98833333D01*
X330763450Y-98833333D02*
X330811069Y-98928571D01*
X330811069Y-98928571D02*
X330811069Y-99119047D01*
X330811069Y-99119047D02*
X330763450Y-99214285D01*
X330763450Y-99214285D02*
X330715830Y-99261904D01*
X330715830Y-99261904D02*
X330620592Y-99309523D01*
X330620592Y-99309523D02*
X330382497Y-99309523D01*
X330382497Y-99309523D02*
X330287259Y-99261904D01*
X330287259Y-99261904D02*
X330239640Y-99214285D01*
X330239640Y-99214285D02*
X330192021Y-99119047D01*
X330192021Y-99119047D02*
X330192021Y-98928571D01*
X330192021Y-98928571D02*
X330239640Y-98833333D01*
X330239640Y-98833333D02*
X330287259Y-98785714D01*
X330287259Y-98785714D02*
X330382497Y-98738095D01*
X330811069Y-99785714D02*
X330811069Y-99976190D01*
X330811069Y-99976190D02*
X330763450Y-100071428D01*
X330763450Y-100071428D02*
X330715830Y-100119047D01*
X330715830Y-100119047D02*
X330572973Y-100214285D01*
X330572973Y-100214285D02*
X330382497Y-100261904D01*
X330382497Y-100261904D02*
X330001545Y-100261904D01*
X330001545Y-100261904D02*
X329906307Y-100214285D01*
X329906307Y-100214285D02*
X329858688Y-100166666D01*
X329858688Y-100166666D02*
X329811069Y-100071428D01*
X329811069Y-100071428D02*
X329811069Y-99880952D01*
X329811069Y-99880952D02*
X329858688Y-99785714D01*
X329858688Y-99785714D02*
X329906307Y-99738095D01*
X329906307Y-99738095D02*
X330001545Y-99690476D01*
X330001545Y-99690476D02*
X330239640Y-99690476D01*
X330239640Y-99690476D02*
X330334878Y-99738095D01*
X330334878Y-99738095D02*
X330382497Y-99785714D01*
X330382497Y-99785714D02*
X330430116Y-99880952D01*
X330430116Y-99880952D02*
X330430116Y-100071428D01*
X330430116Y-100071428D02*
X330382497Y-100166666D01*
X330382497Y-100166666D02*
X330334878Y-100214285D01*
X330334878Y-100214285D02*
X330239640Y-100261904D01*
X369098569Y-40785714D02*
X368098569Y-40785714D01*
X368098569Y-40785714D02*
X368098569Y-41023809D01*
X368098569Y-41023809D02*
X368146188Y-41166666D01*
X368146188Y-41166666D02*
X368241426Y-41261904D01*
X368241426Y-41261904D02*
X368336664Y-41309523D01*
X368336664Y-41309523D02*
X368527140Y-41357142D01*
X368527140Y-41357142D02*
X368669997Y-41357142D01*
X368669997Y-41357142D02*
X368860473Y-41309523D01*
X368860473Y-41309523D02*
X368955711Y-41261904D01*
X368955711Y-41261904D02*
X369050950Y-41166666D01*
X369050950Y-41166666D02*
X369098569Y-41023809D01*
X369098569Y-41023809D02*
X369098569Y-40785714D01*
X369098569Y-42309523D02*
X369098569Y-41738095D01*
X369098569Y-42023809D02*
X368098569Y-42023809D01*
X368098569Y-42023809D02*
X368241426Y-41928571D01*
X368241426Y-41928571D02*
X368336664Y-41833333D01*
X368336664Y-41833333D02*
X368384283Y-41738095D01*
X368527140Y-42880952D02*
X368479521Y-42785714D01*
X368479521Y-42785714D02*
X368431902Y-42738095D01*
X368431902Y-42738095D02*
X368336664Y-42690476D01*
X368336664Y-42690476D02*
X368289045Y-42690476D01*
X368289045Y-42690476D02*
X368193807Y-42738095D01*
X368193807Y-42738095D02*
X368146188Y-42785714D01*
X368146188Y-42785714D02*
X368098569Y-42880952D01*
X368098569Y-42880952D02*
X368098569Y-43071428D01*
X368098569Y-43071428D02*
X368146188Y-43166666D01*
X368146188Y-43166666D02*
X368193807Y-43214285D01*
X368193807Y-43214285D02*
X368289045Y-43261904D01*
X368289045Y-43261904D02*
X368336664Y-43261904D01*
X368336664Y-43261904D02*
X368431902Y-43214285D01*
X368431902Y-43214285D02*
X368479521Y-43166666D01*
X368479521Y-43166666D02*
X368527140Y-43071428D01*
X368527140Y-43071428D02*
X368527140Y-42880952D01*
X368527140Y-42880952D02*
X368574759Y-42785714D01*
X368574759Y-42785714D02*
X368622378Y-42738095D01*
X368622378Y-42738095D02*
X368717616Y-42690476D01*
X368717616Y-42690476D02*
X368908092Y-42690476D01*
X368908092Y-42690476D02*
X369003330Y-42738095D01*
X369003330Y-42738095D02*
X369050950Y-42785714D01*
X369050950Y-42785714D02*
X369098569Y-42880952D01*
X369098569Y-42880952D02*
X369098569Y-43071428D01*
X369098569Y-43071428D02*
X369050950Y-43166666D01*
X369050950Y-43166666D02*
X369003330Y-43214285D01*
X369003330Y-43214285D02*
X368908092Y-43261904D01*
X368908092Y-43261904D02*
X368717616Y-43261904D01*
X368717616Y-43261904D02*
X368622378Y-43214285D01*
X368622378Y-43214285D02*
X368574759Y-43166666D01*
X368574759Y-43166666D02*
X368527140Y-43071428D01*
X349898569Y-135785714D02*
X348898569Y-135785714D01*
X348898569Y-135785714D02*
X348898569Y-136023809D01*
X348898569Y-136023809D02*
X348946188Y-136166666D01*
X348946188Y-136166666D02*
X349041426Y-136261904D01*
X349041426Y-136261904D02*
X349136664Y-136309523D01*
X349136664Y-136309523D02*
X349327140Y-136357142D01*
X349327140Y-136357142D02*
X349469997Y-136357142D01*
X349469997Y-136357142D02*
X349660473Y-136309523D01*
X349660473Y-136309523D02*
X349755711Y-136261904D01*
X349755711Y-136261904D02*
X349850950Y-136166666D01*
X349850950Y-136166666D02*
X349898569Y-136023809D01*
X349898569Y-136023809D02*
X349898569Y-135785714D01*
X349898569Y-136833333D02*
X349898569Y-137023809D01*
X349898569Y-137023809D02*
X349850950Y-137119047D01*
X349850950Y-137119047D02*
X349803330Y-137166666D01*
X349803330Y-137166666D02*
X349660473Y-137261904D01*
X349660473Y-137261904D02*
X349469997Y-137309523D01*
X349469997Y-137309523D02*
X349089045Y-137309523D01*
X349089045Y-137309523D02*
X348993807Y-137261904D01*
X348993807Y-137261904D02*
X348946188Y-137214285D01*
X348946188Y-137214285D02*
X348898569Y-137119047D01*
X348898569Y-137119047D02*
X348898569Y-136928571D01*
X348898569Y-136928571D02*
X348946188Y-136833333D01*
X348946188Y-136833333D02*
X348993807Y-136785714D01*
X348993807Y-136785714D02*
X349089045Y-136738095D01*
X349089045Y-136738095D02*
X349327140Y-136738095D01*
X349327140Y-136738095D02*
X349422378Y-136785714D01*
X349422378Y-136785714D02*
X349469997Y-136833333D01*
X349469997Y-136833333D02*
X349517616Y-136928571D01*
X349517616Y-136928571D02*
X349517616Y-137119047D01*
X349517616Y-137119047D02*
X349469997Y-137214285D01*
X349469997Y-137214285D02*
X349422378Y-137261904D01*
X349422378Y-137261904D02*
X349327140Y-137309523D01*
X349327140Y-137880952D02*
X349279521Y-137785714D01*
X349279521Y-137785714D02*
X349231902Y-137738095D01*
X349231902Y-137738095D02*
X349136664Y-137690476D01*
X349136664Y-137690476D02*
X349089045Y-137690476D01*
X349089045Y-137690476D02*
X348993807Y-137738095D01*
X348993807Y-137738095D02*
X348946188Y-137785714D01*
X348946188Y-137785714D02*
X348898569Y-137880952D01*
X348898569Y-137880952D02*
X348898569Y-138071428D01*
X348898569Y-138071428D02*
X348946188Y-138166666D01*
X348946188Y-138166666D02*
X348993807Y-138214285D01*
X348993807Y-138214285D02*
X349089045Y-138261904D01*
X349089045Y-138261904D02*
X349136664Y-138261904D01*
X349136664Y-138261904D02*
X349231902Y-138214285D01*
X349231902Y-138214285D02*
X349279521Y-138166666D01*
X349279521Y-138166666D02*
X349327140Y-138071428D01*
X349327140Y-138071428D02*
X349327140Y-137880952D01*
X349327140Y-137880952D02*
X349374759Y-137785714D01*
X349374759Y-137785714D02*
X349422378Y-137738095D01*
X349422378Y-137738095D02*
X349517616Y-137690476D01*
X349517616Y-137690476D02*
X349708092Y-137690476D01*
X349708092Y-137690476D02*
X349803330Y-137738095D01*
X349803330Y-137738095D02*
X349850950Y-137785714D01*
X349850950Y-137785714D02*
X349898569Y-137880952D01*
X349898569Y-137880952D02*
X349898569Y-138071428D01*
X349898569Y-138071428D02*
X349850950Y-138166666D01*
X349850950Y-138166666D02*
X349803330Y-138214285D01*
X349803330Y-138214285D02*
X349708092Y-138261904D01*
X349708092Y-138261904D02*
X349517616Y-138261904D01*
X349517616Y-138261904D02*
X349422378Y-138214285D01*
X349422378Y-138214285D02*
X349374759Y-138166666D01*
X349374759Y-138166666D02*
X349327140Y-138071428D01*
X374158035Y-104604819D02*
X374158035Y-103604819D01*
X374158035Y-103604819D02*
X373919940Y-103604819D01*
X373919940Y-103604819D02*
X373777083Y-103652438D01*
X373777083Y-103652438D02*
X373681845Y-103747676D01*
X373681845Y-103747676D02*
X373634226Y-103842914D01*
X373634226Y-103842914D02*
X373586607Y-104033390D01*
X373586607Y-104033390D02*
X373586607Y-104176247D01*
X373586607Y-104176247D02*
X373634226Y-104366723D01*
X373634226Y-104366723D02*
X373681845Y-104461961D01*
X373681845Y-104461961D02*
X373777083Y-104557200D01*
X373777083Y-104557200D02*
X373919940Y-104604819D01*
X373919940Y-104604819D02*
X374158035Y-104604819D01*
X373253273Y-103604819D02*
X372586607Y-103604819D01*
X372586607Y-103604819D02*
X373015178Y-104604819D01*
X371681845Y-104604819D02*
X372253273Y-104604819D01*
X371967559Y-104604819D02*
X371967559Y-103604819D01*
X371967559Y-103604819D02*
X372062797Y-103747676D01*
X372062797Y-103747676D02*
X372158035Y-103842914D01*
X372158035Y-103842914D02*
X372253273Y-103890533D01*
X311723569Y-135760714D02*
X310723569Y-135760714D01*
X310723569Y-135760714D02*
X310723569Y-135998809D01*
X310723569Y-135998809D02*
X310771188Y-136141666D01*
X310771188Y-136141666D02*
X310866426Y-136236904D01*
X310866426Y-136236904D02*
X310961664Y-136284523D01*
X310961664Y-136284523D02*
X311152140Y-136332142D01*
X311152140Y-136332142D02*
X311294997Y-136332142D01*
X311294997Y-136332142D02*
X311485473Y-136284523D01*
X311485473Y-136284523D02*
X311580711Y-136236904D01*
X311580711Y-136236904D02*
X311675950Y-136141666D01*
X311675950Y-136141666D02*
X311723569Y-135998809D01*
X311723569Y-135998809D02*
X311723569Y-135760714D01*
X311723569Y-136808333D02*
X311723569Y-136998809D01*
X311723569Y-136998809D02*
X311675950Y-137094047D01*
X311675950Y-137094047D02*
X311628330Y-137141666D01*
X311628330Y-137141666D02*
X311485473Y-137236904D01*
X311485473Y-137236904D02*
X311294997Y-137284523D01*
X311294997Y-137284523D02*
X310914045Y-137284523D01*
X310914045Y-137284523D02*
X310818807Y-137236904D01*
X310818807Y-137236904D02*
X310771188Y-137189285D01*
X310771188Y-137189285D02*
X310723569Y-137094047D01*
X310723569Y-137094047D02*
X310723569Y-136903571D01*
X310723569Y-136903571D02*
X310771188Y-136808333D01*
X310771188Y-136808333D02*
X310818807Y-136760714D01*
X310818807Y-136760714D02*
X310914045Y-136713095D01*
X310914045Y-136713095D02*
X311152140Y-136713095D01*
X311152140Y-136713095D02*
X311247378Y-136760714D01*
X311247378Y-136760714D02*
X311294997Y-136808333D01*
X311294997Y-136808333D02*
X311342616Y-136903571D01*
X311342616Y-136903571D02*
X311342616Y-137094047D01*
X311342616Y-137094047D02*
X311294997Y-137189285D01*
X311294997Y-137189285D02*
X311247378Y-137236904D01*
X311247378Y-137236904D02*
X311152140Y-137284523D01*
X310723569Y-138141666D02*
X310723569Y-137951190D01*
X310723569Y-137951190D02*
X310771188Y-137855952D01*
X310771188Y-137855952D02*
X310818807Y-137808333D01*
X310818807Y-137808333D02*
X310961664Y-137713095D01*
X310961664Y-137713095D02*
X311152140Y-137665476D01*
X311152140Y-137665476D02*
X311533092Y-137665476D01*
X311533092Y-137665476D02*
X311628330Y-137713095D01*
X311628330Y-137713095D02*
X311675950Y-137760714D01*
X311675950Y-137760714D02*
X311723569Y-137855952D01*
X311723569Y-137855952D02*
X311723569Y-138046428D01*
X311723569Y-138046428D02*
X311675950Y-138141666D01*
X311675950Y-138141666D02*
X311628330Y-138189285D01*
X311628330Y-138189285D02*
X311533092Y-138236904D01*
X311533092Y-138236904D02*
X311294997Y-138236904D01*
X311294997Y-138236904D02*
X311199759Y-138189285D01*
X311199759Y-138189285D02*
X311152140Y-138141666D01*
X311152140Y-138141666D02*
X311104521Y-138046428D01*
X311104521Y-138046428D02*
X311104521Y-137855952D01*
X311104521Y-137855952D02*
X311152140Y-137760714D01*
X311152140Y-137760714D02*
X311199759Y-137713095D01*
X311199759Y-137713095D02*
X311294997Y-137665476D01*
X330848569Y-40785714D02*
X329848569Y-40785714D01*
X329848569Y-40785714D02*
X329848569Y-41023809D01*
X329848569Y-41023809D02*
X329896188Y-41166666D01*
X329896188Y-41166666D02*
X329991426Y-41261904D01*
X329991426Y-41261904D02*
X330086664Y-41309523D01*
X330086664Y-41309523D02*
X330277140Y-41357142D01*
X330277140Y-41357142D02*
X330419997Y-41357142D01*
X330419997Y-41357142D02*
X330610473Y-41309523D01*
X330610473Y-41309523D02*
X330705711Y-41261904D01*
X330705711Y-41261904D02*
X330800950Y-41166666D01*
X330800950Y-41166666D02*
X330848569Y-41023809D01*
X330848569Y-41023809D02*
X330848569Y-40785714D01*
X330848569Y-42309523D02*
X330848569Y-41738095D01*
X330848569Y-42023809D02*
X329848569Y-42023809D01*
X329848569Y-42023809D02*
X329991426Y-41928571D01*
X329991426Y-41928571D02*
X330086664Y-41833333D01*
X330086664Y-41833333D02*
X330134283Y-41738095D01*
X329848569Y-43166666D02*
X329848569Y-42976190D01*
X329848569Y-42976190D02*
X329896188Y-42880952D01*
X329896188Y-42880952D02*
X329943807Y-42833333D01*
X329943807Y-42833333D02*
X330086664Y-42738095D01*
X330086664Y-42738095D02*
X330277140Y-42690476D01*
X330277140Y-42690476D02*
X330658092Y-42690476D01*
X330658092Y-42690476D02*
X330753330Y-42738095D01*
X330753330Y-42738095D02*
X330800950Y-42785714D01*
X330800950Y-42785714D02*
X330848569Y-42880952D01*
X330848569Y-42880952D02*
X330848569Y-43071428D01*
X330848569Y-43071428D02*
X330800950Y-43166666D01*
X330800950Y-43166666D02*
X330753330Y-43214285D01*
X330753330Y-43214285D02*
X330658092Y-43261904D01*
X330658092Y-43261904D02*
X330419997Y-43261904D01*
X330419997Y-43261904D02*
X330324759Y-43214285D01*
X330324759Y-43214285D02*
X330277140Y-43166666D01*
X330277140Y-43166666D02*
X330229521Y-43071428D01*
X330229521Y-43071428D02*
X330229521Y-42880952D01*
X330229521Y-42880952D02*
X330277140Y-42785714D01*
X330277140Y-42785714D02*
X330324759Y-42738095D01*
X330324759Y-42738095D02*
X330419997Y-42690476D01*
X349948569Y-59785714D02*
X348948569Y-59785714D01*
X348948569Y-59785714D02*
X348948569Y-60023809D01*
X348948569Y-60023809D02*
X348996188Y-60166666D01*
X348996188Y-60166666D02*
X349091426Y-60261904D01*
X349091426Y-60261904D02*
X349186664Y-60309523D01*
X349186664Y-60309523D02*
X349377140Y-60357142D01*
X349377140Y-60357142D02*
X349519997Y-60357142D01*
X349519997Y-60357142D02*
X349710473Y-60309523D01*
X349710473Y-60309523D02*
X349805711Y-60261904D01*
X349805711Y-60261904D02*
X349900950Y-60166666D01*
X349900950Y-60166666D02*
X349948569Y-60023809D01*
X349948569Y-60023809D02*
X349948569Y-59785714D01*
X348948569Y-60690476D02*
X348948569Y-61309523D01*
X348948569Y-61309523D02*
X349329521Y-60976190D01*
X349329521Y-60976190D02*
X349329521Y-61119047D01*
X349329521Y-61119047D02*
X349377140Y-61214285D01*
X349377140Y-61214285D02*
X349424759Y-61261904D01*
X349424759Y-61261904D02*
X349519997Y-61309523D01*
X349519997Y-61309523D02*
X349758092Y-61309523D01*
X349758092Y-61309523D02*
X349853330Y-61261904D01*
X349853330Y-61261904D02*
X349900950Y-61214285D01*
X349900950Y-61214285D02*
X349948569Y-61119047D01*
X349948569Y-61119047D02*
X349948569Y-60833333D01*
X349948569Y-60833333D02*
X349900950Y-60738095D01*
X349900950Y-60738095D02*
X349853330Y-60690476D01*
X348948569Y-62214285D02*
X348948569Y-61738095D01*
X348948569Y-61738095D02*
X349424759Y-61690476D01*
X349424759Y-61690476D02*
X349377140Y-61738095D01*
X349377140Y-61738095D02*
X349329521Y-61833333D01*
X349329521Y-61833333D02*
X349329521Y-62071428D01*
X349329521Y-62071428D02*
X349377140Y-62166666D01*
X349377140Y-62166666D02*
X349424759Y-62214285D01*
X349424759Y-62214285D02*
X349519997Y-62261904D01*
X349519997Y-62261904D02*
X349758092Y-62261904D01*
X349758092Y-62261904D02*
X349853330Y-62214285D01*
X349853330Y-62214285D02*
X349900950Y-62166666D01*
X349900950Y-62166666D02*
X349948569Y-62071428D01*
X349948569Y-62071428D02*
X349948569Y-61833333D01*
X349948569Y-61833333D02*
X349900950Y-61738095D01*
X349900950Y-61738095D02*
X349853330Y-61690476D01*
X314098569Y-78785714D02*
X313098569Y-78785714D01*
X313098569Y-78785714D02*
X313098569Y-79023809D01*
X313098569Y-79023809D02*
X313146188Y-79166666D01*
X313146188Y-79166666D02*
X313241426Y-79261904D01*
X313241426Y-79261904D02*
X313336664Y-79309523D01*
X313336664Y-79309523D02*
X313527140Y-79357142D01*
X313527140Y-79357142D02*
X313669997Y-79357142D01*
X313669997Y-79357142D02*
X313860473Y-79309523D01*
X313860473Y-79309523D02*
X313955711Y-79261904D01*
X313955711Y-79261904D02*
X314050950Y-79166666D01*
X314050950Y-79166666D02*
X314098569Y-79023809D01*
X314098569Y-79023809D02*
X314098569Y-78785714D01*
X313098569Y-80261904D02*
X313098569Y-79785714D01*
X313098569Y-79785714D02*
X313574759Y-79738095D01*
X313574759Y-79738095D02*
X313527140Y-79785714D01*
X313527140Y-79785714D02*
X313479521Y-79880952D01*
X313479521Y-79880952D02*
X313479521Y-80119047D01*
X313479521Y-80119047D02*
X313527140Y-80214285D01*
X313527140Y-80214285D02*
X313574759Y-80261904D01*
X313574759Y-80261904D02*
X313669997Y-80309523D01*
X313669997Y-80309523D02*
X313908092Y-80309523D01*
X313908092Y-80309523D02*
X314003330Y-80261904D01*
X314003330Y-80261904D02*
X314050950Y-80214285D01*
X314050950Y-80214285D02*
X314098569Y-80119047D01*
X314098569Y-80119047D02*
X314098569Y-79880952D01*
X314098569Y-79880952D02*
X314050950Y-79785714D01*
X314050950Y-79785714D02*
X314003330Y-79738095D01*
X313098569Y-80928571D02*
X313098569Y-81023809D01*
X313098569Y-81023809D02*
X313146188Y-81119047D01*
X313146188Y-81119047D02*
X313193807Y-81166666D01*
X313193807Y-81166666D02*
X313289045Y-81214285D01*
X313289045Y-81214285D02*
X313479521Y-81261904D01*
X313479521Y-81261904D02*
X313717616Y-81261904D01*
X313717616Y-81261904D02*
X313908092Y-81214285D01*
X313908092Y-81214285D02*
X314003330Y-81166666D01*
X314003330Y-81166666D02*
X314050950Y-81119047D01*
X314050950Y-81119047D02*
X314098569Y-81023809D01*
X314098569Y-81023809D02*
X314098569Y-80928571D01*
X314098569Y-80928571D02*
X314050950Y-80833333D01*
X314050950Y-80833333D02*
X314003330Y-80785714D01*
X314003330Y-80785714D02*
X313908092Y-80738095D01*
X313908092Y-80738095D02*
X313717616Y-80690476D01*
X313717616Y-80690476D02*
X313479521Y-80690476D01*
X313479521Y-80690476D02*
X313289045Y-80738095D01*
X313289045Y-80738095D02*
X313193807Y-80785714D01*
X313193807Y-80785714D02*
X313146188Y-80833333D01*
X313146188Y-80833333D02*
X313098569Y-80928571D01*
D11*
X338950893Y-146307419D02*
X339427083Y-146307419D01*
X339427083Y-146307419D02*
X339427083Y-145307419D01*
X338617559Y-145783609D02*
X338284226Y-145783609D01*
X338141369Y-146307419D02*
X338617559Y-146307419D01*
X338617559Y-146307419D02*
X338617559Y-145307419D01*
X338617559Y-145307419D02*
X338141369Y-145307419D01*
X337379464Y-145783609D02*
X337712797Y-145783609D01*
X337712797Y-146307419D02*
X337712797Y-145307419D01*
X337712797Y-145307419D02*
X337236607Y-145307419D01*
X336998511Y-145307419D02*
X336427083Y-145307419D01*
X336712797Y-146307419D02*
X336712797Y-145307419D01*
X335379463Y-146021704D02*
X334903273Y-146021704D01*
X335474701Y-146307419D02*
X335141368Y-145307419D01*
X335141368Y-145307419D02*
X334808035Y-146307419D01*
X333903273Y-146307419D02*
X334236606Y-145831228D01*
X334474701Y-146307419D02*
X334474701Y-145307419D01*
X334474701Y-145307419D02*
X334093749Y-145307419D01*
X334093749Y-145307419D02*
X333998511Y-145355038D01*
X333998511Y-145355038D02*
X333950892Y-145402657D01*
X333950892Y-145402657D02*
X333903273Y-145497895D01*
X333903273Y-145497895D02*
X333903273Y-145640752D01*
X333903273Y-145640752D02*
X333950892Y-145735990D01*
X333950892Y-145735990D02*
X333998511Y-145783609D01*
X333998511Y-145783609D02*
X334093749Y-145831228D01*
X334093749Y-145831228D02*
X334474701Y-145831228D01*
X332903273Y-146307419D02*
X333236606Y-145831228D01*
X333474701Y-146307419D02*
X333474701Y-145307419D01*
X333474701Y-145307419D02*
X333093749Y-145307419D01*
X333093749Y-145307419D02*
X332998511Y-145355038D01*
X332998511Y-145355038D02*
X332950892Y-145402657D01*
X332950892Y-145402657D02*
X332903273Y-145497895D01*
X332903273Y-145497895D02*
X332903273Y-145640752D01*
X332903273Y-145640752D02*
X332950892Y-145735990D01*
X332950892Y-145735990D02*
X332998511Y-145783609D01*
X332998511Y-145783609D02*
X333093749Y-145831228D01*
X333093749Y-145831228D02*
X333474701Y-145831228D01*
X332284225Y-145307419D02*
X332093749Y-145307419D01*
X332093749Y-145307419D02*
X331998511Y-145355038D01*
X331998511Y-145355038D02*
X331903273Y-145450276D01*
X331903273Y-145450276D02*
X331855654Y-145640752D01*
X331855654Y-145640752D02*
X331855654Y-145974085D01*
X331855654Y-145974085D02*
X331903273Y-146164561D01*
X331903273Y-146164561D02*
X331998511Y-146259800D01*
X331998511Y-146259800D02*
X332093749Y-146307419D01*
X332093749Y-146307419D02*
X332284225Y-146307419D01*
X332284225Y-146307419D02*
X332379463Y-146259800D01*
X332379463Y-146259800D02*
X332474701Y-146164561D01*
X332474701Y-146164561D02*
X332522320Y-145974085D01*
X332522320Y-145974085D02*
X332522320Y-145640752D01*
X332522320Y-145640752D02*
X332474701Y-145450276D01*
X332474701Y-145450276D02*
X332379463Y-145355038D01*
X332379463Y-145355038D02*
X332284225Y-145307419D01*
X331522320Y-145307419D02*
X331284225Y-146307419D01*
X331284225Y-146307419D02*
X331093749Y-145593133D01*
X331093749Y-145593133D02*
X330903273Y-146307419D01*
X330903273Y-146307419D02*
X330665178Y-145307419D01*
D10*
X330773569Y-135810714D02*
X329773569Y-135810714D01*
X329773569Y-135810714D02*
X329773569Y-136048809D01*
X329773569Y-136048809D02*
X329821188Y-136191666D01*
X329821188Y-136191666D02*
X329916426Y-136286904D01*
X329916426Y-136286904D02*
X330011664Y-136334523D01*
X330011664Y-136334523D02*
X330202140Y-136382142D01*
X330202140Y-136382142D02*
X330344997Y-136382142D01*
X330344997Y-136382142D02*
X330535473Y-136334523D01*
X330535473Y-136334523D02*
X330630711Y-136286904D01*
X330630711Y-136286904D02*
X330725950Y-136191666D01*
X330725950Y-136191666D02*
X330773569Y-136048809D01*
X330773569Y-136048809D02*
X330773569Y-135810714D01*
X330773569Y-136858333D02*
X330773569Y-137048809D01*
X330773569Y-137048809D02*
X330725950Y-137144047D01*
X330725950Y-137144047D02*
X330678330Y-137191666D01*
X330678330Y-137191666D02*
X330535473Y-137286904D01*
X330535473Y-137286904D02*
X330344997Y-137334523D01*
X330344997Y-137334523D02*
X329964045Y-137334523D01*
X329964045Y-137334523D02*
X329868807Y-137286904D01*
X329868807Y-137286904D02*
X329821188Y-137239285D01*
X329821188Y-137239285D02*
X329773569Y-137144047D01*
X329773569Y-137144047D02*
X329773569Y-136953571D01*
X329773569Y-136953571D02*
X329821188Y-136858333D01*
X329821188Y-136858333D02*
X329868807Y-136810714D01*
X329868807Y-136810714D02*
X329964045Y-136763095D01*
X329964045Y-136763095D02*
X330202140Y-136763095D01*
X330202140Y-136763095D02*
X330297378Y-136810714D01*
X330297378Y-136810714D02*
X330344997Y-136858333D01*
X330344997Y-136858333D02*
X330392616Y-136953571D01*
X330392616Y-136953571D02*
X330392616Y-137144047D01*
X330392616Y-137144047D02*
X330344997Y-137239285D01*
X330344997Y-137239285D02*
X330297378Y-137286904D01*
X330297378Y-137286904D02*
X330202140Y-137334523D01*
X329773569Y-137667857D02*
X329773569Y-138334523D01*
X329773569Y-138334523D02*
X330773569Y-137905952D01*
X374533035Y-66204819D02*
X374533035Y-65204819D01*
X374533035Y-65204819D02*
X374294940Y-65204819D01*
X374294940Y-65204819D02*
X374152083Y-65252438D01*
X374152083Y-65252438D02*
X374056845Y-65347676D01*
X374056845Y-65347676D02*
X374009226Y-65442914D01*
X374009226Y-65442914D02*
X373961607Y-65633390D01*
X373961607Y-65633390D02*
X373961607Y-65776247D01*
X373961607Y-65776247D02*
X374009226Y-65966723D01*
X374009226Y-65966723D02*
X374056845Y-66061961D01*
X374056845Y-66061961D02*
X374152083Y-66157200D01*
X374152083Y-66157200D02*
X374294940Y-66204819D01*
X374294940Y-66204819D02*
X374533035Y-66204819D01*
X373056845Y-65204819D02*
X373533035Y-65204819D01*
X373533035Y-65204819D02*
X373580654Y-65681009D01*
X373580654Y-65681009D02*
X373533035Y-65633390D01*
X373533035Y-65633390D02*
X373437797Y-65585771D01*
X373437797Y-65585771D02*
X373199702Y-65585771D01*
X373199702Y-65585771D02*
X373104464Y-65633390D01*
X373104464Y-65633390D02*
X373056845Y-65681009D01*
X373056845Y-65681009D02*
X373009226Y-65776247D01*
X373009226Y-65776247D02*
X373009226Y-66014342D01*
X373009226Y-66014342D02*
X373056845Y-66109580D01*
X373056845Y-66109580D02*
X373104464Y-66157200D01*
X373104464Y-66157200D02*
X373199702Y-66204819D01*
X373199702Y-66204819D02*
X373437797Y-66204819D01*
X373437797Y-66204819D02*
X373533035Y-66157200D01*
X373533035Y-66157200D02*
X373580654Y-66109580D01*
X372675892Y-65204819D02*
X372056845Y-65204819D01*
X372056845Y-65204819D02*
X372390178Y-65585771D01*
X372390178Y-65585771D02*
X372247321Y-65585771D01*
X372247321Y-65585771D02*
X372152083Y-65633390D01*
X372152083Y-65633390D02*
X372104464Y-65681009D01*
X372104464Y-65681009D02*
X372056845Y-65776247D01*
X372056845Y-65776247D02*
X372056845Y-66014342D01*
X372056845Y-66014342D02*
X372104464Y-66109580D01*
X372104464Y-66109580D02*
X372152083Y-66157200D01*
X372152083Y-66157200D02*
X372247321Y-66204819D01*
X372247321Y-66204819D02*
X372533035Y-66204819D01*
X372533035Y-66204819D02*
X372628273Y-66157200D01*
X372628273Y-66157200D02*
X372675892Y-66109580D01*
D11*
X335929463Y-88490752D02*
X335215178Y-88490752D01*
X335643749Y-88062180D02*
X335929463Y-89347895D01*
X335310416Y-88919323D02*
X336024701Y-88919323D01*
X335596130Y-89347895D02*
X335310416Y-88062180D01*
X334405654Y-88157419D02*
X334881844Y-88157419D01*
X334881844Y-88157419D02*
X334929463Y-88633609D01*
X334929463Y-88633609D02*
X334881844Y-88585990D01*
X334881844Y-88585990D02*
X334786606Y-88538371D01*
X334786606Y-88538371D02*
X334548511Y-88538371D01*
X334548511Y-88538371D02*
X334453273Y-88585990D01*
X334453273Y-88585990D02*
X334405654Y-88633609D01*
X334405654Y-88633609D02*
X334358035Y-88728847D01*
X334358035Y-88728847D02*
X334358035Y-88966942D01*
X334358035Y-88966942D02*
X334405654Y-89062180D01*
X334405654Y-89062180D02*
X334453273Y-89109800D01*
X334453273Y-89109800D02*
X334548511Y-89157419D01*
X334548511Y-89157419D02*
X334786606Y-89157419D01*
X334786606Y-89157419D02*
X334881844Y-89109800D01*
X334881844Y-89109800D02*
X334929463Y-89062180D01*
D10*
X368998569Y-135760714D02*
X367998569Y-135760714D01*
X367998569Y-135760714D02*
X367998569Y-135998809D01*
X367998569Y-135998809D02*
X368046188Y-136141666D01*
X368046188Y-136141666D02*
X368141426Y-136236904D01*
X368141426Y-136236904D02*
X368236664Y-136284523D01*
X368236664Y-136284523D02*
X368427140Y-136332142D01*
X368427140Y-136332142D02*
X368569997Y-136332142D01*
X368569997Y-136332142D02*
X368760473Y-136284523D01*
X368760473Y-136284523D02*
X368855711Y-136236904D01*
X368855711Y-136236904D02*
X368950950Y-136141666D01*
X368950950Y-136141666D02*
X368998569Y-135998809D01*
X368998569Y-135998809D02*
X368998569Y-135760714D01*
X368998569Y-136808333D02*
X368998569Y-136998809D01*
X368998569Y-136998809D02*
X368950950Y-137094047D01*
X368950950Y-137094047D02*
X368903330Y-137141666D01*
X368903330Y-137141666D02*
X368760473Y-137236904D01*
X368760473Y-137236904D02*
X368569997Y-137284523D01*
X368569997Y-137284523D02*
X368189045Y-137284523D01*
X368189045Y-137284523D02*
X368093807Y-137236904D01*
X368093807Y-137236904D02*
X368046188Y-137189285D01*
X368046188Y-137189285D02*
X367998569Y-137094047D01*
X367998569Y-137094047D02*
X367998569Y-136903571D01*
X367998569Y-136903571D02*
X368046188Y-136808333D01*
X368046188Y-136808333D02*
X368093807Y-136760714D01*
X368093807Y-136760714D02*
X368189045Y-136713095D01*
X368189045Y-136713095D02*
X368427140Y-136713095D01*
X368427140Y-136713095D02*
X368522378Y-136760714D01*
X368522378Y-136760714D02*
X368569997Y-136808333D01*
X368569997Y-136808333D02*
X368617616Y-136903571D01*
X368617616Y-136903571D02*
X368617616Y-137094047D01*
X368617616Y-137094047D02*
X368569997Y-137189285D01*
X368569997Y-137189285D02*
X368522378Y-137236904D01*
X368522378Y-137236904D02*
X368427140Y-137284523D01*
X368998569Y-137760714D02*
X368998569Y-137951190D01*
X368998569Y-137951190D02*
X368950950Y-138046428D01*
X368950950Y-138046428D02*
X368903330Y-138094047D01*
X368903330Y-138094047D02*
X368760473Y-138189285D01*
X368760473Y-138189285D02*
X368569997Y-138236904D01*
X368569997Y-138236904D02*
X368189045Y-138236904D01*
X368189045Y-138236904D02*
X368093807Y-138189285D01*
X368093807Y-138189285D02*
X368046188Y-138141666D01*
X368046188Y-138141666D02*
X367998569Y-138046428D01*
X367998569Y-138046428D02*
X367998569Y-137855952D01*
X367998569Y-137855952D02*
X368046188Y-137760714D01*
X368046188Y-137760714D02*
X368093807Y-137713095D01*
X368093807Y-137713095D02*
X368189045Y-137665476D01*
X368189045Y-137665476D02*
X368427140Y-137665476D01*
X368427140Y-137665476D02*
X368522378Y-137713095D01*
X368522378Y-137713095D02*
X368569997Y-137760714D01*
X368569997Y-137760714D02*
X368617616Y-137855952D01*
X368617616Y-137855952D02*
X368617616Y-138046428D01*
X368617616Y-138046428D02*
X368569997Y-138141666D01*
X368569997Y-138141666D02*
X368522378Y-138189285D01*
X368522378Y-138189285D02*
X368427140Y-138236904D01*
D11*
X365452997Y-111394047D02*
X365452997Y-110679762D01*
X365881569Y-111108333D02*
X364595854Y-111394047D01*
X365024426Y-110775000D02*
X365024426Y-111489285D01*
X364595854Y-111060714D02*
X365881569Y-110775000D01*
X365310140Y-110346428D02*
X365310140Y-110013095D01*
X364786330Y-109870238D02*
X364786330Y-110346428D01*
X364786330Y-110346428D02*
X365786330Y-110346428D01*
X365786330Y-110346428D02*
X365786330Y-109870238D01*
X364786330Y-109441666D02*
X365786330Y-109441666D01*
X365786330Y-109441666D02*
X364786330Y-108870238D01*
X364786330Y-108870238D02*
X365786330Y-108870238D01*
X365786330Y-108536904D02*
X365786330Y-107965476D01*
X364786330Y-108251190D02*
X365786330Y-108251190D01*
X365310140Y-107632142D02*
X365310140Y-107298809D01*
X364786330Y-107155952D02*
X364786330Y-107632142D01*
X364786330Y-107632142D02*
X365786330Y-107632142D01*
X365786330Y-107632142D02*
X365786330Y-107155952D01*
X364786330Y-106155952D02*
X365262521Y-106489285D01*
X364786330Y-106727380D02*
X365786330Y-106727380D01*
X365786330Y-106727380D02*
X365786330Y-106346428D01*
X365786330Y-106346428D02*
X365738711Y-106251190D01*
X365738711Y-106251190D02*
X365691092Y-106203571D01*
X365691092Y-106203571D02*
X365595854Y-106155952D01*
X365595854Y-106155952D02*
X365452997Y-106155952D01*
X365452997Y-106155952D02*
X365357759Y-106203571D01*
X365357759Y-106203571D02*
X365310140Y-106251190D01*
X365310140Y-106251190D02*
X365262521Y-106346428D01*
X365262521Y-106346428D02*
X365262521Y-106727380D01*
X316879463Y-107540752D02*
X316165178Y-107540752D01*
X316593749Y-107112180D02*
X316879463Y-108397895D01*
X316260416Y-107969323D02*
X316974701Y-107969323D01*
X316546130Y-108397895D02*
X316260416Y-107112180D01*
X315308035Y-108207419D02*
X315879463Y-108207419D01*
X315593749Y-108207419D02*
X315593749Y-107207419D01*
X315593749Y-107207419D02*
X315688987Y-107350276D01*
X315688987Y-107350276D02*
X315784225Y-107445514D01*
X315784225Y-107445514D02*
X315879463Y-107493133D01*
X365072045Y-71913094D02*
X365072045Y-71436904D01*
X364786330Y-72008332D02*
X365786330Y-71674999D01*
X365786330Y-71674999D02*
X364786330Y-71341666D01*
X364786330Y-71008332D02*
X365786330Y-71008332D01*
X365786330Y-71008332D02*
X365786330Y-70770237D01*
X365786330Y-70770237D02*
X365738711Y-70627380D01*
X365738711Y-70627380D02*
X365643473Y-70532142D01*
X365643473Y-70532142D02*
X365548235Y-70484523D01*
X365548235Y-70484523D02*
X365357759Y-70436904D01*
X365357759Y-70436904D02*
X365214902Y-70436904D01*
X365214902Y-70436904D02*
X365024426Y-70484523D01*
X365024426Y-70484523D02*
X364929188Y-70532142D01*
X364929188Y-70532142D02*
X364833950Y-70627380D01*
X364833950Y-70627380D02*
X364786330Y-70770237D01*
X364786330Y-70770237D02*
X364786330Y-71008332D01*
X364786330Y-70008332D02*
X365786330Y-70008332D01*
X365786330Y-70008332D02*
X365786330Y-69770237D01*
X365786330Y-69770237D02*
X365738711Y-69627380D01*
X365738711Y-69627380D02*
X365643473Y-69532142D01*
X365643473Y-69532142D02*
X365548235Y-69484523D01*
X365548235Y-69484523D02*
X365357759Y-69436904D01*
X365357759Y-69436904D02*
X365214902Y-69436904D01*
X365214902Y-69436904D02*
X365024426Y-69484523D01*
X365024426Y-69484523D02*
X364929188Y-69532142D01*
X364929188Y-69532142D02*
X364833950Y-69627380D01*
X364833950Y-69627380D02*
X364786330Y-69770237D01*
X364786330Y-69770237D02*
X364786330Y-70008332D01*
D10*
X313098569Y-59760714D02*
X312098569Y-59760714D01*
X312098569Y-59760714D02*
X312098569Y-59998809D01*
X312098569Y-59998809D02*
X312146188Y-60141666D01*
X312146188Y-60141666D02*
X312241426Y-60236904D01*
X312241426Y-60236904D02*
X312336664Y-60284523D01*
X312336664Y-60284523D02*
X312527140Y-60332142D01*
X312527140Y-60332142D02*
X312669997Y-60332142D01*
X312669997Y-60332142D02*
X312860473Y-60284523D01*
X312860473Y-60284523D02*
X312955711Y-60236904D01*
X312955711Y-60236904D02*
X313050950Y-60141666D01*
X313050950Y-60141666D02*
X313098569Y-59998809D01*
X313098569Y-59998809D02*
X313098569Y-59760714D01*
X312098569Y-60665476D02*
X312098569Y-61284523D01*
X312098569Y-61284523D02*
X312479521Y-60951190D01*
X312479521Y-60951190D02*
X312479521Y-61094047D01*
X312479521Y-61094047D02*
X312527140Y-61189285D01*
X312527140Y-61189285D02*
X312574759Y-61236904D01*
X312574759Y-61236904D02*
X312669997Y-61284523D01*
X312669997Y-61284523D02*
X312908092Y-61284523D01*
X312908092Y-61284523D02*
X313003330Y-61236904D01*
X313003330Y-61236904D02*
X313050950Y-61189285D01*
X313050950Y-61189285D02*
X313098569Y-61094047D01*
X313098569Y-61094047D02*
X313098569Y-60808333D01*
X313098569Y-60808333D02*
X313050950Y-60713095D01*
X313050950Y-60713095D02*
X313003330Y-60665476D01*
X312098569Y-61617857D02*
X312098569Y-62236904D01*
X312098569Y-62236904D02*
X312479521Y-61903571D01*
X312479521Y-61903571D02*
X312479521Y-62046428D01*
X312479521Y-62046428D02*
X312527140Y-62141666D01*
X312527140Y-62141666D02*
X312574759Y-62189285D01*
X312574759Y-62189285D02*
X312669997Y-62236904D01*
X312669997Y-62236904D02*
X312908092Y-62236904D01*
X312908092Y-62236904D02*
X313003330Y-62189285D01*
X313003330Y-62189285D02*
X313050950Y-62141666D01*
X313050950Y-62141666D02*
X313098569Y-62046428D01*
X313098569Y-62046428D02*
X313098569Y-61760714D01*
X313098569Y-61760714D02*
X313050950Y-61665476D01*
X313050950Y-61665476D02*
X313003330Y-61617857D01*
X330848569Y-59785714D02*
X329848569Y-59785714D01*
X329848569Y-59785714D02*
X329848569Y-60023809D01*
X329848569Y-60023809D02*
X329896188Y-60166666D01*
X329896188Y-60166666D02*
X329991426Y-60261904D01*
X329991426Y-60261904D02*
X330086664Y-60309523D01*
X330086664Y-60309523D02*
X330277140Y-60357142D01*
X330277140Y-60357142D02*
X330419997Y-60357142D01*
X330419997Y-60357142D02*
X330610473Y-60309523D01*
X330610473Y-60309523D02*
X330705711Y-60261904D01*
X330705711Y-60261904D02*
X330800950Y-60166666D01*
X330800950Y-60166666D02*
X330848569Y-60023809D01*
X330848569Y-60023809D02*
X330848569Y-59785714D01*
X329848569Y-60690476D02*
X329848569Y-61309523D01*
X329848569Y-61309523D02*
X330229521Y-60976190D01*
X330229521Y-60976190D02*
X330229521Y-61119047D01*
X330229521Y-61119047D02*
X330277140Y-61214285D01*
X330277140Y-61214285D02*
X330324759Y-61261904D01*
X330324759Y-61261904D02*
X330419997Y-61309523D01*
X330419997Y-61309523D02*
X330658092Y-61309523D01*
X330658092Y-61309523D02*
X330753330Y-61261904D01*
X330753330Y-61261904D02*
X330800950Y-61214285D01*
X330800950Y-61214285D02*
X330848569Y-61119047D01*
X330848569Y-61119047D02*
X330848569Y-60833333D01*
X330848569Y-60833333D02*
X330800950Y-60738095D01*
X330800950Y-60738095D02*
X330753330Y-60690476D01*
X330181902Y-62166666D02*
X330848569Y-62166666D01*
X329800950Y-61928571D02*
X330515235Y-61690476D01*
X330515235Y-61690476D02*
X330515235Y-62309523D01*
D11*
X355836606Y-51057419D02*
X355836606Y-50057419D01*
X355836606Y-50057419D02*
X355503273Y-50771704D01*
X355503273Y-50771704D02*
X355169940Y-50057419D01*
X355169940Y-50057419D02*
X355169940Y-51057419D01*
X354693749Y-50057419D02*
X354693749Y-50866942D01*
X354693749Y-50866942D02*
X354646130Y-50962180D01*
X354646130Y-50962180D02*
X354598511Y-51009800D01*
X354598511Y-51009800D02*
X354503273Y-51057419D01*
X354503273Y-51057419D02*
X354312797Y-51057419D01*
X354312797Y-51057419D02*
X354217559Y-51009800D01*
X354217559Y-51009800D02*
X354169940Y-50962180D01*
X354169940Y-50962180D02*
X354122321Y-50866942D01*
X354122321Y-50866942D02*
X354122321Y-50057419D01*
X353169940Y-51057419D02*
X353646130Y-51057419D01*
X353646130Y-51057419D02*
X353646130Y-50057419D01*
X352979463Y-50057419D02*
X352408035Y-50057419D01*
X352693749Y-51057419D02*
X352693749Y-50057419D01*
X358929463Y-146307419D02*
X358929463Y-145307419D01*
X358929463Y-145307419D02*
X358691368Y-145307419D01*
X358691368Y-145307419D02*
X358548511Y-145355038D01*
X358548511Y-145355038D02*
X358453273Y-145450276D01*
X358453273Y-145450276D02*
X358405654Y-145545514D01*
X358405654Y-145545514D02*
X358358035Y-145735990D01*
X358358035Y-145735990D02*
X358358035Y-145878847D01*
X358358035Y-145878847D02*
X358405654Y-146069323D01*
X358405654Y-146069323D02*
X358453273Y-146164561D01*
X358453273Y-146164561D02*
X358548511Y-146259800D01*
X358548511Y-146259800D02*
X358691368Y-146307419D01*
X358691368Y-146307419D02*
X358929463Y-146307419D01*
X357738987Y-145307419D02*
X357548511Y-145307419D01*
X357548511Y-145307419D02*
X357453273Y-145355038D01*
X357453273Y-145355038D02*
X357358035Y-145450276D01*
X357358035Y-145450276D02*
X357310416Y-145640752D01*
X357310416Y-145640752D02*
X357310416Y-145974085D01*
X357310416Y-145974085D02*
X357358035Y-146164561D01*
X357358035Y-146164561D02*
X357453273Y-146259800D01*
X357453273Y-146259800D02*
X357548511Y-146307419D01*
X357548511Y-146307419D02*
X357738987Y-146307419D01*
X357738987Y-146307419D02*
X357834225Y-146259800D01*
X357834225Y-146259800D02*
X357929463Y-146164561D01*
X357929463Y-146164561D02*
X357977082Y-145974085D01*
X357977082Y-145974085D02*
X357977082Y-145640752D01*
X357977082Y-145640752D02*
X357929463Y-145450276D01*
X357929463Y-145450276D02*
X357834225Y-145355038D01*
X357834225Y-145355038D02*
X357738987Y-145307419D01*
X356977082Y-145307419D02*
X356738987Y-146307419D01*
X356738987Y-146307419D02*
X356548511Y-145593133D01*
X356548511Y-145593133D02*
X356358035Y-146307419D01*
X356358035Y-146307419D02*
X356119940Y-145307419D01*
X355738987Y-146307419D02*
X355738987Y-145307419D01*
X355738987Y-145307419D02*
X355167559Y-146307419D01*
X355167559Y-146307419D02*
X355167559Y-145307419D01*
X353977082Y-146021704D02*
X353500892Y-146021704D01*
X354072320Y-146307419D02*
X353738987Y-145307419D01*
X353738987Y-145307419D02*
X353405654Y-146307419D01*
X352500892Y-146307419D02*
X352834225Y-145831228D01*
X353072320Y-146307419D02*
X353072320Y-145307419D01*
X353072320Y-145307419D02*
X352691368Y-145307419D01*
X352691368Y-145307419D02*
X352596130Y-145355038D01*
X352596130Y-145355038D02*
X352548511Y-145402657D01*
X352548511Y-145402657D02*
X352500892Y-145497895D01*
X352500892Y-145497895D02*
X352500892Y-145640752D01*
X352500892Y-145640752D02*
X352548511Y-145735990D01*
X352548511Y-145735990D02*
X352596130Y-145783609D01*
X352596130Y-145783609D02*
X352691368Y-145831228D01*
X352691368Y-145831228D02*
X353072320Y-145831228D01*
X351500892Y-146307419D02*
X351834225Y-145831228D01*
X352072320Y-146307419D02*
X352072320Y-145307419D01*
X352072320Y-145307419D02*
X351691368Y-145307419D01*
X351691368Y-145307419D02*
X351596130Y-145355038D01*
X351596130Y-145355038D02*
X351548511Y-145402657D01*
X351548511Y-145402657D02*
X351500892Y-145497895D01*
X351500892Y-145497895D02*
X351500892Y-145640752D01*
X351500892Y-145640752D02*
X351548511Y-145735990D01*
X351548511Y-145735990D02*
X351596130Y-145783609D01*
X351596130Y-145783609D02*
X351691368Y-145831228D01*
X351691368Y-145831228D02*
X352072320Y-145831228D01*
X350881844Y-145307419D02*
X350691368Y-145307419D01*
X350691368Y-145307419D02*
X350596130Y-145355038D01*
X350596130Y-145355038D02*
X350500892Y-145450276D01*
X350500892Y-145450276D02*
X350453273Y-145640752D01*
X350453273Y-145640752D02*
X350453273Y-145974085D01*
X350453273Y-145974085D02*
X350500892Y-146164561D01*
X350500892Y-146164561D02*
X350596130Y-146259800D01*
X350596130Y-146259800D02*
X350691368Y-146307419D01*
X350691368Y-146307419D02*
X350881844Y-146307419D01*
X350881844Y-146307419D02*
X350977082Y-146259800D01*
X350977082Y-146259800D02*
X351072320Y-146164561D01*
X351072320Y-146164561D02*
X351119939Y-145974085D01*
X351119939Y-145974085D02*
X351119939Y-145640752D01*
X351119939Y-145640752D02*
X351072320Y-145450276D01*
X351072320Y-145450276D02*
X350977082Y-145355038D01*
X350977082Y-145355038D02*
X350881844Y-145307419D01*
X350119939Y-145307419D02*
X349881844Y-146307419D01*
X349881844Y-146307419D02*
X349691368Y-145593133D01*
X349691368Y-145593133D02*
X349500892Y-146307419D01*
X349500892Y-146307419D02*
X349262797Y-145307419D01*
X357871725Y-126257419D02*
X357871725Y-127066942D01*
X357871725Y-127066942D02*
X357824106Y-127162180D01*
X357824106Y-127162180D02*
X357776487Y-127209800D01*
X357776487Y-127209800D02*
X357681249Y-127257419D01*
X357681249Y-127257419D02*
X357490773Y-127257419D01*
X357490773Y-127257419D02*
X357395535Y-127209800D01*
X357395535Y-127209800D02*
X357347916Y-127162180D01*
X357347916Y-127162180D02*
X357300297Y-127066942D01*
X357300297Y-127066942D02*
X357300297Y-126257419D01*
X356824106Y-127257419D02*
X356824106Y-126257419D01*
X356824106Y-126257419D02*
X356443154Y-126257419D01*
X356443154Y-126257419D02*
X356347916Y-126305038D01*
X356347916Y-126305038D02*
X356300297Y-126352657D01*
X356300297Y-126352657D02*
X356252678Y-126447895D01*
X356252678Y-126447895D02*
X356252678Y-126590752D01*
X356252678Y-126590752D02*
X356300297Y-126685990D01*
X356300297Y-126685990D02*
X356347916Y-126733609D01*
X356347916Y-126733609D02*
X356443154Y-126781228D01*
X356443154Y-126781228D02*
X356824106Y-126781228D01*
X355109820Y-126971704D02*
X354633630Y-126971704D01*
X355205058Y-127257419D02*
X354871725Y-126257419D01*
X354871725Y-126257419D02*
X354538392Y-127257419D01*
X353633630Y-127257419D02*
X353966963Y-126781228D01*
X354205058Y-127257419D02*
X354205058Y-126257419D01*
X354205058Y-126257419D02*
X353824106Y-126257419D01*
X353824106Y-126257419D02*
X353728868Y-126305038D01*
X353728868Y-126305038D02*
X353681249Y-126352657D01*
X353681249Y-126352657D02*
X353633630Y-126447895D01*
X353633630Y-126447895D02*
X353633630Y-126590752D01*
X353633630Y-126590752D02*
X353681249Y-126685990D01*
X353681249Y-126685990D02*
X353728868Y-126733609D01*
X353728868Y-126733609D02*
X353824106Y-126781228D01*
X353824106Y-126781228D02*
X354205058Y-126781228D01*
X352633630Y-127257419D02*
X352966963Y-126781228D01*
X353205058Y-127257419D02*
X353205058Y-126257419D01*
X353205058Y-126257419D02*
X352824106Y-126257419D01*
X352824106Y-126257419D02*
X352728868Y-126305038D01*
X352728868Y-126305038D02*
X352681249Y-126352657D01*
X352681249Y-126352657D02*
X352633630Y-126447895D01*
X352633630Y-126447895D02*
X352633630Y-126590752D01*
X352633630Y-126590752D02*
X352681249Y-126685990D01*
X352681249Y-126685990D02*
X352728868Y-126733609D01*
X352728868Y-126733609D02*
X352824106Y-126781228D01*
X352824106Y-126781228D02*
X353205058Y-126781228D01*
X352014582Y-126257419D02*
X351824106Y-126257419D01*
X351824106Y-126257419D02*
X351728868Y-126305038D01*
X351728868Y-126305038D02*
X351633630Y-126400276D01*
X351633630Y-126400276D02*
X351586011Y-126590752D01*
X351586011Y-126590752D02*
X351586011Y-126924085D01*
X351586011Y-126924085D02*
X351633630Y-127114561D01*
X351633630Y-127114561D02*
X351728868Y-127209800D01*
X351728868Y-127209800D02*
X351824106Y-127257419D01*
X351824106Y-127257419D02*
X352014582Y-127257419D01*
X352014582Y-127257419D02*
X352109820Y-127209800D01*
X352109820Y-127209800D02*
X352205058Y-127114561D01*
X352205058Y-127114561D02*
X352252677Y-126924085D01*
X352252677Y-126924085D02*
X352252677Y-126590752D01*
X352252677Y-126590752D02*
X352205058Y-126400276D01*
X352205058Y-126400276D02*
X352109820Y-126305038D01*
X352109820Y-126305038D02*
X352014582Y-126257419D01*
X351252677Y-126257419D02*
X351014582Y-127257419D01*
X351014582Y-127257419D02*
X350824106Y-126543133D01*
X350824106Y-126543133D02*
X350633630Y-127257419D01*
X350633630Y-127257419D02*
X350395535Y-126257419D01*
X354979463Y-88490752D02*
X354265178Y-88490752D01*
X354693749Y-88062180D02*
X354979463Y-89347895D01*
X354360416Y-88919323D02*
X355074701Y-88919323D01*
X354646130Y-89347895D02*
X354360416Y-88062180D01*
X353503273Y-88157419D02*
X353693749Y-88157419D01*
X353693749Y-88157419D02*
X353788987Y-88205038D01*
X353788987Y-88205038D02*
X353836606Y-88252657D01*
X353836606Y-88252657D02*
X353931844Y-88395514D01*
X353931844Y-88395514D02*
X353979463Y-88585990D01*
X353979463Y-88585990D02*
X353979463Y-88966942D01*
X353979463Y-88966942D02*
X353931844Y-89062180D01*
X353931844Y-89062180D02*
X353884225Y-89109800D01*
X353884225Y-89109800D02*
X353788987Y-89157419D01*
X353788987Y-89157419D02*
X353598511Y-89157419D01*
X353598511Y-89157419D02*
X353503273Y-89109800D01*
X353503273Y-89109800D02*
X353455654Y-89062180D01*
X353455654Y-89062180D02*
X353408035Y-88966942D01*
X353408035Y-88966942D02*
X353408035Y-88728847D01*
X353408035Y-88728847D02*
X353455654Y-88633609D01*
X353455654Y-88633609D02*
X353503273Y-88585990D01*
X353503273Y-88585990D02*
X353598511Y-88538371D01*
X353598511Y-88538371D02*
X353788987Y-88538371D01*
X353788987Y-88538371D02*
X353884225Y-88585990D01*
X353884225Y-88585990D02*
X353931844Y-88633609D01*
X353931844Y-88633609D02*
X353979463Y-88728847D01*
X354979463Y-107540752D02*
X354265178Y-107540752D01*
X354693749Y-107112180D02*
X354979463Y-108397895D01*
X354360416Y-107969323D02*
X355074701Y-107969323D01*
X354646130Y-108397895D02*
X354360416Y-107112180D01*
X354027082Y-107207419D02*
X353408035Y-107207419D01*
X353408035Y-107207419D02*
X353741368Y-107588371D01*
X353741368Y-107588371D02*
X353598511Y-107588371D01*
X353598511Y-107588371D02*
X353503273Y-107635990D01*
X353503273Y-107635990D02*
X353455654Y-107683609D01*
X353455654Y-107683609D02*
X353408035Y-107778847D01*
X353408035Y-107778847D02*
X353408035Y-108016942D01*
X353408035Y-108016942D02*
X353455654Y-108112180D01*
X353455654Y-108112180D02*
X353503273Y-108159800D01*
X353503273Y-108159800D02*
X353598511Y-108207419D01*
X353598511Y-108207419D02*
X353884225Y-108207419D01*
X353884225Y-108207419D02*
X353979463Y-108159800D01*
X353979463Y-108159800D02*
X354027082Y-108112180D01*
D10*
X349948569Y-97810714D02*
X348948569Y-97810714D01*
X348948569Y-97810714D02*
X348948569Y-98048809D01*
X348948569Y-98048809D02*
X348996188Y-98191666D01*
X348996188Y-98191666D02*
X349091426Y-98286904D01*
X349091426Y-98286904D02*
X349186664Y-98334523D01*
X349186664Y-98334523D02*
X349377140Y-98382142D01*
X349377140Y-98382142D02*
X349519997Y-98382142D01*
X349519997Y-98382142D02*
X349710473Y-98334523D01*
X349710473Y-98334523D02*
X349805711Y-98286904D01*
X349805711Y-98286904D02*
X349900950Y-98191666D01*
X349900950Y-98191666D02*
X349948569Y-98048809D01*
X349948569Y-98048809D02*
X349948569Y-97810714D01*
X348948569Y-98715476D02*
X348948569Y-99382142D01*
X348948569Y-99382142D02*
X349948569Y-98953571D01*
X348948569Y-99953571D02*
X348948569Y-100048809D01*
X348948569Y-100048809D02*
X348996188Y-100144047D01*
X348996188Y-100144047D02*
X349043807Y-100191666D01*
X349043807Y-100191666D02*
X349139045Y-100239285D01*
X349139045Y-100239285D02*
X349329521Y-100286904D01*
X349329521Y-100286904D02*
X349567616Y-100286904D01*
X349567616Y-100286904D02*
X349758092Y-100239285D01*
X349758092Y-100239285D02*
X349853330Y-100191666D01*
X349853330Y-100191666D02*
X349900950Y-100144047D01*
X349900950Y-100144047D02*
X349948569Y-100048809D01*
X349948569Y-100048809D02*
X349948569Y-99953571D01*
X349948569Y-99953571D02*
X349900950Y-99858333D01*
X349900950Y-99858333D02*
X349853330Y-99810714D01*
X349853330Y-99810714D02*
X349758092Y-99763095D01*
X349758092Y-99763095D02*
X349567616Y-99715476D01*
X349567616Y-99715476D02*
X349329521Y-99715476D01*
X349329521Y-99715476D02*
X349139045Y-99763095D01*
X349139045Y-99763095D02*
X349043807Y-99810714D01*
X349043807Y-99810714D02*
X348996188Y-99858333D01*
X348996188Y-99858333D02*
X348948569Y-99953571D01*
D11*
X318866963Y-51057419D02*
X318866963Y-50057419D01*
X318866963Y-50057419D02*
X318295535Y-51057419D01*
X318295535Y-51057419D02*
X318295535Y-50057419D01*
X317819344Y-50057419D02*
X317819344Y-50866942D01*
X317819344Y-50866942D02*
X317771725Y-50962180D01*
X317771725Y-50962180D02*
X317724106Y-51009800D01*
X317724106Y-51009800D02*
X317628868Y-51057419D01*
X317628868Y-51057419D02*
X317438392Y-51057419D01*
X317438392Y-51057419D02*
X317343154Y-51009800D01*
X317343154Y-51009800D02*
X317295535Y-50962180D01*
X317295535Y-50962180D02*
X317247916Y-50866942D01*
X317247916Y-50866942D02*
X317247916Y-50057419D01*
X316771725Y-51057419D02*
X316771725Y-50057419D01*
X316771725Y-50057419D02*
X316438392Y-50771704D01*
X316438392Y-50771704D02*
X316105059Y-50057419D01*
X316105059Y-50057419D02*
X316105059Y-51057419D01*
X315152678Y-51057419D02*
X315628868Y-51057419D01*
X315628868Y-51057419D02*
X315628868Y-50057419D01*
X314247916Y-50962180D02*
X314295535Y-51009800D01*
X314295535Y-51009800D02*
X314438392Y-51057419D01*
X314438392Y-51057419D02*
X314533630Y-51057419D01*
X314533630Y-51057419D02*
X314676487Y-51009800D01*
X314676487Y-51009800D02*
X314771725Y-50914561D01*
X314771725Y-50914561D02*
X314819344Y-50819323D01*
X314819344Y-50819323D02*
X314866963Y-50628847D01*
X314866963Y-50628847D02*
X314866963Y-50485990D01*
X314866963Y-50485990D02*
X314819344Y-50295514D01*
X314819344Y-50295514D02*
X314771725Y-50200276D01*
X314771725Y-50200276D02*
X314676487Y-50105038D01*
X314676487Y-50105038D02*
X314533630Y-50057419D01*
X314533630Y-50057419D02*
X314438392Y-50057419D01*
X314438392Y-50057419D02*
X314295535Y-50105038D01*
X314295535Y-50105038D02*
X314247916Y-50152657D01*
X313819344Y-51057419D02*
X313819344Y-50057419D01*
X313247916Y-51057419D02*
X313676487Y-50485990D01*
X313247916Y-50057419D02*
X313819344Y-50628847D01*
D10*
X311723569Y-97785714D02*
X310723569Y-97785714D01*
X310723569Y-97785714D02*
X310723569Y-98023809D01*
X310723569Y-98023809D02*
X310771188Y-98166666D01*
X310771188Y-98166666D02*
X310866426Y-98261904D01*
X310866426Y-98261904D02*
X310961664Y-98309523D01*
X310961664Y-98309523D02*
X311152140Y-98357142D01*
X311152140Y-98357142D02*
X311294997Y-98357142D01*
X311294997Y-98357142D02*
X311485473Y-98309523D01*
X311485473Y-98309523D02*
X311580711Y-98261904D01*
X311580711Y-98261904D02*
X311675950Y-98166666D01*
X311675950Y-98166666D02*
X311723569Y-98023809D01*
X311723569Y-98023809D02*
X311723569Y-97785714D01*
X310723569Y-99214285D02*
X310723569Y-99023809D01*
X310723569Y-99023809D02*
X310771188Y-98928571D01*
X310771188Y-98928571D02*
X310818807Y-98880952D01*
X310818807Y-98880952D02*
X310961664Y-98785714D01*
X310961664Y-98785714D02*
X311152140Y-98738095D01*
X311152140Y-98738095D02*
X311533092Y-98738095D01*
X311533092Y-98738095D02*
X311628330Y-98785714D01*
X311628330Y-98785714D02*
X311675950Y-98833333D01*
X311675950Y-98833333D02*
X311723569Y-98928571D01*
X311723569Y-98928571D02*
X311723569Y-99119047D01*
X311723569Y-99119047D02*
X311675950Y-99214285D01*
X311675950Y-99214285D02*
X311628330Y-99261904D01*
X311628330Y-99261904D02*
X311533092Y-99309523D01*
X311533092Y-99309523D02*
X311294997Y-99309523D01*
X311294997Y-99309523D02*
X311199759Y-99261904D01*
X311199759Y-99261904D02*
X311152140Y-99214285D01*
X311152140Y-99214285D02*
X311104521Y-99119047D01*
X311104521Y-99119047D02*
X311104521Y-98928571D01*
X311104521Y-98928571D02*
X311152140Y-98833333D01*
X311152140Y-98833333D02*
X311199759Y-98785714D01*
X311199759Y-98785714D02*
X311294997Y-98738095D01*
X311152140Y-99880952D02*
X311104521Y-99785714D01*
X311104521Y-99785714D02*
X311056902Y-99738095D01*
X311056902Y-99738095D02*
X310961664Y-99690476D01*
X310961664Y-99690476D02*
X310914045Y-99690476D01*
X310914045Y-99690476D02*
X310818807Y-99738095D01*
X310818807Y-99738095D02*
X310771188Y-99785714D01*
X310771188Y-99785714D02*
X310723569Y-99880952D01*
X310723569Y-99880952D02*
X310723569Y-100071428D01*
X310723569Y-100071428D02*
X310771188Y-100166666D01*
X310771188Y-100166666D02*
X310818807Y-100214285D01*
X310818807Y-100214285D02*
X310914045Y-100261904D01*
X310914045Y-100261904D02*
X310961664Y-100261904D01*
X310961664Y-100261904D02*
X311056902Y-100214285D01*
X311056902Y-100214285D02*
X311104521Y-100166666D01*
X311104521Y-100166666D02*
X311152140Y-100071428D01*
X311152140Y-100071428D02*
X311152140Y-99880952D01*
X311152140Y-99880952D02*
X311199759Y-99785714D01*
X311199759Y-99785714D02*
X311247378Y-99738095D01*
X311247378Y-99738095D02*
X311342616Y-99690476D01*
X311342616Y-99690476D02*
X311533092Y-99690476D01*
X311533092Y-99690476D02*
X311628330Y-99738095D01*
X311628330Y-99738095D02*
X311675950Y-99785714D01*
X311675950Y-99785714D02*
X311723569Y-99880952D01*
X311723569Y-99880952D02*
X311723569Y-100071428D01*
X311723569Y-100071428D02*
X311675950Y-100166666D01*
X311675950Y-100166666D02*
X311628330Y-100214285D01*
X311628330Y-100214285D02*
X311533092Y-100261904D01*
X311533092Y-100261904D02*
X311342616Y-100261904D01*
X311342616Y-100261904D02*
X311247378Y-100214285D01*
X311247378Y-100214285D02*
X311199759Y-100166666D01*
X311199759Y-100166666D02*
X311152140Y-100071428D01*
X349911069Y-116810714D02*
X348911069Y-116810714D01*
X348911069Y-116810714D02*
X348911069Y-117048809D01*
X348911069Y-117048809D02*
X348958688Y-117191666D01*
X348958688Y-117191666D02*
X349053926Y-117286904D01*
X349053926Y-117286904D02*
X349149164Y-117334523D01*
X349149164Y-117334523D02*
X349339640Y-117382142D01*
X349339640Y-117382142D02*
X349482497Y-117382142D01*
X349482497Y-117382142D02*
X349672973Y-117334523D01*
X349672973Y-117334523D02*
X349768211Y-117286904D01*
X349768211Y-117286904D02*
X349863450Y-117191666D01*
X349863450Y-117191666D02*
X349911069Y-117048809D01*
X349911069Y-117048809D02*
X349911069Y-116810714D01*
X349339640Y-117953571D02*
X349292021Y-117858333D01*
X349292021Y-117858333D02*
X349244402Y-117810714D01*
X349244402Y-117810714D02*
X349149164Y-117763095D01*
X349149164Y-117763095D02*
X349101545Y-117763095D01*
X349101545Y-117763095D02*
X349006307Y-117810714D01*
X349006307Y-117810714D02*
X348958688Y-117858333D01*
X348958688Y-117858333D02*
X348911069Y-117953571D01*
X348911069Y-117953571D02*
X348911069Y-118144047D01*
X348911069Y-118144047D02*
X348958688Y-118239285D01*
X348958688Y-118239285D02*
X349006307Y-118286904D01*
X349006307Y-118286904D02*
X349101545Y-118334523D01*
X349101545Y-118334523D02*
X349149164Y-118334523D01*
X349149164Y-118334523D02*
X349244402Y-118286904D01*
X349244402Y-118286904D02*
X349292021Y-118239285D01*
X349292021Y-118239285D02*
X349339640Y-118144047D01*
X349339640Y-118144047D02*
X349339640Y-117953571D01*
X349339640Y-117953571D02*
X349387259Y-117858333D01*
X349387259Y-117858333D02*
X349434878Y-117810714D01*
X349434878Y-117810714D02*
X349530116Y-117763095D01*
X349530116Y-117763095D02*
X349720592Y-117763095D01*
X349720592Y-117763095D02*
X349815830Y-117810714D01*
X349815830Y-117810714D02*
X349863450Y-117858333D01*
X349863450Y-117858333D02*
X349911069Y-117953571D01*
X349911069Y-117953571D02*
X349911069Y-118144047D01*
X349911069Y-118144047D02*
X349863450Y-118239285D01*
X349863450Y-118239285D02*
X349815830Y-118286904D01*
X349815830Y-118286904D02*
X349720592Y-118334523D01*
X349720592Y-118334523D02*
X349530116Y-118334523D01*
X349530116Y-118334523D02*
X349434878Y-118286904D01*
X349434878Y-118286904D02*
X349387259Y-118239285D01*
X349387259Y-118239285D02*
X349339640Y-118144047D01*
X348911069Y-119191666D02*
X348911069Y-119001190D01*
X348911069Y-119001190D02*
X348958688Y-118905952D01*
X348958688Y-118905952D02*
X349006307Y-118858333D01*
X349006307Y-118858333D02*
X349149164Y-118763095D01*
X349149164Y-118763095D02*
X349339640Y-118715476D01*
X349339640Y-118715476D02*
X349720592Y-118715476D01*
X349720592Y-118715476D02*
X349815830Y-118763095D01*
X349815830Y-118763095D02*
X349863450Y-118810714D01*
X349863450Y-118810714D02*
X349911069Y-118905952D01*
X349911069Y-118905952D02*
X349911069Y-119096428D01*
X349911069Y-119096428D02*
X349863450Y-119191666D01*
X349863450Y-119191666D02*
X349815830Y-119239285D01*
X349815830Y-119239285D02*
X349720592Y-119286904D01*
X349720592Y-119286904D02*
X349482497Y-119286904D01*
X349482497Y-119286904D02*
X349387259Y-119239285D01*
X349387259Y-119239285D02*
X349339640Y-119191666D01*
X349339640Y-119191666D02*
X349292021Y-119096428D01*
X349292021Y-119096428D02*
X349292021Y-118905952D01*
X349292021Y-118905952D02*
X349339640Y-118810714D01*
X349339640Y-118810714D02*
X349387259Y-118763095D01*
X349387259Y-118763095D02*
X349482497Y-118715476D01*
D11*
X316879463Y-88490752D02*
X316165178Y-88490752D01*
X316593749Y-88062180D02*
X316879463Y-89347895D01*
X316260416Y-88919323D02*
X316974701Y-88919323D01*
X316546130Y-89347895D02*
X316260416Y-88062180D01*
X315403273Y-88490752D02*
X315403273Y-89157419D01*
X315641368Y-88109800D02*
X315879463Y-88824085D01*
X315879463Y-88824085D02*
X315260416Y-88824085D01*
X316879463Y-69440752D02*
X316165178Y-69440752D01*
X316593749Y-69012180D02*
X316879463Y-70297895D01*
X316260416Y-69869323D02*
X316974701Y-69869323D01*
X316546130Y-70297895D02*
X316260416Y-69012180D01*
X315927082Y-69107419D02*
X315260416Y-69107419D01*
X315260416Y-69107419D02*
X315688987Y-70107419D01*
D10*
X321273569Y-116785714D02*
X320273569Y-116785714D01*
X320273569Y-116785714D02*
X320273569Y-117023809D01*
X320273569Y-117023809D02*
X320321188Y-117166666D01*
X320321188Y-117166666D02*
X320416426Y-117261904D01*
X320416426Y-117261904D02*
X320511664Y-117309523D01*
X320511664Y-117309523D02*
X320702140Y-117357142D01*
X320702140Y-117357142D02*
X320844997Y-117357142D01*
X320844997Y-117357142D02*
X321035473Y-117309523D01*
X321035473Y-117309523D02*
X321130711Y-117261904D01*
X321130711Y-117261904D02*
X321225950Y-117166666D01*
X321225950Y-117166666D02*
X321273569Y-117023809D01*
X321273569Y-117023809D02*
X321273569Y-116785714D01*
X320702140Y-117928571D02*
X320654521Y-117833333D01*
X320654521Y-117833333D02*
X320606902Y-117785714D01*
X320606902Y-117785714D02*
X320511664Y-117738095D01*
X320511664Y-117738095D02*
X320464045Y-117738095D01*
X320464045Y-117738095D02*
X320368807Y-117785714D01*
X320368807Y-117785714D02*
X320321188Y-117833333D01*
X320321188Y-117833333D02*
X320273569Y-117928571D01*
X320273569Y-117928571D02*
X320273569Y-118119047D01*
X320273569Y-118119047D02*
X320321188Y-118214285D01*
X320321188Y-118214285D02*
X320368807Y-118261904D01*
X320368807Y-118261904D02*
X320464045Y-118309523D01*
X320464045Y-118309523D02*
X320511664Y-118309523D01*
X320511664Y-118309523D02*
X320606902Y-118261904D01*
X320606902Y-118261904D02*
X320654521Y-118214285D01*
X320654521Y-118214285D02*
X320702140Y-118119047D01*
X320702140Y-118119047D02*
X320702140Y-117928571D01*
X320702140Y-117928571D02*
X320749759Y-117833333D01*
X320749759Y-117833333D02*
X320797378Y-117785714D01*
X320797378Y-117785714D02*
X320892616Y-117738095D01*
X320892616Y-117738095D02*
X321083092Y-117738095D01*
X321083092Y-117738095D02*
X321178330Y-117785714D01*
X321178330Y-117785714D02*
X321225950Y-117833333D01*
X321225950Y-117833333D02*
X321273569Y-117928571D01*
X321273569Y-117928571D02*
X321273569Y-118119047D01*
X321273569Y-118119047D02*
X321225950Y-118214285D01*
X321225950Y-118214285D02*
X321178330Y-118261904D01*
X321178330Y-118261904D02*
X321083092Y-118309523D01*
X321083092Y-118309523D02*
X320892616Y-118309523D01*
X320892616Y-118309523D02*
X320797378Y-118261904D01*
X320797378Y-118261904D02*
X320749759Y-118214285D01*
X320749759Y-118214285D02*
X320702140Y-118119047D01*
X320273569Y-119214285D02*
X320273569Y-118738095D01*
X320273569Y-118738095D02*
X320749759Y-118690476D01*
X320749759Y-118690476D02*
X320702140Y-118738095D01*
X320702140Y-118738095D02*
X320654521Y-118833333D01*
X320654521Y-118833333D02*
X320654521Y-119071428D01*
X320654521Y-119071428D02*
X320702140Y-119166666D01*
X320702140Y-119166666D02*
X320749759Y-119214285D01*
X320749759Y-119214285D02*
X320844997Y-119261904D01*
X320844997Y-119261904D02*
X321083092Y-119261904D01*
X321083092Y-119261904D02*
X321178330Y-119214285D01*
X321178330Y-119214285D02*
X321225950Y-119166666D01*
X321225950Y-119166666D02*
X321273569Y-119071428D01*
X321273569Y-119071428D02*
X321273569Y-118833333D01*
X321273569Y-118833333D02*
X321225950Y-118738095D01*
X321225950Y-118738095D02*
X321178330Y-118690476D01*
X349948569Y-40785714D02*
X348948569Y-40785714D01*
X348948569Y-40785714D02*
X348948569Y-41023809D01*
X348948569Y-41023809D02*
X348996188Y-41166666D01*
X348996188Y-41166666D02*
X349091426Y-41261904D01*
X349091426Y-41261904D02*
X349186664Y-41309523D01*
X349186664Y-41309523D02*
X349377140Y-41357142D01*
X349377140Y-41357142D02*
X349519997Y-41357142D01*
X349519997Y-41357142D02*
X349710473Y-41309523D01*
X349710473Y-41309523D02*
X349805711Y-41261904D01*
X349805711Y-41261904D02*
X349900950Y-41166666D01*
X349900950Y-41166666D02*
X349948569Y-41023809D01*
X349948569Y-41023809D02*
X349948569Y-40785714D01*
X349948569Y-42309523D02*
X349948569Y-41738095D01*
X349948569Y-42023809D02*
X348948569Y-42023809D01*
X348948569Y-42023809D02*
X349091426Y-41928571D01*
X349091426Y-41928571D02*
X349186664Y-41833333D01*
X349186664Y-41833333D02*
X349234283Y-41738095D01*
X348948569Y-42642857D02*
X348948569Y-43309523D01*
X348948569Y-43309523D02*
X349948569Y-42880952D01*
D11*
X317760416Y-145640752D02*
X317046131Y-145640752D01*
X317474702Y-145212180D02*
X317760416Y-146497895D01*
X317141369Y-146069323D02*
X317855654Y-146069323D01*
X317427083Y-146497895D02*
X317141369Y-145212180D01*
X316712797Y-146307419D02*
X316712797Y-145307419D01*
X316712797Y-145307419D02*
X316474702Y-145307419D01*
X316474702Y-145307419D02*
X316331845Y-145355038D01*
X316331845Y-145355038D02*
X316236607Y-145450276D01*
X316236607Y-145450276D02*
X316188988Y-145545514D01*
X316188988Y-145545514D02*
X316141369Y-145735990D01*
X316141369Y-145735990D02*
X316141369Y-145878847D01*
X316141369Y-145878847D02*
X316188988Y-146069323D01*
X316188988Y-146069323D02*
X316236607Y-146164561D01*
X316236607Y-146164561D02*
X316331845Y-146259800D01*
X316331845Y-146259800D02*
X316474702Y-146307419D01*
X316474702Y-146307419D02*
X316712797Y-146307419D01*
X315712797Y-145783609D02*
X315379464Y-145783609D01*
X315236607Y-146307419D02*
X315712797Y-146307419D01*
X315712797Y-146307419D02*
X315712797Y-145307419D01*
X315712797Y-145307419D02*
X315236607Y-145307419D01*
X314331845Y-146307419D02*
X314808035Y-146307419D01*
X314808035Y-146307419D02*
X314808035Y-145307419D01*
X336072320Y-51057419D02*
X336072320Y-50057419D01*
X336072320Y-50057419D02*
X335834225Y-50057419D01*
X335834225Y-50057419D02*
X335691368Y-50105038D01*
X335691368Y-50105038D02*
X335596130Y-50200276D01*
X335596130Y-50200276D02*
X335548511Y-50295514D01*
X335548511Y-50295514D02*
X335500892Y-50485990D01*
X335500892Y-50485990D02*
X335500892Y-50628847D01*
X335500892Y-50628847D02*
X335548511Y-50819323D01*
X335548511Y-50819323D02*
X335596130Y-50914561D01*
X335596130Y-50914561D02*
X335691368Y-51009800D01*
X335691368Y-51009800D02*
X335834225Y-51057419D01*
X335834225Y-51057419D02*
X336072320Y-51057419D01*
X335072320Y-51057419D02*
X335072320Y-50057419D01*
X334738987Y-50057419D02*
X334405654Y-51057419D01*
X334405654Y-51057419D02*
X334072321Y-50057419D01*
X374578273Y-51009800D02*
X374435416Y-51057419D01*
X374435416Y-51057419D02*
X374197321Y-51057419D01*
X374197321Y-51057419D02*
X374102083Y-51009800D01*
X374102083Y-51009800D02*
X374054464Y-50962180D01*
X374054464Y-50962180D02*
X374006845Y-50866942D01*
X374006845Y-50866942D02*
X374006845Y-50771704D01*
X374006845Y-50771704D02*
X374054464Y-50676466D01*
X374054464Y-50676466D02*
X374102083Y-50628847D01*
X374102083Y-50628847D02*
X374197321Y-50581228D01*
X374197321Y-50581228D02*
X374387797Y-50533609D01*
X374387797Y-50533609D02*
X374483035Y-50485990D01*
X374483035Y-50485990D02*
X374530654Y-50438371D01*
X374530654Y-50438371D02*
X374578273Y-50343133D01*
X374578273Y-50343133D02*
X374578273Y-50247895D01*
X374578273Y-50247895D02*
X374530654Y-50152657D01*
X374530654Y-50152657D02*
X374483035Y-50105038D01*
X374483035Y-50105038D02*
X374387797Y-50057419D01*
X374387797Y-50057419D02*
X374149702Y-50057419D01*
X374149702Y-50057419D02*
X374006845Y-50105038D01*
X373578273Y-50057419D02*
X373578273Y-50866942D01*
X373578273Y-50866942D02*
X373530654Y-50962180D01*
X373530654Y-50962180D02*
X373483035Y-51009800D01*
X373483035Y-51009800D02*
X373387797Y-51057419D01*
X373387797Y-51057419D02*
X373197321Y-51057419D01*
X373197321Y-51057419D02*
X373102083Y-51009800D01*
X373102083Y-51009800D02*
X373054464Y-50962180D01*
X373054464Y-50962180D02*
X373006845Y-50866942D01*
X373006845Y-50866942D02*
X373006845Y-50057419D01*
X372197321Y-50533609D02*
X372054464Y-50581228D01*
X372054464Y-50581228D02*
X372006845Y-50628847D01*
X372006845Y-50628847D02*
X371959226Y-50724085D01*
X371959226Y-50724085D02*
X371959226Y-50866942D01*
X371959226Y-50866942D02*
X372006845Y-50962180D01*
X372006845Y-50962180D02*
X372054464Y-51009800D01*
X372054464Y-51009800D02*
X372149702Y-51057419D01*
X372149702Y-51057419D02*
X372530654Y-51057419D01*
X372530654Y-51057419D02*
X372530654Y-50057419D01*
X372530654Y-50057419D02*
X372197321Y-50057419D01*
X372197321Y-50057419D02*
X372102083Y-50105038D01*
X372102083Y-50105038D02*
X372054464Y-50152657D01*
X372054464Y-50152657D02*
X372006845Y-50247895D01*
X372006845Y-50247895D02*
X372006845Y-50343133D01*
X372006845Y-50343133D02*
X372054464Y-50438371D01*
X372054464Y-50438371D02*
X372102083Y-50485990D01*
X372102083Y-50485990D02*
X372197321Y-50533609D01*
X372197321Y-50533609D02*
X372530654Y-50533609D01*
D10*
X349948569Y-78785714D02*
X348948569Y-78785714D01*
X348948569Y-78785714D02*
X348948569Y-79023809D01*
X348948569Y-79023809D02*
X348996188Y-79166666D01*
X348996188Y-79166666D02*
X349091426Y-79261904D01*
X349091426Y-79261904D02*
X349186664Y-79309523D01*
X349186664Y-79309523D02*
X349377140Y-79357142D01*
X349377140Y-79357142D02*
X349519997Y-79357142D01*
X349519997Y-79357142D02*
X349710473Y-79309523D01*
X349710473Y-79309523D02*
X349805711Y-79261904D01*
X349805711Y-79261904D02*
X349900950Y-79166666D01*
X349900950Y-79166666D02*
X349948569Y-79023809D01*
X349948569Y-79023809D02*
X349948569Y-78785714D01*
X348948569Y-80261904D02*
X348948569Y-79785714D01*
X348948569Y-79785714D02*
X349424759Y-79738095D01*
X349424759Y-79738095D02*
X349377140Y-79785714D01*
X349377140Y-79785714D02*
X349329521Y-79880952D01*
X349329521Y-79880952D02*
X349329521Y-80119047D01*
X349329521Y-80119047D02*
X349377140Y-80214285D01*
X349377140Y-80214285D02*
X349424759Y-80261904D01*
X349424759Y-80261904D02*
X349519997Y-80309523D01*
X349519997Y-80309523D02*
X349758092Y-80309523D01*
X349758092Y-80309523D02*
X349853330Y-80261904D01*
X349853330Y-80261904D02*
X349900950Y-80214285D01*
X349900950Y-80214285D02*
X349948569Y-80119047D01*
X349948569Y-80119047D02*
X349948569Y-79880952D01*
X349948569Y-79880952D02*
X349900950Y-79785714D01*
X349900950Y-79785714D02*
X349853330Y-79738095D01*
X349043807Y-80690476D02*
X348996188Y-80738095D01*
X348996188Y-80738095D02*
X348948569Y-80833333D01*
X348948569Y-80833333D02*
X348948569Y-81071428D01*
X348948569Y-81071428D02*
X348996188Y-81166666D01*
X348996188Y-81166666D02*
X349043807Y-81214285D01*
X349043807Y-81214285D02*
X349139045Y-81261904D01*
X349139045Y-81261904D02*
X349234283Y-81261904D01*
X349234283Y-81261904D02*
X349377140Y-81214285D01*
X349377140Y-81214285D02*
X349948569Y-80642857D01*
X349948569Y-80642857D02*
X349948569Y-81261904D01*
X313098569Y-40785714D02*
X312098569Y-40785714D01*
X312098569Y-40785714D02*
X312098569Y-41023809D01*
X312098569Y-41023809D02*
X312146188Y-41166666D01*
X312146188Y-41166666D02*
X312241426Y-41261904D01*
X312241426Y-41261904D02*
X312336664Y-41309523D01*
X312336664Y-41309523D02*
X312527140Y-41357142D01*
X312527140Y-41357142D02*
X312669997Y-41357142D01*
X312669997Y-41357142D02*
X312860473Y-41309523D01*
X312860473Y-41309523D02*
X312955711Y-41261904D01*
X312955711Y-41261904D02*
X313050950Y-41166666D01*
X313050950Y-41166666D02*
X313098569Y-41023809D01*
X313098569Y-41023809D02*
X313098569Y-40785714D01*
X313098569Y-42309523D02*
X313098569Y-41738095D01*
X313098569Y-42023809D02*
X312098569Y-42023809D01*
X312098569Y-42023809D02*
X312241426Y-41928571D01*
X312241426Y-41928571D02*
X312336664Y-41833333D01*
X312336664Y-41833333D02*
X312384283Y-41738095D01*
X312098569Y-43214285D02*
X312098569Y-42738095D01*
X312098569Y-42738095D02*
X312574759Y-42690476D01*
X312574759Y-42690476D02*
X312527140Y-42738095D01*
X312527140Y-42738095D02*
X312479521Y-42833333D01*
X312479521Y-42833333D02*
X312479521Y-43071428D01*
X312479521Y-43071428D02*
X312527140Y-43166666D01*
X312527140Y-43166666D02*
X312574759Y-43214285D01*
X312574759Y-43214285D02*
X312669997Y-43261904D01*
X312669997Y-43261904D02*
X312908092Y-43261904D01*
X312908092Y-43261904D02*
X313003330Y-43214285D01*
X313003330Y-43214285D02*
X313050950Y-43166666D01*
X313050950Y-43166666D02*
X313098569Y-43071428D01*
X313098569Y-43071428D02*
X313098569Y-42833333D01*
X313098569Y-42833333D02*
X313050950Y-42738095D01*
X313050950Y-42738095D02*
X313003330Y-42690476D01*
D11*
X354979463Y-69440752D02*
X354265178Y-69440752D01*
X354693749Y-69012180D02*
X354979463Y-70297895D01*
X354360416Y-69869323D02*
X355074701Y-69869323D01*
X354646130Y-70297895D02*
X354360416Y-69012180D01*
X353884225Y-70107419D02*
X353693749Y-70107419D01*
X353693749Y-70107419D02*
X353598511Y-70059800D01*
X353598511Y-70059800D02*
X353550892Y-70012180D01*
X353550892Y-70012180D02*
X353455654Y-69869323D01*
X353455654Y-69869323D02*
X353408035Y-69678847D01*
X353408035Y-69678847D02*
X353408035Y-69297895D01*
X353408035Y-69297895D02*
X353455654Y-69202657D01*
X353455654Y-69202657D02*
X353503273Y-69155038D01*
X353503273Y-69155038D02*
X353598511Y-69107419D01*
X353598511Y-69107419D02*
X353788987Y-69107419D01*
X353788987Y-69107419D02*
X353884225Y-69155038D01*
X353884225Y-69155038D02*
X353931844Y-69202657D01*
X353931844Y-69202657D02*
X353979463Y-69297895D01*
X353979463Y-69297895D02*
X353979463Y-69535990D01*
X353979463Y-69535990D02*
X353931844Y-69631228D01*
X353931844Y-69631228D02*
X353884225Y-69678847D01*
X353884225Y-69678847D02*
X353788987Y-69726466D01*
X353788987Y-69726466D02*
X353598511Y-69726466D01*
X353598511Y-69726466D02*
X353503273Y-69678847D01*
X353503273Y-69678847D02*
X353455654Y-69631228D01*
X353455654Y-69631228D02*
X353408035Y-69535990D01*
X377431845Y-146307419D02*
X377765178Y-145831228D01*
X378003273Y-146307419D02*
X378003273Y-145307419D01*
X378003273Y-145307419D02*
X377622321Y-145307419D01*
X377622321Y-145307419D02*
X377527083Y-145355038D01*
X377527083Y-145355038D02*
X377479464Y-145402657D01*
X377479464Y-145402657D02*
X377431845Y-145497895D01*
X377431845Y-145497895D02*
X377431845Y-145640752D01*
X377431845Y-145640752D02*
X377479464Y-145735990D01*
X377479464Y-145735990D02*
X377527083Y-145783609D01*
X377527083Y-145783609D02*
X377622321Y-145831228D01*
X377622321Y-145831228D02*
X378003273Y-145831228D01*
X377003273Y-146307419D02*
X377003273Y-145307419D01*
X376003274Y-145355038D02*
X376098512Y-145307419D01*
X376098512Y-145307419D02*
X376241369Y-145307419D01*
X376241369Y-145307419D02*
X376384226Y-145355038D01*
X376384226Y-145355038D02*
X376479464Y-145450276D01*
X376479464Y-145450276D02*
X376527083Y-145545514D01*
X376527083Y-145545514D02*
X376574702Y-145735990D01*
X376574702Y-145735990D02*
X376574702Y-145878847D01*
X376574702Y-145878847D02*
X376527083Y-146069323D01*
X376527083Y-146069323D02*
X376479464Y-146164561D01*
X376479464Y-146164561D02*
X376384226Y-146259800D01*
X376384226Y-146259800D02*
X376241369Y-146307419D01*
X376241369Y-146307419D02*
X376146131Y-146307419D01*
X376146131Y-146307419D02*
X376003274Y-146259800D01*
X376003274Y-146259800D02*
X375955655Y-146212180D01*
X375955655Y-146212180D02*
X375955655Y-145878847D01*
X375955655Y-145878847D02*
X376146131Y-145878847D01*
X375527083Y-146307419D02*
X375527083Y-145307419D01*
X375527083Y-145783609D02*
X374955655Y-145783609D01*
X374955655Y-146307419D02*
X374955655Y-145307419D01*
X374622321Y-145307419D02*
X374050893Y-145307419D01*
X374336607Y-146307419D02*
X374336607Y-145307419D01*
X373003273Y-146021704D02*
X372527083Y-146021704D01*
X373098511Y-146307419D02*
X372765178Y-145307419D01*
X372765178Y-145307419D02*
X372431845Y-146307419D01*
X371527083Y-146307419D02*
X371860416Y-145831228D01*
X372098511Y-146307419D02*
X372098511Y-145307419D01*
X372098511Y-145307419D02*
X371717559Y-145307419D01*
X371717559Y-145307419D02*
X371622321Y-145355038D01*
X371622321Y-145355038D02*
X371574702Y-145402657D01*
X371574702Y-145402657D02*
X371527083Y-145497895D01*
X371527083Y-145497895D02*
X371527083Y-145640752D01*
X371527083Y-145640752D02*
X371574702Y-145735990D01*
X371574702Y-145735990D02*
X371622321Y-145783609D01*
X371622321Y-145783609D02*
X371717559Y-145831228D01*
X371717559Y-145831228D02*
X372098511Y-145831228D01*
X370527083Y-146307419D02*
X370860416Y-145831228D01*
X371098511Y-146307419D02*
X371098511Y-145307419D01*
X371098511Y-145307419D02*
X370717559Y-145307419D01*
X370717559Y-145307419D02*
X370622321Y-145355038D01*
X370622321Y-145355038D02*
X370574702Y-145402657D01*
X370574702Y-145402657D02*
X370527083Y-145497895D01*
X370527083Y-145497895D02*
X370527083Y-145640752D01*
X370527083Y-145640752D02*
X370574702Y-145735990D01*
X370574702Y-145735990D02*
X370622321Y-145783609D01*
X370622321Y-145783609D02*
X370717559Y-145831228D01*
X370717559Y-145831228D02*
X371098511Y-145831228D01*
X369908035Y-145307419D02*
X369717559Y-145307419D01*
X369717559Y-145307419D02*
X369622321Y-145355038D01*
X369622321Y-145355038D02*
X369527083Y-145450276D01*
X369527083Y-145450276D02*
X369479464Y-145640752D01*
X369479464Y-145640752D02*
X369479464Y-145974085D01*
X369479464Y-145974085D02*
X369527083Y-146164561D01*
X369527083Y-146164561D02*
X369622321Y-146259800D01*
X369622321Y-146259800D02*
X369717559Y-146307419D01*
X369717559Y-146307419D02*
X369908035Y-146307419D01*
X369908035Y-146307419D02*
X370003273Y-146259800D01*
X370003273Y-146259800D02*
X370098511Y-146164561D01*
X370098511Y-146164561D02*
X370146130Y-145974085D01*
X370146130Y-145974085D02*
X370146130Y-145640752D01*
X370146130Y-145640752D02*
X370098511Y-145450276D01*
X370098511Y-145450276D02*
X370003273Y-145355038D01*
X370003273Y-145355038D02*
X369908035Y-145307419D01*
X369146130Y-145307419D02*
X368908035Y-146307419D01*
X368908035Y-146307419D02*
X368717559Y-145593133D01*
X368717559Y-145593133D02*
X368527083Y-146307419D01*
X368527083Y-146307419D02*
X368288988Y-145307419D01*
D10*
X330848569Y-78785714D02*
X329848569Y-78785714D01*
X329848569Y-78785714D02*
X329848569Y-79023809D01*
X329848569Y-79023809D02*
X329896188Y-79166666D01*
X329896188Y-79166666D02*
X329991426Y-79261904D01*
X329991426Y-79261904D02*
X330086664Y-79309523D01*
X330086664Y-79309523D02*
X330277140Y-79357142D01*
X330277140Y-79357142D02*
X330419997Y-79357142D01*
X330419997Y-79357142D02*
X330610473Y-79309523D01*
X330610473Y-79309523D02*
X330705711Y-79261904D01*
X330705711Y-79261904D02*
X330800950Y-79166666D01*
X330800950Y-79166666D02*
X330848569Y-79023809D01*
X330848569Y-79023809D02*
X330848569Y-78785714D01*
X329848569Y-80261904D02*
X329848569Y-79785714D01*
X329848569Y-79785714D02*
X330324759Y-79738095D01*
X330324759Y-79738095D02*
X330277140Y-79785714D01*
X330277140Y-79785714D02*
X330229521Y-79880952D01*
X330229521Y-79880952D02*
X330229521Y-80119047D01*
X330229521Y-80119047D02*
X330277140Y-80214285D01*
X330277140Y-80214285D02*
X330324759Y-80261904D01*
X330324759Y-80261904D02*
X330419997Y-80309523D01*
X330419997Y-80309523D02*
X330658092Y-80309523D01*
X330658092Y-80309523D02*
X330753330Y-80261904D01*
X330753330Y-80261904D02*
X330800950Y-80214285D01*
X330800950Y-80214285D02*
X330848569Y-80119047D01*
X330848569Y-80119047D02*
X330848569Y-79880952D01*
X330848569Y-79880952D02*
X330800950Y-79785714D01*
X330800950Y-79785714D02*
X330753330Y-79738095D01*
X330848569Y-81261904D02*
X330848569Y-80690476D01*
X330848569Y-80976190D02*
X329848569Y-80976190D01*
X329848569Y-80976190D02*
X329991426Y-80880952D01*
X329991426Y-80880952D02*
X330086664Y-80785714D01*
X330086664Y-80785714D02*
X330134283Y-80690476D01*
D11*
X335929463Y-69440752D02*
X335215178Y-69440752D01*
X335643749Y-69012180D02*
X335929463Y-70297895D01*
X335310416Y-69869323D02*
X336024701Y-69869323D01*
X335596130Y-70297895D02*
X335310416Y-69012180D01*
X334738987Y-69535990D02*
X334834225Y-69488371D01*
X334834225Y-69488371D02*
X334881844Y-69440752D01*
X334881844Y-69440752D02*
X334929463Y-69345514D01*
X334929463Y-69345514D02*
X334929463Y-69297895D01*
X334929463Y-69297895D02*
X334881844Y-69202657D01*
X334881844Y-69202657D02*
X334834225Y-69155038D01*
X334834225Y-69155038D02*
X334738987Y-69107419D01*
X334738987Y-69107419D02*
X334548511Y-69107419D01*
X334548511Y-69107419D02*
X334453273Y-69155038D01*
X334453273Y-69155038D02*
X334405654Y-69202657D01*
X334405654Y-69202657D02*
X334358035Y-69297895D01*
X334358035Y-69297895D02*
X334358035Y-69345514D01*
X334358035Y-69345514D02*
X334405654Y-69440752D01*
X334405654Y-69440752D02*
X334453273Y-69488371D01*
X334453273Y-69488371D02*
X334548511Y-69535990D01*
X334548511Y-69535990D02*
X334738987Y-69535990D01*
X334738987Y-69535990D02*
X334834225Y-69583609D01*
X334834225Y-69583609D02*
X334881844Y-69631228D01*
X334881844Y-69631228D02*
X334929463Y-69726466D01*
X334929463Y-69726466D02*
X334929463Y-69916942D01*
X334929463Y-69916942D02*
X334881844Y-70012180D01*
X334881844Y-70012180D02*
X334834225Y-70059800D01*
X334834225Y-70059800D02*
X334738987Y-70107419D01*
X334738987Y-70107419D02*
X334548511Y-70107419D01*
X334548511Y-70107419D02*
X334453273Y-70059800D01*
X334453273Y-70059800D02*
X334405654Y-70012180D01*
X334405654Y-70012180D02*
X334358035Y-69916942D01*
X334358035Y-69916942D02*
X334358035Y-69726466D01*
X334358035Y-69726466D02*
X334405654Y-69631228D01*
X334405654Y-69631228D02*
X334453273Y-69583609D01*
X334453273Y-69583609D02*
X334548511Y-69535990D01*
X335916963Y-107540752D02*
X335202678Y-107540752D01*
X335631249Y-107112180D02*
X335916963Y-108397895D01*
X335297916Y-107969323D02*
X336012201Y-107969323D01*
X335583630Y-108397895D02*
X335297916Y-107112180D01*
X334916963Y-107302657D02*
X334869344Y-107255038D01*
X334869344Y-107255038D02*
X334774106Y-107207419D01*
X334774106Y-107207419D02*
X334536011Y-107207419D01*
X334536011Y-107207419D02*
X334440773Y-107255038D01*
X334440773Y-107255038D02*
X334393154Y-107302657D01*
X334393154Y-107302657D02*
X334345535Y-107397895D01*
X334345535Y-107397895D02*
X334345535Y-107493133D01*
X334345535Y-107493133D02*
X334393154Y-107635990D01*
X334393154Y-107635990D02*
X334964582Y-108207419D01*
X334964582Y-108207419D02*
X334345535Y-108207419D01*
X327939582Y-126757419D02*
X327939582Y-125757419D01*
X327463392Y-126757419D02*
X327463392Y-125757419D01*
X327463392Y-125757419D02*
X326891964Y-126757419D01*
X326891964Y-126757419D02*
X326891964Y-125757419D01*
X326463392Y-126709800D02*
X326320535Y-126757419D01*
X326320535Y-126757419D02*
X326082440Y-126757419D01*
X326082440Y-126757419D02*
X325987202Y-126709800D01*
X325987202Y-126709800D02*
X325939583Y-126662180D01*
X325939583Y-126662180D02*
X325891964Y-126566942D01*
X325891964Y-126566942D02*
X325891964Y-126471704D01*
X325891964Y-126471704D02*
X325939583Y-126376466D01*
X325939583Y-126376466D02*
X325987202Y-126328847D01*
X325987202Y-126328847D02*
X326082440Y-126281228D01*
X326082440Y-126281228D02*
X326272916Y-126233609D01*
X326272916Y-126233609D02*
X326368154Y-126185990D01*
X326368154Y-126185990D02*
X326415773Y-126138371D01*
X326415773Y-126138371D02*
X326463392Y-126043133D01*
X326463392Y-126043133D02*
X326463392Y-125947895D01*
X326463392Y-125947895D02*
X326415773Y-125852657D01*
X326415773Y-125852657D02*
X326368154Y-125805038D01*
X326368154Y-125805038D02*
X326272916Y-125757419D01*
X326272916Y-125757419D02*
X326034821Y-125757419D01*
X326034821Y-125757419D02*
X325891964Y-125805038D01*
X325463392Y-126233609D02*
X325130059Y-126233609D01*
X324987202Y-126757419D02*
X325463392Y-126757419D01*
X325463392Y-126757419D02*
X325463392Y-125757419D01*
X325463392Y-125757419D02*
X324987202Y-125757419D01*
X323987202Y-126757419D02*
X324320535Y-126281228D01*
X324558630Y-126757419D02*
X324558630Y-125757419D01*
X324558630Y-125757419D02*
X324177678Y-125757419D01*
X324177678Y-125757419D02*
X324082440Y-125805038D01*
X324082440Y-125805038D02*
X324034821Y-125852657D01*
X324034821Y-125852657D02*
X323987202Y-125947895D01*
X323987202Y-125947895D02*
X323987202Y-126090752D01*
X323987202Y-126090752D02*
X324034821Y-126185990D01*
X324034821Y-126185990D02*
X324082440Y-126233609D01*
X324082440Y-126233609D02*
X324177678Y-126281228D01*
X324177678Y-126281228D02*
X324558630Y-126281228D01*
X323701487Y-125757419D02*
X323130059Y-125757419D01*
X323415773Y-126757419D02*
X323415773Y-125757419D01*
D12*
%TO.C,D69*%
X329666250Y-100860000D02*
X327746250Y-100860000D01*
X327746250Y-100860000D02*
X327746250Y-98000000D01*
X329666250Y-98000000D02*
X329666250Y-100860000D01*
%TO.C,D18*%
X367953750Y-43860000D02*
X366033750Y-43860000D01*
X366033750Y-43860000D02*
X366033750Y-41000000D01*
X367953750Y-41000000D02*
X367953750Y-43860000D01*
%TO.C,D98*%
X348753750Y-138860000D02*
X346833750Y-138860000D01*
X346833750Y-138860000D02*
X346833750Y-136000000D01*
X348753750Y-136000000D02*
X348753750Y-138860000D01*
%TO.C,D71*%
X371083750Y-103460000D02*
X371083750Y-101540000D01*
X371083750Y-101540000D02*
X373943750Y-101540000D01*
X373943750Y-103460000D02*
X371083750Y-103460000D01*
%TO.C,D96*%
X310578750Y-138835000D02*
X308658750Y-138835000D01*
X308658750Y-138835000D02*
X308658750Y-135975000D01*
X310578750Y-135975000D02*
X310578750Y-138835000D01*
%TO.C,D16*%
X329703750Y-43860000D02*
X327783750Y-43860000D01*
X327783750Y-43860000D02*
X327783750Y-41000000D01*
X329703750Y-41000000D02*
X329703750Y-43860000D01*
%TO.C,D35*%
X348803750Y-62860000D02*
X346883750Y-62860000D01*
X346883750Y-62860000D02*
X346883750Y-60000000D01*
X348803750Y-60000000D02*
X348803750Y-62860000D01*
%TO.C,D50*%
X312953750Y-81860000D02*
X311033750Y-81860000D01*
X311033750Y-81860000D02*
X311033750Y-79000000D01*
X312953750Y-79000000D02*
X312953750Y-81860000D01*
%TO.C,D97*%
X329628750Y-138885000D02*
X327708750Y-138885000D01*
X327708750Y-138885000D02*
X327708750Y-136025000D01*
X329628750Y-136025000D02*
X329628750Y-138885000D01*
%TO.C,D53*%
X371458750Y-65060000D02*
X371458750Y-63140000D01*
X371458750Y-63140000D02*
X374318750Y-63140000D01*
X374318750Y-65060000D02*
X371458750Y-65060000D01*
%TO.C,D99*%
X367853750Y-138835000D02*
X365933750Y-138835000D01*
X365933750Y-138835000D02*
X365933750Y-135975000D01*
X367853750Y-135975000D02*
X367853750Y-138835000D01*
%TO.C,D33*%
X311953750Y-62835000D02*
X310033750Y-62835000D01*
X310033750Y-62835000D02*
X310033750Y-59975000D01*
X311953750Y-59975000D02*
X311953750Y-62835000D01*
%TO.C,D34*%
X329703750Y-62860000D02*
X327783750Y-62860000D01*
X327783750Y-62860000D02*
X327783750Y-60000000D01*
X329703750Y-60000000D02*
X329703750Y-62860000D01*
%TO.C,D70*%
X348803750Y-100885000D02*
X346883750Y-100885000D01*
X346883750Y-100885000D02*
X346883750Y-98025000D01*
X348803750Y-98025000D02*
X348803750Y-100885000D01*
%TO.C,D68*%
X310578750Y-100860000D02*
X308658750Y-100860000D01*
X308658750Y-100860000D02*
X308658750Y-98000000D01*
X310578750Y-98000000D02*
X310578750Y-100860000D01*
%TO.C,D86*%
X348766250Y-119885000D02*
X346846250Y-119885000D01*
X346846250Y-119885000D02*
X346846250Y-117025000D01*
X348766250Y-117025000D02*
X348766250Y-119885000D01*
%TO.C,D85*%
X320128750Y-119860000D02*
X318208750Y-119860000D01*
X318208750Y-119860000D02*
X318208750Y-117000000D01*
X320128750Y-117000000D02*
X320128750Y-119860000D01*
%TO.C,D17*%
X348803750Y-43860000D02*
X346883750Y-43860000D01*
X346883750Y-43860000D02*
X346883750Y-41000000D01*
X348803750Y-41000000D02*
X348803750Y-43860000D01*
%TO.C,D52*%
X348803750Y-81860000D02*
X346883750Y-81860000D01*
X346883750Y-81860000D02*
X346883750Y-79000000D01*
X348803750Y-79000000D02*
X348803750Y-81860000D01*
%TO.C,D15*%
X311953750Y-43860000D02*
X310033750Y-43860000D01*
X310033750Y-43860000D02*
X310033750Y-41000000D01*
X311953750Y-41000000D02*
X311953750Y-43860000D01*
%TO.C,D51*%
X329703750Y-81860000D02*
X327783750Y-81860000D01*
X327783750Y-81860000D02*
X327783750Y-79000000D01*
X329703750Y-79000000D02*
X329703750Y-81860000D01*
%TD*%
M02*
