M48
; DRILL file {KiCad 9.0.6} date 2026-04-07T13:25:16-0400
; FORMAT={-:-/ absolute / metric / decimal}
; #@! TF.CreationDate,2026-04-07T13:25:16-04:00
; #@! TF.GenerationSoftware,Kicad,Pcbnew,9.0.6
; #@! TF.FileFunction,Plated,1,2,PTH
FMAT,2
METRIC
; #@! TA.AperFunction,Plated,PTH,ViaDrill
T1C0.300
; #@! TA.AperFunction,Plated,PTH,ComponentDrill
T2C1.000
%
G90
G05
T1
X318.494Y-52.25
X319.244Y-51.5
X320.244Y-50.5
X323.494Y-61.0
X323.494Y-80.5
X323.494Y-99.25
X323.5Y-42.0
X323.744Y-137.5
X333.244Y-118.25
X341.244Y-50.5
X342.494Y-61.5
X342.494Y-79.75
X342.494Y-99.5
X342.744Y-41.75
X342.744Y-137.25
X360.244Y-51.5
X361.744Y-41.75
X361.744Y-61.0
X361.744Y-99.0
X361.744Y-137.5
X361.994Y-80.25
X361.994Y-118.25
X375.744Y-120.75
X376.244Y-83.0
X380.494Y-42.0
X380.494Y-52.25
X380.494Y-138.0
T2
X306.744Y-44.75
X306.744Y-47.29
X306.744Y-49.83
X306.744Y-52.37
X306.744Y-54.91
X306.744Y-117.34
X306.744Y-119.88
X306.744Y-122.42
X306.744Y-124.96
X306.744Y-127.5
M30
