M48
; DRILL file {KiCad 9.0.6} date 2026-04-06T09:05:28-0400
; FORMAT={-:-/ absolute / metric / decimal}
; #@! TF.CreationDate,2026-04-06T09:05:28-04:00
; #@! TF.GenerationSoftware,Kicad,Pcbnew,9.0.6
; #@! TF.FileFunction,NonPlated,1,2,NPTH
FMAT,2
METRIC
; #@! TA.AperFunction,NonPlated,NPTH,ComponentDrill
T1C1.500
; #@! TA.AperFunction,NonPlated,NPTH,ComponentDrill
T2C3.000
; #@! TA.AperFunction,NonPlated,NPTH,ComponentDrill
T3C5.100
%
G90
G05
T2
X316.081Y-36.1
X316.094Y-55.15
X316.094Y-74.2
X316.094Y-93.25
X316.094Y-131.35
X321.081Y-38.3
X321.094Y-57.35
X321.094Y-76.4
X321.094Y-95.45
X321.094Y-133.55
X325.606Y-112.3
X330.606Y-114.5
X335.094Y-131.35
X335.131Y-93.25
X335.144Y-36.1
X335.144Y-55.15
X335.144Y-74.2
X340.094Y-133.55
X340.131Y-95.45
X340.144Y-38.3
X340.144Y-57.35
X340.144Y-76.4
X354.144Y-131.35
X354.181Y-112.3
X354.194Y-36.1
X354.194Y-55.15
X354.194Y-74.2
X354.194Y-93.25
X359.144Y-133.55
X359.181Y-114.5
X359.194Y-38.3
X359.194Y-57.35
X359.194Y-76.4
X359.194Y-95.45
X373.194Y-131.35
X373.269Y-36.1
X377.044Y-75.675
X377.044Y-113.775
X378.194Y-133.55
X378.269Y-38.3
X379.244Y-70.675
X379.244Y-108.775
T3
X316.081Y-42.1
X316.094Y-61.15
X316.094Y-80.2
X316.094Y-99.25
X316.094Y-137.35
X325.606Y-118.3
X335.094Y-137.35
X335.131Y-99.25
X335.144Y-42.1
X335.144Y-61.15
X335.144Y-80.2
X354.144Y-137.35
X354.181Y-118.3
X354.194Y-42.1
X354.194Y-61.15
X354.194Y-80.2
X354.194Y-99.25
X373.194Y-137.35
X373.244Y-70.675
X373.244Y-108.775
X373.269Y-42.1
T1
G00X311.081Y-47.0
M15
G01X311.081Y-47.5
M16
G05
G00X311.094Y-66.05
M15
G01X311.094Y-66.55
M16
G05
G00X311.094Y-85.1
M15
G01X311.094Y-85.6
M16
G05
G00X311.094Y-104.15
M15
G01X311.094Y-104.65
M16
G05
G00X311.094Y-142.25
M15
G01X311.094Y-142.75
M16
G05
G00X320.606Y-123.2
M15
G01X320.606Y-123.7
M16
G05
G00X330.094Y-142.25
M15
G01X330.094Y-142.75
M16
G05
G00X330.131Y-104.15
M15
G01X330.131Y-104.65
M16
G05
G00X330.144Y-47.0
M15
G01X330.144Y-47.5
M16
G05
G00X330.144Y-66.05
M15
G01X330.144Y-66.55
M16
G05
G00X330.144Y-85.1
M15
G01X330.144Y-85.6
M16
G05
G00X349.144Y-142.25
M15
G01X349.144Y-142.75
M16
G05
G00X349.181Y-123.2
M15
G01X349.181Y-123.7
M16
G05
G00X349.194Y-47.0
M15
G01X349.194Y-47.5
M16
G05
G00X349.194Y-66.05
M15
G01X349.194Y-66.55
M16
G05
G00X349.194Y-85.1
M15
G01X349.194Y-85.6
M16
G05
G00X349.194Y-104.15
M15
G01X349.194Y-104.65
M16
G05
G00X368.344Y-65.675
M15
G01X367.844Y-65.675
M16
G05
G00X368.344Y-103.775
M15
G01X367.844Y-103.775
M16
G05
G00X368.194Y-142.25
M15
G01X368.194Y-142.75
M16
G05
G00X368.269Y-47.0
M15
G01X368.269Y-47.5
M16
G05
M30
