%TF.GenerationSoftware,KiCad,Pcbnew,9.0.6*%
%TF.CreationDate,2026-04-02T12:42:12-04:00*%
%TF.ProjectId,new-keyboard-pcb,6e65772d-6b65-4796-926f-6172642d7063,rev?*%
%TF.SameCoordinates,Original*%
%TF.FileFunction,Soldermask,Bot*%
%TF.FilePolarity,Negative*%
%FSLAX46Y46*%
G04 Gerber Fmt 4.6, Leading zero omitted, Abs format (unit mm)*
G04 Created by KiCad (PCBNEW 9.0.6) date 2026-04-02 12:42:12*
%MOMM*%
%LPD*%
G01*
G04 APERTURE LIST*
G04 Aperture macros list*
%AMRoundRect*
0 Rectangle with rounded corners*
0 $1 Rounding radius*
0 $2 $3 $4 $5 $6 $7 $8 $9 X,Y pos of 4 corners*
0 Add a 4 corners polygon primitive as box body*
4,1,4,$2,$3,$4,$5,$6,$7,$8,$9,$2,$3,0*
0 Add four circle primitives for the rounded corners*
1,1,$1+$1,$2,$3*
1,1,$1+$1,$4,$5*
1,1,$1+$1,$6,$7*
1,1,$1+$1,$8,$9*
0 Add four rect primitives between the rounded corners*
20,1,$1+$1,$2,$3,$4,$5,0*
20,1,$1+$1,$4,$5,$6,$7,0*
20,1,$1+$1,$6,$7,$8,$9,0*
20,1,$1+$1,$8,$9,$2,$3,0*%
G04 Aperture macros list end*
%ADD10R,0.500000X2.250000*%
%ADD11O,1.700000X2.700000*%
%ADD12RoundRect,0.250000X-0.450000X0.350000X-0.450000X-0.350000X0.450000X-0.350000X0.450000X0.350000X0*%
%ADD13RoundRect,0.225000X0.375000X-0.225000X0.375000X0.225000X-0.375000X0.225000X-0.375000X-0.225000X0*%
%ADD14C,3.000000*%
%ADD15C,5.000000*%
%ADD16O,1.500000X2.000000*%
%ADD17RoundRect,0.250000X0.337500X0.475000X-0.337500X0.475000X-0.337500X-0.475000X0.337500X-0.475000X0*%
%ADD18R,1.100000X1.800000*%
%ADD19RoundRect,0.250000X-0.337500X-0.475000X0.337500X-0.475000X0.337500X0.475000X-0.337500X0.475000X0*%
%ADD20RoundRect,0.250000X0.475000X-0.337500X0.475000X0.337500X-0.475000X0.337500X-0.475000X-0.337500X0*%
%ADD21RoundRect,0.250000X0.800000X0.650000X-0.800000X0.650000X-0.800000X-0.650000X0.800000X-0.650000X0*%
%ADD22RoundRect,0.250000X-0.475000X0.337500X-0.475000X-0.337500X0.475000X-0.337500X0.475000X0.337500X0*%
%ADD23RoundRect,0.137500X-0.600000X-0.137500X0.600000X-0.137500X0.600000X0.137500X-0.600000X0.137500X0*%
%ADD24RoundRect,0.137500X-0.137500X-0.600000X0.137500X-0.600000X0.137500X0.600000X-0.137500X0.600000X0*%
%ADD25RoundRect,0.250001X-0.624999X0.462499X-0.624999X-0.462499X0.624999X-0.462499X0.624999X0.462499X0*%
G04 APERTURE END LIST*
D10*
%TO.C,USB1*%
X115100000Y-105750000D03*
X114300000Y-105750000D03*
X113500000Y-105750000D03*
X112700000Y-105750000D03*
X111900000Y-105750000D03*
D11*
X109850000Y-105750000D03*
X117150000Y-105750000D03*
X117150000Y-101250000D03*
X109850000Y-101250000D03*
%TD*%
D12*
%TO.C,R4*%
X135500000Y-131750000D03*
X135500000Y-129750000D03*
%TD*%
%TO.C,R3*%
X111500000Y-109500000D03*
X111500000Y-111500000D03*
%TD*%
%TO.C,R2*%
X114750000Y-111500000D03*
X114750000Y-109500000D03*
%TD*%
D13*
%TO.C,D3*%
X157250000Y-126600000D03*
X157250000Y-129900000D03*
%TD*%
D14*
%TO.C,CH2*%
X164500000Y-105550000D03*
X169500000Y-103350000D03*
D15*
X169500000Y-109350000D03*
D16*
X174500000Y-114500000D03*
%TD*%
D17*
%TO.C,C6*%
X130950000Y-134750000D03*
X128875000Y-134750000D03*
%TD*%
D18*
%TO.C,SW1*%
X112250000Y-136200000D03*
X108550000Y-130000000D03*
X108550000Y-136200000D03*
X112250000Y-130000000D03*
%TD*%
D13*
%TO.C,D1*%
X157250000Y-110900000D03*
X157250000Y-107600000D03*
%TD*%
D12*
%TO.C,R1*%
X115750000Y-117500000D03*
X115750000Y-115500000D03*
%TD*%
D13*
%TO.C,D4*%
X176250000Y-129900000D03*
X176250000Y-126600000D03*
%TD*%
%TO.C,D2*%
X176250000Y-110900000D03*
X176250000Y-107600000D03*
%TD*%
D19*
%TO.C,C3*%
X118037500Y-123250000D03*
X115962500Y-123250000D03*
%TD*%
%TO.C,C7*%
X121625000Y-134750000D03*
X123700000Y-134750000D03*
%TD*%
D20*
%TO.C,C4*%
X119000000Y-117537500D03*
X119000000Y-115462500D03*
%TD*%
D21*
%TO.C,Y1*%
X129882072Y-114750000D03*
X126982072Y-114750000D03*
X126982072Y-112450000D03*
X129882072Y-112450000D03*
%TD*%
D22*
%TO.C,C1*%
X132882072Y-112450000D03*
X132882072Y-114525000D03*
%TD*%
D23*
%TO.C,U1*%
X120587500Y-129750000D03*
X120587500Y-128950000D03*
X120587500Y-128150000D03*
X120587500Y-127350000D03*
X120587500Y-126550000D03*
X120587500Y-125750000D03*
X120587500Y-124950000D03*
X120587500Y-124150000D03*
X120587500Y-123350000D03*
X120587500Y-122550000D03*
X120587500Y-121750000D03*
D24*
X122250000Y-120087500D03*
X123050000Y-120087500D03*
X123850000Y-120087500D03*
X124650000Y-120087500D03*
X125450000Y-120087500D03*
X126250000Y-120087500D03*
X127050000Y-120087500D03*
X127850000Y-120087500D03*
X128650000Y-120087500D03*
X129450000Y-120087500D03*
X130250000Y-120087500D03*
D23*
X131912500Y-121750000D03*
X131912500Y-122550000D03*
X131912500Y-123350000D03*
X131912500Y-124150000D03*
X131912500Y-124950000D03*
X131912500Y-125750000D03*
X131912500Y-126550000D03*
X131912500Y-127350000D03*
X131912500Y-128150000D03*
X131912500Y-128950000D03*
X131912500Y-129750000D03*
D24*
X130250000Y-131412500D03*
X129450000Y-131412500D03*
X128650000Y-131412500D03*
X127850000Y-131412500D03*
X127050000Y-131412500D03*
X126250000Y-131412500D03*
X125450000Y-131412500D03*
X124650000Y-131412500D03*
X123850000Y-131412500D03*
X123050000Y-131412500D03*
X122250000Y-131412500D03*
%TD*%
D20*
%TO.C,C2*%
X124132072Y-114525000D03*
X124132072Y-112450000D03*
%TD*%
%TO.C,C5*%
X135412500Y-123250000D03*
X135412500Y-121175000D03*
%TD*%
D25*
%TO.C,F1*%
X109750000Y-120237500D03*
X109750000Y-117262500D03*
%TD*%
D14*
%TO.C,CH1*%
X145500000Y-105550000D03*
X150500000Y-103350000D03*
D15*
X150500000Y-109350000D03*
D16*
X155500000Y-114500000D03*
%TD*%
D14*
%TO.C,CH4*%
X164500000Y-124550000D03*
X169500000Y-122350000D03*
D15*
X169500000Y-128350000D03*
D16*
X174500000Y-133500000D03*
%TD*%
D14*
%TO.C,CH3*%
X145500000Y-124550000D03*
X150500000Y-122350000D03*
D15*
X150500000Y-128350000D03*
D16*
X155500000Y-133500000D03*
%TD*%
M02*
