%TF.GenerationSoftware,KiCad,Pcbnew,9.0.6*%
%TF.CreationDate,2026-04-02T12:42:12-04:00*%
%TF.ProjectId,new-keyboard-pcb,6e65772d-6b65-4796-926f-6172642d7063,rev?*%
%TF.SameCoordinates,Original*%
%TF.FileFunction,Copper,L2,Bot*%
%TF.FilePolarity,Positive*%
%FSLAX46Y46*%
G04 Gerber Fmt 4.6, Leading zero omitted, Abs format (unit mm)*
G04 Created by KiCad (PCBNEW 9.0.6) date 2026-04-02 12:42:12*
%MOMM*%
%LPD*%
G01*
G04 APERTURE LIST*
G04 Aperture macros list*
%AMRoundRect*
0 Rectangle with rounded corners*
0 $1 Rounding radius*
0 $2 $3 $4 $5 $6 $7 $8 $9 X,Y pos of 4 corners*
0 Add a 4 corners polygon primitive as box body*
4,1,4,$2,$3,$4,$5,$6,$7,$8,$9,$2,$3,0*
0 Add four circle primitives for the rounded corners*
1,1,$1+$1,$2,$3*
1,1,$1+$1,$4,$5*
1,1,$1+$1,$6,$7*
1,1,$1+$1,$8,$9*
0 Add four rect primitives between the rounded corners*
20,1,$1+$1,$2,$3,$4,$5,0*
20,1,$1+$1,$4,$5,$6,$7,0*
20,1,$1+$1,$6,$7,$8,$9,0*
20,1,$1+$1,$8,$9,$2,$3,0*%
G04 Aperture macros list end*
%TA.AperFunction,SMDPad,CuDef*%
%ADD10R,0.500000X2.250000*%
%TD*%
%TA.AperFunction,ComponentPad*%
%ADD11O,1.700000X2.700000*%
%TD*%
%TA.AperFunction,SMDPad,CuDef*%
%ADD12RoundRect,0.250000X-0.450000X0.350000X-0.450000X-0.350000X0.450000X-0.350000X0.450000X0.350000X0*%
%TD*%
%TA.AperFunction,SMDPad,CuDef*%
%ADD13RoundRect,0.225000X0.375000X-0.225000X0.375000X0.225000X-0.375000X0.225000X-0.375000X-0.225000X0*%
%TD*%
%TA.AperFunction,SMDPad,CuDef*%
%ADD14RoundRect,0.250000X0.337500X0.475000X-0.337500X0.475000X-0.337500X-0.475000X0.337500X-0.475000X0*%
%TD*%
%TA.AperFunction,SMDPad,CuDef*%
%ADD15R,1.100000X1.800000*%
%TD*%
%TA.AperFunction,SMDPad,CuDef*%
%ADD16RoundRect,0.250000X-0.337500X-0.475000X0.337500X-0.475000X0.337500X0.475000X-0.337500X0.475000X0*%
%TD*%
%TA.AperFunction,SMDPad,CuDef*%
%ADD17RoundRect,0.250000X0.475000X-0.337500X0.475000X0.337500X-0.475000X0.337500X-0.475000X-0.337500X0*%
%TD*%
%TA.AperFunction,SMDPad,CuDef*%
%ADD18RoundRect,0.250000X0.800000X0.650000X-0.800000X0.650000X-0.800000X-0.650000X0.800000X-0.650000X0*%
%TD*%
%TA.AperFunction,SMDPad,CuDef*%
%ADD19RoundRect,0.250000X-0.475000X0.337500X-0.475000X-0.337500X0.475000X-0.337500X0.475000X0.337500X0*%
%TD*%
%TA.AperFunction,SMDPad,CuDef*%
%ADD20RoundRect,0.137500X-0.600000X-0.137500X0.600000X-0.137500X0.600000X0.137500X-0.600000X0.137500X0*%
%TD*%
%TA.AperFunction,SMDPad,CuDef*%
%ADD21RoundRect,0.137500X-0.137500X-0.600000X0.137500X-0.600000X0.137500X0.600000X-0.137500X0.600000X0*%
%TD*%
%TA.AperFunction,SMDPad,CuDef*%
%ADD22RoundRect,0.250001X-0.624999X0.462499X-0.624999X-0.462499X0.624999X-0.462499X0.624999X0.462499X0*%
%TD*%
%TA.AperFunction,ViaPad*%
%ADD23C,0.600000*%
%TD*%
%TA.AperFunction,Conductor*%
%ADD24C,0.200000*%
%TD*%
%TA.AperFunction,Conductor*%
%ADD25C,0.381000*%
%TD*%
%TA.AperFunction,Conductor*%
%ADD26C,0.254000*%
%TD*%
G04 APERTURE END LIST*
D10*
%TO.P,USB1,1,GND*%
%TO.N,GND*%
X115100000Y-105750000D03*
%TO.P,USB1,2,ID*%
%TO.N,unconnected-(USB1-ID-Pad2)*%
X114300000Y-105750000D03*
%TO.P,USB1,3,D+*%
%TO.N,D+*%
X113500000Y-105750000D03*
%TO.P,USB1,4,D-*%
%TO.N,D-*%
X112700000Y-105750000D03*
%TO.P,USB1,5,VBUS*%
%TO.N,VCC*%
X111900000Y-105750000D03*
D11*
%TO.P,USB1,6,SHIELD*%
%TO.N,N/C*%
X109850000Y-105750000D03*
X117150000Y-105750000D03*
X117150000Y-101250000D03*
X109850000Y-101250000D03*
%TD*%
D12*
%TO.P,R4,2*%
%TO.N,GND*%
X135500000Y-131750000D03*
%TO.P,R4,1*%
%TO.N,Net-(U1-~{HWB}{slash}PE2)*%
X135500000Y-129750000D03*
%TD*%
%TO.P,R3,1*%
%TO.N,D-*%
X111500000Y-109500000D03*
%TO.P,R3,2*%
%TO.N,Net-(U1-D-)*%
X111500000Y-111500000D03*
%TD*%
%TO.P,R2,2*%
%TO.N,Net-(U1-D+)*%
X114750000Y-111500000D03*
%TO.P,R2,1*%
%TO.N,D+*%
X114750000Y-109500000D03*
%TD*%
D13*
%TO.P,D3,2,A*%
%TO.N,Net-(D3-A)*%
X157250000Y-126600000D03*
%TO.P,D3,1,K*%
%TO.N,ROW1*%
X157250000Y-129900000D03*
%TD*%
D14*
%TO.P,C6,1*%
%TO.N,+5V*%
X130950000Y-134750000D03*
%TO.P,C6,2*%
%TO.N,GND*%
X128875000Y-134750000D03*
%TD*%
D15*
%TO.P,SW1,1,1*%
%TO.N,GND*%
X112250000Y-136200000D03*
%TO.P,SW1,2,2*%
%TO.N,Net-(U1-~{RESET})*%
X108550000Y-130000000D03*
%TO.P,SW1,3*%
%TO.N,N/C*%
X108550000Y-136200000D03*
%TO.P,SW1,4*%
X112250000Y-130000000D03*
%TD*%
D13*
%TO.P,D1,1,K*%
%TO.N,ROW0*%
X157250000Y-110900000D03*
%TO.P,D1,2,A*%
%TO.N,Net-(D1-A)*%
X157250000Y-107600000D03*
%TD*%
D12*
%TO.P,R1,2*%
%TO.N,Net-(U1-~{RESET})*%
X115750000Y-117500000D03*
%TO.P,R1,1*%
%TO.N,+5V*%
X115750000Y-115500000D03*
%TD*%
D13*
%TO.P,D4,1,K*%
%TO.N,ROW1*%
X176250000Y-129900000D03*
%TO.P,D4,2,A*%
%TO.N,Net-(D4-A)*%
X176250000Y-126600000D03*
%TD*%
%TO.P,D2,1,K*%
%TO.N,ROW0*%
X176250000Y-110900000D03*
%TO.P,D2,2,A*%
%TO.N,Net-(D2-A)*%
X176250000Y-107600000D03*
%TD*%
D16*
%TO.P,C3,2*%
%TO.N,Net-(U1-UCAP)*%
X118037500Y-123250000D03*
%TO.P,C3,1*%
%TO.N,GND*%
X115962500Y-123250000D03*
%TD*%
%TO.P,C7,1*%
%TO.N,+5V*%
X121625000Y-134750000D03*
%TO.P,C7,2*%
%TO.N,GND*%
X123700000Y-134750000D03*
%TD*%
D17*
%TO.P,C4,1*%
%TO.N,+5V*%
X119000000Y-117537500D03*
%TO.P,C4,2*%
%TO.N,GND*%
X119000000Y-115462500D03*
%TD*%
D18*
%TO.P,Y1,1,1*%
%TO.N,Net-(U1-XTAL1)*%
X129882072Y-114750000D03*
%TO.P,Y1,2,2*%
%TO.N,GND*%
X126982072Y-114750000D03*
%TO.P,Y1,3,3*%
%TO.N,Net-(U1-XTAL2)*%
X126982072Y-112450000D03*
%TO.P,Y1,4,4*%
%TO.N,GND*%
X129882072Y-112450000D03*
%TD*%
D19*
%TO.P,C1,1*%
%TO.N,GND*%
X132882072Y-112450000D03*
%TO.P,C1,2*%
%TO.N,Net-(U1-XTAL1)*%
X132882072Y-114525000D03*
%TD*%
D20*
%TO.P,U1,1,PE6*%
%TO.N,unconnected-(U1-PE6-Pad1)*%
X120587500Y-129750000D03*
%TO.P,U1,2,UVCC*%
%TO.N,+5V*%
X120587500Y-128950000D03*
%TO.P,U1,3,D-*%
%TO.N,Net-(U1-D-)*%
X120587500Y-128150000D03*
%TO.P,U1,4,D+*%
%TO.N,Net-(U1-D+)*%
X120587500Y-127350000D03*
%TO.P,U1,5,UGND*%
%TO.N,GND*%
X120587500Y-126550000D03*
%TO.P,U1,6,UCAP*%
%TO.N,Net-(U1-UCAP)*%
X120587500Y-125750000D03*
%TO.P,U1,7,VBUS*%
%TO.N,+5V*%
X120587500Y-124950000D03*
%TO.P,U1,8,PB0*%
%TO.N,unconnected-(U1-PB0-Pad8)*%
X120587500Y-124150000D03*
%TO.P,U1,9,PB1*%
%TO.N,unconnected-(U1-PB1-Pad9)*%
X120587500Y-123350000D03*
%TO.P,U1,10,PB2*%
%TO.N,unconnected-(U1-PB2-Pad10)*%
X120587500Y-122550000D03*
%TO.P,U1,11,PB3*%
%TO.N,unconnected-(U1-PB3-Pad11)*%
X120587500Y-121750000D03*
D21*
%TO.P,U1,12,PB7*%
%TO.N,unconnected-(U1-PB7-Pad12)*%
X122250000Y-120087500D03*
%TO.P,U1,13,~{RESET}*%
%TO.N,Net-(U1-~{RESET})*%
X123050000Y-120087500D03*
%TO.P,U1,14,VCC*%
%TO.N,+5V*%
X123850000Y-120087500D03*
%TO.P,U1,15,GND*%
%TO.N,GND*%
X124650000Y-120087500D03*
%TO.P,U1,16,XTAL2*%
%TO.N,Net-(U1-XTAL2)*%
X125450000Y-120087500D03*
%TO.P,U1,17,XTAL1*%
%TO.N,Net-(U1-XTAL1)*%
X126250000Y-120087500D03*
%TO.P,U1,18,PD0*%
%TO.N,unconnected-(U1-PD0-Pad18)*%
X127050000Y-120087500D03*
%TO.P,U1,19,PD1*%
%TO.N,unconnected-(U1-PD1-Pad19)*%
X127850000Y-120087500D03*
%TO.P,U1,20,PD2*%
%TO.N,unconnected-(U1-PD2-Pad20)*%
X128650000Y-120087500D03*
%TO.P,U1,21,PD3*%
%TO.N,unconnected-(U1-PD3-Pad21)*%
X129450000Y-120087500D03*
%TO.P,U1,22,PD5*%
%TO.N,unconnected-(U1-PD5-Pad22)*%
X130250000Y-120087500D03*
D20*
%TO.P,U1,23,GND*%
%TO.N,GND*%
X131912500Y-121750000D03*
%TO.P,U1,24,AVCC*%
%TO.N,+5V*%
X131912500Y-122550000D03*
%TO.P,U1,25,PD4*%
%TO.N,unconnected-(U1-PD4-Pad25)*%
X131912500Y-123350000D03*
%TO.P,U1,26,PD6*%
%TO.N,unconnected-(U1-PD6-Pad26)*%
X131912500Y-124150000D03*
%TO.P,U1,27,PD7*%
%TO.N,ROW0*%
X131912500Y-124950000D03*
%TO.P,U1,28,PB4*%
%TO.N,COL0*%
X131912500Y-125750000D03*
%TO.P,U1,29,PB5*%
%TO.N,COL1*%
X131912500Y-126550000D03*
%TO.P,U1,30,PB6*%
%TO.N,ROW1*%
X131912500Y-127350000D03*
%TO.P,U1,31,PC6*%
%TO.N,unconnected-(U1-PC6-Pad31)*%
X131912500Y-128150000D03*
%TO.P,U1,32,PC7*%
%TO.N,unconnected-(U1-PC7-Pad32)*%
X131912500Y-128950000D03*
%TO.P,U1,33,~{HWB}/PE2*%
%TO.N,Net-(U1-~{HWB}{slash}PE2)*%
X131912500Y-129750000D03*
D21*
%TO.P,U1,34,VCC*%
%TO.N,+5V*%
X130250000Y-131412500D03*
%TO.P,U1,35,GND*%
%TO.N,GND*%
X129450000Y-131412500D03*
%TO.P,U1,36,PF7*%
%TO.N,unconnected-(U1-PF7-Pad36)*%
X128650000Y-131412500D03*
%TO.P,U1,37,PF6*%
%TO.N,unconnected-(U1-PF6-Pad37)*%
X127850000Y-131412500D03*
%TO.P,U1,38,PF5*%
%TO.N,unconnected-(U1-PF5-Pad38)*%
X127050000Y-131412500D03*
%TO.P,U1,39,PF4*%
%TO.N,unconnected-(U1-PF4-Pad39)*%
X126250000Y-131412500D03*
%TO.P,U1,40,PF1*%
%TO.N,unconnected-(U1-PF1-Pad40)*%
X125450000Y-131412500D03*
%TO.P,U1,41,PF0*%
%TO.N,unconnected-(U1-PF0-Pad41)*%
X124650000Y-131412500D03*
%TO.P,U1,42,AREF*%
%TO.N,unconnected-(U1-AREF-Pad42)*%
X123850000Y-131412500D03*
%TO.P,U1,43,GND*%
%TO.N,GND*%
X123050000Y-131412500D03*
%TO.P,U1,44,AVCC*%
%TO.N,+5V*%
X122250000Y-131412500D03*
%TD*%
D17*
%TO.P,C2,1*%
%TO.N,GND*%
X124132072Y-114525000D03*
%TO.P,C2,2*%
%TO.N,Net-(U1-XTAL2)*%
X124132072Y-112450000D03*
%TD*%
%TO.P,C5,1*%
%TO.N,+5V*%
X135412500Y-123250000D03*
%TO.P,C5,2*%
%TO.N,GND*%
X135412500Y-121175000D03*
%TD*%
D22*
%TO.P,F1,2*%
%TO.N,+5V*%
X109750000Y-120237500D03*
%TO.P,F1,1*%
%TO.N,VCC*%
X109750000Y-117262500D03*
%TD*%
D23*
%TO.N,COL1*%
X138500000Y-126550003D03*
%TO.N,COL0*%
X138500000Y-125750000D03*
%TO.N,Net-(D2-A)*%
X176250000Y-106250000D03*
%TO.N,Net-(D4-A)*%
X176250000Y-125250000D03*
%TO.N,Net-(D3-A)*%
X157250000Y-125250000D03*
%TO.N,Net-(D1-A)*%
X157250000Y-106000000D03*
%TO.N,+5V*%
X119250000Y-124250000D03*
X119250000Y-130000000D03*
X132000000Y-132250000D03*
X120750000Y-116750000D03*
X133750000Y-123500000D03*
%TO.N,Net-(U1-~{RESET})*%
X109000000Y-126250000D03*
X115750000Y-119500000D03*
%TD*%
D24*
%TO.N,Net-(U1-XTAL1)*%
X129882072Y-114750000D02*
X126250000Y-118382072D01*
X126250000Y-118382072D02*
X126250000Y-120087500D01*
%TO.N,Net-(U1-XTAL2)*%
X126832072Y-116836160D02*
X125450000Y-118218232D01*
X125450000Y-118218232D02*
X125450000Y-120087500D01*
D25*
%TO.N,GND*%
X126032072Y-116731246D02*
X124650000Y-118113318D01*
X124650000Y-118113318D02*
X124650000Y-120087500D01*
D26*
%TO.N,COL1*%
X138500000Y-126550003D02*
X138499997Y-126550000D01*
X138499997Y-126550000D02*
X131912500Y-126550000D01*
%TO.N,ROW0*%
X157250000Y-110900000D02*
X157250000Y-116000000D01*
X157250000Y-116000000D02*
X154750000Y-118500000D01*
X154750000Y-118500000D02*
X145500000Y-118500000D01*
X145500000Y-118500000D02*
X139050000Y-124950000D01*
X139050000Y-124950000D02*
X131912500Y-124950000D01*
%TO.N,COL0*%
X138500000Y-125750000D02*
X131912500Y-125750000D01*
%TO.N,ROW1*%
X155400000Y-131750000D02*
X144250000Y-131750000D01*
X144250000Y-131750000D02*
X139850000Y-127350000D01*
X157250000Y-129900000D02*
X155400000Y-131750000D01*
X139850000Y-127350000D02*
X131912500Y-127350000D01*
X176250000Y-129900000D02*
X174400000Y-131750000D01*
X174400000Y-131750000D02*
X159100000Y-131750000D01*
X159100000Y-131750000D02*
X157250000Y-129900000D01*
%TO.N,ROW0*%
X176250000Y-110900000D02*
X174400000Y-112750000D01*
X159100000Y-112750000D02*
X157250000Y-110900000D01*
X174400000Y-112750000D02*
X159100000Y-112750000D01*
%TO.N,Net-(D2-A)*%
X176250000Y-106250000D02*
X176250000Y-107600000D01*
%TO.N,Net-(D4-A)*%
X176250000Y-125250000D02*
X176250000Y-126600000D01*
%TO.N,Net-(D3-A)*%
X157250000Y-125250000D02*
X157250000Y-126600000D01*
%TO.N,Net-(D1-A)*%
X157250000Y-106000000D02*
X157250000Y-107600000D01*
D25*
%TO.N,+5V*%
X119250000Y-124250000D02*
X119250000Y-124301928D01*
X119250000Y-124301928D02*
X119898072Y-124950000D01*
X119898072Y-124950000D02*
X120587500Y-124950000D01*
X118500000Y-128950000D02*
X120587500Y-128950000D01*
X118500000Y-128950000D02*
X118500000Y-129250000D01*
X118500000Y-129250000D02*
X119250000Y-130000000D01*
X130950000Y-132112500D02*
X131087500Y-132250000D01*
X131087500Y-132250000D02*
X132000000Y-132250000D01*
X120750000Y-117537500D02*
X119000000Y-117537500D01*
X134712500Y-122550000D02*
X133750000Y-122550000D01*
X120750000Y-117537500D02*
X120750000Y-116750000D01*
X133750000Y-123500000D02*
X133750000Y-122550000D01*
%TO.N,GND*%
X127050000Y-125875001D02*
X128212500Y-124712500D01*
X124650000Y-121150000D02*
X128212500Y-124712500D01*
X124650000Y-120087500D02*
X124650000Y-121150000D01*
X127050000Y-128275001D02*
X127050000Y-125875001D01*
X131175001Y-121750000D02*
X131912500Y-121750000D01*
X128212500Y-124712500D02*
X131175001Y-121750000D01*
X123050000Y-128275001D02*
X127050000Y-128275001D01*
X129450000Y-130675001D02*
X129450000Y-131412500D01*
X127050000Y-128275001D02*
X129450000Y-130675001D01*
X123050000Y-131412500D02*
X123050000Y-128275001D01*
X123050000Y-128275001D02*
X121324999Y-126550000D01*
X121324999Y-126550000D02*
X120587500Y-126550000D01*
X128875000Y-134750000D02*
X129450000Y-134175000D01*
X129450000Y-134175000D02*
X129450000Y-131412500D01*
X135500000Y-133250000D02*
X132250000Y-136500000D01*
X135500000Y-131750000D02*
X135500000Y-133250000D01*
X132250000Y-136500000D02*
X130625000Y-136500000D01*
X130625000Y-136500000D02*
X128875000Y-134750000D01*
%TO.N,+5V*%
X135412500Y-123250000D02*
X134712500Y-122550000D01*
X133750000Y-122550000D02*
X131912500Y-122550000D01*
X130950000Y-134750000D02*
X130950000Y-132112500D01*
X130950000Y-132112500D02*
X130250000Y-131412500D01*
%TO.N,GND*%
X135412500Y-121175000D02*
X132487500Y-121175000D01*
X132487500Y-121175000D02*
X131912500Y-121750000D01*
%TO.N,+5V*%
X117750000Y-128950000D02*
X118500000Y-128950000D01*
X121625000Y-134750000D02*
X121625000Y-133500000D01*
X109750000Y-120237500D02*
X109750000Y-124000000D01*
X109750000Y-124000000D02*
X114700000Y-128950000D01*
X114700000Y-128950000D02*
X117750000Y-128950000D01*
D26*
%TO.N,Net-(U1-~{RESET})*%
X115750000Y-117500000D02*
X115750000Y-119500000D01*
X109000000Y-126250000D02*
X108550000Y-126700000D01*
X108550000Y-126700000D02*
X108550000Y-130000000D01*
X115750000Y-117500000D02*
X117000000Y-118750000D01*
X117000000Y-118750000D02*
X122449999Y-118750000D01*
X122449999Y-118750000D02*
X123050000Y-119350001D01*
X123050000Y-119350001D02*
X123050000Y-120087500D01*
D25*
%TO.N,GND*%
X114250000Y-114000000D02*
X114250000Y-123250000D01*
X115962500Y-123250000D02*
X114250000Y-123250000D01*
D26*
%TO.N,Net-(U1-UCAP)*%
X118037500Y-123250000D02*
X118037500Y-123975000D01*
X118037500Y-123975000D02*
X119812500Y-125750000D01*
X119812500Y-125750000D02*
X120587500Y-125750000D01*
D25*
%TO.N,GND*%
X115100000Y-105750000D02*
X115100000Y-106625000D01*
X114250000Y-123250000D02*
X114250000Y-124250000D01*
X115100000Y-106625000D02*
X116000000Y-107525000D01*
X116000000Y-107525000D02*
X116000000Y-112250000D01*
X116550000Y-126550000D02*
X120587500Y-126550000D01*
X116000000Y-112250000D02*
X114250000Y-114000000D01*
X114250000Y-124250000D02*
X116550000Y-126550000D01*
%TO.N,VCC*%
X111900000Y-105750000D02*
X111900000Y-106625000D01*
X111900000Y-106625000D02*
X109750000Y-108775000D01*
X109750000Y-108775000D02*
X109750000Y-117262500D01*
%TO.N,+5V*%
X115750000Y-115500000D02*
X116962500Y-115500000D01*
X116962500Y-115500000D02*
X119000000Y-117537500D01*
%TO.N,GND*%
X112250000Y-136200000D02*
X122250000Y-136200000D01*
X122250000Y-136200000D02*
X123700000Y-134750000D01*
X123700000Y-134750000D02*
X123050000Y-134100000D01*
X123050000Y-134100000D02*
X123050000Y-131412500D01*
%TO.N,+5V*%
X121625000Y-133500000D02*
X121625000Y-132037500D01*
X121625000Y-132037500D02*
X122250000Y-131412500D01*
%TO.N,GND*%
X119000000Y-115462500D02*
X121035572Y-115462500D01*
X121035572Y-115462500D02*
X124650000Y-119076928D01*
X124650000Y-119076928D02*
X124650000Y-120087500D01*
%TO.N,+5V*%
X123850000Y-120087500D02*
X123850000Y-119100000D01*
X123850000Y-119100000D02*
X122287500Y-117537500D01*
X122287500Y-117537500D02*
X120750000Y-117537500D01*
%TO.N,GND*%
X126032072Y-116731246D02*
X124132072Y-114831246D01*
X124132072Y-114831246D02*
X124132072Y-114525000D01*
D24*
%TO.N,Net-(U1-XTAL2)*%
X124132072Y-112450000D02*
X126982072Y-112450000D01*
%TO.N,Net-(U1-XTAL1)*%
X132882072Y-114525000D02*
X130107072Y-114525000D01*
X130107072Y-114525000D02*
X129882072Y-114750000D01*
D25*
%TO.N,GND*%
X129882072Y-112450000D02*
X132882072Y-112450000D01*
X126982072Y-114750000D02*
X127517928Y-114750000D01*
X129817928Y-112450000D02*
X129882072Y-112450000D01*
X127517928Y-114750000D02*
X129817928Y-112450000D01*
X129882072Y-112450000D02*
X128590572Y-111158500D01*
X128590572Y-111158500D02*
X123696928Y-111158500D01*
X123015572Y-113408500D02*
X124132072Y-114525000D01*
X123696928Y-111158500D02*
X123015572Y-111839856D01*
X123015572Y-111839856D02*
X123015572Y-113408500D01*
D26*
%TO.N,Net-(U1-D-)*%
X112795000Y-112795000D02*
X112795000Y-124438468D01*
X112795000Y-124438468D02*
X116311532Y-127955000D01*
X116311532Y-127955000D02*
X119250000Y-127955000D01*
X119445000Y-128150000D02*
X120587500Y-128150000D01*
X119250000Y-127955000D02*
X119445000Y-128150000D01*
X111500000Y-111500000D02*
X112795000Y-112795000D01*
%TO.N,Net-(U1-D+)*%
X120587500Y-127350000D02*
X119400000Y-127350000D01*
X119250000Y-127500000D02*
X116500000Y-127500000D01*
X119400000Y-127350000D02*
X119250000Y-127500000D01*
X116500000Y-127500000D02*
X113250000Y-124250000D01*
X113250000Y-124250000D02*
X113250000Y-113000000D01*
X113250000Y-113000000D02*
X114750000Y-111500000D01*
D24*
%TO.N,D+*%
X113500000Y-105750000D02*
X113500000Y-108250000D01*
X113500000Y-108250000D02*
X114750000Y-109500000D01*
%TO.N,D-*%
X112700000Y-105750000D02*
X112700000Y-108300000D01*
X112700000Y-108300000D02*
X111500000Y-109500000D01*
%TO.N,Net-(U1-XTAL2)*%
X126982072Y-112450000D02*
X125632072Y-113800000D01*
X125632072Y-113800000D02*
X125632072Y-115636160D01*
X125632072Y-115636160D02*
X126832072Y-116836160D01*
%TD*%
%TA.AperFunction,Conductor*%
%TO.N,GND*%
G36*
X134693039Y-110019685D02*
G01*
X134738794Y-110072489D01*
X134750000Y-110124000D01*
X134750000Y-117126000D01*
X134730315Y-117193039D01*
X134677511Y-117238794D01*
X134626000Y-117250000D01*
X128530668Y-117250000D01*
X128463629Y-117230315D01*
X128417874Y-117177511D01*
X128407930Y-117108353D01*
X128436955Y-117044797D01*
X128442987Y-117038319D01*
X129294488Y-116186818D01*
X129355811Y-116153333D01*
X129382169Y-116150499D01*
X130732074Y-116150499D01*
X130732080Y-116150499D01*
X130834869Y-116139999D01*
X131001406Y-116084814D01*
X131150728Y-115992712D01*
X131274784Y-115868656D01*
X131366886Y-115719334D01*
X131422071Y-115552797D01*
X131432572Y-115450009D01*
X131432572Y-115249500D01*
X131435122Y-115240814D01*
X131433834Y-115231853D01*
X131444812Y-115207812D01*
X131452257Y-115182461D01*
X131459097Y-115176533D01*
X131462859Y-115168297D01*
X131485093Y-115154007D01*
X131505061Y-115136706D01*
X131515575Y-115134418D01*
X131521637Y-115130523D01*
X131556572Y-115125500D01*
X131618304Y-115125500D01*
X131685343Y-115145185D01*
X131723841Y-115184401D01*
X131814360Y-115331156D01*
X131938416Y-115455212D01*
X132087738Y-115547314D01*
X132254275Y-115602499D01*
X132357063Y-115613000D01*
X133407080Y-115612999D01*
X133407088Y-115612998D01*
X133407091Y-115612998D01*
X133463374Y-115607248D01*
X133509869Y-115602499D01*
X133676406Y-115547314D01*
X133825728Y-115455212D01*
X133949784Y-115331156D01*
X134041886Y-115181834D01*
X134097071Y-115015297D01*
X134107572Y-114912509D01*
X134107571Y-114137492D01*
X134097071Y-114034703D01*
X134041886Y-113868166D01*
X133949784Y-113718844D01*
X133825728Y-113594788D01*
X133822414Y-113592743D01*
X133820618Y-113590748D01*
X133820061Y-113590307D01*
X133820136Y-113590211D01*
X133775690Y-113540797D01*
X133764469Y-113471834D01*
X133792312Y-113407752D01*
X133822420Y-113381665D01*
X133825414Y-113379818D01*
X133949387Y-113255845D01*
X134041428Y-113106624D01*
X134041430Y-113106619D01*
X134096577Y-112940197D01*
X134096578Y-112940190D01*
X134107071Y-112837486D01*
X134107072Y-112837473D01*
X134107072Y-112700000D01*
X131657073Y-112700000D01*
X131632253Y-112724820D01*
X131570929Y-112758304D01*
X131501237Y-112753319D01*
X131456891Y-112724819D01*
X131432072Y-112700000D01*
X130006072Y-112700000D01*
X129939033Y-112680315D01*
X129893278Y-112627511D01*
X129882072Y-112576000D01*
X129882072Y-112450000D01*
X129756072Y-112450000D01*
X129689033Y-112430315D01*
X129643278Y-112377511D01*
X129632072Y-112326000D01*
X129632072Y-112200000D01*
X130132072Y-112200000D01*
X131432069Y-112200000D01*
X131456889Y-112175180D01*
X131518212Y-112141695D01*
X131587904Y-112146679D01*
X131632252Y-112175180D01*
X131657072Y-112200000D01*
X132632072Y-112200000D01*
X133132072Y-112200000D01*
X134107071Y-112200000D01*
X134107071Y-112062528D01*
X134107070Y-112062513D01*
X134096577Y-111959802D01*
X134041430Y-111793380D01*
X134041428Y-111793375D01*
X133949387Y-111644154D01*
X133825417Y-111520184D01*
X133676196Y-111428143D01*
X133676191Y-111428141D01*
X133509769Y-111372994D01*
X133509762Y-111372993D01*
X133407058Y-111362500D01*
X133132072Y-111362500D01*
X133132072Y-112200000D01*
X132632072Y-112200000D01*
X132632072Y-111362500D01*
X132357101Y-111362500D01*
X132357084Y-111362501D01*
X132254374Y-111372994D01*
X132087952Y-111428141D01*
X132087947Y-111428143D01*
X131938726Y-111520184D01*
X131814756Y-111644154D01*
X131722715Y-111793375D01*
X131722713Y-111793380D01*
X131673777Y-111941061D01*
X131634004Y-111998506D01*
X131569489Y-112025329D01*
X131500713Y-112013014D01*
X131449513Y-111965471D01*
X131432071Y-111902057D01*
X131432071Y-111750028D01*
X131432070Y-111750013D01*
X131421577Y-111647302D01*
X131366430Y-111480880D01*
X131366428Y-111480875D01*
X131274387Y-111331654D01*
X131150417Y-111207684D01*
X131001196Y-111115643D01*
X131001191Y-111115641D01*
X130834769Y-111060494D01*
X130834762Y-111060493D01*
X130732058Y-111050000D01*
X130132072Y-111050000D01*
X130132072Y-112200000D01*
X129632072Y-112200000D01*
X129632072Y-111050000D01*
X129032100Y-111050000D01*
X129032084Y-111050001D01*
X128929374Y-111060494D01*
X128762952Y-111115641D01*
X128762947Y-111115643D01*
X128613729Y-111207682D01*
X128520106Y-111301305D01*
X128458782Y-111334789D01*
X128389091Y-111329805D01*
X128344744Y-111301304D01*
X128250729Y-111207289D01*
X128250728Y-111207288D01*
X128101406Y-111115186D01*
X127934869Y-111060001D01*
X127934867Y-111060000D01*
X127832082Y-111049500D01*
X126132070Y-111049500D01*
X126132053Y-111049501D01*
X126029275Y-111060000D01*
X126029272Y-111060001D01*
X125862740Y-111115185D01*
X125862735Y-111115187D01*
X125713414Y-111207289D01*
X125589361Y-111331342D01*
X125497259Y-111480663D01*
X125497257Y-111480668D01*
X125441766Y-111648129D01*
X125401993Y-111705574D01*
X125337477Y-111732397D01*
X125268701Y-111720082D01*
X125218522Y-111674222D01*
X125199786Y-111643847D01*
X125199783Y-111643843D01*
X125075729Y-111519789D01*
X125075728Y-111519788D01*
X124926406Y-111427686D01*
X124759869Y-111372501D01*
X124759867Y-111372500D01*
X124657082Y-111362000D01*
X123607070Y-111362000D01*
X123607052Y-111362001D01*
X123504275Y-111372500D01*
X123504272Y-111372501D01*
X123337740Y-111427685D01*
X123337735Y-111427687D01*
X123188414Y-111519789D01*
X123064361Y-111643842D01*
X122972259Y-111793163D01*
X122972257Y-111793168D01*
X122972187Y-111793380D01*
X122917073Y-111959703D01*
X122917073Y-111959704D01*
X122917072Y-111959704D01*
X122906572Y-112062483D01*
X122906572Y-112837501D01*
X122906573Y-112837519D01*
X122917072Y-112940296D01*
X122917073Y-112940299D01*
X122972187Y-113106619D01*
X122972258Y-113106834D01*
X123064360Y-113256156D01*
X123188416Y-113380212D01*
X123190772Y-113381665D01*
X123191725Y-113382253D01*
X123193517Y-113384246D01*
X123194083Y-113384693D01*
X123194006Y-113384789D01*
X123238451Y-113434199D01*
X123249675Y-113503161D01*
X123221833Y-113567244D01*
X123191737Y-113593326D01*
X123188732Y-113595179D01*
X123188727Y-113595183D01*
X123064756Y-113719154D01*
X122972715Y-113868375D01*
X122972713Y-113868380D01*
X122917566Y-114034802D01*
X122917565Y-114034809D01*
X122907072Y-114137513D01*
X122907072Y-114275000D01*
X124907572Y-114275000D01*
X124974611Y-114294685D01*
X125020366Y-114347489D01*
X125031572Y-114399000D01*
X125031572Y-114651000D01*
X125011887Y-114718039D01*
X124959083Y-114763794D01*
X124907572Y-114775000D01*
X124382072Y-114775000D01*
X124382072Y-115612499D01*
X124657044Y-115612499D01*
X124657058Y-115612498D01*
X124759767Y-115602006D01*
X124868566Y-115565953D01*
X124938395Y-115563551D01*
X124998437Y-115599282D01*
X125029630Y-115661803D01*
X125031571Y-115683659D01*
X125031571Y-115715214D01*
X125031570Y-115715214D01*
X125031571Y-115715217D01*
X125072495Y-115867945D01*
X125072869Y-115868592D01*
X125072889Y-115868666D01*
X125072906Y-115868657D01*
X125151547Y-116004869D01*
X125151553Y-116004877D01*
X125270421Y-116123745D01*
X125270427Y-116123750D01*
X125895156Y-116748479D01*
X125928641Y-116809802D01*
X125923657Y-116879494D01*
X125895156Y-116923841D01*
X125605316Y-117213681D01*
X125543993Y-117247166D01*
X125517635Y-117250000D01*
X123028584Y-117250000D01*
X122961545Y-117230315D01*
X122940903Y-117213681D01*
X122727992Y-117000769D01*
X122727985Y-117000763D01*
X122614812Y-116925144D01*
X122614809Y-116925142D01*
X122489061Y-116873056D01*
X122489051Y-116873053D01*
X122355560Y-116846500D01*
X122355558Y-116846500D01*
X121874000Y-116846500D01*
X121806961Y-116826815D01*
X121761206Y-116774011D01*
X121750000Y-116722500D01*
X121750000Y-114912486D01*
X122907073Y-114912486D01*
X122917566Y-115015197D01*
X122972713Y-115181619D01*
X122972715Y-115181624D01*
X123064756Y-115330845D01*
X123188726Y-115454815D01*
X123337947Y-115546856D01*
X123337952Y-115546858D01*
X123504374Y-115602005D01*
X123504381Y-115602006D01*
X123607091Y-115612499D01*
X123882071Y-115612499D01*
X123882072Y-115612498D01*
X123882072Y-114775000D01*
X122907073Y-114775000D01*
X122907073Y-114912486D01*
X121750000Y-114912486D01*
X121750000Y-110124000D01*
X121769685Y-110056961D01*
X121822489Y-110011206D01*
X121874000Y-110000000D01*
X134626000Y-110000000D01*
X134693039Y-110019685D01*
G37*
%TD.AperFunction*%
%TA.AperFunction,Conductor*%
G36*
X126925111Y-114519685D02*
G01*
X126970866Y-114572489D01*
X126982072Y-114624000D01*
X126982072Y-114876000D01*
X126962387Y-114943039D01*
X126909583Y-114988794D01*
X126858072Y-115000000D01*
X126356572Y-115000000D01*
X126289533Y-114980315D01*
X126243778Y-114927511D01*
X126232572Y-114876000D01*
X126232572Y-114624000D01*
X126252257Y-114556961D01*
X126305061Y-114511206D01*
X126356572Y-114500000D01*
X126858072Y-114500000D01*
X126925111Y-114519685D01*
G37*
%TD.AperFunction*%
%TD*%
M02*
