M48
; DRILL file {KiCad 9.0.6} date 2026-04-02T12:42:33-0400
; FORMAT={-:-/ absolute / metric / decimal}
; #@! TF.CreationDate,2026-04-02T12:42:33-04:00
; #@! TF.GenerationSoftware,Kicad,Pcbnew,9.0.6
; #@! TF.FileFunction,Plated,1,2,PTH
FMAT,2
METRIC
; #@! TA.AperFunction,Plated,PTH,ViaDrill
T1C0.300
; #@! TA.AperFunction,Plated,PTH,ComponentDrill
T2C0.700
%
G90
G05
T1
X109.0Y-126.25
X115.75Y-119.5
X119.25Y-124.25
X119.25Y-130.0
X120.75Y-116.75
X132.0Y-132.25
X133.75Y-123.5
X138.5Y-125.75
X138.5Y-126.55
X157.25Y-106.0
X157.25Y-125.25
X176.25Y-106.25
X176.25Y-125.25
T2
G00X109.85Y-100.65
M15
G01X109.85Y-101.85
M16
G05
G00X109.85Y-105.15
M15
G01X109.85Y-106.35
M16
G05
G00X117.15Y-100.65
M15
G01X117.15Y-101.85
M16
G05
G00X117.15Y-105.15
M15
G01X117.15Y-106.35
M16
G05
M30
