M48
; DRILL file {KiCad 9.0.6} date 2026-04-05T16:44:17-0400
; FORMAT={-:-/ absolute / metric / decimal}
; #@! TF.CreationDate,2026-04-05T16:44:17-04:00
; #@! TF.GenerationSoftware,Kicad,Pcbnew,9.0.6
; #@! TF.FileFunction,Plated,1,2,PTH
FMAT,2
METRIC
; #@! TA.AperFunction,Plated,PTH,ViaDrill
T1C0.300
; #@! TA.AperFunction,Plated,PTH,ComponentDrill
T2C0.600
; #@! TA.AperFunction,Plated,PTH,ComponentDrill
T3C1.000
%
G90
G05
T1
X32.0Y-60.5
X32.0Y-137.0
X34.5Y-118.0
X37.0Y-42.0
X37.0Y-80.0
X39.0Y-99.0
X50.5Y-137.5
X51.0Y-62.0
X55.5Y-119.0
X60.5Y-42.0
X60.5Y-80.5
X65.0Y-100.0
X69.5Y-61.5
X70.0Y-137.5
X74.5Y-118.5
X79.5Y-42.0
X79.5Y-81.0
X84.0Y-99.5
X88.5Y-61.5
X91.5Y-137.0
X93.5Y-118.5
X93.75Y-124.0
X94.75Y-124.0
X95.5Y-124.5
X97.0Y-134.25
X97.75Y-135.25
X98.5Y-42.0
X98.5Y-80.5
X98.5Y-136.25
X100.0Y-134.25
X100.0Y-135.25
X100.0Y-136.25
X101.5Y-127.0
X101.75Y-67.75
X103.0Y-99.5
X103.25Y-129.75
X103.5Y-104.25
X104.5Y-129.75
X106.5Y-86.75
X108.0Y-61.5
X112.5Y-118.5
X114.5Y-124.5
X117.0Y-80.5
X117.5Y-135.5
X117.86Y-139.889
X118.0Y-42.0
X120.5Y-47.0
X120.514Y-135.986
X122.0Y-132.5
X122.5Y-100.0
X122.75Y-130.0
X123.377Y-130.566
X123.983Y-139.983
X124.004Y-130.0
X124.631Y-130.568
X125.258Y-130.0
X125.75Y-140.127
X126.0Y-130.5
X126.219Y-145.5
X126.221Y-143.76
X126.5Y-62.0
X126.75Y-126.75
X126.75Y-130.0
X126.971Y-145.229
X126.974Y-143.491
X127.25Y-123.5
X127.377Y-130.566
X127.724Y-145.5
X127.728Y-143.758
X128.479Y-145.235
X128.484Y-143.495
X128.5Y-130.0
X129.234Y-145.5
X129.241Y-143.753
X129.5Y-129.0
X129.992Y-145.244
X130.0Y-143.5
X130.75Y-143.791
X130.75Y-145.5
X131.0Y-129.018
X131.5Y-126.25
X132.0Y-118.0
X132.0Y-127.0
X132.0Y-135.127
X132.5Y-134.5
X135.75Y-124.25
X135.75Y-145.5
X136.0Y-80.5
X136.75Y-124.25
X137.0Y-42.0
X140.75Y-131.75
X141.434Y-135.127
X141.5Y-100.0
X142.0Y-134.5
X142.5Y-133.5
X145.247Y-125.991
X145.5Y-126.75
X146.5Y-61.5
X146.75Y-68.5
X147.25Y-69.25
X147.25Y-129.25
X148.0Y-144.0
X148.75Y-140.25
X149.25Y-68.5
X149.75Y-126.75
X150.0Y-69.25
X150.003Y-125.991
X151.0Y-118.0
X152.0Y-126.0
X152.25Y-119.5
X152.5Y-124.25
X153.625Y-68.875
X153.929Y-115.241
X154.5Y-41.5
X154.75Y-115.25
X155.0Y-81.0
X155.75Y-36.25
X156.0Y-42.0
X156.0Y-46.25
X156.5Y-68.0
X158.0Y-42.0
X158.0Y-46.25
X159.25Y-51.0
X159.25Y-89.0
X159.25Y-123.0
X160.0Y-85.75
X160.5Y-100.0
X161.1Y-36.25
X162.5Y-137.0
X164.741Y-144.373
X165.0Y-61.5
X165.5Y-145.0
X165.75Y-47.5
X166.5Y-67.0
X167.25Y-123.5
X169.0Y-105.75
X169.0Y-125.25
X169.5Y-119.0
X174.5Y-41.5
X174.5Y-80.5
X179.5Y-100.0
X182.0Y-144.25
X182.0Y-146.0
X184.0Y-61.5
X189.0Y-118.5
X193.0Y-80.5
X194.0Y-42.0
X198.5Y-100.5
X203.0Y-61.5
X207.5Y-118.5
X212.5Y-80.5
X213.0Y-42.0
X217.5Y-99.5
X222.5Y-61.5
X227.0Y-118.0
X231.5Y-80.0
X232.0Y-42.0
X234.0Y-137.5
X236.5Y-99.5
X241.5Y-61.0
X246.0Y-118.5
X250.5Y-80.5
X251.0Y-42.0
X255.5Y-99.5
X255.5Y-137.5
X260.5Y-60.5
X270.0Y-42.5
X270.0Y-79.5
X270.5Y-48.0
X270.75Y-49.0
X271.0Y-50.0
X271.25Y-51.0
X272.75Y-148.123
X273.5Y-147.496
X274.25Y-146.869
X274.5Y-99.5
X275.0Y-146.242
X277.0Y-137.5
X282.0Y-118.0
X289.0Y-61.0
X294.0Y-42.0
X294.0Y-79.5
X296.5Y-99.0
X298.5Y-137.5
X341.5Y-51.5
X342.5Y-50.5
X343.5Y-49.5
X345.75Y-61.0
X345.75Y-80.5
X345.75Y-99.25
X346.0Y-41.5
X346.0Y-137.5
X355.5Y-118.25
X363.0Y-51.5
X364.75Y-61.5
X364.75Y-79.75
X364.75Y-99.5
X365.0Y-41.75
X365.0Y-137.25
X382.0Y-50.5
X384.0Y-41.75
X384.0Y-61.0
X384.0Y-99.0
X384.0Y-137.5
X384.25Y-80.25
X384.25Y-118.25
X398.0Y-120.75
X398.5Y-83.0
X402.5Y-49.5
X402.75Y-42.0
X402.75Y-138.0
T3
X172.21Y-131.38
X172.21Y-133.92
X172.21Y-136.46
X172.21Y-139.0
X172.21Y-141.54
X174.75Y-131.38
X174.75Y-133.92
X174.75Y-136.46
X174.75Y-139.0
X174.75Y-141.54
X299.5Y-44.75
X299.5Y-47.29
X299.5Y-49.83
X299.5Y-52.37
X299.5Y-54.91
X299.5Y-117.34
X299.5Y-119.88
X299.5Y-122.42
X299.5Y-124.96
X299.5Y-127.5
X329.0Y-44.75
X329.0Y-47.29
X329.0Y-49.83
X329.0Y-52.37
X329.0Y-54.91
X329.0Y-117.34
X329.0Y-119.88
X329.0Y-122.42
X329.0Y-124.96
X329.0Y-127.5
T2
G00X153.43Y-26.215
M15
G01X153.43Y-26.815
M16
G05
G00X153.43Y-30.145
M15
G01X153.43Y-31.245
M16
G05
G00X162.07Y-26.215
M15
G01X162.07Y-26.815
M16
G05
G00X162.07Y-30.145
M15
G01X162.07Y-31.245
M16
G05
M30
