%TF.GenerationSoftware,KiCad,Pcbnew,9.0.6*%
%TF.CreationDate,2026-04-06T12:21:19-04:00*%
%TF.ProjectId,new-keyboard-pcb,6e65772d-6b65-4796-926f-6172642d7063,rev?*%
%TF.SameCoordinates,Original*%
%TF.FileFunction,Copper,L2,Bot*%
%TF.FilePolarity,Positive*%
%FSLAX46Y46*%
G04 Gerber Fmt 4.6, Leading zero omitted, Abs format (unit mm)*
G04 Created by KiCad (PCBNEW 9.0.6) date 2026-04-06 12:21:19*
%MOMM*%
%LPD*%
G01*
G04 APERTURE LIST*
G04 Aperture macros list*
%AMRoundRect*
0 Rectangle with rounded corners*
0 $1 Rounding radius*
0 $2 $3 $4 $5 $6 $7 $8 $9 X,Y pos of 4 corners*
0 Add a 4 corners polygon primitive as box body*
4,1,4,$2,$3,$4,$5,$6,$7,$8,$9,$2,$3,0*
0 Add four circle primitives for the rounded corners*
1,1,$1+$1,$2,$3*
1,1,$1+$1,$4,$5*
1,1,$1+$1,$6,$7*
1,1,$1+$1,$8,$9*
0 Add four rect primitives between the rounded corners*
20,1,$1+$1,$2,$3,$4,$5,0*
20,1,$1+$1,$4,$5,$6,$7,0*
20,1,$1+$1,$6,$7,$8,$9,0*
20,1,$1+$1,$8,$9,$2,$3,0*%
G04 Aperture macros list end*
%TA.AperFunction,ComponentPad*%
%ADD10R,1.500000X1.500000*%
%TD*%
%TA.AperFunction,ComponentPad*%
%ADD11C,1.500000*%
%TD*%
%TA.AperFunction,SMDPad,CuDef*%
%ADD12RoundRect,0.200000X-1.100000X-1.100000X1.100000X-1.100000X1.100000X1.100000X-1.100000X1.100000X0*%
%TD*%
%TA.AperFunction,SMDPad,CuDef*%
%ADD13RoundRect,0.250000X0.450000X-0.325000X0.450000X0.325000X-0.450000X0.325000X-0.450000X-0.325000X0*%
%TD*%
%TA.AperFunction,SMDPad,CuDef*%
%ADD14RoundRect,0.250000X-0.337500X-0.475000X0.337500X-0.475000X0.337500X0.475000X-0.337500X0.475000X0*%
%TD*%
%TA.AperFunction,SMDPad,CuDef*%
%ADD15RoundRect,0.250000X0.350000X0.450000X-0.350000X0.450000X-0.350000X-0.450000X0.350000X-0.450000X0*%
%TD*%
%TA.AperFunction,SMDPad,CuDef*%
%ADD16RoundRect,0.250000X-0.325000X-0.450000X0.325000X-0.450000X0.325000X0.450000X-0.325000X0.450000X0*%
%TD*%
%TA.AperFunction,SMDPad,CuDef*%
%ADD17R,0.600000X2.450000*%
%TD*%
%TA.AperFunction,SMDPad,CuDef*%
%ADD18R,0.300000X2.450000*%
%TD*%
%TA.AperFunction,ComponentPad*%
%ADD19O,1.000000X2.100000*%
%TD*%
%TA.AperFunction,ComponentPad*%
%ADD20O,1.000000X1.600000*%
%TD*%
%TA.AperFunction,SMDPad,CuDef*%
%ADD21RoundRect,0.150000X0.512500X0.150000X-0.512500X0.150000X-0.512500X-0.150000X0.512500X-0.150000X0*%
%TD*%
%TA.AperFunction,SMDPad,CuDef*%
%ADD22RoundRect,0.250000X-0.475000X0.337500X-0.475000X-0.337500X0.475000X-0.337500X0.475000X0.337500X0*%
%TD*%
%TA.AperFunction,SMDPad,CuDef*%
%ADD23RoundRect,0.250000X0.337500X0.475000X-0.337500X0.475000X-0.337500X-0.475000X0.337500X-0.475000X0*%
%TD*%
%TA.AperFunction,SMDPad,CuDef*%
%ADD24R,1.100000X1.800000*%
%TD*%
%TA.AperFunction,SMDPad,CuDef*%
%ADD25R,0.700000X0.600000*%
%TD*%
%TA.AperFunction,SMDPad,CuDef*%
%ADD26R,0.700000X1.000000*%
%TD*%
%TA.AperFunction,SMDPad,CuDef*%
%ADD27RoundRect,0.200000X-1.100000X1.100000X-1.100000X-1.100000X1.100000X-1.100000X1.100000X1.100000X0*%
%TD*%
%TA.AperFunction,SMDPad,CuDef*%
%ADD28RoundRect,0.250000X-0.350000X-0.450000X0.350000X-0.450000X0.350000X0.450000X-0.350000X0.450000X0*%
%TD*%
%TA.AperFunction,SMDPad,CuDef*%
%ADD29RoundRect,0.250000X-0.650000X0.800000X-0.650000X-0.800000X0.650000X-0.800000X0.650000X0.800000X0*%
%TD*%
%TA.AperFunction,SMDPad,CuDef*%
%ADD30RoundRect,0.250000X0.475000X-0.337500X0.475000X0.337500X-0.475000X0.337500X-0.475000X-0.337500X0*%
%TD*%
%TA.AperFunction,SMDPad,CuDef*%
%ADD31RoundRect,0.250001X-0.624999X0.462499X-0.624999X-0.462499X0.624999X-0.462499X0.624999X0.462499X0*%
%TD*%
%TA.AperFunction,SMDPad,CuDef*%
%ADD32RoundRect,0.250000X-0.350000X0.275000X-0.350000X-0.275000X0.350000X-0.275000X0.350000X0.275000X0*%
%TD*%
%TA.AperFunction,SMDPad,CuDef*%
%ADD33RoundRect,0.075000X-0.662500X-0.075000X0.662500X-0.075000X0.662500X0.075000X-0.662500X0.075000X0*%
%TD*%
%TA.AperFunction,SMDPad,CuDef*%
%ADD34RoundRect,0.075000X-0.075000X-0.662500X0.075000X-0.662500X0.075000X0.662500X-0.075000X0.662500X0*%
%TD*%
%TA.AperFunction,ComponentPad*%
%ADD35R,1.700000X1.700000*%
%TD*%
%TA.AperFunction,ComponentPad*%
%ADD36C,1.700000*%
%TD*%
%TA.AperFunction,ViaPad*%
%ADD37C,0.600000*%
%TD*%
%TA.AperFunction,Conductor*%
%ADD38C,0.254000*%
%TD*%
%TA.AperFunction,Conductor*%
%ADD39C,0.381000*%
%TD*%
%TA.AperFunction,Conductor*%
%ADD40C,0.200000*%
%TD*%
G04 APERTURE END LIST*
D10*
%TO.P,J3,1,Pin_1*%
%TO.N,ROW1C*%
X306743750Y-117340000D03*
D11*
%TO.P,J3,2,Pin_2*%
%TO.N,ROW2C*%
X306743750Y-119880000D03*
%TO.P,J3,3,Pin_3*%
%TO.N,ROW3C*%
X306743750Y-122420000D03*
%TO.P,J3,4,Pin_4*%
%TO.N,ROW4C*%
X306743750Y-124960000D03*
%TO.P,J3,5,Pin_5*%
%TO.N,ROW5C*%
X306743750Y-127500000D03*
%TD*%
D10*
%TO.P,J4,1,Pin_1*%
%TO.N,ROW0B*%
X299500000Y-44750000D03*
D11*
%TO.P,J4,2,Pin_2*%
%TO.N,COL14MAIN*%
X299500000Y-47290000D03*
%TO.P,J4,3,Pin_3*%
%TO.N,COL15MAIN*%
X299500000Y-49830000D03*
%TO.P,J4,4,Pin_4*%
%TO.N,COL16MAIN*%
X299500000Y-52370000D03*
%TO.P,J4,5,Pin_5*%
%TO.N,COL17MAIN*%
X299500000Y-54910000D03*
%TD*%
D10*
%TO.P,J5,1,Pin_1*%
%TO.N,ROW0C*%
X306743750Y-44750000D03*
D11*
%TO.P,J5,2,Pin_2*%
%TO.N,COL14*%
X306743750Y-47290000D03*
%TO.P,J5,3,Pin_3*%
%TO.N,COL15*%
X306743750Y-49830000D03*
%TO.P,J5,4,Pin_4*%
%TO.N,COL16*%
X306743750Y-52370000D03*
%TO.P,J5,5,Pin_5*%
%TO.N,COL17*%
X306743750Y-54910000D03*
%TD*%
D10*
%TO.P,J2,1,Pin_1*%
%TO.N,ROW1B*%
X299500000Y-117340000D03*
D11*
%TO.P,J2,2,Pin_2*%
%TO.N,ROW2B*%
X299500000Y-119880000D03*
%TO.P,J2,3,Pin_3*%
%TO.N,ROW3B*%
X299500000Y-122420000D03*
%TO.P,J2,4,Pin_4*%
%TO.N,ROW4B*%
X299500000Y-124960000D03*
%TO.P,J2,5,Pin_5*%
%TO.N,ROW5B*%
X299500000Y-127500000D03*
%TD*%
D12*
%TO.P,SW20,1,1*%
%TO.N,COL1*%
X51925000Y-57400000D03*
%TO.P,SW20,2,2*%
%TO.N,Net-(D20-A)*%
X39775000Y-55200000D03*
%TD*%
D13*
%TO.P,D65,1,K*%
%TO.N,ROW3B*%
X241450000Y-100100000D03*
%TO.P,D65,2,A*%
%TO.N,Net-(D65-A)*%
X241450000Y-98050000D03*
%TD*%
%TO.P,D67,1,K*%
%TO.N,ROW3B*%
X281975000Y-100075000D03*
%TO.P,D67,2,A*%
%TO.N,Net-(D67-A)*%
X281975000Y-98025000D03*
%TD*%
D12*
%TO.P,SW92,1,1*%
%TO.N,COL3*%
X235275000Y-133600000D03*
%TO.P,SW92,2,2*%
%TO.N,Net-(D92-A)*%
X223125000Y-131400000D03*
%TD*%
%TO.P,SW66,1,1*%
%TO.N,COL1*%
X275775000Y-95500000D03*
%TO.P,SW66,2,2*%
%TO.N,Net-(D66-A)*%
X263625000Y-93300000D03*
%TD*%
%TO.P,SW64,1,1*%
%TO.N,COL3*%
X237625000Y-95500000D03*
%TO.P,SW64,2,2*%
%TO.N,Net-(D64-A)*%
X225475000Y-93300000D03*
%TD*%
%TO.P,SW38,1,1*%
%TO.N,COL2*%
X80475000Y-76450000D03*
%TO.P,SW38,2,2*%
%TO.N,Net-(D38-A)*%
X68325000Y-74250000D03*
%TD*%
D13*
%TO.P,D49,1,K*%
%TO.N,ROW2B*%
X279675000Y-81100000D03*
%TO.P,D49,2,A*%
%TO.N,Net-(D49-A)*%
X279675000Y-79050000D03*
%TD*%
%TO.P,D54,1,K*%
%TO.N,ROW3A*%
X25075000Y-100100000D03*
%TO.P,D54,2,A*%
%TO.N,Net-(D54-A)*%
X25075000Y-98050000D03*
%TD*%
%TO.P,D69,1,K*%
%TO.N,ROW3C*%
X328706250Y-100025000D03*
%TO.P,D69,2,A*%
%TO.N,Net-(D69-A)*%
X328706250Y-97975000D03*
%TD*%
D14*
%TO.P,C5,1*%
%TO.N,+3.3V*%
X120175000Y-143250000D03*
%TO.P,C5,2*%
%TO.N,Net-(C5-Pad2)*%
X122250000Y-143250000D03*
%TD*%
D13*
%TO.P,D18,1,K*%
%TO.N,ROW0C*%
X366993750Y-43025000D03*
%TO.P,D18,2,A*%
%TO.N,Net-(D18-A)*%
X366993750Y-40975000D03*
%TD*%
D12*
%TO.P,SW58,1,1*%
%TO.N,COL4*%
X123325000Y-95500000D03*
%TO.P,SW58,2,2*%
%TO.N,Net-(D58-A)*%
X111175000Y-93300000D03*
%TD*%
%TO.P,SW12,1,1*%
%TO.N,COL2*%
X251925000Y-38350000D03*
%TO.P,SW12,2,2*%
%TO.N,Net-(D12-A)*%
X239775000Y-36150000D03*
%TD*%
D13*
%TO.P,D81,1,K*%
%TO.N,ROW4B*%
X194200000Y-119100000D03*
%TO.P,D81,2,A*%
%TO.N,Net-(D81-A)*%
X194200000Y-117050000D03*
%TD*%
%TO.P,D93,1,K*%
%TO.N,ROW5B*%
X241475000Y-138075000D03*
%TO.P,D93,2,A*%
%TO.N,Net-(D93-A)*%
X241475000Y-136025000D03*
%TD*%
D12*
%TO.P,SW4,1,1*%
%TO.N,COL3*%
X99512500Y-38350000D03*
%TO.P,SW4,2,2*%
%TO.N,Net-(D4-A)*%
X87362500Y-36150000D03*
%TD*%
D13*
%TO.P,D45,1,K*%
%TO.N,ROW2B*%
X198750000Y-81100000D03*
%TO.P,D45,2,A*%
%TO.N,Net-(D45-A)*%
X198750000Y-79050000D03*
%TD*%
%TO.P,D1,1,K*%
%TO.N,ROW0A*%
X22275000Y-43075000D03*
%TO.P,D1,2,A*%
%TO.N,Net-(D1-A)*%
X22275000Y-41025000D03*
%TD*%
D12*
%TO.P,SW39,1,1*%
%TO.N,COL3*%
X99475000Y-76450000D03*
%TO.P,SW39,2,2*%
%TO.N,Net-(D39-A)*%
X87325000Y-74250000D03*
%TD*%
%TO.P,SW25,1,1*%
%TO.N,COL6*%
X147162500Y-57400000D03*
%TO.P,SW25,2,2*%
%TO.N,Net-(D25-A)*%
X135012500Y-55200000D03*
%TD*%
D13*
%TO.P,D27,1,K*%
%TO.N,ROW1B*%
X170100000Y-62100000D03*
%TO.P,D27,2,A*%
%TO.N,Net-(D27-A)*%
X170100000Y-60050000D03*
%TD*%
%TO.P,D95,1,K*%
%TO.N,ROW5B*%
X284175000Y-138075000D03*
%TO.P,D95,2,A*%
%TO.N,Net-(D95-A)*%
X284175000Y-136025000D03*
%TD*%
D15*
%TO.P,R4,1*%
%TO.N,Net-(USB1-CC1)*%
X155550000Y-34850000D03*
%TO.P,R4,2*%
%TO.N,GND*%
X153550000Y-34850000D03*
%TD*%
D13*
%TO.P,D75,1,K*%
%TO.N,ROW4A*%
X79575000Y-119100000D03*
%TO.P,D75,2,A*%
%TO.N,Net-(D75-A)*%
X79575000Y-117050000D03*
%TD*%
%TO.P,D98,1,K*%
%TO.N,ROW5C*%
X347793750Y-138025000D03*
%TO.P,D98,2,A*%
%TO.N,Net-(D98-A)*%
X347793750Y-135975000D03*
%TD*%
D16*
%TO.P,D71,1,K*%
%TO.N,ROW3C*%
X371918750Y-102500000D03*
%TO.P,D71,2,A*%
%TO.N,Net-(D71-A)*%
X373968750Y-102500000D03*
%TD*%
D13*
%TO.P,D12,1,K*%
%TO.N,ROW0B*%
X236900000Y-43100000D03*
%TO.P,D12,2,A*%
%TO.N,Net-(D12-A)*%
X236900000Y-41050000D03*
%TD*%
D17*
%TO.P,USB1,1,GND*%
%TO.N,GND*%
X154525000Y-32110000D03*
%TO.P,USB1,2,VBUS*%
%TO.N,VCC*%
X155300000Y-32110000D03*
D18*
%TO.P,USB1,3,SBU2*%
%TO.N,unconnected-(USB1-SBU2-Pad3)*%
X156000000Y-32110000D03*
%TO.P,USB1,4,CC1*%
%TO.N,Net-(USB1-CC1)*%
X156500000Y-32110000D03*
%TO.P,USB1,5,DN2*%
%TO.N,Net-(U1-IO2)*%
X157000000Y-32110000D03*
%TO.P,USB1,6,DP1*%
%TO.N,Net-(U1-IO1)*%
X157500000Y-32110000D03*
%TO.P,USB1,7,DN1*%
%TO.N,Net-(U1-IO2)*%
X158000000Y-32110000D03*
%TO.P,USB1,8,DP2*%
%TO.N,Net-(U1-IO1)*%
X158500000Y-32110000D03*
%TO.P,USB1,9,SBU1*%
%TO.N,unconnected-(USB1-SBU1-Pad9)*%
X159000000Y-32110000D03*
%TO.P,USB1,10,CC2*%
%TO.N,Net-(USB1-CC2)*%
X159500000Y-32110000D03*
D17*
%TO.P,USB1,11,VBUS*%
%TO.N,VCC*%
X160200000Y-32110000D03*
%TO.P,USB1,12,GND*%
%TO.N,GND*%
X160975000Y-32110000D03*
D19*
%TO.P,USB1,13,SHIELD*%
%TO.N,Earth*%
X153430000Y-30695000D03*
D20*
X153430000Y-26515000D03*
D19*
X162070000Y-30695000D03*
D20*
X162070000Y-26515000D03*
%TD*%
D12*
%TO.P,SW59,1,1*%
%TO.N,COL5*%
X142425000Y-95500000D03*
%TO.P,SW59,2,2*%
%TO.N,Net-(D59-A)*%
X130275000Y-93300000D03*
%TD*%
D13*
%TO.P,D84,1,K*%
%TO.N,ROW4B*%
X267500000Y-119075000D03*
%TO.P,D84,2,A*%
%TO.N,Net-(D84-A)*%
X267500000Y-117025000D03*
%TD*%
%TO.P,D96,1,K*%
%TO.N,ROW5C*%
X309618750Y-138000000D03*
%TO.P,D96,2,A*%
%TO.N,Net-(D96-A)*%
X309618750Y-135950000D03*
%TD*%
D12*
%TO.P,SW81,1,1*%
%TO.N,COL4*%
X209050000Y-114550000D03*
%TO.P,SW81,2,2*%
%TO.N,Net-(D81-A)*%
X196900000Y-112350000D03*
%TD*%
D15*
%TO.P,R2,1*%
%TO.N,Net-(U1-IO1)*%
X137500000Y-139750000D03*
%TO.P,R2,2*%
%TO.N,D+*%
X135500000Y-139750000D03*
%TD*%
D12*
%TO.P,SW65,1,1*%
%TO.N,COL2*%
X256675000Y-95500000D03*
%TO.P,SW65,2,2*%
%TO.N,Net-(D65-A)*%
X244525000Y-93300000D03*
%TD*%
D13*
%TO.P,D16,1,K*%
%TO.N,ROW0C*%
X328743750Y-43025000D03*
%TO.P,D16,2,A*%
%TO.N,Net-(D16-A)*%
X328743750Y-40975000D03*
%TD*%
%TO.P,D32,1,K*%
%TO.N,ROW1B*%
X274625000Y-62075000D03*
%TO.P,D32,2,A*%
%TO.N,Net-(D32-A)*%
X274625000Y-60025000D03*
%TD*%
%TO.P,D35,1,K*%
%TO.N,ROW1C*%
X347843750Y-62025000D03*
%TO.P,D35,2,A*%
%TO.N,Net-(D35-A)*%
X347843750Y-59975000D03*
%TD*%
%TO.P,D13,1,K*%
%TO.N,ROW0B*%
X256000000Y-43075000D03*
%TO.P,D13,2,A*%
%TO.N,Net-(D13-A)*%
X256000000Y-41025000D03*
%TD*%
%TO.P,D7,1,K*%
%TO.N,ROW0A*%
X143200000Y-43525000D03*
%TO.P,D7,2,A*%
%TO.N,Net-(D7-A)*%
X143200000Y-41475000D03*
%TD*%
%TO.P,D50,1,K*%
%TO.N,ROW2C*%
X311993750Y-81025000D03*
%TO.P,D50,2,A*%
%TO.N,Net-(D50-A)*%
X311993750Y-78975000D03*
%TD*%
%TO.P,D43,1,K*%
%TO.N,ROW2B*%
X160512500Y-81100000D03*
%TO.P,D43,2,A*%
%TO.N,Net-(D43-A)*%
X160512500Y-79050000D03*
%TD*%
D12*
%TO.P,SW57,1,1*%
%TO.N,COL3*%
X104275000Y-95500000D03*
%TO.P,SW57,2,2*%
%TO.N,Net-(D57-A)*%
X92125000Y-93300000D03*
%TD*%
%TO.P,SW97,1,1*%
%TO.N,COL15*%
X343668750Y-133550000D03*
%TO.P,SW97,2,2*%
%TO.N,Net-(D97-A)*%
X331518750Y-131350000D03*
%TD*%
D13*
%TO.P,D4,1,K*%
%TO.N,ROW0A*%
X84312500Y-43075000D03*
%TO.P,D4,2,A*%
%TO.N,Net-(D4-A)*%
X84312500Y-41025000D03*
%TD*%
%TO.P,D20,1,K*%
%TO.N,ROW1A*%
X36900000Y-62075000D03*
%TO.P,D20,2,A*%
%TO.N,Net-(D20-A)*%
X36900000Y-60025000D03*
%TD*%
%TO.P,D64,1,K*%
%TO.N,ROW3B*%
X222350000Y-100100000D03*
%TO.P,D64,2,A*%
%TO.N,Net-(D64-A)*%
X222350000Y-98050000D03*
%TD*%
%TO.P,D97,1,K*%
%TO.N,ROW5C*%
X328668750Y-138050000D03*
%TO.P,D97,2,A*%
%TO.N,Net-(D97-A)*%
X328668750Y-136000000D03*
%TD*%
D12*
%TO.P,SW76,1,1*%
%TO.N,COL4*%
X113825000Y-114550000D03*
%TO.P,SW76,2,2*%
%TO.N,Net-(D76-A)*%
X101675000Y-112350000D03*
%TD*%
D21*
%TO.P,U3,1,VIN*%
%TO.N,Net-(U3-VIN)*%
X142137500Y-141550000D03*
%TO.P,U3,2,GND*%
%TO.N,Net-(U3-GND)*%
X142137500Y-142500000D03*
%TO.P,U3,3,EN*%
%TO.N,+5V*%
X142137500Y-143450000D03*
%TO.P,U3,4,NC*%
%TO.N,unconnected-(U3-NC-Pad4)*%
X139862500Y-143450000D03*
%TO.P,U3,5,VOUT*%
%TO.N,Net-(U3-VOUT)*%
X139862500Y-141550000D03*
%TD*%
D13*
%TO.P,D83,1,K*%
%TO.N,ROW4B*%
X232425000Y-119075000D03*
%TO.P,D83,2,A*%
%TO.N,Net-(D83-A)*%
X232425000Y-117025000D03*
%TD*%
%TO.P,D42,1,K*%
%TO.N,ROW2A*%
X141850000Y-81075000D03*
%TO.P,D42,2,A*%
%TO.N,Net-(D42-A)*%
X141850000Y-79025000D03*
%TD*%
D12*
%TO.P,SW11,1,1*%
%TO.N,COL3*%
X232875000Y-38350000D03*
%TO.P,SW11,2,2*%
%TO.N,Net-(D11-A)*%
X220725000Y-36150000D03*
%TD*%
D13*
%TO.P,D92,1,K*%
%TO.N,ROW5B*%
X220125000Y-138100000D03*
%TO.P,D92,2,A*%
%TO.N,Net-(D92-A)*%
X220125000Y-136050000D03*
%TD*%
D16*
%TO.P,D53,1,K*%
%TO.N,ROW2C*%
X372293750Y-64100000D03*
%TO.P,D53,2,A*%
%TO.N,Net-(D53-A)*%
X374343750Y-64100000D03*
%TD*%
D13*
%TO.P,D47,1,K*%
%TO.N,ROW2B*%
X236925000Y-81075000D03*
%TO.P,D47,2,A*%
%TO.N,Net-(D47-A)*%
X236925000Y-79025000D03*
%TD*%
D12*
%TO.P,SW90,1,1*%
%TO.N,COL3*%
X92400000Y-133600000D03*
%TO.P,SW90,2,2*%
%TO.N,Net-(D90-A)*%
X80250000Y-131400000D03*
%TD*%
D13*
%TO.P,D76,1,K*%
%TO.N,ROW4A*%
X98725000Y-119100000D03*
%TO.P,D76,2,A*%
%TO.N,Net-(D76-A)*%
X98725000Y-117050000D03*
%TD*%
%TO.P,D6,1,K*%
%TO.N,ROW0A*%
X122312500Y-43050000D03*
%TO.P,D6,2,A*%
%TO.N,Net-(D6-A)*%
X122312500Y-41000000D03*
%TD*%
D12*
%TO.P,SW3,1,1*%
%TO.N,COL2*%
X80462500Y-38350000D03*
%TO.P,SW3,2,2*%
%TO.N,Net-(D3-A)*%
X68312500Y-36150000D03*
%TD*%
%TO.P,SW40,1,1*%
%TO.N,COL4*%
X118575000Y-76450000D03*
%TO.P,SW40,2,2*%
%TO.N,Net-(D40-A)*%
X106425000Y-74250000D03*
%TD*%
D13*
%TO.P,D88,1,K*%
%TO.N,ROW5A*%
X36850000Y-138075000D03*
%TO.P,D88,2,A*%
%TO.N,Net-(D88-A)*%
X36850000Y-136025000D03*
%TD*%
D22*
%TO.P,C4,1*%
%TO.N,+3.3V*%
X132500000Y-130425000D03*
%TO.P,C4,2*%
%TO.N,Net-(C4-Pad2)*%
X132500000Y-132500000D03*
%TD*%
D12*
%TO.P,SW56,1,1*%
%TO.N,COL2*%
X85275000Y-95500000D03*
%TO.P,SW56,2,2*%
%TO.N,Net-(D56-A)*%
X73125000Y-93300000D03*
%TD*%
%TO.P,SW37,1,1*%
%TO.N,COL1*%
X61425000Y-76450000D03*
%TO.P,SW37,2,2*%
%TO.N,Net-(D37-A)*%
X49275000Y-74250000D03*
%TD*%
%TO.P,SW91,1,1*%
%TO.N,COL6*%
X163825000Y-133600000D03*
%TO.P,SW91,2,2*%
%TO.N,Net-(D91-A)*%
X151675000Y-131400000D03*
%TD*%
%TO.P,SW74,1,1*%
%TO.N,COL2*%
X75725000Y-114550000D03*
%TO.P,SW74,2,2*%
%TO.N,Net-(D74-A)*%
X63575000Y-112350000D03*
%TD*%
D23*
%TO.P,C7,1*%
%TO.N,+5V*%
X146537500Y-140500000D03*
%TO.P,C7,2*%
%TO.N,Net-(U3-VIN)*%
X144462500Y-140500000D03*
%TD*%
D13*
%TO.P,D91,1,K*%
%TO.N,ROW5B*%
X148725000Y-135525000D03*
%TO.P,D91,2,A*%
%TO.N,Net-(D91-A)*%
X148725000Y-133475000D03*
%TD*%
%TO.P,D39,1,K*%
%TO.N,ROW2A*%
X84062500Y-81075000D03*
%TO.P,D39,2,A*%
%TO.N,Net-(D39-A)*%
X84062500Y-79025000D03*
%TD*%
D15*
%TO.P,R5,1*%
%TO.N,GND*%
X134000000Y-144750000D03*
%TO.P,R5,2*%
%TO.N,Net-(U2-BOOT0)*%
X132000000Y-144750000D03*
%TD*%
D13*
%TO.P,D62,1,K*%
%TO.N,ROW3B*%
X184650000Y-100100000D03*
%TO.P,D62,2,A*%
%TO.N,Net-(D62-A)*%
X184650000Y-98050000D03*
%TD*%
D12*
%TO.P,SW31,1,1*%
%TO.N,COL1*%
X261462500Y-57400000D03*
%TO.P,SW31,2,2*%
%TO.N,Net-(D31-A)*%
X249312500Y-55200000D03*
%TD*%
%TO.P,SW95,1,1*%
%TO.N,COL0*%
X299525000Y-133600000D03*
%TO.P,SW95,2,2*%
%TO.N,Net-(D95-A)*%
X287375000Y-131400000D03*
%TD*%
D24*
%TO.P,SW100,1,1*%
%TO.N,unconnected-(SW100-Pad1)*%
X183850000Y-142350000D03*
%TO.P,SW100,2,2*%
%TO.N,RESET*%
X180150000Y-136150000D03*
%TO.P,SW100,3,3*%
%TO.N,GND*%
X180150000Y-142350000D03*
%TO.P,SW100,4,4*%
%TO.N,unconnected-(SW100-Pad4)*%
X183850000Y-136150000D03*
%TD*%
D12*
%TO.P,SW51,1,1*%
%TO.N,COL15*%
X343718750Y-76400000D03*
%TO.P,SW51,2,2*%
%TO.N,Net-(D51-A)*%
X331568750Y-74200000D03*
%TD*%
D13*
%TO.P,D99,1,K*%
%TO.N,ROW5C*%
X366893750Y-138000000D03*
%TO.P,D99,2,A*%
%TO.N,Net-(D99-A)*%
X366893750Y-135950000D03*
%TD*%
D12*
%TO.P,SW47,1,1*%
%TO.N,COL2*%
X251925000Y-76450000D03*
%TO.P,SW47,2,2*%
%TO.N,Net-(D47-A)*%
X239775000Y-74250000D03*
%TD*%
D25*
%TO.P,U1,3,IO2*%
%TO.N,Net-(U1-IO2)*%
X156000000Y-44950000D03*
%TO.P,U1,2,IO1*%
%TO.N,Net-(U1-IO1)*%
X158000000Y-44950000D03*
%TO.P,U1,4,VCC*%
%TO.N,VCC*%
X156000000Y-43050000D03*
D26*
%TO.P,U1,1,GND*%
%TO.N,GND*%
X158000000Y-43250000D03*
%TD*%
D27*
%TO.P,SW71,1,1*%
%TO.N,COL17*%
X377043750Y-117350000D03*
%TO.P,SW71,2,2*%
%TO.N,Net-(D71-A)*%
X379243750Y-105200000D03*
%TD*%
D28*
%TO.P,R6,1*%
%TO.N,+3.3V*%
X117500000Y-134000000D03*
%TO.P,R6,2*%
%TO.N,RESET*%
X119500000Y-134000000D03*
%TD*%
D12*
%TO.P,SW6,1,1*%
%TO.N,COL5*%
X137612500Y-38350000D03*
%TO.P,SW6,2,2*%
%TO.N,Net-(D6-A)*%
X125462500Y-36150000D03*
%TD*%
D29*
%TO.P,Y1,1,1*%
%TO.N,PF1*%
X111250000Y-134550000D03*
%TO.P,Y1,2,2*%
%TO.N,GND*%
X111250000Y-137450000D03*
%TO.P,Y1,3,3*%
%TO.N,PF0*%
X108950000Y-137450000D03*
%TO.P,Y1,4,4*%
%TO.N,GND*%
X108950000Y-134550000D03*
%TD*%
D12*
%TO.P,SW23,1,1*%
%TO.N,COL4*%
X109075000Y-57400000D03*
%TO.P,SW23,2,2*%
%TO.N,Net-(D23-A)*%
X96925000Y-55200000D03*
%TD*%
D13*
%TO.P,D72,1,K*%
%TO.N,ROW4A*%
X20025000Y-119100000D03*
%TO.P,D72,2,A*%
%TO.N,Net-(D72-A)*%
X20025000Y-117050000D03*
%TD*%
D12*
%TO.P,SW68,1,1*%
%TO.N,COL14*%
X324668750Y-95450000D03*
%TO.P,SW68,2,2*%
%TO.N,Net-(D68-A)*%
X312518750Y-93250000D03*
%TD*%
%TO.P,SW24,1,1*%
%TO.N,COL5*%
X128125000Y-57400000D03*
%TO.P,SW24,2,2*%
%TO.N,Net-(D24-A)*%
X115975000Y-55200000D03*
%TD*%
D27*
%TO.P,SW53,1,1*%
%TO.N,COL17*%
X377043750Y-79250000D03*
%TO.P,SW53,2,2*%
%TO.N,Net-(D53-A)*%
X379243750Y-67100000D03*
%TD*%
D13*
%TO.P,D37,1,K*%
%TO.N,ROW2A*%
X46400000Y-81100000D03*
%TO.P,D37,2,A*%
%TO.N,Net-(D37-A)*%
X46400000Y-79050000D03*
%TD*%
%TO.P,D33,1,K*%
%TO.N,ROW1C*%
X310993750Y-62000000D03*
%TO.P,D33,2,A*%
%TO.N,Net-(D33-A)*%
X310993750Y-59950000D03*
%TD*%
%TO.P,D21,1,K*%
%TO.N,ROW1A*%
X56062500Y-62075000D03*
%TO.P,D21,2,A*%
%TO.N,Net-(D21-A)*%
X56062500Y-60025000D03*
%TD*%
%TO.P,D38,1,K*%
%TO.N,ROW2A*%
X65012500Y-81075000D03*
%TO.P,D38,2,A*%
%TO.N,Net-(D38-A)*%
X65012500Y-79025000D03*
%TD*%
D15*
%TO.P,R1,1*%
%TO.N,Net-(U1-IO2)*%
X137500000Y-137250000D03*
%TO.P,R1,2*%
%TO.N,D-*%
X135500000Y-137250000D03*
%TD*%
D13*
%TO.P,D36,1,K*%
%TO.N,ROW2A*%
X22275000Y-81075000D03*
%TO.P,D36,2,A*%
%TO.N,Net-(D36-A)*%
X22275000Y-79025000D03*
%TD*%
D12*
%TO.P,SW8,1,1*%
%TO.N,COL6*%
X175712500Y-38350000D03*
%TO.P,SW8,2,2*%
%TO.N,Net-(D8-A)*%
X163562500Y-36150000D03*
%TD*%
D13*
%TO.P,D80,1,K*%
%TO.N,ROW4B*%
X175125000Y-119075000D03*
%TO.P,D80,2,A*%
%TO.N,Net-(D80-A)*%
X175125000Y-117025000D03*
%TD*%
D12*
%TO.P,SW2,1,1*%
%TO.N,COL1*%
X61425000Y-38350000D03*
%TO.P,SW2,2,2*%
%TO.N,Net-(D2-A)*%
X49275000Y-36150000D03*
%TD*%
D13*
%TO.P,D26,1,K*%
%TO.N,ROW1B*%
X151025000Y-62075000D03*
%TO.P,D26,2,A*%
%TO.N,Net-(D26-A)*%
X151025000Y-60025000D03*
%TD*%
%TO.P,D94,1,K*%
%TO.N,ROW5B*%
X262825000Y-138075000D03*
%TO.P,D94,2,A*%
%TO.N,Net-(D94-A)*%
X262825000Y-136025000D03*
%TD*%
D23*
%TO.P,C8,1*%
%TO.N,Net-(U3-VOUT)*%
X137500000Y-142750000D03*
%TO.P,C8,2*%
%TO.N,+3.3V*%
X135425000Y-142750000D03*
%TD*%
D12*
%TO.P,SW63,1,1*%
%TO.N,COL4*%
X218575000Y-95500000D03*
%TO.P,SW63,2,2*%
%TO.N,Net-(D63-A)*%
X206425000Y-93300000D03*
%TD*%
%TO.P,SW19,1,1*%
%TO.N,COL0*%
X32862500Y-57400000D03*
%TO.P,SW19,2,2*%
%TO.N,Net-(D19-A)*%
X20712500Y-55200000D03*
%TD*%
D13*
%TO.P,D34,1,K*%
%TO.N,ROW1C*%
X328743750Y-62025000D03*
%TO.P,D34,2,A*%
%TO.N,Net-(D34-A)*%
X328743750Y-59975000D03*
%TD*%
%TO.P,D2,1,K*%
%TO.N,ROW0A*%
X46412500Y-43075000D03*
%TO.P,D2,2,A*%
%TO.N,Net-(D2-A)*%
X46412500Y-41025000D03*
%TD*%
%TO.P,D19,1,K*%
%TO.N,ROW1A*%
X17787500Y-62100000D03*
%TO.P,D19,2,A*%
%TO.N,Net-(D19-A)*%
X17787500Y-60050000D03*
%TD*%
D30*
%TO.P,C3,1*%
%TO.N,+3.3V*%
X117250000Y-131825000D03*
%TO.P,C3,2*%
%TO.N,Net-(C3-Pad2)*%
X117250000Y-129750000D03*
%TD*%
D12*
%TO.P,SW88,1,1*%
%TO.N,COL1*%
X51875000Y-133600000D03*
%TO.P,SW88,2,2*%
%TO.N,Net-(D88-A)*%
X39725000Y-131400000D03*
%TD*%
%TO.P,SW67,1,1*%
%TO.N,COL0*%
X297200000Y-95500000D03*
%TO.P,SW67,2,2*%
%TO.N,Net-(D67-A)*%
X285050000Y-93300000D03*
%TD*%
D13*
%TO.P,D56,1,K*%
%TO.N,ROW3A*%
X70100000Y-100075000D03*
%TO.P,D56,2,A*%
%TO.N,Net-(D56-A)*%
X70100000Y-98025000D03*
%TD*%
D12*
%TO.P,SW17,1,1*%
%TO.N,COL16*%
X362768750Y-38300000D03*
%TO.P,SW17,2,2*%
%TO.N,Net-(D17-A)*%
X350618750Y-36100000D03*
%TD*%
%TO.P,SW93,1,1*%
%TO.N,COL2*%
X256725000Y-133600000D03*
%TO.P,SW93,2,2*%
%TO.N,Net-(D93-A)*%
X244575000Y-131400000D03*
%TD*%
%TO.P,SW32,1,1*%
%TO.N,COL0*%
X290025000Y-57400000D03*
%TO.P,SW32,2,2*%
%TO.N,Net-(D32-A)*%
X277875000Y-55200000D03*
%TD*%
D13*
%TO.P,D77,1,K*%
%TO.N,ROW4A*%
X117825000Y-119075000D03*
%TO.P,D77,2,A*%
%TO.N,Net-(D77-A)*%
X117825000Y-117025000D03*
%TD*%
D12*
%TO.P,SW29,1,1*%
%TO.N,COL3*%
X223362500Y-57400000D03*
%TO.P,SW29,2,2*%
%TO.N,Net-(D29-A)*%
X211212500Y-55200000D03*
%TD*%
D13*
%TO.P,D41,1,K*%
%TO.N,ROW2A*%
X122300000Y-81075000D03*
%TO.P,D41,2,A*%
%TO.N,Net-(D41-A)*%
X122300000Y-79025000D03*
%TD*%
D12*
%TO.P,SW44,1,1*%
%TO.N,COL5*%
X194775000Y-76450000D03*
%TO.P,SW44,2,2*%
%TO.N,Net-(D44-A)*%
X182625000Y-74250000D03*
%TD*%
%TO.P,SW30,1,1*%
%TO.N,COL2*%
X242425000Y-57400000D03*
%TO.P,SW30,2,2*%
%TO.N,Net-(D30-A)*%
X230275000Y-55200000D03*
%TD*%
D13*
%TO.P,D74,1,K*%
%TO.N,ROW4A*%
X60725000Y-119075000D03*
%TO.P,D74,2,A*%
%TO.N,Net-(D74-A)*%
X60725000Y-117025000D03*
%TD*%
%TO.P,D66,1,K*%
%TO.N,ROW3B*%
X260600000Y-100075000D03*
%TO.P,D66,2,A*%
%TO.N,Net-(D66-A)*%
X260600000Y-98025000D03*
%TD*%
D12*
%TO.P,SW49,1,1*%
%TO.N,COL0*%
X294800000Y-76450000D03*
%TO.P,SW49,2,2*%
%TO.N,Net-(D49-A)*%
X282650000Y-74250000D03*
%TD*%
%TO.P,SW22,1,1*%
%TO.N,COL3*%
X90025000Y-57400000D03*
%TO.P,SW22,2,2*%
%TO.N,Net-(D22-A)*%
X77875000Y-55200000D03*
%TD*%
%TO.P,SW98,1,1*%
%TO.N,COL16*%
X362718750Y-133550000D03*
%TO.P,SW98,2,2*%
%TO.N,Net-(D98-A)*%
X350568750Y-131350000D03*
%TD*%
%TO.P,SW86,1,1*%
%TO.N,COL16*%
X362756250Y-114500000D03*
%TO.P,SW86,2,2*%
%TO.N,Net-(D86-A)*%
X350606250Y-112300000D03*
%TD*%
D13*
%TO.P,D40,1,K*%
%TO.N,ROW2A*%
X103200000Y-81075000D03*
%TO.P,D40,2,A*%
%TO.N,Net-(D40-A)*%
X103200000Y-79025000D03*
%TD*%
D12*
%TO.P,SW7,1,1*%
%TO.N,COL6*%
X156675000Y-38350000D03*
%TO.P,SW7,2,2*%
%TO.N,Net-(D7-A)*%
X144525000Y-36150000D03*
%TD*%
%TO.P,SW52,1,1*%
%TO.N,COL16*%
X362768750Y-76400000D03*
%TO.P,SW52,2,2*%
%TO.N,Net-(D52-A)*%
X350618750Y-74200000D03*
%TD*%
%TO.P,SW75,1,1*%
%TO.N,COL3*%
X94725000Y-114550000D03*
%TO.P,SW75,2,2*%
%TO.N,Net-(D75-A)*%
X82575000Y-112350000D03*
%TD*%
D13*
%TO.P,D61,1,K*%
%TO.N,ROW3B*%
X165550000Y-100100000D03*
%TO.P,D61,2,A*%
%TO.N,Net-(D61-A)*%
X165550000Y-98050000D03*
%TD*%
D12*
%TO.P,SW27,1,1*%
%TO.N,COL5*%
X185275000Y-57400000D03*
%TO.P,SW27,2,2*%
%TO.N,Net-(D27-A)*%
X173125000Y-55200000D03*
%TD*%
D13*
%TO.P,D5,1,K*%
%TO.N,ROW0A*%
X103187500Y-43100000D03*
%TO.P,D5,2,A*%
%TO.N,Net-(D5-A)*%
X103187500Y-41050000D03*
%TD*%
D12*
%TO.P,SW1,1,1*%
%TO.N,COL0*%
X37600000Y-38350000D03*
%TO.P,SW1,2,2*%
%TO.N,Net-(D1-A)*%
X25450000Y-36150000D03*
%TD*%
D13*
%TO.P,D28,1,K*%
%TO.N,ROW1B*%
X189200000Y-62075000D03*
%TO.P,D28,2,A*%
%TO.N,Net-(D28-A)*%
X189200000Y-60025000D03*
%TD*%
D12*
%TO.P,SW61,1,1*%
%TO.N,COL6*%
X180475000Y-95500000D03*
%TO.P,SW61,2,2*%
%TO.N,Net-(D61-A)*%
X168325000Y-93300000D03*
%TD*%
%TO.P,SW83,1,1*%
%TO.N,COL2*%
X247175000Y-114550000D03*
%TO.P,SW83,2,2*%
%TO.N,Net-(D83-A)*%
X235025000Y-112350000D03*
%TD*%
%TO.P,SW5,1,1*%
%TO.N,COL4*%
X118562500Y-38350000D03*
%TO.P,SW5,2,2*%
%TO.N,Net-(D5-A)*%
X106412500Y-36150000D03*
%TD*%
D13*
%TO.P,D55,1,K*%
%TO.N,ROW3A*%
X50912500Y-100100000D03*
%TO.P,D55,2,A*%
%TO.N,Net-(D55-A)*%
X50912500Y-98050000D03*
%TD*%
%TO.P,D60,1,K*%
%TO.N,ROW3A*%
X146500000Y-100075000D03*
%TO.P,D60,2,A*%
%TO.N,Net-(D60-A)*%
X146500000Y-98025000D03*
%TD*%
%TO.P,D82,1,K*%
%TO.N,ROW4B*%
X213325000Y-119075000D03*
%TO.P,D82,2,A*%
%TO.N,Net-(D82-A)*%
X213325000Y-117025000D03*
%TD*%
D12*
%TO.P,SW70,1,1*%
%TO.N,COL16*%
X362768750Y-95450000D03*
%TO.P,SW70,2,2*%
%TO.N,Net-(D70-A)*%
X350618750Y-93250000D03*
%TD*%
D13*
%TO.P,D70,1,K*%
%TO.N,ROW3C*%
X347843750Y-100050000D03*
%TO.P,D70,2,A*%
%TO.N,Net-(D70-A)*%
X347843750Y-98000000D03*
%TD*%
D12*
%TO.P,SW87,1,1*%
%TO.N,COL0*%
X32825000Y-133600000D03*
%TO.P,SW87,2,2*%
%TO.N,Net-(D87-A)*%
X20675000Y-131400000D03*
%TD*%
%TO.P,SW9,1,1*%
%TO.N,COL5*%
X194775000Y-38350000D03*
%TO.P,SW9,2,2*%
%TO.N,Net-(D9-A)*%
X182625000Y-36150000D03*
%TD*%
%TO.P,SW46,1,1*%
%TO.N,COL3*%
X232825000Y-76450000D03*
%TO.P,SW46,2,2*%
%TO.N,Net-(D46-A)*%
X220675000Y-74250000D03*
%TD*%
%TO.P,SW21,1,1*%
%TO.N,COL2*%
X71025000Y-57400000D03*
%TO.P,SW21,2,2*%
%TO.N,Net-(D21-A)*%
X58875000Y-55200000D03*
%TD*%
%TO.P,SW15,1,1*%
%TO.N,COL14*%
X324656250Y-38300000D03*
%TO.P,SW15,2,2*%
%TO.N,Net-(D15-A)*%
X312506250Y-36100000D03*
%TD*%
D13*
%TO.P,D44,1,K*%
%TO.N,ROW2B*%
X179612500Y-81075000D03*
%TO.P,D44,2,A*%
%TO.N,Net-(D44-A)*%
X179612500Y-79025000D03*
%TD*%
%TO.P,D73,1,K*%
%TO.N,ROW4A*%
X41425000Y-119075000D03*
%TO.P,D73,2,A*%
%TO.N,Net-(D73-A)*%
X41425000Y-117025000D03*
%TD*%
%TO.P,D68,1,K*%
%TO.N,ROW3C*%
X309618750Y-100025000D03*
%TO.P,D68,2,A*%
%TO.N,Net-(D68-A)*%
X309618750Y-97975000D03*
%TD*%
D12*
%TO.P,SW13,1,1*%
%TO.N,COL1*%
X270975000Y-38350000D03*
%TO.P,SW13,2,2*%
%TO.N,Net-(D13-A)*%
X258825000Y-36150000D03*
%TD*%
D13*
%TO.P,D58,1,K*%
%TO.N,ROW3A*%
X108250000Y-100025000D03*
%TO.P,D58,2,A*%
%TO.N,Net-(D58-A)*%
X108250000Y-97975000D03*
%TD*%
D12*
%TO.P,SW54,1,1*%
%TO.N,COL0*%
X40000000Y-95500000D03*
%TO.P,SW54,2,2*%
%TO.N,Net-(D54-A)*%
X27850000Y-93300000D03*
%TD*%
%TO.P,SW45,1,1*%
%TO.N,COL4*%
X213825000Y-76450000D03*
%TO.P,SW45,2,2*%
%TO.N,Net-(D45-A)*%
X201675000Y-74250000D03*
%TD*%
D13*
%TO.P,D86,1,K*%
%TO.N,ROW4C*%
X347806250Y-119050000D03*
%TO.P,D86,2,A*%
%TO.N,Net-(D86-A)*%
X347806250Y-117000000D03*
%TD*%
%TO.P,D87,1,K*%
%TO.N,ROW5A*%
X17750000Y-138100000D03*
%TO.P,D87,2,A*%
%TO.N,Net-(D87-A)*%
X17750000Y-136050000D03*
%TD*%
%TO.P,D9,1,K*%
%TO.N,ROW0B*%
X179612500Y-43075000D03*
%TO.P,D9,2,A*%
%TO.N,Net-(D9-A)*%
X179612500Y-41025000D03*
%TD*%
%TO.P,D3,1,K*%
%TO.N,ROW0A*%
X65487500Y-43075000D03*
%TO.P,D3,2,A*%
%TO.N,Net-(D3-A)*%
X65487500Y-41025000D03*
%TD*%
%TO.P,D63,1,K*%
%TO.N,ROW3B*%
X203250000Y-100100000D03*
%TO.P,D63,2,A*%
%TO.N,Net-(D63-A)*%
X203250000Y-98050000D03*
%TD*%
D12*
%TO.P,SW73,1,1*%
%TO.N,COL1*%
X56675000Y-114550000D03*
%TO.P,SW73,2,2*%
%TO.N,Net-(D73-A)*%
X44525000Y-112350000D03*
%TD*%
D31*
%TO.P,F1,1*%
%TO.N,VCC*%
X152850000Y-43112500D03*
%TO.P,F1,2*%
%TO.N,+5V*%
X152850000Y-46087500D03*
%TD*%
D13*
%TO.P,D90,1,K*%
%TO.N,ROW5A*%
X77275000Y-138075000D03*
%TO.P,D90,2,A*%
%TO.N,Net-(D90-A)*%
X77275000Y-136025000D03*
%TD*%
D12*
%TO.P,SW50,1,1*%
%TO.N,COL14*%
X324668750Y-76400000D03*
%TO.P,SW50,2,2*%
%TO.N,Net-(D50-A)*%
X312518750Y-74200000D03*
%TD*%
%TO.P,SW43,1,1*%
%TO.N,COL6*%
X175725000Y-76450000D03*
%TO.P,SW43,2,2*%
%TO.N,Net-(D43-A)*%
X163575000Y-74250000D03*
%TD*%
%TO.P,SW10,1,1*%
%TO.N,COL4*%
X213825000Y-38350000D03*
%TO.P,SW10,2,2*%
%TO.N,Net-(D10-A)*%
X201675000Y-36150000D03*
%TD*%
D13*
%TO.P,D46,1,K*%
%TO.N,ROW2B*%
X217775000Y-81075000D03*
%TO.P,D46,2,A*%
%TO.N,Net-(D46-A)*%
X217775000Y-79025000D03*
%TD*%
%TO.P,D48,1,K*%
%TO.N,ROW2B*%
X256000000Y-81075000D03*
%TO.P,D48,2,A*%
%TO.N,Net-(D48-A)*%
X256000000Y-79025000D03*
%TD*%
D12*
%TO.P,SW60,1,1*%
%TO.N,COL6*%
X161475000Y-95500000D03*
%TO.P,SW60,2,2*%
%TO.N,Net-(D60-A)*%
X149325000Y-93300000D03*
%TD*%
%TO.P,SW79,1,1*%
%TO.N,COL6*%
X170975000Y-114550000D03*
%TO.P,SW79,2,2*%
%TO.N,Net-(D79-A)*%
X158825000Y-112350000D03*
%TD*%
%TO.P,SW48,1,1*%
%TO.N,COL1*%
X270975000Y-76450000D03*
%TO.P,SW48,2,2*%
%TO.N,Net-(D48-A)*%
X258825000Y-74250000D03*
%TD*%
D13*
%TO.P,D10,1,K*%
%TO.N,ROW0B*%
X198700000Y-43100000D03*
%TO.P,D10,2,A*%
%TO.N,Net-(D10-A)*%
X198700000Y-41050000D03*
%TD*%
D32*
%TO.P,FB1,1*%
%TO.N,Earth*%
X151500000Y-32200000D03*
%TO.P,FB1,2*%
%TO.N,GND*%
X151500000Y-34500000D03*
%TD*%
D12*
%TO.P,SW33,1,1*%
%TO.N,COL14*%
X324668750Y-57350000D03*
%TO.P,SW33,2,2*%
%TO.N,Net-(D33-A)*%
X312518750Y-55150000D03*
%TD*%
D13*
%TO.P,D25,1,K*%
%TO.N,ROW1A*%
X131887500Y-62075000D03*
%TO.P,D25,2,A*%
%TO.N,Net-(D25-A)*%
X131887500Y-60025000D03*
%TD*%
%TO.P,D14,1,K*%
%TO.N,ROW0B*%
X279625000Y-43075000D03*
%TO.P,D14,2,A*%
%TO.N,Net-(D14-A)*%
X279625000Y-41025000D03*
%TD*%
%TO.P,D85,1,K*%
%TO.N,ROW4C*%
X319168750Y-119025000D03*
%TO.P,D85,2,A*%
%TO.N,Net-(D85-A)*%
X319168750Y-116975000D03*
%TD*%
D23*
%TO.P,C2,1*%
%TO.N,GND*%
X111325000Y-140950000D03*
%TO.P,C2,2*%
%TO.N,PF0*%
X109250000Y-140950000D03*
%TD*%
D12*
%TO.P,SW78,1,1*%
%TO.N,COL6*%
X151925000Y-114550000D03*
%TO.P,SW78,2,2*%
%TO.N,Net-(D78-A)*%
X139775000Y-112350000D03*
%TD*%
D13*
%TO.P,D29,1,K*%
%TO.N,ROW1B*%
X208462500Y-62075000D03*
%TO.P,D29,2,A*%
%TO.N,Net-(D29-A)*%
X208462500Y-60025000D03*
%TD*%
%TO.P,D79,1,K*%
%TO.N,ROW4B*%
X156025000Y-119075000D03*
%TO.P,D79,2,A*%
%TO.N,Net-(D79-A)*%
X156025000Y-117025000D03*
%TD*%
D23*
%TO.P,C9,1*%
%TO.N,GND*%
X146537500Y-144000000D03*
%TO.P,C9,2*%
%TO.N,Net-(U3-GND)*%
X144462500Y-144000000D03*
%TD*%
D12*
%TO.P,SW77,1,1*%
%TO.N,COL5*%
X132875000Y-114550000D03*
%TO.P,SW77,2,2*%
%TO.N,Net-(D77-A)*%
X120725000Y-112350000D03*
%TD*%
D13*
%TO.P,D11,1,K*%
%TO.N,ROW0B*%
X217800000Y-43100000D03*
%TO.P,D11,2,A*%
%TO.N,Net-(D11-A)*%
X217800000Y-41050000D03*
%TD*%
%TO.P,D17,1,K*%
%TO.N,ROW0C*%
X347843750Y-43025000D03*
%TO.P,D17,2,A*%
%TO.N,Net-(D17-A)*%
X347843750Y-40975000D03*
%TD*%
%TO.P,D57,1,K*%
%TO.N,ROW3A*%
X89150000Y-100100000D03*
%TO.P,D57,2,A*%
%TO.N,Net-(D57-A)*%
X89150000Y-98050000D03*
%TD*%
D28*
%TO.P,R3,1*%
%TO.N,Net-(USB1-CC2)*%
X159100000Y-34900000D03*
%TO.P,R3,2*%
%TO.N,GND*%
X161100000Y-34900000D03*
%TD*%
D13*
%TO.P,D8,1,K*%
%TO.N,ROW0B*%
X162000000Y-43075000D03*
%TO.P,D8,2,A*%
%TO.N,Net-(D8-A)*%
X162000000Y-41025000D03*
%TD*%
D12*
%TO.P,SW62,1,1*%
%TO.N,COL5*%
X199525000Y-95500000D03*
%TO.P,SW62,2,2*%
%TO.N,Net-(D62-A)*%
X187375000Y-93300000D03*
%TD*%
%TO.P,SW28,1,1*%
%TO.N,COL4*%
X204325000Y-57400000D03*
%TO.P,SW28,2,2*%
%TO.N,Net-(D28-A)*%
X192175000Y-55200000D03*
%TD*%
%TO.P,SW26,1,1*%
%TO.N,COL6*%
X166225000Y-57400000D03*
%TO.P,SW26,2,2*%
%TO.N,Net-(D26-A)*%
X154075000Y-55200000D03*
%TD*%
D13*
%TO.P,D89,1,K*%
%TO.N,ROW5A*%
X55937500Y-138075000D03*
%TO.P,D89,2,A*%
%TO.N,Net-(D89-A)*%
X55937500Y-136025000D03*
%TD*%
D12*
%TO.P,SW96,1,1*%
%TO.N,COL14*%
X324668750Y-133550000D03*
%TO.P,SW96,2,2*%
%TO.N,Net-(D96-A)*%
X312518750Y-131350000D03*
%TD*%
%TO.P,SW41,1,1*%
%TO.N,COL5*%
X137625000Y-76450000D03*
%TO.P,SW41,2,2*%
%TO.N,Net-(D41-A)*%
X125475000Y-74250000D03*
%TD*%
%TO.P,SW16,1,1*%
%TO.N,COL15*%
X343718750Y-38300000D03*
%TO.P,SW16,2,2*%
%TO.N,Net-(D16-A)*%
X331568750Y-36100000D03*
%TD*%
D13*
%TO.P,D23,1,K*%
%TO.N,ROW1A*%
X93725000Y-62075000D03*
%TO.P,D23,2,A*%
%TO.N,Net-(D23-A)*%
X93725000Y-60025000D03*
%TD*%
D12*
%TO.P,SW55,1,1*%
%TO.N,COL1*%
X66162500Y-95500000D03*
%TO.P,SW55,2,2*%
%TO.N,Net-(D55-A)*%
X54012500Y-93300000D03*
%TD*%
%TO.P,SW18,1,1*%
%TO.N,COL17*%
X381843750Y-38300000D03*
%TO.P,SW18,2,2*%
%TO.N,Net-(D18-A)*%
X369693750Y-36100000D03*
%TD*%
D13*
%TO.P,D30,1,K*%
%TO.N,ROW1B*%
X227412500Y-62075000D03*
%TO.P,D30,2,A*%
%TO.N,Net-(D30-A)*%
X227412500Y-60025000D03*
%TD*%
D12*
%TO.P,SW14,1,1*%
%TO.N,COL0*%
X294775000Y-38350000D03*
%TO.P,SW14,2,2*%
%TO.N,Net-(D14-A)*%
X282625000Y-36150000D03*
%TD*%
D13*
%TO.P,D31,1,K*%
%TO.N,ROW1B*%
X246487500Y-62100000D03*
%TO.P,D31,2,A*%
%TO.N,Net-(D31-A)*%
X246487500Y-60050000D03*
%TD*%
D12*
%TO.P,SW84,1,1*%
%TO.N,COL1*%
X282875000Y-114550000D03*
%TO.P,SW84,2,2*%
%TO.N,Net-(D84-A)*%
X270725000Y-112350000D03*
%TD*%
D13*
%TO.P,D78,1,K*%
%TO.N,ROW4A*%
X136925000Y-119075000D03*
%TO.P,D78,2,A*%
%TO.N,Net-(D78-A)*%
X136925000Y-117025000D03*
%TD*%
D12*
%TO.P,SW80,1,1*%
%TO.N,COL5*%
X190025000Y-114550000D03*
%TO.P,SW80,2,2*%
%TO.N,Net-(D80-A)*%
X177875000Y-112350000D03*
%TD*%
D13*
%TO.P,D52,1,K*%
%TO.N,ROW2C*%
X347843750Y-81025000D03*
%TO.P,D52,2,A*%
%TO.N,Net-(D52-A)*%
X347843750Y-78975000D03*
%TD*%
%TO.P,D59,1,K*%
%TO.N,ROW3A*%
X127400000Y-100100000D03*
%TO.P,D59,2,A*%
%TO.N,Net-(D59-A)*%
X127400000Y-98050000D03*
%TD*%
D22*
%TO.P,C6,1*%
%TO.N,Net-(C3-Pad2)*%
X119750000Y-129750000D03*
%TO.P,C6,2*%
%TO.N,Net-(U2-VDDA)*%
X119750000Y-131825000D03*
%TD*%
D13*
%TO.P,D22,1,K*%
%TO.N,ROW1A*%
X74600000Y-62075000D03*
%TO.P,D22,2,A*%
%TO.N,Net-(D22-A)*%
X74600000Y-60025000D03*
%TD*%
%TO.P,D24,1,K*%
%TO.N,ROW1A*%
X112825000Y-62075000D03*
%TO.P,D24,2,A*%
%TO.N,Net-(D24-A)*%
X112825000Y-60025000D03*
%TD*%
%TO.P,D15,1,K*%
%TO.N,ROW0C*%
X310993750Y-43025000D03*
%TO.P,D15,2,A*%
%TO.N,Net-(D15-A)*%
X310993750Y-40975000D03*
%TD*%
D14*
%TO.P,C1,1*%
%TO.N,GND*%
X109175000Y-131450000D03*
%TO.P,C1,2*%
%TO.N,PF1*%
X111250000Y-131450000D03*
%TD*%
D33*
%TO.P,U2,1,VBAT*%
%TO.N,+3.3V*%
X122337500Y-140000000D03*
%TO.P,U2,2,PC13*%
%TO.N,unconnected-(U2-PC13-Pad2)*%
X122337500Y-139500000D03*
%TO.P,U2,3,PC14*%
%TO.N,unconnected-(U2-PC14-Pad3)*%
X122337500Y-139000000D03*
%TO.P,U2,4,PC15*%
%TO.N,unconnected-(U2-PC15-Pad4)*%
X122337500Y-138500000D03*
%TO.P,U2,5,PF0*%
%TO.N,PF0*%
X122337500Y-138000000D03*
%TO.P,U2,6,PF1*%
%TO.N,PF1*%
X122337500Y-137500000D03*
%TO.P,U2,7,NRST*%
%TO.N,RESET*%
X122337500Y-137000000D03*
%TO.P,U2,8,VSSA*%
%TO.N,GND*%
X122337500Y-136500000D03*
%TO.P,U2,9,VDDA*%
%TO.N,Net-(U2-VDDA)*%
X122337500Y-136000000D03*
%TO.P,U2,10,PA0*%
%TO.N,unconnected-(U2-PA0-Pad10)*%
X122337500Y-135500000D03*
%TO.P,U2,11,PA1*%
%TO.N,unconnected-(U2-PA1-Pad11)*%
X122337500Y-135000000D03*
%TO.P,U2,12,PA2*%
%TO.N,COL0*%
X122337500Y-134500000D03*
D34*
%TO.P,U2,13,PA3*%
%TO.N,COL1*%
X123750000Y-133087500D03*
%TO.P,U2,14,PA4*%
%TO.N,COL2*%
X124250000Y-133087500D03*
%TO.P,U2,15,PA5*%
%TO.N,COL3*%
X124750000Y-133087500D03*
%TO.P,U2,16,PA6*%
%TO.N,COL4*%
X125250000Y-133087500D03*
%TO.P,U2,17,PA7*%
%TO.N,COL5*%
X125750000Y-133087500D03*
%TO.P,U2,18,PB0*%
%TO.N,COL6*%
X126250000Y-133087500D03*
%TO.P,U2,19,PB1*%
%TO.N,ROW0A*%
X126750000Y-133087500D03*
%TO.P,U2,20,PB2*%
%TO.N,ROW0B*%
X127250000Y-133087500D03*
%TO.P,U2,21,PB10*%
%TO.N,ROW1B*%
X127750000Y-133087500D03*
%TO.P,U2,22,PB11*%
%TO.N,unconnected-(U2-PB11-Pad22)*%
X128250000Y-133087500D03*
%TO.P,U2,23,VSS*%
%TO.N,GND*%
X128750000Y-133087500D03*
%TO.P,U2,24,VDD*%
%TO.N,Net-(C4-Pad2)*%
X129250000Y-133087500D03*
D33*
%TO.P,U2,25,PB12*%
%TO.N,SWCLK*%
X130662500Y-134500000D03*
%TO.P,U2,26,PB13*%
%TO.N,SWDIO*%
X130662500Y-135000000D03*
%TO.P,U2,27,PB14*%
%TO.N,unconnected-(U2-PB14-Pad27)*%
X130662500Y-135500000D03*
%TO.P,U2,28,PB15*%
%TO.N,ROW2B*%
X130662500Y-136000000D03*
%TO.P,U2,29,PA8*%
%TO.N,ROW3B*%
X130662500Y-136500000D03*
%TO.P,U2,30,PA9*%
%TO.N,ROW4B*%
X130662500Y-137000000D03*
%TO.P,U2,31,PA10*%
%TO.N,ROW5B*%
X130662500Y-137500000D03*
%TO.P,U2,32,PA11*%
%TO.N,D-*%
X130662500Y-138000000D03*
%TO.P,U2,33,PA12*%
%TO.N,D+*%
X130662500Y-138500000D03*
%TO.P,U2,34,PA13*%
%TO.N,unconnected-(U2-PA13-Pad34)*%
X130662500Y-139000000D03*
%TO.P,U2,35,VSS*%
%TO.N,GND*%
X130662500Y-139500000D03*
%TO.P,U2,36,VDDIO2*%
%TO.N,+3.3V*%
X130662500Y-140000000D03*
D34*
%TO.P,U2,37,PA14*%
%TO.N,COL14MAIN*%
X129250000Y-141412500D03*
%TO.P,U2,38,PA15*%
%TO.N,COL15MAIN*%
X128750000Y-141412500D03*
%TO.P,U2,39,PB3*%
%TO.N,COL16MAIN*%
X128250000Y-141412500D03*
%TO.P,U2,40,PB4*%
%TO.N,COL17MAIN*%
X127750000Y-141412500D03*
%TO.P,U2,41,PB5*%
%TO.N,ROW5A*%
X127250000Y-141412500D03*
%TO.P,U2,42,PB6*%
%TO.N,ROW4A*%
X126750000Y-141412500D03*
%TO.P,U2,43,PB7*%
%TO.N,ROW3A*%
X126250000Y-141412500D03*
%TO.P,U2,44,BOOT0*%
%TO.N,Net-(U2-BOOT0)*%
X125750000Y-141412500D03*
%TO.P,U2,45,PB8*%
%TO.N,ROW2A*%
X125250000Y-141412500D03*
%TO.P,U2,46,PB9*%
%TO.N,ROW1A*%
X124750000Y-141412500D03*
%TO.P,U2,47,VSS*%
%TO.N,GND*%
X124250000Y-141412500D03*
%TO.P,U2,48,VDD*%
%TO.N,Net-(C5-Pad2)*%
X123750000Y-141412500D03*
%TD*%
D12*
%TO.P,SW89,1,1*%
%TO.N,COL2*%
X70912500Y-133600000D03*
%TO.P,SW89,2,2*%
%TO.N,Net-(D89-A)*%
X58762500Y-131400000D03*
%TD*%
%TO.P,SW94,1,1*%
%TO.N,COL1*%
X278125000Y-133600000D03*
%TO.P,SW94,2,2*%
%TO.N,Net-(D94-A)*%
X265975000Y-131400000D03*
%TD*%
%TO.P,SW42,1,1*%
%TO.N,COL6*%
X156625000Y-76450000D03*
%TO.P,SW42,2,2*%
%TO.N,Net-(D42-A)*%
X144475000Y-74250000D03*
%TD*%
%TO.P,SW35,1,1*%
%TO.N,COL16*%
X362768750Y-57350000D03*
%TO.P,SW35,2,2*%
%TO.N,Net-(D35-A)*%
X350618750Y-55150000D03*
%TD*%
%TO.P,SW99,1,1*%
%TO.N,COL17*%
X381768750Y-133550000D03*
%TO.P,SW99,2,2*%
%TO.N,Net-(D99-A)*%
X369618750Y-131350000D03*
%TD*%
D13*
%TO.P,D51,1,K*%
%TO.N,ROW2C*%
X328743750Y-81025000D03*
%TO.P,D51,2,A*%
%TO.N,Net-(D51-A)*%
X328743750Y-78975000D03*
%TD*%
D12*
%TO.P,SW34,1,1*%
%TO.N,COL15*%
X343718750Y-57350000D03*
%TO.P,SW34,2,2*%
%TO.N,Net-(D34-A)*%
X331568750Y-55150000D03*
%TD*%
%TO.P,SW69,1,1*%
%TO.N,COL15*%
X343706250Y-95450000D03*
%TO.P,SW69,2,2*%
%TO.N,Net-(D69-A)*%
X331556250Y-93250000D03*
%TD*%
%TO.P,SW85,1,1*%
%TO.N,COL14*%
X334181250Y-114500000D03*
%TO.P,SW85,2,2*%
%TO.N,Net-(D85-A)*%
X322031250Y-112300000D03*
%TD*%
D35*
%TO.P,J1,1,VTref*%
%TO.N,+3.3V*%
X174750000Y-141540000D03*
D36*
%TO.P,J1,2,SWDIO/TMS*%
%TO.N,SWDIO*%
X172210000Y-141540000D03*
%TO.P,J1,3,GND*%
%TO.N,GND*%
X174750000Y-139000000D03*
%TO.P,J1,4,SWCLK/TCK*%
%TO.N,SWCLK*%
X172210000Y-139000000D03*
%TO.P,J1,5,GND*%
%TO.N,GND*%
X174750000Y-136460000D03*
%TO.P,J1,6,SWO/TDO*%
%TO.N,unconnected-(J1-SWO{slash}TDO-Pad6)*%
X172210000Y-136460000D03*
%TO.P,J1,7,KEY*%
%TO.N,unconnected-(J1-KEY-Pad7)*%
X174750000Y-133920000D03*
%TO.P,J1,8,NC/TDI*%
%TO.N,unconnected-(J1-NC{slash}TDI-Pad8)*%
X172210000Y-133920000D03*
%TO.P,J1,9,GNDDetect*%
%TO.N,unconnected-(J1-GNDDetect-Pad9)*%
X174750000Y-131380000D03*
%TO.P,J1,10,~{RESET}*%
%TO.N,RESET*%
X172210000Y-131380000D03*
%TD*%
D12*
%TO.P,SW82,1,1*%
%TO.N,COL3*%
X228125000Y-114550000D03*
%TO.P,SW82,2,2*%
%TO.N,Net-(D82-A)*%
X215975000Y-112350000D03*
%TD*%
%TO.P,SW72,1,1*%
%TO.N,COL0*%
X35225000Y-114550000D03*
%TO.P,SW72,2,2*%
%TO.N,Net-(D72-A)*%
X23075000Y-112350000D03*
%TD*%
%TO.P,SW36,1,1*%
%TO.N,COL0*%
X37600000Y-76450000D03*
%TO.P,SW36,2,2*%
%TO.N,Net-(D36-A)*%
X25450000Y-74250000D03*
%TD*%
D37*
%TO.N,GND*%
X167250000Y-123500000D03*
X135750000Y-145500000D03*
X169000000Y-125250000D03*
X155750000Y-36250000D03*
X161100000Y-36250000D03*
X148000000Y-144000000D03*
X159250000Y-51000000D03*
%TO.N,+3.3V*%
X123983140Y-139983140D03*
X125750000Y-140127000D03*
X117860500Y-139889500D03*
X129500000Y-129000000D03*
X182000000Y-146000000D03*
X131000000Y-129018500D03*
X117500000Y-135500000D03*
X182000000Y-144250000D03*
%TO.N,+5V*%
X152500000Y-124250000D03*
X148750000Y-140250000D03*
X152250000Y-119500000D03*
X152000000Y-126000000D03*
%TO.N,ROW0A*%
X127250000Y-123500000D03*
X126750000Y-130000000D03*
X126750000Y-126750000D03*
X120500000Y-47000000D03*
%TO.N,ROW0B*%
X146750000Y-68500000D03*
X131500000Y-126250000D03*
X166500000Y-67000000D03*
X149250000Y-68500000D03*
X127377000Y-130565687D03*
X156500000Y-68000000D03*
X165750000Y-47500000D03*
X135750000Y-124250000D03*
%TO.N,ROW1A*%
X95500000Y-124500000D03*
X101750000Y-67750000D03*
%TO.N,ROW1B*%
X153625000Y-68875000D03*
X136750000Y-124250000D03*
X150000000Y-69250000D03*
X128500000Y-130000000D03*
X132000000Y-127000000D03*
X147250000Y-69250000D03*
%TO.N,ROW2A*%
X106500000Y-86750000D03*
X94750000Y-124000000D03*
%TO.N,ROW2B*%
X159250000Y-89000000D03*
X160000000Y-85750000D03*
%TO.N,ROW3A*%
X93750000Y-124000000D03*
X126218506Y-145500000D03*
X103500000Y-104250000D03*
X126220928Y-143760403D03*
%TO.N,ROW3B*%
X150002983Y-125991051D03*
X145247017Y-125991051D03*
X159250000Y-123000000D03*
X169000000Y-105750000D03*
%TO.N,ROW4A*%
X126971329Y-145229341D03*
X126974156Y-143490864D03*
%TO.N,ROW4B*%
X145500000Y-126750000D03*
X149750000Y-126750000D03*
%TO.N,ROW5A*%
X127728412Y-143757515D03*
X127724156Y-145500000D03*
%TO.N,ROW5B*%
X142500000Y-133500000D03*
X140750000Y-131750000D03*
%TO.N,VCC*%
X158000000Y-42000000D03*
X156000000Y-42000000D03*
%TO.N,RESET*%
X147250000Y-129250000D03*
X120513996Y-135986004D03*
%TO.N,SWDIO*%
X165500000Y-145000000D03*
X132000000Y-135127000D03*
X141434313Y-135127000D03*
%TO.N,SWCLK*%
X164741051Y-144373000D03*
X132500000Y-134500000D03*
X142000000Y-134500000D03*
%TO.N,Net-(U1-IO2)*%
X156000000Y-46250000D03*
X153929199Y-115240546D03*
%TO.N,Net-(U1-IO1)*%
X154750000Y-115250000D03*
X158000000Y-46250000D03*
%TO.N,COL0*%
X289000000Y-61000000D03*
X39000000Y-99000000D03*
X122000000Y-132500000D03*
X32000000Y-137000000D03*
X294000000Y-42000000D03*
X298500000Y-137500000D03*
X37000000Y-80000000D03*
X32000000Y-60500000D03*
X37000000Y-42000000D03*
X294000000Y-79500000D03*
X296500000Y-99000000D03*
X34500000Y-118000000D03*
%TO.N,COL1*%
X270000000Y-42500000D03*
X282000000Y-118000000D03*
X100000000Y-136250000D03*
X277000000Y-137500000D03*
X260500000Y-60500000D03*
X65000000Y-100000000D03*
X60500000Y-80500000D03*
X60500000Y-42000000D03*
X270000000Y-79500000D03*
X50500000Y-137500000D03*
X98500000Y-136250000D03*
X274500000Y-99500000D03*
X122750000Y-130000000D03*
X55500000Y-119000000D03*
X51000000Y-62000000D03*
%TO.N,COL2*%
X255500000Y-99500000D03*
X70000000Y-137500000D03*
X250500000Y-80500000D03*
X251000000Y-42000000D03*
X100000000Y-135250000D03*
X123377000Y-130565687D03*
X246000000Y-118500000D03*
X79500000Y-42000000D03*
X69500000Y-61500000D03*
X74500000Y-118500000D03*
X79500000Y-81000000D03*
X241500000Y-61000000D03*
X255500000Y-137500000D03*
X97750000Y-135250000D03*
X84000000Y-99500000D03*
%TO.N,COL3*%
X232000000Y-42000000D03*
X100000000Y-134250000D03*
X91500000Y-137000000D03*
X98500000Y-42000000D03*
X88500000Y-61500000D03*
X103000000Y-99500000D03*
X227000000Y-118000000D03*
X93500000Y-118500000D03*
X222500000Y-61500000D03*
X124004000Y-130000000D03*
X98500000Y-80500000D03*
X236500000Y-99500000D03*
X231500000Y-80000000D03*
X234000000Y-137500000D03*
X97000000Y-134250000D03*
%TO.N,COL4*%
X213000000Y-42000000D03*
X101500000Y-127000000D03*
X203000000Y-61500000D03*
X124631000Y-130567954D03*
X117000000Y-80500000D03*
X122500000Y-100000000D03*
X112500000Y-118500000D03*
X207500000Y-118500000D03*
X212500000Y-80500000D03*
X108000000Y-61500000D03*
X103250000Y-129750000D03*
X217500000Y-99500000D03*
X118000000Y-42000000D03*
%TO.N,COL5*%
X137000000Y-42000000D03*
X193000000Y-80500000D03*
X189000000Y-118500000D03*
X125258000Y-130000000D03*
X198500000Y-100500000D03*
X126500000Y-62000000D03*
X194000000Y-42000000D03*
X136000000Y-80500000D03*
X114500000Y-124500000D03*
X184000000Y-61500000D03*
X104500000Y-129750000D03*
X141500000Y-100000000D03*
X132000000Y-118000000D03*
%TO.N,COL6*%
X165000000Y-61500000D03*
X160500000Y-100000000D03*
X162500000Y-137000000D03*
X179500000Y-100000000D03*
X154500000Y-41500000D03*
X155000000Y-81000000D03*
X126000000Y-130500000D03*
X146500000Y-61500000D03*
X174500000Y-41500000D03*
X151000000Y-118000000D03*
X174500000Y-80500000D03*
X169500000Y-119000000D03*
%TO.N,COL14*%
X323493750Y-80500000D03*
X323743750Y-137500000D03*
X323493750Y-61000000D03*
X333243750Y-118250000D03*
X323500000Y-42000000D03*
X323493750Y-99250000D03*
%TO.N,COL15*%
X342493750Y-79750000D03*
X341243750Y-50500000D03*
X342493750Y-99500000D03*
X342493750Y-61500000D03*
X342743750Y-137250000D03*
X342743750Y-41750000D03*
X320243750Y-50500000D03*
%TO.N,COL16*%
X361993750Y-80250000D03*
X319243750Y-51500000D03*
X361743750Y-99000000D03*
X360243750Y-51500000D03*
X361743750Y-41750000D03*
X361743750Y-61000000D03*
X361743750Y-137500000D03*
X361993750Y-118250000D03*
%TO.N,COL17*%
X380493750Y-42000000D03*
X380493750Y-138000000D03*
X380493750Y-52250000D03*
X376243750Y-83000000D03*
X318493750Y-52250000D03*
X375743750Y-120750000D03*
%TO.N,COL17MAIN*%
X274000000Y-148123000D03*
X128483950Y-143494521D03*
X271250000Y-51000000D03*
X128479051Y-145235175D03*
%TO.N,COL16MAIN*%
X129233950Y-145500000D03*
X129241051Y-143752983D03*
X273500000Y-147496000D03*
X271000000Y-50000000D03*
%TO.N,COL15MAIN*%
X129991977Y-145244266D03*
X273000000Y-146868000D03*
X270750000Y-49000000D03*
X130000000Y-143500000D03*
%TO.N,COL14MAIN*%
X130750000Y-143790887D03*
X272500000Y-146241000D03*
X130750000Y-145500000D03*
X270500000Y-48000000D03*
%TD*%
D38*
%TO.N,COL17MAIN*%
X131845823Y-149000000D02*
X128479051Y-145633228D01*
X268623000Y-149000000D02*
X131845823Y-149000000D01*
X128479051Y-145633228D02*
X128479051Y-145235175D01*
X274000000Y-148123000D02*
X269500000Y-148123000D01*
X269500000Y-148123000D02*
X268623000Y-149000000D01*
%TO.N,COL15MAIN*%
X132356533Y-148000000D02*
X129991977Y-145635444D01*
X268336065Y-148000000D02*
X132356533Y-148000000D01*
X269468065Y-146868000D02*
X268336065Y-148000000D01*
X273000000Y-146868000D02*
X269468065Y-146868000D01*
X129991977Y-145635444D02*
X129991977Y-145244266D01*
%TO.N,COL14MAIN*%
X269451598Y-146241000D02*
X268192598Y-147500000D01*
X268192598Y-147500000D02*
X132500001Y-147500000D01*
X272500000Y-146241000D02*
X269451598Y-146241000D01*
X132500001Y-147500000D02*
X130750000Y-145749999D01*
X130750000Y-145749999D02*
X130750000Y-145500000D01*
%TO.N,COL17*%
X321250000Y-52250000D02*
X325000000Y-48500000D01*
X327250000Y-48500000D02*
X331000000Y-52250000D01*
X369750000Y-57000000D02*
X375743750Y-57000000D01*
X325000000Y-48500000D02*
X327250000Y-48500000D01*
X375743750Y-57000000D02*
X380493750Y-52250000D01*
X331000000Y-52250000D02*
X365000000Y-52250000D01*
X318493750Y-52250000D02*
X321250000Y-52250000D01*
X365000000Y-52250000D02*
X369750000Y-57000000D01*
%TO.N,COL16*%
X319243750Y-51500000D02*
X321000000Y-51500000D01*
X327500000Y-48000000D02*
X331000000Y-51500000D01*
X321000000Y-51500000D02*
X324500000Y-48000000D01*
X331000000Y-51500000D02*
X360243750Y-51500000D01*
X324500000Y-48000000D02*
X327500000Y-48000000D01*
%TO.N,COL15*%
X320243750Y-50500000D02*
X321000000Y-50500000D01*
X328000000Y-47500000D02*
X331000000Y-50500000D01*
X321000000Y-50500000D02*
X324000000Y-47500000D01*
X324000000Y-47500000D02*
X328000000Y-47500000D01*
X331000000Y-50500000D02*
X341243750Y-50500000D01*
%TO.N,COL14*%
X324656250Y-38300000D02*
X324656250Y-40587500D01*
X324656250Y-40587500D02*
X323500000Y-41743750D01*
X323500000Y-41743750D02*
X323500000Y-42000000D01*
%TO.N,ROW0C*%
X310993750Y-43025000D02*
X313718750Y-45750000D01*
X313718750Y-45750000D02*
X326018750Y-45750000D01*
X326018750Y-45750000D02*
X328743750Y-43025000D01*
%TO.N,ROW4C*%
X306743750Y-124960000D02*
X308283750Y-126500000D01*
X308283750Y-126500000D02*
X314500000Y-126500000D01*
X314500000Y-126500000D02*
X319168750Y-121831250D01*
X319168750Y-121831250D02*
X319168750Y-119025000D01*
%TO.N,PF1*%
X111250000Y-134550000D02*
X114200000Y-137500000D01*
X114250000Y-137500000D02*
X122337500Y-137500000D01*
X111250000Y-131450000D02*
X111250000Y-134550000D01*
D39*
%TO.N,GND*%
X111325000Y-141275000D02*
X111325000Y-140950000D01*
X108950000Y-131675000D02*
X109175000Y-131450000D01*
X155235856Y-36250000D02*
X155750000Y-36250000D01*
D38*
X178100000Y-142350000D02*
X174750000Y-139000000D01*
X128750000Y-132000000D02*
X129250000Y-131500000D01*
D39*
X111250000Y-137385856D02*
X108950000Y-135085856D01*
D38*
X161100000Y-32235000D02*
X160975000Y-32110000D01*
D39*
X159250000Y-48750000D02*
X159250000Y-51000000D01*
D38*
X124250000Y-140602992D02*
X125352992Y-139500000D01*
D39*
X112125000Y-128500000D02*
X128250000Y-128500000D01*
D38*
X134000000Y-142027992D02*
X131472008Y-139500000D01*
D39*
X161100000Y-34900000D02*
X161100000Y-36250000D01*
D38*
X153550000Y-33085000D02*
X154525000Y-32110000D01*
D39*
X154525000Y-35539144D02*
X155235856Y-36250000D01*
D38*
X124250000Y-141412500D02*
X124250000Y-140602992D01*
D39*
X159250000Y-41500000D02*
X159250000Y-42000000D01*
D38*
X128750000Y-139500000D02*
X130662500Y-139500000D01*
X123147008Y-136500000D02*
X125352992Y-138705984D01*
D39*
X161100000Y-37150000D02*
X160250000Y-38000000D01*
D38*
X122337500Y-136500000D02*
X123147008Y-136500000D01*
D39*
X160250000Y-38000000D02*
X160250000Y-40500000D01*
X129786429Y-128308500D02*
X130250000Y-128772071D01*
D38*
X131472008Y-139500000D02*
X130662500Y-139500000D01*
D39*
X161100000Y-36250000D02*
X161100000Y-37150000D01*
D38*
X128750000Y-133087500D02*
X128750000Y-139500000D01*
X160975000Y-32110000D02*
X160975000Y-34775000D01*
D39*
X167250000Y-123500000D02*
X169000000Y-125250000D01*
D38*
X153550000Y-34850000D02*
X153550000Y-33085000D01*
X125352992Y-138705984D02*
X125352992Y-139500000D01*
D39*
X154525000Y-32110000D02*
X154525000Y-35539144D01*
D38*
X134000000Y-144750000D02*
X134000000Y-142027992D01*
D39*
X134750000Y-145500000D02*
X134000000Y-144750000D01*
X111250000Y-137450000D02*
X111250000Y-137385856D01*
X130250000Y-130500000D02*
X129250000Y-131500000D01*
X148000000Y-144000000D02*
X146537500Y-144000000D01*
X128250000Y-128500000D02*
X128441500Y-128308500D01*
D38*
X160975000Y-34775000D02*
X161100000Y-34900000D01*
D39*
X111325000Y-140950000D02*
X111325000Y-137525000D01*
D38*
X125352992Y-139500000D02*
X128750000Y-139500000D01*
D39*
X159250000Y-42000000D02*
X159250000Y-48750000D01*
D38*
X153200000Y-34500000D02*
X153550000Y-34850000D01*
D39*
X130250000Y-128772071D02*
X130250000Y-130500000D01*
D38*
X180150000Y-142350000D02*
X178100000Y-142350000D01*
D39*
X108950000Y-135085856D02*
X108950000Y-134550000D01*
X109175000Y-131450000D02*
X112125000Y-128500000D01*
D38*
X128750000Y-133087500D02*
X128750000Y-132000000D01*
D39*
X135750000Y-145500000D02*
X134750000Y-145500000D01*
X159250000Y-42000000D02*
X158000000Y-43250000D01*
D38*
X111325000Y-137525000D02*
X111250000Y-137450000D01*
D39*
X108950000Y-134550000D02*
X108950000Y-131675000D01*
X160250000Y-40500000D02*
X159250000Y-41500000D01*
X128441500Y-128308500D02*
X129786429Y-128308500D01*
D38*
X151500000Y-34500000D02*
X153200000Y-34500000D01*
%TO.N,PF0*%
X114620000Y-138000000D02*
X122337500Y-138000000D01*
X114620000Y-138000000D02*
X112575000Y-140045000D01*
X110366500Y-142066500D02*
X112008500Y-142066500D01*
X108950000Y-137450000D02*
X108950000Y-140650000D01*
X112008500Y-142066500D02*
X112575000Y-141500000D01*
X112575000Y-140045000D02*
X112575000Y-141500000D01*
D39*
X108950000Y-140650000D02*
X109250000Y-140950000D01*
D38*
X109250000Y-140950000D02*
X110366500Y-142066500D01*
%TO.N,+3.3V*%
X123983140Y-139983140D02*
X122354360Y-139983140D01*
X132500000Y-130425000D02*
X132015500Y-130909500D01*
X122354360Y-139983140D02*
X122337500Y-140000000D01*
D39*
X181750000Y-146500000D02*
X138500000Y-146500000D01*
D38*
X122578000Y-129190500D02*
X121018500Y-130750000D01*
D39*
X120175000Y-142204000D02*
X122337500Y-140041500D01*
X182000000Y-146250000D02*
X181750000Y-146500000D01*
D38*
X131093500Y-129018500D02*
X132500000Y-130425000D01*
D39*
X120175000Y-143250000D02*
X120175000Y-142204000D01*
D38*
X121018500Y-130750000D02*
X118325000Y-130750000D01*
D39*
X174750000Y-141540000D02*
X177460000Y-144250000D01*
X177460000Y-144250000D02*
X182000000Y-144250000D01*
D38*
X129500000Y-129000000D02*
X129309500Y-129190500D01*
X131000000Y-129018500D02*
X131093500Y-129018500D01*
D39*
X117860500Y-139889500D02*
X120175000Y-142204000D01*
X133000000Y-142337500D02*
X130704000Y-140041500D01*
D38*
X125877000Y-140000000D02*
X125750000Y-140127000D01*
D39*
X117500000Y-135500000D02*
X117500000Y-134000000D01*
D38*
X130662500Y-140000000D02*
X125877000Y-140000000D01*
X117500000Y-134000000D02*
X117500000Y-132075000D01*
D39*
X182000000Y-146000000D02*
X182000000Y-146250000D01*
X134000000Y-146500000D02*
X133000000Y-145500000D01*
X138500000Y-146500000D02*
X134000000Y-146500000D01*
X130704000Y-140041500D02*
X130662500Y-140041500D01*
D38*
X129309500Y-129190500D02*
X122578000Y-129190500D01*
D39*
X133000000Y-145500000D02*
X133000000Y-142337500D01*
D38*
X118325000Y-130750000D02*
X117250000Y-131825000D01*
D39*
X138500000Y-146500000D02*
X135425000Y-143425000D01*
D38*
X117500000Y-132075000D02*
X117250000Y-131825000D01*
D39*
X135425000Y-143425000D02*
X135425000Y-142750000D01*
D38*
%TO.N,Net-(C3-Pad2)*%
X119750000Y-129750000D02*
X117250000Y-129750000D01*
%TO.N,Net-(C4-Pad2)*%
X129837500Y-132500000D02*
X129250000Y-133087500D01*
X132500000Y-132500000D02*
X129837500Y-132500000D01*
%TO.N,Net-(C5-Pad2)*%
X122250000Y-143250000D02*
X122250000Y-142912500D01*
X122250000Y-142912500D02*
X123750000Y-141412500D01*
%TO.N,Net-(U2-VDDA)*%
X122337500Y-136000000D02*
X121500000Y-136000000D01*
X121500000Y-136000000D02*
X120500000Y-135000000D01*
X120500000Y-132575000D02*
X119750000Y-131825000D01*
X120500000Y-135000000D02*
X120500000Y-132575000D01*
%TO.N,Net-(U3-VIN)*%
X143187500Y-140500000D02*
X142137500Y-141550000D01*
X144462500Y-140500000D02*
X143187500Y-140500000D01*
D39*
%TO.N,+5V*%
X163750000Y-92000000D02*
X158750000Y-87000000D01*
X158750000Y-73000000D02*
X155500000Y-69750000D01*
X163750000Y-101250000D02*
X163750000Y-92000000D01*
X158750000Y-87000000D02*
X158750000Y-73000000D01*
X149250000Y-51000000D02*
X152850000Y-47400000D01*
X142137500Y-143450000D02*
X143937500Y-145250000D01*
X155500000Y-69750000D02*
X151750000Y-69750000D01*
X149500000Y-109250000D02*
X155750000Y-109250000D01*
X152000000Y-126000000D02*
X152000000Y-124750000D01*
X152000000Y-124750000D02*
X152500000Y-124250000D01*
X143937500Y-145250000D02*
X148000000Y-145250000D01*
X146250000Y-112500000D02*
X149500000Y-109250000D01*
X146250000Y-115750000D02*
X146250000Y-112500000D01*
X148750000Y-142000000D02*
X148750000Y-140250000D01*
X147250000Y-140500000D02*
X146537500Y-140500000D01*
X155750000Y-109250000D02*
X163750000Y-101250000D01*
X150000000Y-119500000D02*
X146250000Y-115750000D01*
X148750000Y-142000000D02*
X147250000Y-140500000D01*
X148000000Y-145250000D02*
X148750000Y-144500000D01*
X151750000Y-69750000D02*
X149250000Y-67250000D01*
X148750000Y-144500000D02*
X148750000Y-142000000D01*
X149250000Y-67250000D02*
X149250000Y-51000000D01*
X152850000Y-47400000D02*
X152850000Y-46087500D01*
X152250000Y-119500000D02*
X150000000Y-119500000D01*
D38*
%TO.N,Net-(U3-VOUT)*%
X138700000Y-141550000D02*
X139862500Y-141550000D01*
X137500000Y-142750000D02*
X138700000Y-141550000D01*
%TO.N,Net-(U3-GND)*%
X144462500Y-144000000D02*
X142962500Y-142500000D01*
X142962500Y-142500000D02*
X142137500Y-142500000D01*
%TO.N,Net-(D1-A)*%
X22275000Y-39275000D02*
X22275000Y-41025000D01*
X25475000Y-36400000D02*
X25150000Y-36400000D01*
X25150000Y-36400000D02*
X22275000Y-39275000D01*
%TO.N,ROW0A*%
X43987500Y-45500000D02*
X46412500Y-43075000D01*
X103187500Y-43100000D02*
X105587500Y-45500000D01*
X67912500Y-45500000D02*
X81887500Y-45500000D01*
X119862500Y-45500000D02*
X122312500Y-43050000D01*
X122312500Y-43050000D02*
X124762500Y-45500000D01*
X105587500Y-45500000D02*
X119862500Y-45500000D01*
X48837500Y-45500000D02*
X63062500Y-45500000D01*
X22275000Y-43075000D02*
X24700000Y-45500000D01*
X126750000Y-124000000D02*
X126750000Y-126750000D01*
X126750000Y-133087500D02*
X126750000Y-130000000D01*
X46412500Y-43075000D02*
X48837500Y-45500000D01*
X119862500Y-46362500D02*
X119862500Y-45500000D01*
X84312500Y-43075000D02*
X86737500Y-45500000D01*
X120500000Y-47000000D02*
X119862500Y-46362500D01*
X24700000Y-45500000D02*
X43987500Y-45500000D01*
X86737500Y-45500000D02*
X100787500Y-45500000D01*
X65487500Y-43075000D02*
X67912500Y-45500000D01*
X63062500Y-45500000D02*
X65487500Y-43075000D01*
X124762500Y-45500000D02*
X141225000Y-45500000D01*
X127250000Y-123500000D02*
X126750000Y-124000000D01*
X141225000Y-45500000D02*
X143200000Y-43525000D01*
X100787500Y-45500000D02*
X103187500Y-43100000D01*
X81887500Y-45500000D02*
X84312500Y-43075000D01*
%TO.N,Net-(D2-A)*%
X46412500Y-39275000D02*
X49287500Y-36400000D01*
X49287500Y-36400000D02*
X49612500Y-36400000D01*
X46412500Y-41025000D02*
X46412500Y-39275000D01*
%TO.N,Net-(D3-A)*%
X68362500Y-36400000D02*
X68687500Y-36400000D01*
X65487500Y-39275000D02*
X68362500Y-36400000D01*
X65487500Y-41025000D02*
X65487500Y-39275000D01*
%TO.N,Net-(D4-A)*%
X84312500Y-41025000D02*
X84312500Y-39300000D01*
X87212500Y-36400000D02*
X87537500Y-36400000D01*
X84312500Y-39300000D02*
X87212500Y-36400000D01*
%TO.N,Net-(D5-A)*%
X103187500Y-39275000D02*
X106062500Y-36400000D01*
X106062500Y-36400000D02*
X106387500Y-36400000D01*
X103187500Y-41050000D02*
X103187500Y-39275000D01*
%TO.N,Net-(D6-A)*%
X122312500Y-39275000D02*
X125187500Y-36400000D01*
X122312500Y-41000000D02*
X122312500Y-39275000D01*
X125187500Y-36400000D02*
X125512500Y-36400000D01*
%TO.N,Net-(D7-A)*%
X144525000Y-38425000D02*
X144525000Y-36150000D01*
X143200000Y-41475000D02*
X143200000Y-39750000D01*
X143200000Y-39750000D02*
X144525000Y-38425000D01*
%TO.N,ROW0B*%
X177187500Y-45500000D02*
X179612500Y-43075000D01*
X182037500Y-45500000D02*
X196300000Y-45500000D01*
X165500000Y-68000000D02*
X166500000Y-67000000D01*
X156500000Y-68000000D02*
X165500000Y-68000000D01*
X164425000Y-45500000D02*
X165750000Y-45500000D01*
X127250000Y-130692687D02*
X127377000Y-130565687D01*
X239300000Y-45500000D02*
X253575000Y-45500000D01*
X258425000Y-45500000D02*
X277200000Y-45500000D01*
X146750000Y-68500000D02*
X149250000Y-68500000D01*
X165750000Y-47500000D02*
X165750000Y-45500000D01*
X298500000Y-45750000D02*
X299500000Y-44750000D01*
X133750000Y-126250000D02*
X131500000Y-126250000D01*
X196300000Y-45500000D02*
X198700000Y-43100000D01*
X201100000Y-45500000D02*
X215400000Y-45500000D01*
X279625000Y-43075000D02*
X282300000Y-45750000D01*
X282300000Y-45750000D02*
X298500000Y-45750000D01*
X198700000Y-43100000D02*
X201100000Y-45500000D01*
X253575000Y-45500000D02*
X256000000Y-43075000D01*
X162000000Y-43075000D02*
X164425000Y-45500000D01*
X236900000Y-43100000D02*
X239300000Y-45500000D01*
X220200000Y-45500000D02*
X234500000Y-45500000D01*
X179612500Y-43075000D02*
X182037500Y-45500000D01*
X217800000Y-43100000D02*
X220200000Y-45500000D01*
X127250000Y-133087500D02*
X127250000Y-130692687D01*
X277200000Y-45500000D02*
X279625000Y-43075000D01*
X165750000Y-45500000D02*
X177187500Y-45500000D01*
X234500000Y-45500000D02*
X236900000Y-43100000D01*
X256000000Y-43075000D02*
X258425000Y-45500000D01*
X135750000Y-124250000D02*
X133750000Y-126250000D01*
X215400000Y-45500000D02*
X217800000Y-43100000D01*
%TO.N,Net-(D8-A)*%
X162000000Y-41025000D02*
X162000000Y-37712500D01*
X162000000Y-37712500D02*
X163562500Y-36150000D01*
%TO.N,Net-(D9-A)*%
X179612500Y-41025000D02*
X179612500Y-39275000D01*
X179612500Y-39275000D02*
X182487500Y-36400000D01*
X182487500Y-36400000D02*
X182812500Y-36400000D01*
%TO.N,Net-(D10-A)*%
X201575000Y-36400000D02*
X201900000Y-36400000D01*
X198700000Y-41050000D02*
X198700000Y-39275000D01*
X198700000Y-39275000D02*
X201575000Y-36400000D01*
%TO.N,Net-(D11-A)*%
X220675000Y-36400000D02*
X221000000Y-36400000D01*
X217800000Y-41050000D02*
X217800000Y-39275000D01*
X217800000Y-39275000D02*
X220675000Y-36400000D01*
%TO.N,Net-(D12-A)*%
X236900000Y-41050000D02*
X236900000Y-39275000D01*
X239775000Y-36400000D02*
X240100000Y-36400000D01*
X236900000Y-39275000D02*
X239775000Y-36400000D01*
%TO.N,Net-(D13-A)*%
X256000000Y-41025000D02*
X256000000Y-39275000D01*
X256000000Y-39275000D02*
X258875000Y-36400000D01*
X258875000Y-36400000D02*
X259200000Y-36400000D01*
%TO.N,Net-(D14-A)*%
X279625000Y-41025000D02*
X279625000Y-39275000D01*
X282500000Y-36400000D02*
X282825000Y-36400000D01*
X279625000Y-39275000D02*
X282500000Y-36400000D01*
%TO.N,Net-(D15-A)*%
X310993750Y-40975000D02*
X310993750Y-37612500D01*
X310993750Y-37612500D02*
X312506250Y-36100000D01*
%TO.N,Net-(D16-A)*%
X328743750Y-40975000D02*
X328743750Y-38800000D01*
X331443750Y-36100000D02*
X331568750Y-36100000D01*
X328743750Y-38800000D02*
X331443750Y-36100000D01*
%TO.N,Net-(D17-A)*%
X350543750Y-36100000D02*
X350618750Y-36100000D01*
X347843750Y-38800000D02*
X350543750Y-36100000D01*
X347843750Y-40975000D02*
X347843750Y-38800000D01*
%TO.N,Net-(D18-A)*%
X366993750Y-38800000D02*
X369693750Y-36100000D01*
X366993750Y-40975000D02*
X366993750Y-38800000D01*
%TO.N,ROW1A*%
X95500000Y-142250000D02*
X98750000Y-145500000D01*
X112825000Y-62075000D02*
X110400000Y-64500000D01*
X101750000Y-64500000D02*
X96150000Y-64500000D01*
X124500000Y-143213064D02*
X124750000Y-142963064D01*
X101750000Y-67750000D02*
X101750000Y-64500000D01*
X124750000Y-142963064D02*
X124750000Y-141412500D01*
X58487500Y-64500000D02*
X56062500Y-62075000D01*
X39325000Y-64500000D02*
X36900000Y-62075000D01*
X98750000Y-145500000D02*
X123250000Y-145500000D01*
X34475000Y-64500000D02*
X20187500Y-64500000D01*
X131887500Y-62075000D02*
X129462500Y-64500000D01*
X77025000Y-64500000D02*
X74600000Y-62075000D01*
X91300000Y-64500000D02*
X77025000Y-64500000D01*
X72175000Y-64500000D02*
X58487500Y-64500000D01*
X124500000Y-144250000D02*
X124500000Y-143213064D01*
X129462500Y-64500000D02*
X115250000Y-64500000D01*
X95500000Y-124500000D02*
X95500000Y-142250000D01*
X115250000Y-64500000D02*
X112825000Y-62075000D01*
X53637500Y-64500000D02*
X39325000Y-64500000D01*
X20187500Y-64500000D02*
X17787500Y-62100000D01*
X123250000Y-145500000D02*
X124500000Y-144250000D01*
X110400000Y-64500000D02*
X101750000Y-64500000D01*
X93725000Y-62075000D02*
X91300000Y-64500000D01*
X56062500Y-62075000D02*
X53637500Y-64500000D01*
X74600000Y-62075000D02*
X72175000Y-64500000D01*
X36900000Y-62075000D02*
X34475000Y-64500000D01*
X96150000Y-64500000D02*
X93725000Y-62075000D01*
%TO.N,Net-(D19-A)*%
X17787500Y-60050000D02*
X17787500Y-58275000D01*
X20662500Y-55400000D02*
X20987500Y-55400000D01*
X17787500Y-58275000D02*
X20662500Y-55400000D01*
%TO.N,Net-(D20-A)*%
X39775000Y-55400000D02*
X40100000Y-55400000D01*
X36900000Y-60025000D02*
X36900000Y-58275000D01*
X36900000Y-58275000D02*
X39775000Y-55400000D01*
%TO.N,Net-(D21-A)*%
X56062500Y-58275000D02*
X58937500Y-55400000D01*
X56062500Y-60025000D02*
X56062500Y-58275000D01*
X58937500Y-55400000D02*
X59262500Y-55400000D01*
%TO.N,Net-(D22-A)*%
X74600000Y-58275000D02*
X77475000Y-55400000D01*
X74600000Y-60025000D02*
X74600000Y-58275000D01*
%TO.N,Net-(D23-A)*%
X93725000Y-60025000D02*
X93725000Y-58275000D01*
X93725000Y-58275000D02*
X96600000Y-55400000D01*
X96600000Y-55400000D02*
X96925000Y-55400000D01*
%TO.N,Net-(D24-A)*%
X112825000Y-60025000D02*
X112825000Y-58275000D01*
X115700000Y-55400000D02*
X116025000Y-55400000D01*
X112825000Y-58275000D02*
X115700000Y-55400000D01*
%TO.N,Net-(D25-A)*%
X131887500Y-60025000D02*
X131887500Y-58275000D01*
X131887500Y-58275000D02*
X134762500Y-55400000D01*
X134762500Y-55400000D02*
X135087500Y-55400000D01*
%TO.N,Net-(D26-A)*%
X151025000Y-60025000D02*
X151025000Y-58275000D01*
X151025000Y-58275000D02*
X153900000Y-55400000D01*
X153900000Y-55400000D02*
X154225000Y-55400000D01*
%TO.N,ROW1B*%
X172750000Y-64750000D02*
X170100000Y-62100000D01*
X153625000Y-68875000D02*
X154500000Y-68000000D01*
X299750000Y-89750000D02*
X298750000Y-88750000D01*
X298750000Y-75500000D02*
X290000000Y-66750000D01*
X298750000Y-88750000D02*
X298750000Y-75500000D01*
X279300000Y-66750000D02*
X274625000Y-62075000D01*
X189200000Y-62075000D02*
X186525000Y-64750000D01*
X127750000Y-133087500D02*
X127750000Y-131080814D01*
X134000000Y-127000000D02*
X132000000Y-127000000D01*
X227412500Y-62075000D02*
X224737500Y-64750000D01*
X205787500Y-64750000D02*
X191875000Y-64750000D01*
X170100000Y-62100000D02*
X167450000Y-64750000D01*
X208462500Y-62075000D02*
X205787500Y-64750000D01*
X249137500Y-64750000D02*
X246487500Y-62100000D01*
X243837500Y-64750000D02*
X230087500Y-64750000D01*
X211137500Y-64750000D02*
X208462500Y-62075000D01*
X154500000Y-64750000D02*
X153700000Y-64750000D01*
X127750000Y-131080814D02*
X128500000Y-130330814D01*
X271950000Y-64750000D02*
X249137500Y-64750000D01*
X246487500Y-62100000D02*
X243837500Y-64750000D01*
X299750000Y-117090000D02*
X299750000Y-89750000D01*
X230087500Y-64750000D02*
X227412500Y-62075000D01*
X290000000Y-66750000D02*
X279300000Y-66750000D01*
X274625000Y-62075000D02*
X271950000Y-64750000D01*
X224737500Y-64750000D02*
X211137500Y-64750000D01*
X128500000Y-130330814D02*
X128500000Y-130000000D01*
X136750000Y-124250000D02*
X134000000Y-127000000D01*
X191875000Y-64750000D02*
X189200000Y-62075000D01*
X186525000Y-64750000D02*
X172750000Y-64750000D01*
X153700000Y-64750000D02*
X151025000Y-62075000D01*
X167450000Y-64750000D02*
X154500000Y-64750000D01*
X299500000Y-117340000D02*
X299750000Y-117090000D01*
X147250000Y-69250000D02*
X150000000Y-69250000D01*
X154500000Y-68000000D02*
X154500000Y-64750000D01*
%TO.N,Net-(D27-A)*%
X170100000Y-60050000D02*
X170100000Y-58275000D01*
X170100000Y-58275000D02*
X172975000Y-55400000D01*
X172975000Y-55400000D02*
X173300000Y-55400000D01*
%TO.N,Net-(D28-A)*%
X189200000Y-60025000D02*
X189200000Y-58275000D01*
X189200000Y-58275000D02*
X192075000Y-55400000D01*
X192075000Y-55400000D02*
X192400000Y-55400000D01*
%TO.N,Net-(D29-A)*%
X211412500Y-55400000D02*
X211737500Y-55400000D01*
X208462500Y-60025000D02*
X208462500Y-58350000D01*
X208462500Y-58350000D02*
X211412500Y-55400000D01*
%TO.N,Net-(D30-A)*%
X227412500Y-60025000D02*
X227412500Y-58275000D01*
X227412500Y-58275000D02*
X230287500Y-55400000D01*
X230287500Y-55400000D02*
X230612500Y-55400000D01*
%TO.N,Net-(D31-A)*%
X246487500Y-60050000D02*
X246487500Y-58275000D01*
X246487500Y-58275000D02*
X249362500Y-55400000D01*
X249362500Y-55400000D02*
X249687500Y-55400000D01*
%TO.N,Net-(D32-A)*%
X274625000Y-58275000D02*
X277500000Y-55400000D01*
X277500000Y-55400000D02*
X277825000Y-55400000D01*
X274625000Y-60025000D02*
X274625000Y-58275000D01*
%TO.N,Net-(D33-A)*%
X310993750Y-56675000D02*
X312518750Y-55150000D01*
X310993750Y-59950000D02*
X310993750Y-56675000D01*
%TO.N,Net-(D34-A)*%
X328743750Y-59975000D02*
X328743750Y-57800000D01*
X331393750Y-55150000D02*
X331568750Y-55150000D01*
X328743750Y-57800000D02*
X331393750Y-55150000D01*
%TO.N,Net-(D35-A)*%
X350493750Y-55150000D02*
X350618750Y-55150000D01*
X347843750Y-59975000D02*
X347843750Y-57800000D01*
X347843750Y-57800000D02*
X350493750Y-55150000D01*
%TO.N,ROW2A*%
X106500000Y-83500000D02*
X105625000Y-83500000D01*
X44000000Y-83500000D02*
X24700000Y-83500000D01*
X94750000Y-124000000D02*
X94750000Y-142250000D01*
X125000000Y-143356532D02*
X125250000Y-143106532D01*
X84062500Y-81075000D02*
X81637500Y-83500000D01*
X105625000Y-83500000D02*
X103200000Y-81075000D01*
X94750000Y-142250000D02*
X98500000Y-146000000D01*
X65012500Y-81075000D02*
X62587500Y-83500000D01*
X125000000Y-144500000D02*
X125000000Y-143356532D01*
X24700000Y-83500000D02*
X22275000Y-81075000D01*
X100775000Y-83500000D02*
X86487500Y-83500000D01*
X103200000Y-81075000D02*
X100775000Y-83500000D01*
X106500000Y-86750000D02*
X106500000Y-83500000D01*
X62587500Y-83500000D02*
X48800000Y-83500000D01*
X119875000Y-83500000D02*
X106500000Y-83500000D01*
X125250000Y-143106532D02*
X125250000Y-141412500D01*
X141850000Y-81075000D02*
X139425000Y-83500000D01*
X46400000Y-81100000D02*
X44000000Y-83500000D01*
X81637500Y-83500000D02*
X67437500Y-83500000D01*
X48800000Y-83500000D02*
X46400000Y-81100000D01*
X98500000Y-146000000D02*
X123500000Y-146000000D01*
X122300000Y-81075000D02*
X119875000Y-83500000D01*
X67437500Y-83500000D02*
X65012500Y-81075000D01*
X86487500Y-83500000D02*
X84062500Y-81075000D01*
X139425000Y-83500000D02*
X124725000Y-83500000D01*
X124725000Y-83500000D02*
X122300000Y-81075000D01*
X123500000Y-146000000D02*
X125000000Y-144500000D01*
%TO.N,Net-(D36-A)*%
X25150000Y-74400000D02*
X25475000Y-74400000D01*
X22275000Y-77275000D02*
X25150000Y-74400000D01*
X22275000Y-79025000D02*
X22275000Y-77275000D01*
%TO.N,Net-(D37-A)*%
X46400000Y-79050000D02*
X46400000Y-77275000D01*
X46400000Y-77275000D02*
X49275000Y-74400000D01*
X49275000Y-74400000D02*
X49600000Y-74400000D01*
%TO.N,Net-(D38-A)*%
X67887500Y-74400000D02*
X68212500Y-74400000D01*
X65012500Y-79025000D02*
X65012500Y-77275000D01*
X65012500Y-77275000D02*
X67887500Y-74400000D01*
%TO.N,Net-(D39-A)*%
X84062500Y-77275000D02*
X86937500Y-74400000D01*
X86937500Y-74400000D02*
X87262500Y-74400000D01*
X84062500Y-79025000D02*
X84062500Y-77275000D01*
%TO.N,Net-(D40-A)*%
X106075000Y-74400000D02*
X106400000Y-74400000D01*
X103200000Y-79025000D02*
X103200000Y-77275000D01*
X103200000Y-77275000D02*
X106075000Y-74400000D01*
%TO.N,Net-(D41-A)*%
X122300000Y-79025000D02*
X122300000Y-77275000D01*
X125175000Y-74400000D02*
X125500000Y-74400000D01*
X122300000Y-77275000D02*
X125175000Y-74400000D01*
%TO.N,Net-(D42-A)*%
X141850000Y-77275000D02*
X144725000Y-74400000D01*
X144725000Y-74400000D02*
X145050000Y-74400000D01*
X141850000Y-79025000D02*
X141850000Y-77275000D01*
%TO.N,Net-(D43-A)*%
X160512500Y-77275000D02*
X163387500Y-74400000D01*
X160512500Y-79050000D02*
X160512500Y-77275000D01*
X163387500Y-74400000D02*
X163712500Y-74400000D01*
%TO.N,ROW2B*%
X286575000Y-88000000D02*
X279675000Y-81100000D01*
X234250000Y-83750000D02*
X236925000Y-81075000D01*
X147596468Y-117846468D02*
X145250000Y-115500000D01*
X147596468Y-121872000D02*
X147596468Y-117846468D01*
X163162500Y-83750000D02*
X176937500Y-83750000D01*
X149278000Y-100778000D02*
X149250000Y-100750000D01*
X297750000Y-103750000D02*
X299250000Y-102250000D01*
X299250000Y-102250000D02*
X299250000Y-93500000D01*
X135000000Y-133750000D02*
X132750000Y-136000000D01*
X258675000Y-83750000D02*
X277025000Y-83750000D01*
X236925000Y-81075000D02*
X239600000Y-83750000D01*
X143968468Y-125500000D02*
X140213066Y-125500000D01*
X149278000Y-108472000D02*
X149278000Y-100778000D01*
X299500000Y-119880000D02*
X297750000Y-118130000D01*
X176937500Y-83750000D02*
X179612500Y-81075000D01*
X147596468Y-121872000D02*
X143968468Y-125500000D01*
X148000000Y-109750000D02*
X149278000Y-108472000D01*
X145250000Y-115500000D02*
X145250000Y-112500000D01*
X153750000Y-95750000D02*
X156000000Y-93500000D01*
X156000000Y-92250000D02*
X159250000Y-89000000D01*
X217775000Y-81075000D02*
X220450000Y-83750000D01*
X179612500Y-81075000D02*
X182287500Y-83750000D01*
X149250000Y-100750000D02*
X149250000Y-97750000D01*
X182287500Y-83750000D02*
X196100000Y-83750000D01*
X196100000Y-83750000D02*
X198750000Y-81100000D01*
X161956250Y-82543750D02*
X163162500Y-83750000D01*
X256000000Y-81075000D02*
X258675000Y-83750000D01*
X160000000Y-85750000D02*
X160000000Y-84500000D01*
X215100000Y-83750000D02*
X217775000Y-81075000D01*
X253325000Y-83750000D02*
X256000000Y-81075000D01*
X140213066Y-125500000D02*
X135000000Y-130713066D01*
X145250000Y-112500000D02*
X148000000Y-109750000D01*
X293750000Y-88000000D02*
X286575000Y-88000000D01*
X198750000Y-81100000D02*
X201400000Y-83750000D01*
X220450000Y-83750000D02*
X234250000Y-83750000D01*
X277025000Y-83750000D02*
X279675000Y-81100000D01*
X135000000Y-130713066D02*
X135000000Y-133750000D01*
X156000000Y-93500000D02*
X156000000Y-92250000D01*
X160512500Y-81100000D02*
X161956250Y-82543750D01*
X149250000Y-97750000D02*
X151250000Y-95750000D01*
X160000000Y-84500000D02*
X161956250Y-82543750D01*
X201400000Y-83750000D02*
X215100000Y-83750000D01*
X151250000Y-95750000D02*
X153750000Y-95750000D01*
X132750000Y-136000000D02*
X130662500Y-136000000D01*
X297750000Y-118130000D02*
X297750000Y-103750000D01*
X239600000Y-83750000D02*
X253325000Y-83750000D01*
X299250000Y-93500000D02*
X293750000Y-88000000D01*
%TO.N,Net-(D44-A)*%
X179612500Y-79025000D02*
X179612500Y-77275000D01*
X182487500Y-74400000D02*
X182812500Y-74400000D01*
X179612500Y-77275000D02*
X182487500Y-74400000D01*
%TO.N,Net-(D45-A)*%
X198750000Y-77275000D02*
X201625000Y-74400000D01*
X201625000Y-74400000D02*
X201950000Y-74400000D01*
X198750000Y-79050000D02*
X198750000Y-77275000D01*
%TO.N,Net-(D46-A)*%
X220650000Y-74400000D02*
X220975000Y-74400000D01*
X217775000Y-79025000D02*
X217775000Y-77275000D01*
X217775000Y-77275000D02*
X220650000Y-74400000D01*
%TO.N,Net-(D47-A)*%
X239800000Y-74400000D02*
X240125000Y-74400000D01*
X236925000Y-77275000D02*
X239800000Y-74400000D01*
X236925000Y-79025000D02*
X236925000Y-77275000D01*
%TO.N,Net-(D48-A)*%
X258875000Y-74400000D02*
X259200000Y-74400000D01*
X256000000Y-79025000D02*
X256000000Y-77275000D01*
X256000000Y-77275000D02*
X258875000Y-74400000D01*
%TO.N,Net-(D49-A)*%
X279675000Y-77275000D02*
X282550000Y-74400000D01*
X279675000Y-79050000D02*
X279675000Y-77275000D01*
X282550000Y-74400000D02*
X282875000Y-74400000D01*
%TO.N,Net-(D50-A)*%
X311993750Y-74725000D02*
X312518750Y-74200000D01*
X311993750Y-78975000D02*
X311993750Y-74725000D01*
%TO.N,Net-(D51-A)*%
X328743750Y-76800000D02*
X331343750Y-74200000D01*
X331343750Y-74200000D02*
X331568750Y-74200000D01*
X328743750Y-78975000D02*
X328743750Y-76800000D01*
%TO.N,Net-(D52-A)*%
X347843750Y-76300000D02*
X349943750Y-74200000D01*
X347843750Y-78975000D02*
X347843750Y-76300000D01*
X349943750Y-74200000D02*
X350618750Y-74200000D01*
%TO.N,Net-(D53-A)*%
X374343750Y-64100000D02*
X376343750Y-64100000D01*
X379243750Y-67000000D02*
X379243750Y-67100000D01*
X376343750Y-64100000D02*
X379243750Y-67000000D01*
%TO.N,Net-(D54-A)*%
X25075000Y-98050000D02*
X25075000Y-96275000D01*
X27950000Y-93400000D02*
X28275000Y-93400000D01*
X25075000Y-96275000D02*
X27950000Y-93400000D01*
%TO.N,ROW3A*%
X127400000Y-100100000D02*
X129800000Y-102500000D01*
X125000000Y-102500000D02*
X127400000Y-100100000D01*
X129800000Y-102500000D02*
X144075000Y-102500000D01*
X93750000Y-135202246D02*
X93750000Y-142000000D01*
X89150000Y-100100000D02*
X91550000Y-102500000D01*
X103500000Y-102500000D02*
X105775000Y-102500000D01*
X126220928Y-143760403D02*
X126250000Y-143731331D01*
X98250000Y-146500000D02*
X125750000Y-146500000D01*
X93750000Y-131997754D02*
X94028000Y-132275754D01*
X53312500Y-102500000D02*
X67675000Y-102500000D01*
X144075000Y-102500000D02*
X146500000Y-100075000D01*
X70100000Y-100075000D02*
X72525000Y-102500000D01*
X103500000Y-104250000D02*
X103500000Y-102500000D01*
X25075000Y-100100000D02*
X27475000Y-102500000D01*
X126218506Y-146031494D02*
X126218506Y-145500000D01*
X48512500Y-102500000D02*
X50912500Y-100100000D01*
X105775000Y-102500000D02*
X108250000Y-100025000D01*
X110725000Y-102500000D02*
X125000000Y-102500000D01*
X91550000Y-102500000D02*
X103500000Y-102500000D01*
X67675000Y-102500000D02*
X70100000Y-100075000D01*
X93750000Y-124000000D02*
X93750000Y-131997754D01*
X93750000Y-142000000D02*
X98250000Y-146500000D01*
X86750000Y-102500000D02*
X89150000Y-100100000D01*
X72525000Y-102500000D02*
X86750000Y-102500000D01*
X125750000Y-146500000D02*
X126218506Y-146031494D01*
X50912500Y-100100000D02*
X53312500Y-102500000D01*
X27475000Y-102500000D02*
X48512500Y-102500000D01*
X94028000Y-132275754D02*
X94028000Y-134924246D01*
X108250000Y-100025000D02*
X110725000Y-102500000D01*
X94028000Y-134924246D02*
X93750000Y-135202246D01*
X126250000Y-143731331D02*
X126250000Y-141412500D01*
%TO.N,Net-(D55-A)*%
X53787500Y-93400000D02*
X54112500Y-93400000D01*
X50912500Y-98050000D02*
X50912500Y-96275000D01*
X50912500Y-96275000D02*
X53787500Y-93400000D01*
%TO.N,Net-(D56-A)*%
X72975000Y-93400000D02*
X73300000Y-93400000D01*
X70100000Y-98025000D02*
X70100000Y-96275000D01*
X70100000Y-96275000D02*
X72975000Y-93400000D01*
%TO.N,Net-(D57-A)*%
X92025000Y-93400000D02*
X92350000Y-93400000D01*
X89150000Y-96275000D02*
X92025000Y-93400000D01*
X89150000Y-98050000D02*
X89150000Y-96275000D01*
%TO.N,Net-(D58-A)*%
X108250000Y-96275000D02*
X111125000Y-93400000D01*
X111125000Y-93400000D02*
X111450000Y-93400000D01*
X108250000Y-97975000D02*
X108250000Y-96275000D01*
%TO.N,Net-(D59-A)*%
X130275000Y-93400000D02*
X130600000Y-93400000D01*
X127400000Y-96275000D02*
X130275000Y-93400000D01*
X127400000Y-98050000D02*
X127400000Y-96275000D01*
%TO.N,Net-(D60-A)*%
X146500000Y-98025000D02*
X146500000Y-96275000D01*
X146500000Y-96275000D02*
X149375000Y-93400000D01*
X149375000Y-93400000D02*
X149700000Y-93400000D01*
%TO.N,ROW3B*%
X299500000Y-122420000D02*
X295170000Y-122420000D01*
X159250000Y-125250000D02*
X159250000Y-123000000D01*
X168200000Y-102750000D02*
X169000000Y-102750000D01*
X200600000Y-102750000D02*
X203250000Y-100100000D01*
X187300000Y-102750000D02*
X200600000Y-102750000D01*
X169000000Y-102750000D02*
X182000000Y-102750000D01*
X140365482Y-125991051D02*
X135500000Y-130856533D01*
X263275000Y-102750000D02*
X279300000Y-102750000D01*
X182000000Y-102750000D02*
X184650000Y-100100000D01*
X279300000Y-106550000D02*
X279300000Y-102750000D01*
X238800000Y-102750000D02*
X241450000Y-100100000D01*
X133000000Y-136500000D02*
X130662500Y-136500000D01*
X157750000Y-126750000D02*
X159250000Y-125250000D01*
X145247017Y-125991051D02*
X140365482Y-125991051D01*
X295170000Y-122420000D02*
X279300000Y-106550000D01*
X165550000Y-100100000D02*
X168200000Y-102750000D01*
X244100000Y-102750000D02*
X257925000Y-102750000D01*
X241450000Y-100100000D02*
X244100000Y-102750000D01*
X219700000Y-102750000D02*
X222350000Y-100100000D01*
X279300000Y-102750000D02*
X281975000Y-100075000D01*
X157750000Y-126750000D02*
X150761932Y-126750000D01*
X184650000Y-100100000D02*
X187300000Y-102750000D01*
X150761932Y-126750000D02*
X150002983Y-125991051D01*
X169000000Y-105750000D02*
X169000000Y-102750000D01*
X135500000Y-134000000D02*
X133000000Y-136500000D01*
X205900000Y-102750000D02*
X219700000Y-102750000D01*
X257925000Y-102750000D02*
X260600000Y-100075000D01*
X222350000Y-100100000D02*
X225000000Y-102750000D01*
X260600000Y-100075000D02*
X263275000Y-102750000D01*
X225000000Y-102750000D02*
X238800000Y-102750000D01*
X203250000Y-100100000D02*
X205900000Y-102750000D01*
X135500000Y-130856533D02*
X135500000Y-134000000D01*
%TO.N,Net-(D61-A)*%
X165550000Y-96275000D02*
X168425000Y-93400000D01*
X168425000Y-93400000D02*
X168750000Y-93400000D01*
X165550000Y-98050000D02*
X165550000Y-96275000D01*
%TO.N,Net-(D62-A)*%
X184650000Y-98050000D02*
X184650000Y-96275000D01*
X184650000Y-96275000D02*
X187525000Y-93400000D01*
X187525000Y-93400000D02*
X187850000Y-93400000D01*
%TO.N,Net-(D63-A)*%
X206125000Y-93400000D02*
X206450000Y-93400000D01*
X203250000Y-96275000D02*
X206125000Y-93400000D01*
X203250000Y-98050000D02*
X203250000Y-96275000D01*
%TO.N,Net-(D64-A)*%
X222350000Y-96275000D02*
X225225000Y-93400000D01*
X225225000Y-93400000D02*
X225550000Y-93400000D01*
X222350000Y-98050000D02*
X222350000Y-96275000D01*
%TO.N,Net-(D65-A)*%
X241450000Y-98050000D02*
X241450000Y-96275000D01*
X244325000Y-93400000D02*
X244650000Y-93400000D01*
X241450000Y-96275000D02*
X244325000Y-93400000D01*
%TO.N,Net-(D66-A)*%
X263475000Y-93400000D02*
X263800000Y-93400000D01*
X260600000Y-96275000D02*
X263475000Y-93400000D01*
X260600000Y-98025000D02*
X260600000Y-96275000D01*
%TO.N,Net-(D67-A)*%
X281975000Y-96275000D02*
X284850000Y-93400000D01*
X284850000Y-93400000D02*
X285175000Y-93400000D01*
X281975000Y-98025000D02*
X281975000Y-96275000D01*
%TO.N,Net-(D68-A)*%
X312168750Y-93250000D02*
X312518750Y-93250000D01*
X309618750Y-97975000D02*
X309618750Y-95800000D01*
X309618750Y-95800000D02*
X312168750Y-93250000D01*
%TO.N,Net-(D69-A)*%
X328706250Y-97975000D02*
X328706250Y-95800000D01*
X331256250Y-93250000D02*
X331556250Y-93250000D01*
X328706250Y-95800000D02*
X331256250Y-93250000D01*
%TO.N,Net-(D70-A)*%
X350393750Y-93250000D02*
X350618750Y-93250000D01*
X347843750Y-95800000D02*
X350393750Y-93250000D01*
X347843750Y-98000000D02*
X347843750Y-95800000D01*
%TO.N,Net-(D71-A)*%
X379243750Y-105000000D02*
X379243750Y-105200000D01*
X373968750Y-102500000D02*
X376743750Y-102500000D01*
X376743750Y-102500000D02*
X379243750Y-105000000D01*
%TO.N,ROW4A*%
X41425000Y-119075000D02*
X38500000Y-122000000D01*
X97000000Y-147000000D02*
X88250000Y-138250000D01*
X86250000Y-134750000D02*
X86250000Y-122000000D01*
X76675000Y-122000000D02*
X63650000Y-122000000D01*
X101625000Y-122000000D02*
X98725000Y-119100000D01*
X86250000Y-122000000D02*
X82475000Y-122000000D01*
X98725000Y-119100000D02*
X95825000Y-122000000D01*
X82475000Y-122000000D02*
X79575000Y-119100000D01*
X120750000Y-122000000D02*
X117825000Y-119075000D01*
X134000000Y-122000000D02*
X120750000Y-122000000D01*
X126974156Y-143490864D02*
X126750000Y-143266708D01*
X79575000Y-119100000D02*
X76675000Y-122000000D01*
X60725000Y-119075000D02*
X57800000Y-122000000D01*
X126250000Y-147000000D02*
X97000000Y-147000000D01*
X136925000Y-119075000D02*
X134000000Y-122000000D01*
X63650000Y-122000000D02*
X60725000Y-119075000D01*
X88250000Y-136750000D02*
X86250000Y-134750000D01*
X57800000Y-122000000D02*
X44350000Y-122000000D01*
X114900000Y-122000000D02*
X101625000Y-122000000D01*
X88250000Y-138250000D02*
X88250000Y-136750000D01*
X126971329Y-146278671D02*
X126250000Y-147000000D01*
X95825000Y-122000000D02*
X86250000Y-122000000D01*
X126971329Y-145229341D02*
X126971329Y-146278671D01*
X38500000Y-122000000D02*
X22500000Y-122000000D01*
X22500000Y-122000000D02*
X20025000Y-119525000D01*
X44350000Y-122000000D02*
X41425000Y-119075000D01*
X126750000Y-143266708D02*
X126750000Y-141412500D01*
X117825000Y-119075000D02*
X114900000Y-122000000D01*
X20025000Y-119525000D02*
X20025000Y-119100000D01*
%TO.N,Net-(D72-A)*%
X20025000Y-117050000D02*
X20025000Y-115275000D01*
X22900000Y-112400000D02*
X23225000Y-112400000D01*
X20025000Y-115275000D02*
X22900000Y-112400000D01*
%TO.N,Net-(D73-A)*%
X41425000Y-117025000D02*
X41425000Y-115275000D01*
X44300000Y-112400000D02*
X44625000Y-112400000D01*
X41425000Y-115275000D02*
X44300000Y-112400000D01*
%TO.N,Net-(D74-A)*%
X60725000Y-115325000D02*
X63650000Y-112400000D01*
X60725000Y-117025000D02*
X60725000Y-115325000D01*
X63650000Y-112400000D02*
X63975000Y-112400000D01*
%TO.N,Net-(D75-A)*%
X82450000Y-112400000D02*
X82775000Y-112400000D01*
X79575000Y-117050000D02*
X79575000Y-115275000D01*
X79575000Y-115275000D02*
X82450000Y-112400000D01*
%TO.N,Net-(D76-A)*%
X98725000Y-115275000D02*
X101600000Y-112400000D01*
X101600000Y-112400000D02*
X101925000Y-112400000D01*
X98725000Y-117050000D02*
X98725000Y-115275000D01*
%TO.N,Net-(D77-A)*%
X120700000Y-112400000D02*
X121025000Y-112400000D01*
X117825000Y-115275000D02*
X120700000Y-112400000D01*
X117825000Y-117025000D02*
X117825000Y-115275000D01*
%TO.N,Net-(D78-A)*%
X136925000Y-117025000D02*
X136925000Y-115275000D01*
X136925000Y-115275000D02*
X139800000Y-112400000D01*
X139800000Y-112400000D02*
X140125000Y-112400000D01*
%TO.N,ROW4B*%
X197100000Y-122000000D02*
X194200000Y-119100000D01*
X229500000Y-122000000D02*
X216250000Y-122000000D01*
X162500000Y-122000000D02*
X158950000Y-122000000D01*
X235350000Y-122000000D02*
X264575000Y-122000000D01*
X178050000Y-122000000D02*
X175125000Y-119075000D01*
X264575000Y-122000000D02*
X267500000Y-119075000D01*
X194200000Y-119100000D02*
X191300000Y-122000000D01*
X213325000Y-119075000D02*
X210400000Y-122000000D01*
X162500000Y-125250000D02*
X162500000Y-122000000D01*
X210400000Y-122000000D02*
X197100000Y-122000000D01*
X232425000Y-119075000D02*
X229500000Y-122000000D01*
X160500000Y-127250000D02*
X162500000Y-125250000D01*
X273385000Y-124960000D02*
X267500000Y-119075000D01*
X145500000Y-126750000D02*
X140250000Y-126750000D01*
X232425000Y-119075000D02*
X235350000Y-122000000D01*
X150250000Y-127250000D02*
X160500000Y-127250000D01*
X175125000Y-119075000D02*
X172200000Y-122000000D01*
X299500000Y-124960000D02*
X273385000Y-124960000D01*
X158950000Y-122000000D02*
X156025000Y-119075000D01*
X191300000Y-122000000D02*
X178050000Y-122000000D01*
X130662500Y-137000000D02*
X133250000Y-137000000D01*
X216250000Y-122000000D02*
X213325000Y-119075000D01*
X172200000Y-122000000D02*
X162500000Y-122000000D01*
X149750000Y-126750000D02*
X150250000Y-127250000D01*
X133250000Y-137000000D02*
X136000000Y-134250000D01*
X140250000Y-126750000D02*
X136000000Y-131000000D01*
X136000000Y-131000000D02*
X136000000Y-134250000D01*
%TO.N,Net-(D79-A)*%
X156025000Y-115275000D02*
X158900000Y-112400000D01*
X156025000Y-117025000D02*
X156025000Y-115275000D01*
X158900000Y-112400000D02*
X159225000Y-112400000D01*
%TO.N,Net-(D80-A)*%
X178000000Y-112400000D02*
X178325000Y-112400000D01*
X175125000Y-115275000D02*
X178000000Y-112400000D01*
X175125000Y-117025000D02*
X175125000Y-115275000D01*
%TO.N,Net-(D81-A)*%
X194200000Y-115275000D02*
X197075000Y-112400000D01*
X197075000Y-112400000D02*
X197400000Y-112400000D01*
X194200000Y-117050000D02*
X194200000Y-115275000D01*
%TO.N,Net-(D82-A)*%
X216200000Y-112400000D02*
X216525000Y-112400000D01*
X213325000Y-115275000D02*
X216200000Y-112400000D01*
X213325000Y-117025000D02*
X213325000Y-115275000D01*
%TO.N,Net-(D83-A)*%
X232425000Y-115275000D02*
X235300000Y-112400000D01*
X235300000Y-112400000D02*
X235625000Y-112400000D01*
X232425000Y-117025000D02*
X232425000Y-115275000D01*
%TO.N,Net-(D84-A)*%
X270450000Y-112400000D02*
X270775000Y-112400000D01*
X267500000Y-115350000D02*
X270450000Y-112400000D01*
X267500000Y-117025000D02*
X267500000Y-115350000D01*
%TO.N,Net-(D85-A)*%
X319168750Y-116975000D02*
X319168750Y-114800000D01*
X321668750Y-112300000D02*
X322031250Y-112300000D01*
X319168750Y-114800000D02*
X321668750Y-112300000D01*
%TO.N,Net-(D86-A)*%
X350306250Y-112300000D02*
X350606250Y-112300000D01*
X347806250Y-117000000D02*
X347806250Y-114800000D01*
X347806250Y-114800000D02*
X350306250Y-112300000D01*
%TO.N,ROW5A*%
X74350000Y-141000000D02*
X74425000Y-140925000D01*
X74425000Y-140925000D02*
X77275000Y-138075000D01*
X127724156Y-146275844D02*
X126500000Y-147500000D01*
X55937500Y-138075000D02*
X58862500Y-141000000D01*
X74425000Y-143925000D02*
X78000000Y-147500000D01*
X36850000Y-138075000D02*
X39775000Y-141000000D01*
X78000000Y-147500000D02*
X95250000Y-147500000D01*
X39775000Y-141000000D02*
X53012500Y-141000000D01*
X53012500Y-141000000D02*
X55937500Y-138075000D01*
X58862500Y-141000000D02*
X74350000Y-141000000D01*
X127724156Y-145500000D02*
X127724156Y-146275844D01*
X17750000Y-138100000D02*
X20650000Y-141000000D01*
X127728412Y-143137792D02*
X127250000Y-142659380D01*
X20650000Y-141000000D02*
X33925000Y-141000000D01*
X127250000Y-142659380D02*
X127250000Y-141412500D01*
X127728412Y-143757515D02*
X127728412Y-143137792D01*
X126500000Y-147500000D02*
X95250000Y-147500000D01*
X74425000Y-140925000D02*
X74425000Y-143925000D01*
X33925000Y-141000000D02*
X36850000Y-138075000D01*
%TO.N,Net-(D87-A)*%
X20625000Y-131400000D02*
X20950000Y-131400000D01*
X17750000Y-136050000D02*
X17750000Y-134275000D01*
X17750000Y-134275000D02*
X20625000Y-131400000D01*
%TO.N,Net-(D88-A)*%
X36850000Y-134275000D02*
X39725000Y-131400000D01*
X40050000Y-131400000D02*
X39725000Y-131400000D01*
X36850000Y-136025000D02*
X36850000Y-134275000D01*
%TO.N,Net-(D89-A)*%
X55937500Y-136025000D02*
X55937500Y-134275000D01*
X55937500Y-134275000D02*
X58812500Y-131400000D01*
X58812500Y-131400000D02*
X59137500Y-131400000D01*
%TO.N,Net-(D90-A)*%
X80575000Y-131400000D02*
X80250000Y-131400000D01*
X77275000Y-136025000D02*
X77275000Y-134375000D01*
X77275000Y-134375000D02*
X80250000Y-131400000D01*
%TO.N,Net-(D91-A)*%
X149600000Y-133475000D02*
X151675000Y-131400000D01*
X148725000Y-133475000D02*
X149600000Y-133475000D01*
%TO.N,ROW5B*%
X223025000Y-141000000D02*
X238550000Y-141000000D01*
X153250000Y-134000000D02*
X157250000Y-134000000D01*
X136500000Y-133750000D02*
X136500000Y-134500000D01*
X133500000Y-137500000D02*
X130662500Y-137500000D01*
X138500000Y-131750000D02*
X136500000Y-133750000D01*
X285750000Y-127500000D02*
X299500000Y-127500000D01*
X161775000Y-138075000D02*
X168950000Y-145250000D01*
X281250000Y-141000000D02*
X284175000Y-138075000D01*
X265750000Y-141000000D02*
X281250000Y-141000000D01*
X151725000Y-135525000D02*
X153250000Y-134000000D01*
X145250000Y-136250000D02*
X142500000Y-133500000D01*
X262825000Y-138075000D02*
X265750000Y-141000000D01*
X238550000Y-141000000D02*
X241475000Y-138075000D01*
X244400000Y-141000000D02*
X259900000Y-141000000D01*
X281250000Y-141000000D02*
X281250000Y-132000000D01*
X241475000Y-138075000D02*
X244400000Y-141000000D01*
X148000000Y-136250000D02*
X145250000Y-136250000D01*
X212975000Y-145250000D02*
X220125000Y-138100000D01*
X281250000Y-132000000D02*
X285750000Y-127500000D01*
X140750000Y-131750000D02*
X138500000Y-131750000D01*
X168950000Y-145250000D02*
X212975000Y-145250000D01*
X148725000Y-135525000D02*
X151725000Y-135525000D01*
X259900000Y-141000000D02*
X262825000Y-138075000D01*
X161325000Y-138075000D02*
X161775000Y-138075000D01*
X220125000Y-138100000D02*
X223025000Y-141000000D01*
X157250000Y-134000000D02*
X161325000Y-138075000D01*
X148725000Y-135525000D02*
X148000000Y-136250000D01*
X136500000Y-134500000D02*
X133500000Y-137500000D01*
%TO.N,Net-(D92-A)*%
X220125000Y-136050000D02*
X220125000Y-134275000D01*
X220125000Y-134275000D02*
X223000000Y-131400000D01*
X223000000Y-131400000D02*
X223325000Y-131400000D01*
%TO.N,Net-(D93-A)*%
X244350000Y-131400000D02*
X244675000Y-131400000D01*
X241475000Y-136025000D02*
X241475000Y-134275000D01*
X241475000Y-134275000D02*
X244350000Y-131400000D01*
%TO.N,Net-(D94-A)*%
X262825000Y-136025000D02*
X262825000Y-134275000D01*
X262825000Y-134275000D02*
X265700000Y-131400000D01*
X265700000Y-131400000D02*
X266025000Y-131400000D01*
%TO.N,Net-(D95-A)*%
X287050000Y-131400000D02*
X287375000Y-131400000D01*
X284175000Y-136025000D02*
X284175000Y-134275000D01*
X284175000Y-134275000D02*
X287050000Y-131400000D01*
%TO.N,Net-(D96-A)*%
X309618750Y-135950000D02*
X309618750Y-133800000D01*
X312068750Y-131350000D02*
X312518750Y-131350000D01*
X309618750Y-133800000D02*
X312068750Y-131350000D01*
%TO.N,Net-(D97-A)*%
X328668750Y-136000000D02*
X328668750Y-133800000D01*
X328668750Y-133800000D02*
X331118750Y-131350000D01*
X331118750Y-131350000D02*
X331518750Y-131350000D01*
%TO.N,Net-(D98-A)*%
X347793750Y-133800000D02*
X350243750Y-131350000D01*
X350243750Y-131350000D02*
X350568750Y-131350000D01*
X347793750Y-135975000D02*
X347793750Y-133800000D01*
%TO.N,Net-(D99-A)*%
X366893750Y-133800000D02*
X369343750Y-131350000D01*
X366893750Y-135950000D02*
X366893750Y-133800000D01*
X369343750Y-131350000D02*
X369618750Y-131350000D01*
%TO.N,VCC*%
X160057500Y-32252500D02*
X160057500Y-36442500D01*
X156000000Y-43050000D02*
X152912500Y-43050000D01*
X159500000Y-39943468D02*
X159500000Y-37000000D01*
X155300000Y-30779000D02*
X155300000Y-32110000D01*
X152912500Y-43050000D02*
X152850000Y-43112500D01*
X160057500Y-36442500D02*
X159500000Y-37000000D01*
X160200000Y-30719192D02*
X159480808Y-30000000D01*
X160200000Y-32110000D02*
X160057500Y-32252500D01*
X156000000Y-42000000D02*
X156000000Y-43050000D01*
X160200000Y-32110000D02*
X160200000Y-30719192D01*
X156079000Y-30000000D02*
X155300000Y-30779000D01*
X158000000Y-41443468D02*
X159500000Y-39943468D01*
X158000000Y-41443468D02*
X158000000Y-42000000D01*
X159480808Y-30000000D02*
X156079000Y-30000000D01*
%TO.N,RESET*%
X119500000Y-134972008D02*
X120513996Y-135986004D01*
X173000000Y-129250000D02*
X147250000Y-129250000D01*
X121527992Y-137000000D02*
X122337500Y-137000000D01*
X176000000Y-129250000D02*
X180150000Y-133400000D01*
X120513996Y-135986004D02*
X121527992Y-137000000D01*
X173000000Y-129250000D02*
X176000000Y-129250000D01*
X172210000Y-131380000D02*
X172210000Y-130040000D01*
X180150000Y-133400000D02*
X180150000Y-136150000D01*
X119500000Y-134000000D02*
X119500000Y-134972008D01*
X172210000Y-130040000D02*
X173000000Y-129250000D01*
%TO.N,SWDIO*%
X131873000Y-135000000D02*
X130662500Y-135000000D01*
X141434313Y-135127000D02*
X145057313Y-138750000D01*
X145057313Y-138750000D02*
X150856532Y-138750000D01*
X132000000Y-135127000D02*
X131873000Y-135000000D01*
X150856532Y-138750000D02*
X157106532Y-145000000D01*
X157106532Y-145000000D02*
X165500000Y-145000000D01*
%TO.N,SWCLK*%
X130662500Y-134500000D02*
X132500000Y-134500000D01*
X145750000Y-138250000D02*
X151000000Y-138250000D01*
X151000000Y-138250000D02*
X157295000Y-144545000D01*
X142000000Y-134500000D02*
X145750000Y-138250000D01*
X157295000Y-144545000D02*
X164569051Y-144545000D01*
X164569051Y-144545000D02*
X164741051Y-144373000D01*
%TO.N,Net-(U1-IO2)*%
X153929199Y-118179199D02*
X154000000Y-118250000D01*
X154000000Y-118250000D02*
X154000000Y-120048786D01*
X153929199Y-115240546D02*
X153929199Y-118179199D01*
X157000000Y-30579000D02*
X157022000Y-30557000D01*
X158450000Y-36950000D02*
X158450000Y-39650000D01*
X154000000Y-120048786D02*
X140250000Y-133798786D01*
X157000000Y-32110000D02*
X157000000Y-35500000D01*
X157000000Y-35500000D02*
X158450000Y-36950000D01*
X139500000Y-137250000D02*
X137500000Y-137250000D01*
X158450000Y-39650000D02*
X156750000Y-41350000D01*
X157022000Y-30557000D02*
X157978000Y-30557000D01*
X140250000Y-133798786D02*
X140250000Y-136500000D01*
X156750000Y-44200000D02*
X156000000Y-44950000D01*
X157978000Y-30557000D02*
X158000000Y-30579000D01*
X157000000Y-32110000D02*
X157000000Y-30579000D01*
X140250000Y-136500000D02*
X139500000Y-137250000D01*
X156750000Y-41350000D02*
X156750000Y-44200000D01*
X158000000Y-30579000D02*
X158000000Y-32110000D01*
X156000000Y-44950000D02*
X156000000Y-46250000D01*
D40*
%TO.N,D-*%
X134750000Y-137250000D02*
X134000000Y-138000000D01*
X134000000Y-138000000D02*
X130662500Y-138000000D01*
X135500000Y-137250000D02*
X134750000Y-137250000D01*
D38*
%TO.N,Net-(U1-IO1)*%
X157500000Y-32110000D02*
X157500000Y-33641000D01*
X157522000Y-35322000D02*
X158950000Y-36750000D01*
X157522000Y-33663000D02*
X157522000Y-35322000D01*
X158478000Y-33663000D02*
X158500000Y-33641000D01*
X140750000Y-137250000D02*
X138250000Y-139750000D01*
X158500000Y-33641000D02*
X158500000Y-32110000D01*
X158950000Y-39850000D02*
X157250000Y-41550000D01*
X138250000Y-139750000D02*
X137500000Y-139750000D01*
X154500000Y-115500000D02*
X154500000Y-120192253D01*
X154750000Y-115250000D02*
X154500000Y-115500000D01*
X154500000Y-120192253D02*
X140750000Y-133942252D01*
X157250000Y-44200000D02*
X158000000Y-44950000D01*
X157250000Y-41550000D02*
X157250000Y-44200000D01*
X158950000Y-36750000D02*
X158950000Y-39850000D01*
X158000000Y-44950000D02*
X158000000Y-46250000D01*
X140750000Y-133942252D02*
X140750000Y-137250000D01*
X157522000Y-33663000D02*
X158478000Y-33663000D01*
X157500000Y-33641000D02*
X157522000Y-33663000D01*
D40*
%TO.N,D+*%
X135500000Y-139750000D02*
X134250000Y-138500000D01*
X134250000Y-138500000D02*
X130662500Y-138500000D01*
D38*
%TO.N,Net-(USB1-CC2)*%
X159100000Y-34900000D02*
X159500000Y-34500000D01*
X159500000Y-34500000D02*
X159500000Y-32110000D01*
%TO.N,Net-(USB1-CC1)*%
X156500000Y-33900000D02*
X156500000Y-32110000D01*
X155550000Y-34850000D02*
X156500000Y-33900000D01*
%TO.N,Net-(U2-BOOT0)*%
X126072398Y-144500000D02*
X125592928Y-144020530D01*
X125592928Y-144020530D02*
X125592928Y-143407072D01*
X125592928Y-143407072D02*
X125750000Y-143250000D01*
X131750000Y-144500000D02*
X126072398Y-144500000D01*
X125750000Y-143250000D02*
X125750000Y-141412500D01*
X132000000Y-144750000D02*
X131750000Y-144500000D01*
%TO.N,COL0*%
X294775000Y-38350000D02*
X294775000Y-41225000D01*
X40000000Y-95500000D02*
X40000000Y-98000000D01*
X299525000Y-133600000D02*
X299525000Y-136475000D01*
X32862500Y-57400000D02*
X32862500Y-59637500D01*
X294775000Y-41225000D02*
X294000000Y-42000000D01*
X290025000Y-57400000D02*
X290025000Y-59975000D01*
X290025000Y-59975000D02*
X289000000Y-61000000D01*
X294800000Y-78700000D02*
X294000000Y-79500000D01*
X32825000Y-133600000D02*
X32825000Y-136175000D01*
X40000000Y-98000000D02*
X39000000Y-99000000D01*
X32825000Y-136175000D02*
X32000000Y-137000000D01*
X297200000Y-98300000D02*
X296500000Y-99000000D01*
X37600000Y-41400000D02*
X37000000Y-42000000D01*
X32862500Y-59637500D02*
X32000000Y-60500000D01*
X294800000Y-76450000D02*
X294800000Y-78700000D01*
X35225000Y-114550000D02*
X35225000Y-117275000D01*
X37600000Y-79400000D02*
X37000000Y-80000000D01*
X299525000Y-136475000D02*
X298500000Y-137500000D01*
X37600000Y-76450000D02*
X37600000Y-79400000D01*
X35225000Y-117275000D02*
X34500000Y-118000000D01*
X122000000Y-134162500D02*
X122337500Y-134500000D01*
X297200000Y-95500000D02*
X297200000Y-98300000D01*
X37600000Y-38350000D02*
X37600000Y-41400000D01*
X122000000Y-132500000D02*
X122000000Y-134162500D01*
%TO.N,COL1*%
X122750000Y-131000000D02*
X123750000Y-132000000D01*
X270975000Y-78525000D02*
X270000000Y-79500000D01*
X282875000Y-117125000D02*
X282000000Y-118000000D01*
X51925000Y-61075000D02*
X51000000Y-62000000D01*
X61425000Y-79575000D02*
X60500000Y-80500000D01*
X123750000Y-132000000D02*
X123750000Y-133087500D01*
X61425000Y-41075000D02*
X60500000Y-42000000D01*
X51925000Y-57400000D02*
X51925000Y-61075000D01*
X270975000Y-41525000D02*
X270000000Y-42500000D01*
X275775000Y-95500000D02*
X275775000Y-98225000D01*
X51875000Y-136125000D02*
X50500000Y-137500000D01*
X56675000Y-117825000D02*
X55500000Y-119000000D01*
X66162500Y-98837500D02*
X65000000Y-100000000D01*
X100000000Y-136250000D02*
X98500000Y-136250000D01*
X261462500Y-57400000D02*
X261462500Y-59537500D01*
X61425000Y-76450000D02*
X61425000Y-79575000D01*
X122750000Y-130000000D02*
X122750000Y-131000000D01*
X66162500Y-95500000D02*
X66162500Y-98837500D01*
X278125000Y-133600000D02*
X278125000Y-136375000D01*
X282875000Y-114550000D02*
X282875000Y-117125000D01*
X278125000Y-136375000D02*
X277000000Y-137500000D01*
X51875000Y-133600000D02*
X51875000Y-136125000D01*
X270975000Y-76450000D02*
X270975000Y-78525000D01*
X56675000Y-114550000D02*
X56675000Y-117825000D01*
X261462500Y-59537500D02*
X260500000Y-60500000D01*
X275775000Y-98225000D02*
X274500000Y-99500000D01*
X270975000Y-38350000D02*
X270975000Y-41525000D01*
X61425000Y-38350000D02*
X61425000Y-41075000D01*
%TO.N,COL2*%
X80475000Y-80025000D02*
X79500000Y-81000000D01*
X256675000Y-95500000D02*
X256675000Y-98325000D01*
X251925000Y-38350000D02*
X251925000Y-41075000D01*
X85275000Y-98225000D02*
X84000000Y-99500000D01*
X124250000Y-131856532D02*
X124250000Y-133087500D01*
X85275000Y-95500000D02*
X85275000Y-98225000D01*
X70912500Y-136587500D02*
X70000000Y-137500000D01*
X75725000Y-117275000D02*
X74500000Y-118500000D01*
X80462500Y-38350000D02*
X80462500Y-41037500D01*
X71025000Y-57400000D02*
X71025000Y-59975000D01*
X247175000Y-117325000D02*
X246000000Y-118500000D01*
X75725000Y-114550000D02*
X75725000Y-117275000D01*
X251925000Y-41075000D02*
X251000000Y-42000000D01*
X251925000Y-76450000D02*
X251925000Y-79075000D01*
X256725000Y-136275000D02*
X255500000Y-137500000D01*
X123377000Y-130565687D02*
X123377000Y-130983532D01*
X256725000Y-133600000D02*
X256725000Y-136275000D01*
X242425000Y-57400000D02*
X242425000Y-60075000D01*
X251925000Y-79075000D02*
X250500000Y-80500000D01*
X123377000Y-130983532D02*
X124250000Y-131856532D01*
X80475000Y-76450000D02*
X80475000Y-80025000D01*
X71025000Y-59975000D02*
X69500000Y-61500000D01*
X80462500Y-41037500D02*
X79500000Y-42000000D01*
X256675000Y-98325000D02*
X255500000Y-99500000D01*
X247175000Y-114550000D02*
X247175000Y-117325000D01*
X70912500Y-133600000D02*
X70912500Y-136587500D01*
X242425000Y-60075000D02*
X241500000Y-61000000D01*
X100000000Y-135250000D02*
X97750000Y-135250000D01*
%TO.N,COL3*%
X90025000Y-57400000D02*
X90025000Y-59975000D01*
X124750000Y-131713064D02*
X124750000Y-133087500D01*
X100000000Y-134250000D02*
X97000000Y-134250000D01*
X124004000Y-130000000D02*
X124004000Y-130967064D01*
X99512500Y-40987500D02*
X98500000Y-42000000D01*
X99512500Y-38350000D02*
X99512500Y-40987500D01*
X104275000Y-95500000D02*
X104275000Y-98225000D01*
X99475000Y-76450000D02*
X99475000Y-79525000D01*
X237625000Y-95500000D02*
X237625000Y-98375000D01*
X223362500Y-57400000D02*
X223362500Y-60637500D01*
X104275000Y-98225000D02*
X103000000Y-99500000D01*
X99475000Y-79525000D02*
X98500000Y-80500000D01*
X228125000Y-116875000D02*
X227000000Y-118000000D01*
X232875000Y-41125000D02*
X232000000Y-42000000D01*
X92400000Y-133600000D02*
X92400000Y-136100000D01*
X232825000Y-76450000D02*
X232825000Y-78675000D01*
X92400000Y-136100000D02*
X91500000Y-137000000D01*
X232825000Y-78675000D02*
X231500000Y-80000000D01*
X90025000Y-59975000D02*
X88500000Y-61500000D01*
X232875000Y-38350000D02*
X232875000Y-41125000D01*
X223362500Y-60637500D02*
X222500000Y-61500000D01*
X235275000Y-133600000D02*
X235275000Y-136225000D01*
X237625000Y-98375000D02*
X236500000Y-99500000D01*
X94725000Y-114550000D02*
X94725000Y-117275000D01*
X228125000Y-114550000D02*
X228125000Y-116875000D01*
X124004000Y-130967064D02*
X124750000Y-131713064D01*
X235275000Y-136225000D02*
X234000000Y-137500000D01*
X94725000Y-117275000D02*
X93500000Y-118500000D01*
%TO.N,COL4*%
X204325000Y-57400000D02*
X204325000Y-60175000D01*
X218575000Y-95500000D02*
X218575000Y-98425000D01*
X125250000Y-131500000D02*
X125250000Y-133087500D01*
X123325000Y-99175000D02*
X122500000Y-100000000D01*
X213825000Y-76450000D02*
X213825000Y-79175000D01*
X118575000Y-78925000D02*
X117000000Y-80500000D01*
X123325000Y-95500000D02*
X123325000Y-99175000D01*
X124631000Y-130567954D02*
X124631000Y-130881000D01*
X204325000Y-60175000D02*
X203000000Y-61500000D01*
X118562500Y-41437500D02*
X118000000Y-42000000D01*
X218575000Y-98425000D02*
X217500000Y-99500000D01*
X103250000Y-128750000D02*
X103250000Y-129750000D01*
X118575000Y-76450000D02*
X118575000Y-78925000D01*
X118562500Y-38350000D02*
X118562500Y-41437500D01*
X109075000Y-57400000D02*
X109075000Y-60425000D01*
X213825000Y-38350000D02*
X213825000Y-41175000D01*
X113825000Y-117175000D02*
X112500000Y-118500000D01*
X109075000Y-60425000D02*
X108000000Y-61500000D01*
X113825000Y-114550000D02*
X113825000Y-117175000D01*
X209050000Y-116950000D02*
X207500000Y-118500000D01*
X209050000Y-114550000D02*
X209050000Y-116950000D01*
X213825000Y-41175000D02*
X213000000Y-42000000D01*
X213825000Y-79175000D02*
X212500000Y-80500000D01*
X124631000Y-130881000D02*
X125250000Y-131500000D01*
X101500000Y-127000000D02*
X103250000Y-128750000D01*
%TO.N,COL5*%
X128125000Y-57400000D02*
X128125000Y-60375000D01*
X106375000Y-124500000D02*
X104500000Y-126375000D01*
X137625000Y-78875000D02*
X136000000Y-80500000D01*
X194775000Y-78725000D02*
X193000000Y-80500000D01*
X185275000Y-60225000D02*
X184000000Y-61500000D01*
X142425000Y-95500000D02*
X142425000Y-99075000D01*
X190025000Y-114550000D02*
X190025000Y-117475000D01*
X125750000Y-131356533D02*
X125750000Y-133087500D01*
X132875000Y-117125000D02*
X132000000Y-118000000D01*
X132875000Y-114550000D02*
X132875000Y-117125000D01*
X194775000Y-76450000D02*
X194775000Y-78725000D01*
X142425000Y-99075000D02*
X141500000Y-100000000D01*
X114500000Y-124500000D02*
X106375000Y-124500000D01*
X128125000Y-60375000D02*
X126500000Y-62000000D01*
X190025000Y-117475000D02*
X189000000Y-118500000D01*
X199525000Y-99475000D02*
X198500000Y-100500000D01*
X194775000Y-41225000D02*
X194000000Y-42000000D01*
X125258000Y-130000000D02*
X125258000Y-130864532D01*
X185275000Y-57400000D02*
X185275000Y-60225000D01*
X104500000Y-126375000D02*
X104500000Y-129750000D01*
X137612500Y-41387500D02*
X137000000Y-42000000D01*
X125258000Y-130864532D02*
X125750000Y-131356533D01*
X137625000Y-76450000D02*
X137625000Y-78875000D01*
X199525000Y-95500000D02*
X199525000Y-99475000D01*
X194775000Y-38350000D02*
X194775000Y-41225000D01*
X137612500Y-38350000D02*
X137612500Y-41387500D01*
%TO.N,COL6*%
X175725000Y-79275000D02*
X174500000Y-80500000D01*
X126250000Y-130750000D02*
X126250000Y-133087500D01*
X147162500Y-60837500D02*
X147162500Y-57400000D01*
X156625000Y-76450000D02*
X156625000Y-79375000D01*
X161475000Y-95500000D02*
X161475000Y-99025000D01*
X170975000Y-114550000D02*
X170975000Y-117525000D01*
X151925000Y-117075000D02*
X151000000Y-118000000D01*
X170975000Y-117525000D02*
X169500000Y-119000000D01*
X166225000Y-57400000D02*
X166225000Y-60275000D01*
X175712500Y-38350000D02*
X175712500Y-40287500D01*
X180475000Y-99025000D02*
X179500000Y-100000000D01*
X163825000Y-133600000D02*
X163825000Y-135675000D01*
X156675000Y-38350000D02*
X156675000Y-39325000D01*
X156675000Y-39325000D02*
X154500000Y-41500000D01*
X166225000Y-60275000D02*
X165000000Y-61500000D01*
X161475000Y-99025000D02*
X160500000Y-100000000D01*
X151925000Y-114550000D02*
X151925000Y-117075000D01*
X146500000Y-61500000D02*
X147162500Y-60837500D01*
X175725000Y-76450000D02*
X175725000Y-79275000D01*
X175712500Y-40287500D02*
X174500000Y-41500000D01*
X156625000Y-79375000D02*
X155000000Y-81000000D01*
X180475000Y-95500000D02*
X180475000Y-99025000D01*
X163825000Y-135675000D02*
X162500000Y-137000000D01*
X126000000Y-130500000D02*
X126250000Y-130750000D01*
%TO.N,COL14*%
X324668750Y-79325000D02*
X323493750Y-80500000D01*
X324668750Y-57350000D02*
X324668750Y-59825000D01*
X324668750Y-133550000D02*
X324668750Y-136575000D01*
X324668750Y-76400000D02*
X324668750Y-79325000D01*
X334181250Y-114500000D02*
X334181250Y-117312500D01*
X324668750Y-59825000D02*
X323493750Y-61000000D01*
X324668750Y-136575000D02*
X323743750Y-137500000D01*
X324668750Y-98075000D02*
X323493750Y-99250000D01*
X324668750Y-95450000D02*
X324668750Y-98075000D01*
X334181250Y-117312500D02*
X333243750Y-118250000D01*
%TO.N,COL15*%
X343718750Y-76400000D02*
X343718750Y-78525000D01*
X343668750Y-133550000D02*
X343668750Y-136325000D01*
X343668750Y-136325000D02*
X342743750Y-137250000D01*
X343718750Y-40775000D02*
X342743750Y-41750000D01*
X343718750Y-60275000D02*
X342493750Y-61500000D01*
X343718750Y-57350000D02*
X343718750Y-60275000D01*
X343718750Y-38300000D02*
X343718750Y-40775000D01*
X343706250Y-98287500D02*
X342493750Y-99500000D01*
X343718750Y-78525000D02*
X342493750Y-79750000D01*
X343706250Y-95450000D02*
X343706250Y-98287500D01*
%TO.N,COL16*%
X362768750Y-38300000D02*
X362768750Y-40725000D01*
X362768750Y-59975000D02*
X361743750Y-61000000D01*
X362768750Y-40725000D02*
X361743750Y-41750000D01*
X362768750Y-95450000D02*
X362768750Y-97975000D01*
X362768750Y-79475000D02*
X361993750Y-80250000D01*
X362756250Y-114500000D02*
X362756250Y-117487500D01*
X362768750Y-97975000D02*
X361743750Y-99000000D01*
X362768750Y-57350000D02*
X362768750Y-59975000D01*
X362756250Y-117487500D02*
X361993750Y-118250000D01*
X362718750Y-133550000D02*
X362718750Y-136525000D01*
X362768750Y-76400000D02*
X362768750Y-79475000D01*
X362718750Y-136525000D02*
X361743750Y-137500000D01*
%TO.N,COL17*%
X377043750Y-79250000D02*
X377043750Y-82200000D01*
X381843750Y-40650000D02*
X380493750Y-42000000D01*
X381843750Y-38300000D02*
X381843750Y-40650000D01*
X377043750Y-117350000D02*
X377043750Y-119450000D01*
X381768750Y-136725000D02*
X380493750Y-138000000D01*
X377043750Y-82200000D02*
X376243750Y-83000000D01*
X381768750Y-133550000D02*
X381768750Y-136725000D01*
X377043750Y-119450000D02*
X375743750Y-120750000D01*
%TO.N,ROW0C*%
X306743750Y-44750000D02*
X309268750Y-44750000D01*
X345118750Y-45750000D02*
X347843750Y-43025000D01*
X331468750Y-45750000D02*
X345118750Y-45750000D01*
X347843750Y-43025000D02*
X350568750Y-45750000D01*
X364268750Y-45750000D02*
X366993750Y-43025000D01*
X350568750Y-45750000D02*
X364268750Y-45750000D01*
X328743750Y-43025000D02*
X331468750Y-45750000D01*
X309268750Y-44750000D02*
X310993750Y-43025000D01*
%TO.N,ROW1C*%
X310993750Y-62000000D02*
X313743750Y-64750000D01*
X328743750Y-62025000D02*
X331468750Y-64750000D01*
X313743750Y-64750000D02*
X326018750Y-64750000D01*
X306743750Y-66250000D02*
X306743750Y-117340000D01*
X345118750Y-64750000D02*
X347843750Y-62025000D01*
X326018750Y-64750000D02*
X328743750Y-62025000D01*
X310993750Y-62000000D02*
X306743750Y-66250000D01*
X331468750Y-64750000D02*
X345118750Y-64750000D01*
%TO.N,ROW2C*%
X331468750Y-83750000D02*
X345118750Y-83750000D01*
X347843750Y-81025000D02*
X350568750Y-83750000D01*
X369743750Y-76750000D02*
X369743750Y-66650000D01*
X314718750Y-83750000D02*
X326018750Y-83750000D01*
X345118750Y-83750000D02*
X347843750Y-81025000D01*
X350568750Y-83750000D02*
X362743750Y-83750000D01*
X308243750Y-118380000D02*
X308243750Y-90398786D01*
X362743750Y-83750000D02*
X369743750Y-76750000D01*
X314718750Y-83923786D02*
X314718750Y-83750000D01*
X306743750Y-119880000D02*
X308243750Y-118380000D01*
X326018750Y-83750000D02*
X328743750Y-81025000D01*
X328743750Y-81025000D02*
X331468750Y-83750000D01*
X311993750Y-81025000D02*
X314718750Y-83750000D01*
X369743750Y-66650000D02*
X372293750Y-64100000D01*
X308243750Y-90398786D02*
X314718750Y-83923786D01*
%TO.N,ROW3C*%
X363993750Y-101750000D02*
X371168750Y-101750000D01*
X312471750Y-102878000D02*
X312343750Y-102750000D01*
X350543750Y-102750000D02*
X362993750Y-102750000D01*
X347843750Y-100050000D02*
X350543750Y-102750000D01*
X312471750Y-116692000D02*
X312471750Y-102878000D01*
X325981250Y-102750000D02*
X328706250Y-100025000D01*
X306743750Y-122420000D02*
X312471750Y-116692000D01*
X309618750Y-100025000D02*
X312343750Y-102750000D01*
X371168750Y-101750000D02*
X371918750Y-102500000D01*
X345143750Y-102750000D02*
X347843750Y-100050000D01*
X362993750Y-102750000D02*
X363993750Y-101750000D01*
X312343750Y-102750000D02*
X325981250Y-102750000D01*
X331431250Y-102750000D02*
X345143750Y-102750000D01*
X328706250Y-100025000D02*
X331431250Y-102750000D01*
%TO.N,ROW4C*%
X321893750Y-121750000D02*
X345106250Y-121750000D01*
X345106250Y-121750000D02*
X347806250Y-119050000D01*
X319168750Y-119025000D02*
X321893750Y-121750000D01*
%TO.N,ROW5C*%
X344818750Y-141000000D02*
X347793750Y-138025000D01*
X350768750Y-141000000D02*
X363893750Y-141000000D01*
X328668750Y-138050000D02*
X331618750Y-141000000D01*
X309618750Y-138000000D02*
X306743750Y-135125000D01*
X312618750Y-141000000D02*
X325718750Y-141000000D01*
X306743750Y-135125000D02*
X306743750Y-127500000D01*
X325718750Y-141000000D02*
X328668750Y-138050000D01*
X331618750Y-141000000D02*
X344818750Y-141000000D01*
X309618750Y-138000000D02*
X312618750Y-141000000D01*
X347793750Y-138025000D02*
X350768750Y-141000000D01*
X363893750Y-141000000D02*
X366893750Y-138000000D01*
%TO.N,Earth*%
X162070000Y-26515000D02*
X162070000Y-30695000D01*
X153430000Y-26515000D02*
X162070000Y-26515000D01*
X151925000Y-32200000D02*
X153430000Y-30695000D01*
X153430000Y-30695000D02*
X153430000Y-26515000D01*
X151500000Y-32200000D02*
X151925000Y-32200000D01*
%TO.N,COL17MAIN*%
X296590000Y-52000000D02*
X299500000Y-54910000D01*
X271250000Y-51000000D02*
X273250000Y-51000000D01*
X128483950Y-143249862D02*
X128483950Y-143494521D01*
X274250000Y-52000000D02*
X296590000Y-52000000D01*
X127750000Y-141412500D02*
X127750000Y-142515912D01*
X273250000Y-51000000D02*
X274250000Y-52000000D01*
X127750000Y-142515912D02*
X128483950Y-143249862D01*
%TO.N,COL16MAIN*%
X269483532Y-147496000D02*
X268479532Y-148500000D01*
X273011127Y-147496000D02*
X273010127Y-147495000D01*
X129241051Y-143363495D02*
X128250000Y-142372444D01*
X272488873Y-147496000D02*
X269483532Y-147496000D01*
X298630000Y-51500000D02*
X299500000Y-52370000D01*
X128250000Y-142372444D02*
X128250000Y-141412500D01*
X129233950Y-145520884D02*
X129233950Y-145500000D01*
X273000000Y-50000000D02*
X274500000Y-51500000D01*
X271000000Y-50000000D02*
X273000000Y-50000000D01*
X129241051Y-143752983D02*
X129241051Y-143363495D01*
X274500000Y-51500000D02*
X298630000Y-51500000D01*
X273010127Y-147495000D02*
X272489873Y-147495000D01*
X273500000Y-147496000D02*
X273011127Y-147496000D01*
X132213066Y-148500000D02*
X129233950Y-145520884D01*
X268479532Y-148500000D02*
X132213066Y-148500000D01*
X272489873Y-147495000D02*
X272488873Y-147496000D01*
%TO.N,COL15MAIN*%
X273000000Y-49000000D02*
X275000000Y-51000000D01*
X130000000Y-143478976D02*
X128750000Y-142228976D01*
X130000000Y-143500000D02*
X130000000Y-143478976D01*
X128750000Y-142228976D02*
X128750000Y-141412500D01*
X298330000Y-51000000D02*
X299500000Y-49830000D01*
X275000000Y-51000000D02*
X298330000Y-51000000D01*
X270750000Y-49000000D02*
X273000000Y-49000000D01*
%TO.N,COL14MAIN*%
X130750000Y-142912500D02*
X129250000Y-141412500D01*
X296290000Y-50500000D02*
X299500000Y-47290000D01*
X130750000Y-143790887D02*
X130750000Y-142912500D01*
X270500000Y-48000000D02*
X273000000Y-48000000D01*
X273000000Y-48000000D02*
X275500000Y-50500000D01*
X275500000Y-50500000D02*
X296290000Y-50500000D01*
%TD*%
%TA.AperFunction,Conductor*%
%TO.N,GND*%
G36*
X114693039Y-128269685D02*
G01*
X114738794Y-128322489D01*
X114750000Y-128374000D01*
X114750000Y-135750000D01*
X115500000Y-136500000D01*
X119376000Y-136500000D01*
X119384685Y-136502550D01*
X119393647Y-136501262D01*
X119417687Y-136512240D01*
X119443039Y-136519685D01*
X119448966Y-136526525D01*
X119457203Y-136530287D01*
X119471492Y-136552521D01*
X119488794Y-136572489D01*
X119491081Y-136583003D01*
X119494977Y-136589065D01*
X119500000Y-136624000D01*
X119500000Y-136748500D01*
X119480315Y-136815539D01*
X119427511Y-136861294D01*
X119376000Y-136872500D01*
X114511281Y-136872500D01*
X114444242Y-136852815D01*
X114423600Y-136836181D01*
X112686818Y-135099399D01*
X112653333Y-135038076D01*
X112650499Y-135011718D01*
X112650499Y-133699998D01*
X112650498Y-133699981D01*
X112639999Y-133597203D01*
X112639998Y-133597200D01*
X112607786Y-133499991D01*
X112584814Y-133430666D01*
X112492712Y-133281344D01*
X112368656Y-133157288D01*
X112275888Y-133100069D01*
X112219336Y-133065187D01*
X112219331Y-133065185D01*
X112210960Y-133062411D01*
X112052797Y-133010001D01*
X112052795Y-133010000D01*
X111988896Y-133003472D01*
X111986458Y-133002477D01*
X111983853Y-133002852D01*
X111954291Y-132989351D01*
X111924205Y-132977075D01*
X111922692Y-132974920D01*
X111920297Y-132973827D01*
X111902725Y-132946485D01*
X111884054Y-132919894D01*
X111883508Y-132916582D01*
X111882523Y-132915049D01*
X111877500Y-132880114D01*
X111877500Y-132697114D01*
X111897185Y-132630075D01*
X111936404Y-132591575D01*
X112056156Y-132517712D01*
X112180212Y-132393656D01*
X112272314Y-132244334D01*
X112327499Y-132077797D01*
X112338000Y-131975009D01*
X112337999Y-130924992D01*
X112327499Y-130822203D01*
X112272314Y-130655666D01*
X112180212Y-130506344D01*
X112056156Y-130382288D01*
X111906834Y-130290186D01*
X111740297Y-130235001D01*
X111740295Y-130235000D01*
X111637510Y-130224500D01*
X110862498Y-130224500D01*
X110862480Y-130224501D01*
X110759703Y-130235000D01*
X110759700Y-130235001D01*
X110593168Y-130290185D01*
X110593163Y-130290187D01*
X110443842Y-130382289D01*
X110319788Y-130506343D01*
X110319783Y-130506349D01*
X110317741Y-130509661D01*
X110315747Y-130511453D01*
X110315307Y-130512011D01*
X110315211Y-130511935D01*
X110265791Y-130556383D01*
X110196828Y-130567602D01*
X110132747Y-130539755D01*
X110106668Y-130509656D01*
X110104819Y-130506659D01*
X110104816Y-130506655D01*
X109980845Y-130382684D01*
X109831624Y-130290643D01*
X109831619Y-130290641D01*
X109665197Y-130235494D01*
X109665190Y-130235493D01*
X109562486Y-130225000D01*
X109425000Y-130225000D01*
X109425000Y-132674999D01*
X109562472Y-132674999D01*
X109562486Y-132674998D01*
X109665197Y-132664505D01*
X109831619Y-132609358D01*
X109831624Y-132609356D01*
X109980845Y-132517315D01*
X110104818Y-132393342D01*
X110106665Y-132390348D01*
X110108469Y-132388724D01*
X110109298Y-132387677D01*
X110109476Y-132387818D01*
X110158610Y-132343621D01*
X110227573Y-132332396D01*
X110291656Y-132360236D01*
X110317743Y-132390341D01*
X110319788Y-132393656D01*
X110319789Y-132393657D01*
X110443844Y-132517712D01*
X110563596Y-132591575D01*
X110570419Y-132599161D01*
X110579703Y-132603401D01*
X110593391Y-132624701D01*
X110610321Y-132643523D01*
X110612965Y-132655158D01*
X110617477Y-132662179D01*
X110622500Y-132697114D01*
X110622500Y-132880115D01*
X110602815Y-132947154D01*
X110550011Y-132992909D01*
X110511102Y-133003473D01*
X110447202Y-133010001D01*
X110447200Y-133010001D01*
X110280668Y-133065185D01*
X110280659Y-133065189D01*
X110164619Y-133136763D01*
X110097226Y-133155203D01*
X110034426Y-133136763D01*
X109919124Y-133065643D01*
X109919119Y-133065641D01*
X109752697Y-133010494D01*
X109752690Y-133010493D01*
X109649986Y-133000000D01*
X109200000Y-133000000D01*
X109200000Y-134426000D01*
X109180315Y-134493039D01*
X109127511Y-134538794D01*
X109076000Y-134550000D01*
X108950000Y-134550000D01*
X108950000Y-134676000D01*
X108930315Y-134743039D01*
X108877511Y-134788794D01*
X108826000Y-134800000D01*
X107550001Y-134800000D01*
X107550001Y-135399986D01*
X107560494Y-135502697D01*
X107615641Y-135669119D01*
X107615643Y-135669124D01*
X107707684Y-135818345D01*
X107801304Y-135911965D01*
X107834789Y-135973288D01*
X107829805Y-136042980D01*
X107801305Y-136087327D01*
X107707287Y-136181345D01*
X107615187Y-136330663D01*
X107615186Y-136330666D01*
X107560001Y-136497203D01*
X107560001Y-136497204D01*
X107560000Y-136497204D01*
X107549500Y-136599983D01*
X107549500Y-138300001D01*
X107549501Y-138300018D01*
X107560000Y-138402796D01*
X107560001Y-138402799D01*
X107588039Y-138487411D01*
X107615186Y-138569334D01*
X107707288Y-138718656D01*
X107831344Y-138842712D01*
X107980666Y-138934814D01*
X108147203Y-138989999D01*
X108211092Y-138996526D01*
X108211102Y-138996527D01*
X108275794Y-139022923D01*
X108315946Y-139080104D01*
X108322500Y-139119885D01*
X108322500Y-139966781D01*
X108304039Y-140031877D01*
X108227689Y-140155659D01*
X108227686Y-140155666D01*
X108172501Y-140322203D01*
X108172501Y-140322204D01*
X108172500Y-140322204D01*
X108162000Y-140424983D01*
X108162000Y-141475001D01*
X108162001Y-141475019D01*
X108172500Y-141577796D01*
X108172501Y-141577799D01*
X108227685Y-141744331D01*
X108227687Y-141744336D01*
X108260314Y-141797233D01*
X108319788Y-141893656D01*
X108443844Y-142017712D01*
X108593166Y-142109814D01*
X108759703Y-142164999D01*
X108862491Y-142175500D01*
X109536717Y-142175499D01*
X109603756Y-142195183D01*
X109624398Y-142211818D01*
X109966488Y-142553908D01*
X109966492Y-142553911D01*
X110069260Y-142622579D01*
X110069273Y-142622586D01*
X110183460Y-142669883D01*
X110183465Y-142669885D01*
X110183469Y-142669885D01*
X110183470Y-142669886D01*
X110304693Y-142694000D01*
X110304696Y-142694000D01*
X112070304Y-142694000D01*
X112070305Y-142693999D01*
X112191535Y-142669886D01*
X112272284Y-142636437D01*
X112305733Y-142622583D01*
X112408508Y-142553911D01*
X112495911Y-142466508D01*
X113062411Y-141900008D01*
X113077992Y-141876689D01*
X113131083Y-141797233D01*
X113145050Y-141763513D01*
X113178386Y-141683035D01*
X113202500Y-141561803D01*
X113202500Y-141438197D01*
X113202500Y-140356281D01*
X113222185Y-140289242D01*
X113238819Y-140268600D01*
X114843600Y-138663819D01*
X114904923Y-138630334D01*
X114931281Y-138627500D01*
X119376000Y-138627500D01*
X119384685Y-138630050D01*
X119393647Y-138628762D01*
X119417687Y-138639740D01*
X119443039Y-138647185D01*
X119448966Y-138654025D01*
X119457203Y-138657787D01*
X119471492Y-138680021D01*
X119488794Y-138699989D01*
X119491081Y-138710503D01*
X119494977Y-138716565D01*
X119500000Y-138751500D01*
X119500000Y-138876000D01*
X119480315Y-138943039D01*
X119427511Y-138988794D01*
X119376000Y-139000000D01*
X115499999Y-139000000D01*
X114750000Y-139749999D01*
X114750000Y-144748500D01*
X114730315Y-144815539D01*
X114677511Y-144861294D01*
X114626000Y-144872500D01*
X107923862Y-144872500D01*
X107856823Y-144852815D01*
X107836181Y-144836181D01*
X105536319Y-142536319D01*
X105502834Y-142474996D01*
X105500000Y-142448638D01*
X105500000Y-133700013D01*
X107550000Y-133700013D01*
X107550000Y-134300000D01*
X108700000Y-134300000D01*
X108700000Y-133000000D01*
X108250028Y-133000000D01*
X108250012Y-133000001D01*
X108147302Y-133010494D01*
X107980880Y-133065641D01*
X107980875Y-133065643D01*
X107831654Y-133157684D01*
X107707684Y-133281654D01*
X107615643Y-133430875D01*
X107615641Y-133430880D01*
X107560494Y-133597302D01*
X107560493Y-133597309D01*
X107550000Y-133700013D01*
X105500000Y-133700013D01*
X105500000Y-131974986D01*
X108087501Y-131974986D01*
X108097994Y-132077697D01*
X108153141Y-132244119D01*
X108153143Y-132244124D01*
X108245184Y-132393345D01*
X108369154Y-132517315D01*
X108518375Y-132609356D01*
X108518380Y-132609358D01*
X108684802Y-132664505D01*
X108684809Y-132664506D01*
X108787519Y-132674999D01*
X108924999Y-132674999D01*
X108925000Y-132674998D01*
X108925000Y-131700000D01*
X108087501Y-131700000D01*
X108087501Y-131974986D01*
X105500000Y-131974986D01*
X105500000Y-130925013D01*
X108087500Y-130925013D01*
X108087500Y-131200000D01*
X108925000Y-131200000D01*
X108925000Y-130225000D01*
X108787527Y-130225000D01*
X108787512Y-130225001D01*
X108684802Y-130235494D01*
X108518380Y-130290641D01*
X108518375Y-130290643D01*
X108369154Y-130382684D01*
X108245184Y-130506654D01*
X108153143Y-130655875D01*
X108153141Y-130655880D01*
X108097994Y-130822302D01*
X108097993Y-130822309D01*
X108087500Y-130925013D01*
X105500000Y-130925013D01*
X105500000Y-128374000D01*
X105519685Y-128306961D01*
X105572489Y-128261206D01*
X105624000Y-128250000D01*
X114626000Y-128250000D01*
X114693039Y-128269685D01*
G37*
%TD.AperFunction*%
%TA.AperFunction,Conductor*%
G36*
X112855202Y-137043067D02*
G01*
X112861680Y-137049099D01*
X113684900Y-137872319D01*
X113718385Y-137933642D01*
X113713401Y-138003334D01*
X113684900Y-138047681D01*
X112178550Y-139554030D01*
X112178544Y-139554036D01*
X112174992Y-139557589D01*
X112087589Y-139644992D01*
X112037198Y-139720406D01*
X112032563Y-139725863D01*
X112009098Y-139741268D01*
X111987554Y-139759273D01*
X111980281Y-139760186D01*
X111974156Y-139764208D01*
X111946082Y-139764481D01*
X111918229Y-139767980D01*
X111905564Y-139764876D01*
X111904290Y-139764889D01*
X111903444Y-139764357D01*
X111899061Y-139763283D01*
X111815201Y-139735495D01*
X111815190Y-139735493D01*
X111712486Y-139725000D01*
X111575000Y-139725000D01*
X111575000Y-140826000D01*
X111555315Y-140893039D01*
X111502511Y-140938794D01*
X111451000Y-140950000D01*
X111199000Y-140950000D01*
X111131961Y-140930315D01*
X111086206Y-140877511D01*
X111075000Y-140826000D01*
X111075000Y-139725000D01*
X110937527Y-139725000D01*
X110937512Y-139725001D01*
X110834802Y-139735494D01*
X110668380Y-139790641D01*
X110668375Y-139790643D01*
X110519154Y-139882684D01*
X110395183Y-140006655D01*
X110395179Y-140006660D01*
X110393326Y-140009665D01*
X110391518Y-140011290D01*
X110390702Y-140012323D01*
X110390525Y-140012183D01*
X110341374Y-140056385D01*
X110272411Y-140067601D01*
X110208331Y-140039752D01*
X110182253Y-140009653D01*
X110182237Y-140009628D01*
X110180212Y-140006344D01*
X110056156Y-139882288D01*
X109906834Y-139790186D01*
X109740297Y-139735001D01*
X109740295Y-139735000D01*
X109688896Y-139729749D01*
X109624204Y-139703352D01*
X109584054Y-139646170D01*
X109577500Y-139606391D01*
X109577500Y-139119884D01*
X109597185Y-139052845D01*
X109649989Y-139007090D01*
X109688897Y-138996526D01*
X109752797Y-138989999D01*
X109919334Y-138934814D01*
X110035382Y-138863234D01*
X110102771Y-138844796D01*
X110165573Y-138863237D01*
X110280869Y-138934353D01*
X110280880Y-138934358D01*
X110447302Y-138989505D01*
X110447309Y-138989506D01*
X110550019Y-138999999D01*
X110999999Y-138999999D01*
X111500000Y-138999999D01*
X111949972Y-138999999D01*
X111949986Y-138999998D01*
X112052697Y-138989505D01*
X112219119Y-138934358D01*
X112219124Y-138934356D01*
X112368345Y-138842315D01*
X112492315Y-138718345D01*
X112584356Y-138569124D01*
X112584358Y-138569119D01*
X112639505Y-138402697D01*
X112639506Y-138402690D01*
X112649999Y-138299986D01*
X112650000Y-138299973D01*
X112650000Y-137700000D01*
X111500000Y-137700000D01*
X111500000Y-138999999D01*
X110999999Y-138999999D01*
X111000000Y-138999998D01*
X111000000Y-137574000D01*
X111019685Y-137506961D01*
X111072489Y-137461206D01*
X111124000Y-137450000D01*
X111250000Y-137450000D01*
X111250000Y-137324000D01*
X111269685Y-137256961D01*
X111322489Y-137211206D01*
X111374000Y-137200000D01*
X112649999Y-137200000D01*
X112649999Y-137136780D01*
X112669684Y-137069741D01*
X112722488Y-137023986D01*
X112791646Y-137014042D01*
X112855202Y-137043067D01*
G37*
%TD.AperFunction*%
%TD*%
M02*
