%TF.GenerationSoftware,KiCad,Pcbnew,9.0.6*%
%TF.CreationDate,2026-04-06T12:21:19-04:00*%
%TF.ProjectId,new-keyboard-pcb,6e65772d-6b65-4796-926f-6172642d7063,rev?*%
%TF.SameCoordinates,Original*%
%TF.FileFunction,Soldermask,Bot*%
%TF.FilePolarity,Negative*%
%FSLAX46Y46*%
G04 Gerber Fmt 4.6, Leading zero omitted, Abs format (unit mm)*
G04 Created by KiCad (PCBNEW 9.0.6) date 2026-04-06 12:21:19*
%MOMM*%
%LPD*%
G01*
G04 APERTURE LIST*
G04 Aperture macros list*
%AMRoundRect*
0 Rectangle with rounded corners*
0 $1 Rounding radius*
0 $2 $3 $4 $5 $6 $7 $8 $9 X,Y pos of 4 corners*
0 Add a 4 corners polygon primitive as box body*
4,1,4,$2,$3,$4,$5,$6,$7,$8,$9,$2,$3,0*
0 Add four circle primitives for the rounded corners*
1,1,$1+$1,$2,$3*
1,1,$1+$1,$4,$5*
1,1,$1+$1,$6,$7*
1,1,$1+$1,$8,$9*
0 Add four rect primitives between the rounded corners*
20,1,$1+$1,$2,$3,$4,$5,0*
20,1,$1+$1,$4,$5,$6,$7,0*
20,1,$1+$1,$6,$7,$8,$9,0*
20,1,$1+$1,$8,$9,$2,$3,0*%
G04 Aperture macros list end*
%ADD10C,2.200000*%
%ADD11R,1.500000X1.500000*%
%ADD12C,1.500000*%
%ADD13C,3.000000*%
%ADD14C,5.000000*%
%ADD15O,1.500000X2.000000*%
%ADD16RoundRect,0.200000X-1.100000X-1.100000X1.100000X-1.100000X1.100000X1.100000X-1.100000X1.100000X0*%
%ADD17RoundRect,0.250000X0.450000X-0.325000X0.450000X0.325000X-0.450000X0.325000X-0.450000X-0.325000X0*%
%ADD18RoundRect,0.250000X-0.337500X-0.475000X0.337500X-0.475000X0.337500X0.475000X-0.337500X0.475000X0*%
%ADD19RoundRect,0.250000X0.350000X0.450000X-0.350000X0.450000X-0.350000X-0.450000X0.350000X-0.450000X0*%
%ADD20RoundRect,0.250000X-0.325000X-0.450000X0.325000X-0.450000X0.325000X0.450000X-0.325000X0.450000X0*%
%ADD21C,0.650000*%
%ADD22R,0.600000X2.450000*%
%ADD23R,0.300000X2.450000*%
%ADD24RoundRect,0.150000X0.512500X0.150000X-0.512500X0.150000X-0.512500X-0.150000X0.512500X-0.150000X0*%
%ADD25RoundRect,0.250000X-0.475000X0.337500X-0.475000X-0.337500X0.475000X-0.337500X0.475000X0.337500X0*%
%ADD26RoundRect,0.250000X0.337500X0.475000X-0.337500X0.475000X-0.337500X-0.475000X0.337500X-0.475000X0*%
%ADD27R,1.100000X1.800000*%
%ADD28R,0.700000X0.600000*%
%ADD29R,0.700000X1.000000*%
%ADD30O,2.000000X1.500000*%
%ADD31RoundRect,0.200000X-1.100000X1.100000X-1.100000X-1.100000X1.100000X-1.100000X1.100000X1.100000X0*%
%ADD32RoundRect,0.250000X-0.350000X-0.450000X0.350000X-0.450000X0.350000X0.450000X-0.350000X0.450000X0*%
%ADD33RoundRect,0.250000X-0.650000X0.800000X-0.650000X-0.800000X0.650000X-0.800000X0.650000X0.800000X0*%
%ADD34RoundRect,0.250000X0.475000X-0.337500X0.475000X0.337500X-0.475000X0.337500X-0.475000X-0.337500X0*%
%ADD35RoundRect,0.250001X-0.624999X0.462499X-0.624999X-0.462499X0.624999X-0.462499X0.624999X0.462499X0*%
%ADD36RoundRect,0.250000X-0.350000X0.275000X-0.350000X-0.275000X0.350000X-0.275000X0.350000X0.275000X0*%
%ADD37RoundRect,0.075000X-0.662500X-0.075000X0.662500X-0.075000X0.662500X0.075000X-0.662500X0.075000X0*%
%ADD38RoundRect,0.075000X-0.075000X-0.662500X0.075000X-0.662500X0.075000X0.662500X-0.075000X0.662500X0*%
%ADD39R,1.700000X1.700000*%
%ADD40C,1.700000*%
G04 APERTURE END LIST*
D10*
%TO.C,REF\u002A\u002A*%
X19500000Y-89500000D03*
%TD*%
%TO.C,REF\u002A\u002A*%
X27750000Y-147000000D03*
%TD*%
%TO.C,REF\u002A\u002A*%
X77250000Y-127500000D03*
%TD*%
%TO.C,REF\u002A\u002A*%
X120000000Y-89500000D03*
%TD*%
%TO.C,REF\u002A\u002A*%
X280500000Y-146000000D03*
%TD*%
%TO.C,REF\u002A\u002A*%
X280000000Y-90000000D03*
%TD*%
%TO.C,REF\u002A\u002A*%
X213000000Y-137500000D03*
%TD*%
%TO.C,REF\u002A\u002A*%
X214500000Y-89250000D03*
%TD*%
%TO.C,REF\u002A\u002A*%
X214750000Y-50250000D03*
%TD*%
%TO.C,REF\u002A\u002A*%
X119500000Y-50750000D03*
%TD*%
%TO.C,REF\u002A\u002A*%
X19000000Y-48000000D03*
%TD*%
%TO.C,REF\u002A\u002A*%
X275500000Y-38500000D03*
%TD*%
%TO.C,REF\u002A\u002A*%
X326000000Y-52000000D03*
%TD*%
%TO.C,REF\u002A\u002A*%
X373000000Y-53500000D03*
%TD*%
%TO.C,REF\u002A\u002A*%
X325500000Y-89500000D03*
%TD*%
%TO.C,REF\u002A\u002A*%
X370500000Y-82000000D03*
%TD*%
%TO.C,REF\u002A\u002A*%
X371000000Y-124500000D03*
%TD*%
%TO.C,REF\u002A\u002A*%
X313500000Y-122500000D03*
%TD*%
D11*
%TO.C,J3*%
X306743750Y-117340000D03*
D12*
X306743750Y-119880000D03*
X306743750Y-122420000D03*
X306743750Y-124960000D03*
X306743750Y-127500000D03*
%TD*%
D11*
%TO.C,J4*%
X299500000Y-44750000D03*
D12*
X299500000Y-47290000D03*
X299500000Y-49830000D03*
X299500000Y-52370000D03*
X299500000Y-54910000D03*
%TD*%
D11*
%TO.C,J5*%
X306743750Y-44750000D03*
D12*
X306743750Y-47290000D03*
X306743750Y-49830000D03*
X306743750Y-52370000D03*
X306743750Y-54910000D03*
%TD*%
D11*
%TO.C,J2*%
X299500000Y-117340000D03*
D12*
X299500000Y-119880000D03*
X299500000Y-122420000D03*
X299500000Y-124960000D03*
X299500000Y-127500000D03*
%TD*%
D13*
%TO.C,SW20*%
X48350000Y-57400000D03*
X43350000Y-55200000D03*
D14*
X43350000Y-61200000D03*
D15*
X38350000Y-66350000D03*
D16*
X51925000Y-57400000D03*
X39775000Y-55200000D03*
%TD*%
D17*
%TO.C,D65*%
X241450000Y-100100000D03*
X241450000Y-98050000D03*
%TD*%
%TO.C,D67*%
X281975000Y-100075000D03*
X281975000Y-98025000D03*
%TD*%
D13*
%TO.C,SW92*%
X231700000Y-133600000D03*
X226700000Y-131400000D03*
D14*
X226700000Y-137400000D03*
D15*
X221700000Y-142550000D03*
D16*
X235275000Y-133600000D03*
X223125000Y-131400000D03*
%TD*%
D13*
%TO.C,SW66*%
X272200000Y-95500000D03*
X267200000Y-93300000D03*
D14*
X267200000Y-99300000D03*
D15*
X262200000Y-104450000D03*
D16*
X275775000Y-95500000D03*
X263625000Y-93300000D03*
%TD*%
D13*
%TO.C,SW64*%
X234050000Y-95500000D03*
X229050000Y-93300000D03*
D14*
X229050000Y-99300000D03*
D15*
X224050000Y-104450000D03*
D16*
X237625000Y-95500000D03*
X225475000Y-93300000D03*
%TD*%
D13*
%TO.C,SW38*%
X76900000Y-76450000D03*
X71900000Y-74250000D03*
D14*
X71900000Y-80250000D03*
D15*
X66900000Y-85400000D03*
D16*
X80475000Y-76450000D03*
X68325000Y-74250000D03*
%TD*%
D17*
%TO.C,D49*%
X279675000Y-81100000D03*
X279675000Y-79050000D03*
%TD*%
%TO.C,D54*%
X25075000Y-100100000D03*
X25075000Y-98050000D03*
%TD*%
%TO.C,D69*%
X328706250Y-100025000D03*
X328706250Y-97975000D03*
%TD*%
D18*
%TO.C,C5*%
X120175000Y-143250000D03*
X122250000Y-143250000D03*
%TD*%
D17*
%TO.C,D18*%
X366993750Y-43025000D03*
X366993750Y-40975000D03*
%TD*%
D13*
%TO.C,SW58*%
X119750000Y-95500000D03*
X114750000Y-93300000D03*
D14*
X114750000Y-99300000D03*
D15*
X109750000Y-104450000D03*
D16*
X123325000Y-95500000D03*
X111175000Y-93300000D03*
%TD*%
D13*
%TO.C,SW12*%
X248350000Y-38350000D03*
X243350000Y-36150000D03*
D14*
X243350000Y-42150000D03*
D15*
X238350000Y-47300000D03*
D16*
X251925000Y-38350000D03*
X239775000Y-36150000D03*
%TD*%
D17*
%TO.C,D81*%
X194200000Y-119100000D03*
X194200000Y-117050000D03*
%TD*%
%TO.C,D93*%
X241475000Y-138075000D03*
X241475000Y-136025000D03*
%TD*%
D13*
%TO.C,SW4*%
X95937500Y-38350000D03*
X90937500Y-36150000D03*
D14*
X90937500Y-42150000D03*
D15*
X85937500Y-47300000D03*
D16*
X99512500Y-38350000D03*
X87362500Y-36150000D03*
%TD*%
D17*
%TO.C,D45*%
X198750000Y-81100000D03*
X198750000Y-79050000D03*
%TD*%
%TO.C,D1*%
X22275000Y-43075000D03*
X22275000Y-41025000D03*
%TD*%
D13*
%TO.C,SW39*%
X95900000Y-76450000D03*
X90900000Y-74250000D03*
D14*
X90900000Y-80250000D03*
D15*
X85900000Y-85400000D03*
D16*
X99475000Y-76450000D03*
X87325000Y-74250000D03*
%TD*%
D13*
%TO.C,SW25*%
X143587500Y-57400000D03*
X138587500Y-55200000D03*
D14*
X138587500Y-61200000D03*
D15*
X133587500Y-66350000D03*
D16*
X147162500Y-57400000D03*
X135012500Y-55200000D03*
%TD*%
D17*
%TO.C,D27*%
X170100000Y-62100000D03*
X170100000Y-60050000D03*
%TD*%
%TO.C,D95*%
X284175000Y-138075000D03*
X284175000Y-136025000D03*
%TD*%
D19*
%TO.C,R4*%
X155550000Y-34850000D03*
X153550000Y-34850000D03*
%TD*%
D17*
%TO.C,D75*%
X79575000Y-119100000D03*
X79575000Y-117050000D03*
%TD*%
%TO.C,D98*%
X347793750Y-138025000D03*
X347793750Y-135975000D03*
%TD*%
D20*
%TO.C,D71*%
X371918750Y-102500000D03*
X373968750Y-102500000D03*
%TD*%
D17*
%TO.C,D12*%
X236900000Y-43100000D03*
X236900000Y-41050000D03*
%TD*%
D21*
%TO.C,USB1*%
X154860000Y-30165000D03*
X160640000Y-30165000D03*
D22*
X154525000Y-32110000D03*
X155300000Y-32110000D03*
D23*
X156000000Y-32110000D03*
X156500000Y-32110000D03*
X157000000Y-32110000D03*
X157500000Y-32110000D03*
X158000000Y-32110000D03*
X158500000Y-32110000D03*
X159000000Y-32110000D03*
X159500000Y-32110000D03*
D22*
X160200000Y-32110000D03*
X160975000Y-32110000D03*
%TD*%
D13*
%TO.C,SW59*%
X138850000Y-95500000D03*
X133850000Y-93300000D03*
D14*
X133850000Y-99300000D03*
D15*
X128850000Y-104450000D03*
D16*
X142425000Y-95500000D03*
X130275000Y-93300000D03*
%TD*%
D17*
%TO.C,D84*%
X267500000Y-119075000D03*
X267500000Y-117025000D03*
%TD*%
%TO.C,D96*%
X309618750Y-138000000D03*
X309618750Y-135950000D03*
%TD*%
D13*
%TO.C,SW81*%
X205475000Y-114550000D03*
X200475000Y-112350000D03*
D14*
X200475000Y-118350000D03*
D15*
X195475000Y-123500000D03*
D16*
X209050000Y-114550000D03*
X196900000Y-112350000D03*
%TD*%
D19*
%TO.C,R2*%
X137500000Y-139750000D03*
X135500000Y-139750000D03*
%TD*%
D13*
%TO.C,SW65*%
X253100000Y-95500000D03*
X248100000Y-93300000D03*
D14*
X248100000Y-99300000D03*
D15*
X243100000Y-104450000D03*
D16*
X256675000Y-95500000D03*
X244525000Y-93300000D03*
%TD*%
D17*
%TO.C,D16*%
X328743750Y-43025000D03*
X328743750Y-40975000D03*
%TD*%
%TO.C,D32*%
X274625000Y-62075000D03*
X274625000Y-60025000D03*
%TD*%
%TO.C,D35*%
X347843750Y-62025000D03*
X347843750Y-59975000D03*
%TD*%
%TO.C,D13*%
X256000000Y-43075000D03*
X256000000Y-41025000D03*
%TD*%
%TO.C,D7*%
X143200000Y-43525000D03*
X143200000Y-41475000D03*
%TD*%
%TO.C,D50*%
X311993750Y-81025000D03*
X311993750Y-78975000D03*
%TD*%
%TO.C,D43*%
X160512500Y-81100000D03*
X160512500Y-79050000D03*
%TD*%
D13*
%TO.C,SW57*%
X100700000Y-95500000D03*
X95700000Y-93300000D03*
D14*
X95700000Y-99300000D03*
D15*
X90700000Y-104450000D03*
D16*
X104275000Y-95500000D03*
X92125000Y-93300000D03*
%TD*%
D13*
%TO.C,SW97*%
X340093750Y-133550000D03*
X335093750Y-131350000D03*
D14*
X335093750Y-137350000D03*
D15*
X330093750Y-142500000D03*
D16*
X343668750Y-133550000D03*
X331518750Y-131350000D03*
%TD*%
D17*
%TO.C,D4*%
X84312500Y-43075000D03*
X84312500Y-41025000D03*
%TD*%
%TO.C,D20*%
X36900000Y-62075000D03*
X36900000Y-60025000D03*
%TD*%
%TO.C,D64*%
X222350000Y-100100000D03*
X222350000Y-98050000D03*
%TD*%
%TO.C,D97*%
X328668750Y-138050000D03*
X328668750Y-136000000D03*
%TD*%
D13*
%TO.C,SW76*%
X110250000Y-114550000D03*
X105250000Y-112350000D03*
D14*
X105250000Y-118350000D03*
D15*
X100250000Y-123500000D03*
D16*
X113825000Y-114550000D03*
X101675000Y-112350000D03*
%TD*%
D24*
%TO.C,U3*%
X142137500Y-141550000D03*
X142137500Y-142500000D03*
X142137500Y-143450000D03*
X139862500Y-143450000D03*
X139862500Y-141550000D03*
%TD*%
D17*
%TO.C,D83*%
X232425000Y-119075000D03*
X232425000Y-117025000D03*
%TD*%
%TO.C,D42*%
X141850000Y-81075000D03*
X141850000Y-79025000D03*
%TD*%
D13*
%TO.C,SW11*%
X229300000Y-38350000D03*
X224300000Y-36150000D03*
D14*
X224300000Y-42150000D03*
D15*
X219300000Y-47300000D03*
D16*
X232875000Y-38350000D03*
X220725000Y-36150000D03*
%TD*%
D17*
%TO.C,D92*%
X220125000Y-138100000D03*
X220125000Y-136050000D03*
%TD*%
D20*
%TO.C,D53*%
X372293750Y-64100000D03*
X374343750Y-64100000D03*
%TD*%
D17*
%TO.C,D47*%
X236925000Y-81075000D03*
X236925000Y-79025000D03*
%TD*%
D13*
%TO.C,SW90*%
X88825000Y-133600000D03*
X83825000Y-131400000D03*
D14*
X83825000Y-137400000D03*
D15*
X78825000Y-142550000D03*
D16*
X92400000Y-133600000D03*
X80250000Y-131400000D03*
%TD*%
D17*
%TO.C,D76*%
X98725000Y-119100000D03*
X98725000Y-117050000D03*
%TD*%
%TO.C,D6*%
X122312500Y-43050000D03*
X122312500Y-41000000D03*
%TD*%
D13*
%TO.C,SW3*%
X76887500Y-38350000D03*
X71887500Y-36150000D03*
D14*
X71887500Y-42150000D03*
D15*
X66887500Y-47300000D03*
D16*
X80462500Y-38350000D03*
X68312500Y-36150000D03*
%TD*%
D13*
%TO.C,SW40*%
X115000000Y-76450000D03*
X110000000Y-74250000D03*
D14*
X110000000Y-80250000D03*
D15*
X105000000Y-85400000D03*
D16*
X118575000Y-76450000D03*
X106425000Y-74250000D03*
%TD*%
D17*
%TO.C,D88*%
X36850000Y-138075000D03*
X36850000Y-136025000D03*
%TD*%
D25*
%TO.C,C4*%
X132500000Y-130425000D03*
X132500000Y-132500000D03*
%TD*%
D13*
%TO.C,SW56*%
X81700000Y-95500000D03*
X76700000Y-93300000D03*
D14*
X76700000Y-99300000D03*
D15*
X71700000Y-104450000D03*
D16*
X85275000Y-95500000D03*
X73125000Y-93300000D03*
%TD*%
D13*
%TO.C,SW37*%
X57850000Y-76450000D03*
X52850000Y-74250000D03*
D14*
X52850000Y-80250000D03*
D15*
X47850000Y-85400000D03*
D16*
X61425000Y-76450000D03*
X49275000Y-74250000D03*
%TD*%
D13*
%TO.C,SW91*%
X160250000Y-133600000D03*
X155250000Y-131400000D03*
D14*
X155250000Y-137400000D03*
D15*
X150250000Y-142550000D03*
D16*
X163825000Y-133600000D03*
X151675000Y-131400000D03*
%TD*%
D13*
%TO.C,SW74*%
X72150000Y-114550000D03*
X67150000Y-112350000D03*
D14*
X67150000Y-118350000D03*
D15*
X62150000Y-123500000D03*
D16*
X75725000Y-114550000D03*
X63575000Y-112350000D03*
%TD*%
D26*
%TO.C,C7*%
X146537500Y-140500000D03*
X144462500Y-140500000D03*
%TD*%
D17*
%TO.C,D91*%
X148725000Y-135525000D03*
X148725000Y-133475000D03*
%TD*%
%TO.C,D39*%
X84062500Y-81075000D03*
X84062500Y-79025000D03*
%TD*%
D19*
%TO.C,R5*%
X134000000Y-144750000D03*
X132000000Y-144750000D03*
%TD*%
D17*
%TO.C,D62*%
X184650000Y-100100000D03*
X184650000Y-98050000D03*
%TD*%
D13*
%TO.C,SW31*%
X257887500Y-57400000D03*
X252887500Y-55200000D03*
D14*
X252887500Y-61200000D03*
D15*
X247887500Y-66350000D03*
D16*
X261462500Y-57400000D03*
X249312500Y-55200000D03*
%TD*%
D13*
%TO.C,SW95*%
X295950000Y-133600000D03*
X290950000Y-131400000D03*
D14*
X290950000Y-137400000D03*
D15*
X285950000Y-142550000D03*
D16*
X299525000Y-133600000D03*
X287375000Y-131400000D03*
%TD*%
D27*
%TO.C,SW100*%
X183850000Y-142350000D03*
X180150000Y-136150000D03*
X180150000Y-142350000D03*
X183850000Y-136150000D03*
%TD*%
D13*
%TO.C,SW51*%
X340143750Y-76400000D03*
X335143750Y-74200000D03*
D14*
X335143750Y-80200000D03*
D15*
X330143750Y-85350000D03*
D16*
X343718750Y-76400000D03*
X331568750Y-74200000D03*
%TD*%
D17*
%TO.C,D99*%
X366893750Y-138000000D03*
X366893750Y-135950000D03*
%TD*%
D13*
%TO.C,SW47*%
X248350000Y-76450000D03*
X243350000Y-74250000D03*
D14*
X243350000Y-80250000D03*
D15*
X238350000Y-85400000D03*
D16*
X251925000Y-76450000D03*
X239775000Y-74250000D03*
%TD*%
D28*
%TO.C,U1*%
X156000000Y-44950000D03*
X158000000Y-44950000D03*
X156000000Y-43050000D03*
D29*
X158000000Y-43250000D03*
%TD*%
D13*
%TO.C,SW71*%
X377043750Y-113775000D03*
X379243750Y-108775000D03*
D14*
X373243750Y-108775000D03*
D30*
X368093750Y-103775000D03*
D31*
X377043750Y-117350000D03*
X379243750Y-105200000D03*
%TD*%
D32*
%TO.C,R6*%
X117500000Y-134000000D03*
X119500000Y-134000000D03*
%TD*%
D13*
%TO.C,SW6*%
X134037500Y-38350000D03*
X129037500Y-36150000D03*
D14*
X129037500Y-42150000D03*
D15*
X124037500Y-47300000D03*
D16*
X137612500Y-38350000D03*
X125462500Y-36150000D03*
%TD*%
D33*
%TO.C,Y1*%
X111250000Y-134550000D03*
X111250000Y-137450000D03*
X108950000Y-137450000D03*
X108950000Y-134550000D03*
%TD*%
D13*
%TO.C,SW23*%
X105500000Y-57400000D03*
X100500000Y-55200000D03*
D14*
X100500000Y-61200000D03*
D15*
X95500000Y-66350000D03*
D16*
X109075000Y-57400000D03*
X96925000Y-55200000D03*
%TD*%
D17*
%TO.C,D72*%
X20025000Y-119100000D03*
X20025000Y-117050000D03*
%TD*%
D13*
%TO.C,SW68*%
X321093750Y-95450000D03*
X316093750Y-93250000D03*
D14*
X316093750Y-99250000D03*
D15*
X311093750Y-104400000D03*
D16*
X324668750Y-95450000D03*
X312518750Y-93250000D03*
%TD*%
D13*
%TO.C,SW24*%
X124550000Y-57400000D03*
X119550000Y-55200000D03*
D14*
X119550000Y-61200000D03*
D15*
X114550000Y-66350000D03*
D16*
X128125000Y-57400000D03*
X115975000Y-55200000D03*
%TD*%
D13*
%TO.C,SW53*%
X377043750Y-75675000D03*
X379243750Y-70675000D03*
D14*
X373243750Y-70675000D03*
D30*
X368093750Y-65675000D03*
D31*
X377043750Y-79250000D03*
X379243750Y-67100000D03*
%TD*%
D17*
%TO.C,D37*%
X46400000Y-81100000D03*
X46400000Y-79050000D03*
%TD*%
%TO.C,D33*%
X310993750Y-62000000D03*
X310993750Y-59950000D03*
%TD*%
%TO.C,D21*%
X56062500Y-62075000D03*
X56062500Y-60025000D03*
%TD*%
%TO.C,D38*%
X65012500Y-81075000D03*
X65012500Y-79025000D03*
%TD*%
D19*
%TO.C,R1*%
X137500000Y-137250000D03*
X135500000Y-137250000D03*
%TD*%
D17*
%TO.C,D36*%
X22275000Y-81075000D03*
X22275000Y-79025000D03*
%TD*%
D13*
%TO.C,SW8*%
X172137500Y-38350000D03*
X167137500Y-36150000D03*
D14*
X167137500Y-42150000D03*
D15*
X162137500Y-47300000D03*
D16*
X175712500Y-38350000D03*
X163562500Y-36150000D03*
%TD*%
D17*
%TO.C,D80*%
X175125000Y-119075000D03*
X175125000Y-117025000D03*
%TD*%
D13*
%TO.C,SW2*%
X57850000Y-38350000D03*
X52850000Y-36150000D03*
D14*
X52850000Y-42150000D03*
D15*
X47850000Y-47300000D03*
D16*
X61425000Y-38350000D03*
X49275000Y-36150000D03*
%TD*%
D17*
%TO.C,D26*%
X151025000Y-62075000D03*
X151025000Y-60025000D03*
%TD*%
%TO.C,D94*%
X262825000Y-138075000D03*
X262825000Y-136025000D03*
%TD*%
D26*
%TO.C,C8*%
X137500000Y-142750000D03*
X135425000Y-142750000D03*
%TD*%
D13*
%TO.C,SW63*%
X215000000Y-95500000D03*
X210000000Y-93300000D03*
D14*
X210000000Y-99300000D03*
D15*
X205000000Y-104450000D03*
D16*
X218575000Y-95500000D03*
X206425000Y-93300000D03*
%TD*%
D13*
%TO.C,SW19*%
X29287500Y-57400000D03*
X24287500Y-55200000D03*
D14*
X24287500Y-61200000D03*
D15*
X19287500Y-66350000D03*
D16*
X32862500Y-57400000D03*
X20712500Y-55200000D03*
%TD*%
D17*
%TO.C,D34*%
X328743750Y-62025000D03*
X328743750Y-59975000D03*
%TD*%
%TO.C,D2*%
X46412500Y-43075000D03*
X46412500Y-41025000D03*
%TD*%
%TO.C,D19*%
X17787500Y-62100000D03*
X17787500Y-60050000D03*
%TD*%
D34*
%TO.C,C3*%
X117250000Y-131825000D03*
X117250000Y-129750000D03*
%TD*%
D13*
%TO.C,SW88*%
X48300000Y-133600000D03*
X43300000Y-131400000D03*
D14*
X43300000Y-137400000D03*
D15*
X38300000Y-142550000D03*
D16*
X51875000Y-133600000D03*
X39725000Y-131400000D03*
%TD*%
D13*
%TO.C,SW67*%
X293625000Y-95500000D03*
X288625000Y-93300000D03*
D14*
X288625000Y-99300000D03*
D15*
X283625000Y-104450000D03*
D16*
X297200000Y-95500000D03*
X285050000Y-93300000D03*
%TD*%
D17*
%TO.C,D56*%
X70100000Y-100075000D03*
X70100000Y-98025000D03*
%TD*%
D13*
%TO.C,SW17*%
X359193750Y-38300000D03*
X354193750Y-36100000D03*
D14*
X354193750Y-42100000D03*
D15*
X349193750Y-47250000D03*
D16*
X362768750Y-38300000D03*
X350618750Y-36100000D03*
%TD*%
D13*
%TO.C,SW93*%
X253150000Y-133600000D03*
X248150000Y-131400000D03*
D14*
X248150000Y-137400000D03*
D15*
X243150000Y-142550000D03*
D16*
X256725000Y-133600000D03*
X244575000Y-131400000D03*
%TD*%
D13*
%TO.C,SW32*%
X286450000Y-57400000D03*
X281450000Y-55200000D03*
D14*
X281450000Y-61200000D03*
D15*
X276450000Y-66350000D03*
D16*
X290025000Y-57400000D03*
X277875000Y-55200000D03*
%TD*%
D17*
%TO.C,D77*%
X117825000Y-119075000D03*
X117825000Y-117025000D03*
%TD*%
D13*
%TO.C,SW29*%
X219787500Y-57400000D03*
X214787500Y-55200000D03*
D14*
X214787500Y-61200000D03*
D15*
X209787500Y-66350000D03*
D16*
X223362500Y-57400000D03*
X211212500Y-55200000D03*
%TD*%
D17*
%TO.C,D41*%
X122300000Y-81075000D03*
X122300000Y-79025000D03*
%TD*%
D13*
%TO.C,SW44*%
X191200000Y-76450000D03*
X186200000Y-74250000D03*
D14*
X186200000Y-80250000D03*
D15*
X181200000Y-85400000D03*
D16*
X194775000Y-76450000D03*
X182625000Y-74250000D03*
%TD*%
D13*
%TO.C,SW30*%
X238850000Y-57400000D03*
X233850000Y-55200000D03*
D14*
X233850000Y-61200000D03*
D15*
X228850000Y-66350000D03*
D16*
X242425000Y-57400000D03*
X230275000Y-55200000D03*
%TD*%
D17*
%TO.C,D74*%
X60725000Y-119075000D03*
X60725000Y-117025000D03*
%TD*%
%TO.C,D66*%
X260600000Y-100075000D03*
X260600000Y-98025000D03*
%TD*%
D13*
%TO.C,SW49*%
X291225000Y-76450000D03*
X286225000Y-74250000D03*
D14*
X286225000Y-80250000D03*
D15*
X281225000Y-85400000D03*
D16*
X294800000Y-76450000D03*
X282650000Y-74250000D03*
%TD*%
D13*
%TO.C,SW22*%
X86450000Y-57400000D03*
X81450000Y-55200000D03*
D14*
X81450000Y-61200000D03*
D15*
X76450000Y-66350000D03*
D16*
X90025000Y-57400000D03*
X77875000Y-55200000D03*
%TD*%
D13*
%TO.C,SW98*%
X359143750Y-133550000D03*
X354143750Y-131350000D03*
D14*
X354143750Y-137350000D03*
D15*
X349143750Y-142500000D03*
D16*
X362718750Y-133550000D03*
X350568750Y-131350000D03*
%TD*%
D13*
%TO.C,SW86*%
X359181250Y-114500000D03*
X354181250Y-112300000D03*
D14*
X354181250Y-118300000D03*
D15*
X349181250Y-123450000D03*
D16*
X362756250Y-114500000D03*
X350606250Y-112300000D03*
%TD*%
D17*
%TO.C,D40*%
X103200000Y-81075000D03*
X103200000Y-79025000D03*
%TD*%
D13*
%TO.C,SW7*%
X153100000Y-38350000D03*
X148100000Y-36150000D03*
D14*
X148100000Y-42150000D03*
D15*
X143100000Y-47300000D03*
D16*
X156675000Y-38350000D03*
X144525000Y-36150000D03*
%TD*%
D13*
%TO.C,SW52*%
X359193750Y-76400000D03*
X354193750Y-74200000D03*
D14*
X354193750Y-80200000D03*
D15*
X349193750Y-85350000D03*
D16*
X362768750Y-76400000D03*
X350618750Y-74200000D03*
%TD*%
D13*
%TO.C,SW75*%
X91150000Y-114550000D03*
X86150000Y-112350000D03*
D14*
X86150000Y-118350000D03*
D15*
X81150000Y-123500000D03*
D16*
X94725000Y-114550000D03*
X82575000Y-112350000D03*
%TD*%
D17*
%TO.C,D61*%
X165550000Y-100100000D03*
X165550000Y-98050000D03*
%TD*%
D13*
%TO.C,SW27*%
X181700000Y-57400000D03*
X176700000Y-55200000D03*
D14*
X176700000Y-61200000D03*
D15*
X171700000Y-66350000D03*
D16*
X185275000Y-57400000D03*
X173125000Y-55200000D03*
%TD*%
D17*
%TO.C,D5*%
X103187500Y-43100000D03*
X103187500Y-41050000D03*
%TD*%
D13*
%TO.C,SW1*%
X34025000Y-38350000D03*
X29025000Y-36150000D03*
D14*
X29025000Y-42150000D03*
D15*
X24025000Y-47300000D03*
D16*
X37600000Y-38350000D03*
X25450000Y-36150000D03*
%TD*%
D17*
%TO.C,D28*%
X189200000Y-62075000D03*
X189200000Y-60025000D03*
%TD*%
D13*
%TO.C,SW61*%
X176900000Y-95500000D03*
X171900000Y-93300000D03*
D14*
X171900000Y-99300000D03*
D15*
X166900000Y-104450000D03*
D16*
X180475000Y-95500000D03*
X168325000Y-93300000D03*
%TD*%
D13*
%TO.C,SW83*%
X243600000Y-114550000D03*
X238600000Y-112350000D03*
D14*
X238600000Y-118350000D03*
D15*
X233600000Y-123500000D03*
D16*
X247175000Y-114550000D03*
X235025000Y-112350000D03*
%TD*%
D13*
%TO.C,SW5*%
X114987500Y-38350000D03*
X109987500Y-36150000D03*
D14*
X109987500Y-42150000D03*
D15*
X104987500Y-47300000D03*
D16*
X118562500Y-38350000D03*
X106412500Y-36150000D03*
%TD*%
D17*
%TO.C,D55*%
X50912500Y-100100000D03*
X50912500Y-98050000D03*
%TD*%
%TO.C,D60*%
X146500000Y-100075000D03*
X146500000Y-98025000D03*
%TD*%
%TO.C,D82*%
X213325000Y-119075000D03*
X213325000Y-117025000D03*
%TD*%
D13*
%TO.C,SW70*%
X359193750Y-95450000D03*
X354193750Y-93250000D03*
D14*
X354193750Y-99250000D03*
D15*
X349193750Y-104400000D03*
D16*
X362768750Y-95450000D03*
X350618750Y-93250000D03*
%TD*%
D17*
%TO.C,D70*%
X347843750Y-100050000D03*
X347843750Y-98000000D03*
%TD*%
D13*
%TO.C,SW87*%
X29250000Y-133600000D03*
X24250000Y-131400000D03*
D14*
X24250000Y-137400000D03*
D15*
X19250000Y-142550000D03*
D16*
X32825000Y-133600000D03*
X20675000Y-131400000D03*
%TD*%
D13*
%TO.C,SW9*%
X191200000Y-38350000D03*
X186200000Y-36150000D03*
D14*
X186200000Y-42150000D03*
D15*
X181200000Y-47300000D03*
D16*
X194775000Y-38350000D03*
X182625000Y-36150000D03*
%TD*%
D13*
%TO.C,SW46*%
X229250000Y-76450000D03*
X224250000Y-74250000D03*
D14*
X224250000Y-80250000D03*
D15*
X219250000Y-85400000D03*
D16*
X232825000Y-76450000D03*
X220675000Y-74250000D03*
%TD*%
D13*
%TO.C,SW21*%
X67450000Y-57400000D03*
X62450000Y-55200000D03*
D14*
X62450000Y-61200000D03*
D15*
X57450000Y-66350000D03*
D16*
X71025000Y-57400000D03*
X58875000Y-55200000D03*
%TD*%
D13*
%TO.C,SW15*%
X321081250Y-38300000D03*
X316081250Y-36100000D03*
D14*
X316081250Y-42100000D03*
D15*
X311081250Y-47250000D03*
D16*
X324656250Y-38300000D03*
X312506250Y-36100000D03*
%TD*%
D17*
%TO.C,D44*%
X179612500Y-81075000D03*
X179612500Y-79025000D03*
%TD*%
%TO.C,D73*%
X41425000Y-119075000D03*
X41425000Y-117025000D03*
%TD*%
%TO.C,D68*%
X309618750Y-100025000D03*
X309618750Y-97975000D03*
%TD*%
D13*
%TO.C,SW13*%
X267400000Y-38350000D03*
X262400000Y-36150000D03*
D14*
X262400000Y-42150000D03*
D15*
X257400000Y-47300000D03*
D16*
X270975000Y-38350000D03*
X258825000Y-36150000D03*
%TD*%
D17*
%TO.C,D58*%
X108250000Y-100025000D03*
X108250000Y-97975000D03*
%TD*%
D13*
%TO.C,SW54*%
X36425000Y-95500000D03*
X31425000Y-93300000D03*
D14*
X31425000Y-99300000D03*
D15*
X26425000Y-104450000D03*
D16*
X40000000Y-95500000D03*
X27850000Y-93300000D03*
%TD*%
D13*
%TO.C,SW45*%
X210250000Y-76450000D03*
X205250000Y-74250000D03*
D14*
X205250000Y-80250000D03*
D15*
X200250000Y-85400000D03*
D16*
X213825000Y-76450000D03*
X201675000Y-74250000D03*
%TD*%
D17*
%TO.C,D86*%
X347806250Y-119050000D03*
X347806250Y-117000000D03*
%TD*%
%TO.C,D87*%
X17750000Y-138100000D03*
X17750000Y-136050000D03*
%TD*%
%TO.C,D9*%
X179612500Y-43075000D03*
X179612500Y-41025000D03*
%TD*%
%TO.C,D3*%
X65487500Y-43075000D03*
X65487500Y-41025000D03*
%TD*%
%TO.C,D63*%
X203250000Y-100100000D03*
X203250000Y-98050000D03*
%TD*%
D13*
%TO.C,SW73*%
X53100000Y-114550000D03*
X48100000Y-112350000D03*
D14*
X48100000Y-118350000D03*
D15*
X43100000Y-123500000D03*
D16*
X56675000Y-114550000D03*
X44525000Y-112350000D03*
%TD*%
D35*
%TO.C,F1*%
X152850000Y-43112500D03*
X152850000Y-46087500D03*
%TD*%
D17*
%TO.C,D90*%
X77275000Y-138075000D03*
X77275000Y-136025000D03*
%TD*%
D13*
%TO.C,SW50*%
X321093750Y-76400000D03*
X316093750Y-74200000D03*
D14*
X316093750Y-80200000D03*
D15*
X311093750Y-85350000D03*
D16*
X324668750Y-76400000D03*
X312518750Y-74200000D03*
%TD*%
D13*
%TO.C,SW43*%
X172150000Y-76450000D03*
X167150000Y-74250000D03*
D14*
X167150000Y-80250000D03*
D15*
X162150000Y-85400000D03*
D16*
X175725000Y-76450000D03*
X163575000Y-74250000D03*
%TD*%
D13*
%TO.C,SW10*%
X210250000Y-38350000D03*
X205250000Y-36150000D03*
D14*
X205250000Y-42150000D03*
D15*
X200250000Y-47300000D03*
D16*
X213825000Y-38350000D03*
X201675000Y-36150000D03*
%TD*%
D17*
%TO.C,D46*%
X217775000Y-81075000D03*
X217775000Y-79025000D03*
%TD*%
%TO.C,D48*%
X256000000Y-81075000D03*
X256000000Y-79025000D03*
%TD*%
D13*
%TO.C,SW60*%
X157900000Y-95500000D03*
X152900000Y-93300000D03*
D14*
X152900000Y-99300000D03*
D15*
X147900000Y-104450000D03*
D16*
X161475000Y-95500000D03*
X149325000Y-93300000D03*
%TD*%
D13*
%TO.C,SW79*%
X167400000Y-114550000D03*
X162400000Y-112350000D03*
D14*
X162400000Y-118350000D03*
D15*
X157400000Y-123500000D03*
D16*
X170975000Y-114550000D03*
X158825000Y-112350000D03*
%TD*%
D13*
%TO.C,SW48*%
X267400000Y-76450000D03*
X262400000Y-74250000D03*
D14*
X262400000Y-80250000D03*
D15*
X257400000Y-85400000D03*
D16*
X270975000Y-76450000D03*
X258825000Y-74250000D03*
%TD*%
D17*
%TO.C,D10*%
X198700000Y-43100000D03*
X198700000Y-41050000D03*
%TD*%
D36*
%TO.C,FB1*%
X151500000Y-32200000D03*
X151500000Y-34500000D03*
%TD*%
D13*
%TO.C,SW33*%
X321093750Y-57350000D03*
X316093750Y-55150000D03*
D14*
X316093750Y-61150000D03*
D15*
X311093750Y-66300000D03*
D16*
X324668750Y-57350000D03*
X312518750Y-55150000D03*
%TD*%
D17*
%TO.C,D25*%
X131887500Y-62075000D03*
X131887500Y-60025000D03*
%TD*%
%TO.C,D14*%
X279625000Y-43075000D03*
X279625000Y-41025000D03*
%TD*%
%TO.C,D85*%
X319168750Y-119025000D03*
X319168750Y-116975000D03*
%TD*%
D26*
%TO.C,C2*%
X111325000Y-140950000D03*
X109250000Y-140950000D03*
%TD*%
D13*
%TO.C,SW78*%
X148350000Y-114550000D03*
X143350000Y-112350000D03*
D14*
X143350000Y-118350000D03*
D15*
X138350000Y-123500000D03*
D16*
X151925000Y-114550000D03*
X139775000Y-112350000D03*
%TD*%
D17*
%TO.C,D29*%
X208462500Y-62075000D03*
X208462500Y-60025000D03*
%TD*%
%TO.C,D79*%
X156025000Y-119075000D03*
X156025000Y-117025000D03*
%TD*%
D26*
%TO.C,C9*%
X146537500Y-144000000D03*
X144462500Y-144000000D03*
%TD*%
D13*
%TO.C,SW77*%
X129300000Y-114550000D03*
X124300000Y-112350000D03*
D14*
X124300000Y-118350000D03*
D15*
X119300000Y-123500000D03*
D16*
X132875000Y-114550000D03*
X120725000Y-112350000D03*
%TD*%
D17*
%TO.C,D11*%
X217800000Y-43100000D03*
X217800000Y-41050000D03*
%TD*%
%TO.C,D17*%
X347843750Y-43025000D03*
X347843750Y-40975000D03*
%TD*%
%TO.C,D57*%
X89150000Y-100100000D03*
X89150000Y-98050000D03*
%TD*%
D32*
%TO.C,R3*%
X159100000Y-34900000D03*
X161100000Y-34900000D03*
%TD*%
D17*
%TO.C,D8*%
X162000000Y-43075000D03*
X162000000Y-41025000D03*
%TD*%
D13*
%TO.C,SW62*%
X195950000Y-95500000D03*
X190950000Y-93300000D03*
D14*
X190950000Y-99300000D03*
D15*
X185950000Y-104450000D03*
D16*
X199525000Y-95500000D03*
X187375000Y-93300000D03*
%TD*%
D13*
%TO.C,SW28*%
X200750000Y-57400000D03*
X195750000Y-55200000D03*
D14*
X195750000Y-61200000D03*
D15*
X190750000Y-66350000D03*
D16*
X204325000Y-57400000D03*
X192175000Y-55200000D03*
%TD*%
D13*
%TO.C,SW26*%
X162650000Y-57400000D03*
X157650000Y-55200000D03*
D14*
X157650000Y-61200000D03*
D15*
X152650000Y-66350000D03*
D16*
X166225000Y-57400000D03*
X154075000Y-55200000D03*
%TD*%
D17*
%TO.C,D89*%
X55937500Y-138075000D03*
X55937500Y-136025000D03*
%TD*%
D13*
%TO.C,SW96*%
X321093750Y-133550000D03*
X316093750Y-131350000D03*
D14*
X316093750Y-137350000D03*
D15*
X311093750Y-142500000D03*
D16*
X324668750Y-133550000D03*
X312518750Y-131350000D03*
%TD*%
D13*
%TO.C,SW41*%
X134050000Y-76450000D03*
X129050000Y-74250000D03*
D14*
X129050000Y-80250000D03*
D15*
X124050000Y-85400000D03*
D16*
X137625000Y-76450000D03*
X125475000Y-74250000D03*
%TD*%
D13*
%TO.C,SW16*%
X340143750Y-38300000D03*
X335143750Y-36100000D03*
D14*
X335143750Y-42100000D03*
D15*
X330143750Y-47250000D03*
D16*
X343718750Y-38300000D03*
X331568750Y-36100000D03*
%TD*%
D17*
%TO.C,D23*%
X93725000Y-62075000D03*
X93725000Y-60025000D03*
%TD*%
D13*
%TO.C,SW55*%
X62587500Y-95500000D03*
X57587500Y-93300000D03*
D14*
X57587500Y-99300000D03*
D15*
X52587500Y-104450000D03*
D16*
X66162500Y-95500000D03*
X54012500Y-93300000D03*
%TD*%
D13*
%TO.C,SW18*%
X378268750Y-38300000D03*
X373268750Y-36100000D03*
D14*
X373268750Y-42100000D03*
D15*
X368268750Y-47250000D03*
D16*
X381843750Y-38300000D03*
X369693750Y-36100000D03*
%TD*%
D17*
%TO.C,D30*%
X227412500Y-62075000D03*
X227412500Y-60025000D03*
%TD*%
D13*
%TO.C,SW14*%
X291200000Y-38350000D03*
X286200000Y-36150000D03*
D14*
X286200000Y-42150000D03*
D15*
X281200000Y-47300000D03*
D16*
X294775000Y-38350000D03*
X282625000Y-36150000D03*
%TD*%
D17*
%TO.C,D31*%
X246487500Y-62100000D03*
X246487500Y-60050000D03*
%TD*%
D13*
%TO.C,SW84*%
X279300000Y-114550000D03*
X274300000Y-112350000D03*
D14*
X274300000Y-118350000D03*
D15*
X269300000Y-123500000D03*
D16*
X282875000Y-114550000D03*
X270725000Y-112350000D03*
%TD*%
D17*
%TO.C,D78*%
X136925000Y-119075000D03*
X136925000Y-117025000D03*
%TD*%
D13*
%TO.C,SW80*%
X186450000Y-114550000D03*
X181450000Y-112350000D03*
D14*
X181450000Y-118350000D03*
D15*
X176450000Y-123500000D03*
D16*
X190025000Y-114550000D03*
X177875000Y-112350000D03*
%TD*%
D17*
%TO.C,D52*%
X347843750Y-81025000D03*
X347843750Y-78975000D03*
%TD*%
%TO.C,D59*%
X127400000Y-100100000D03*
X127400000Y-98050000D03*
%TD*%
D25*
%TO.C,C6*%
X119750000Y-129750000D03*
X119750000Y-131825000D03*
%TD*%
D17*
%TO.C,D22*%
X74600000Y-62075000D03*
X74600000Y-60025000D03*
%TD*%
%TO.C,D24*%
X112825000Y-62075000D03*
X112825000Y-60025000D03*
%TD*%
%TO.C,D15*%
X310993750Y-43025000D03*
X310993750Y-40975000D03*
%TD*%
D18*
%TO.C,C1*%
X109175000Y-131450000D03*
X111250000Y-131450000D03*
%TD*%
D37*
%TO.C,U2*%
X122337500Y-140000000D03*
X122337500Y-139500000D03*
X122337500Y-139000000D03*
X122337500Y-138500000D03*
X122337500Y-138000000D03*
X122337500Y-137500000D03*
X122337500Y-137000000D03*
X122337500Y-136500000D03*
X122337500Y-136000000D03*
X122337500Y-135500000D03*
X122337500Y-135000000D03*
X122337500Y-134500000D03*
D38*
X123750000Y-133087500D03*
X124250000Y-133087500D03*
X124750000Y-133087500D03*
X125250000Y-133087500D03*
X125750000Y-133087500D03*
X126250000Y-133087500D03*
X126750000Y-133087500D03*
X127250000Y-133087500D03*
X127750000Y-133087500D03*
X128250000Y-133087500D03*
X128750000Y-133087500D03*
X129250000Y-133087500D03*
D37*
X130662500Y-134500000D03*
X130662500Y-135000000D03*
X130662500Y-135500000D03*
X130662500Y-136000000D03*
X130662500Y-136500000D03*
X130662500Y-137000000D03*
X130662500Y-137500000D03*
X130662500Y-138000000D03*
X130662500Y-138500000D03*
X130662500Y-139000000D03*
X130662500Y-139500000D03*
X130662500Y-140000000D03*
D38*
X129250000Y-141412500D03*
X128750000Y-141412500D03*
X128250000Y-141412500D03*
X127750000Y-141412500D03*
X127250000Y-141412500D03*
X126750000Y-141412500D03*
X126250000Y-141412500D03*
X125750000Y-141412500D03*
X125250000Y-141412500D03*
X124750000Y-141412500D03*
X124250000Y-141412500D03*
X123750000Y-141412500D03*
%TD*%
D13*
%TO.C,SW89*%
X67337500Y-133600000D03*
X62337500Y-131400000D03*
D14*
X62337500Y-137400000D03*
D15*
X57337500Y-142550000D03*
D16*
X70912500Y-133600000D03*
X58762500Y-131400000D03*
%TD*%
D13*
%TO.C,SW94*%
X274550000Y-133600000D03*
X269550000Y-131400000D03*
D14*
X269550000Y-137400000D03*
D15*
X264550000Y-142550000D03*
D16*
X278125000Y-133600000D03*
X265975000Y-131400000D03*
%TD*%
D13*
%TO.C,SW42*%
X153050000Y-76450000D03*
X148050000Y-74250000D03*
D14*
X148050000Y-80250000D03*
D15*
X143050000Y-85400000D03*
D16*
X156625000Y-76450000D03*
X144475000Y-74250000D03*
%TD*%
D13*
%TO.C,SW35*%
X359193750Y-57350000D03*
X354193750Y-55150000D03*
D14*
X354193750Y-61150000D03*
D15*
X349193750Y-66300000D03*
D16*
X362768750Y-57350000D03*
X350618750Y-55150000D03*
%TD*%
D13*
%TO.C,SW99*%
X378193750Y-133550000D03*
X373193750Y-131350000D03*
D14*
X373193750Y-137350000D03*
D15*
X368193750Y-142500000D03*
D16*
X381768750Y-133550000D03*
X369618750Y-131350000D03*
%TD*%
D17*
%TO.C,D51*%
X328743750Y-81025000D03*
X328743750Y-78975000D03*
%TD*%
D13*
%TO.C,SW34*%
X340143750Y-57350000D03*
X335143750Y-55150000D03*
D14*
X335143750Y-61150000D03*
D15*
X330143750Y-66300000D03*
D16*
X343718750Y-57350000D03*
X331568750Y-55150000D03*
%TD*%
D13*
%TO.C,SW69*%
X340131250Y-95450000D03*
X335131250Y-93250000D03*
D14*
X335131250Y-99250000D03*
D15*
X330131250Y-104400000D03*
D16*
X343706250Y-95450000D03*
X331556250Y-93250000D03*
%TD*%
D13*
%TO.C,SW85*%
X330606250Y-114500000D03*
X325606250Y-112300000D03*
D14*
X325606250Y-118300000D03*
D15*
X320606250Y-123450000D03*
D16*
X334181250Y-114500000D03*
X322031250Y-112300000D03*
%TD*%
D39*
%TO.C,J1*%
X174750000Y-141540000D03*
D40*
X172210000Y-141540000D03*
X174750000Y-139000000D03*
X172210000Y-139000000D03*
X174750000Y-136460000D03*
X172210000Y-136460000D03*
X174750000Y-133920000D03*
X172210000Y-133920000D03*
X174750000Y-131380000D03*
X172210000Y-131380000D03*
%TD*%
D13*
%TO.C,SW82*%
X224550000Y-114550000D03*
X219550000Y-112350000D03*
D14*
X219550000Y-118350000D03*
D15*
X214550000Y-123500000D03*
D16*
X228125000Y-114550000D03*
X215975000Y-112350000D03*
%TD*%
D13*
%TO.C,SW72*%
X31650000Y-114550000D03*
X26650000Y-112350000D03*
D14*
X26650000Y-118350000D03*
D15*
X21650000Y-123500000D03*
D16*
X35225000Y-114550000D03*
X23075000Y-112350000D03*
%TD*%
D13*
%TO.C,SW36*%
X34025000Y-76450000D03*
X29025000Y-74250000D03*
D14*
X29025000Y-80250000D03*
D15*
X24025000Y-85400000D03*
D16*
X37600000Y-76450000D03*
X25450000Y-74250000D03*
%TD*%
M02*
