%TF.GenerationSoftware,KiCad,Pcbnew,9.0.6*%
%TF.CreationDate,2026-04-06T08:56:39-04:00*%
%TF.ProjectId,new-keyboard-pcb,6e65772d-6b65-4796-926f-6172642d7063,rev?*%
%TF.SameCoordinates,Original*%
%TF.FileFunction,Legend,Top*%
%TF.FilePolarity,Positive*%
%FSLAX46Y46*%
G04 Gerber Fmt 4.6, Leading zero omitted, Abs format (unit mm)*
G04 Created by KiCad (PCBNEW 9.0.6) date 2026-04-06 08:56:39*
%MOMM*%
%LPD*%
G01*
G04 APERTURE LIST*
%ADD10C,0.100000*%
%ADD11R,1.500000X1.500000*%
%ADD12C,1.500000*%
G04 APERTURE END LIST*
D10*
X43635714Y-70157419D02*
X43064286Y-70157419D01*
X43350000Y-70157419D02*
X43350000Y-69157419D01*
X43350000Y-69157419D02*
X43254762Y-69300276D01*
X43254762Y-69300276D02*
X43159524Y-69395514D01*
X43159524Y-69395514D02*
X43064286Y-69443133D01*
X225438095Y-145857419D02*
X225104762Y-145381228D01*
X224866667Y-145857419D02*
X224866667Y-144857419D01*
X224866667Y-144857419D02*
X225247619Y-144857419D01*
X225247619Y-144857419D02*
X225342857Y-144905038D01*
X225342857Y-144905038D02*
X225390476Y-144952657D01*
X225390476Y-144952657D02*
X225438095Y-145047895D01*
X225438095Y-145047895D02*
X225438095Y-145190752D01*
X225438095Y-145190752D02*
X225390476Y-145285990D01*
X225390476Y-145285990D02*
X225342857Y-145333609D01*
X225342857Y-145333609D02*
X225247619Y-145381228D01*
X225247619Y-145381228D02*
X224866667Y-145381228D01*
X226438095Y-145762180D02*
X226390476Y-145809800D01*
X226390476Y-145809800D02*
X226247619Y-145857419D01*
X226247619Y-145857419D02*
X226152381Y-145857419D01*
X226152381Y-145857419D02*
X226009524Y-145809800D01*
X226009524Y-145809800D02*
X225914286Y-145714561D01*
X225914286Y-145714561D02*
X225866667Y-145619323D01*
X225866667Y-145619323D02*
X225819048Y-145428847D01*
X225819048Y-145428847D02*
X225819048Y-145285990D01*
X225819048Y-145285990D02*
X225866667Y-145095514D01*
X225866667Y-145095514D02*
X225914286Y-145000276D01*
X225914286Y-145000276D02*
X226009524Y-144905038D01*
X226009524Y-144905038D02*
X226152381Y-144857419D01*
X226152381Y-144857419D02*
X226247619Y-144857419D01*
X226247619Y-144857419D02*
X226390476Y-144905038D01*
X226390476Y-144905038D02*
X226438095Y-144952657D01*
X226866667Y-145857419D02*
X226866667Y-144857419D01*
X226866667Y-144857419D02*
X227200000Y-145571704D01*
X227200000Y-145571704D02*
X227533333Y-144857419D01*
X227533333Y-144857419D02*
X227533333Y-145857419D01*
X228009524Y-145857419D02*
X228009524Y-144857419D01*
X228009524Y-144857419D02*
X228247619Y-144857419D01*
X228247619Y-144857419D02*
X228390476Y-144905038D01*
X228390476Y-144905038D02*
X228485714Y-145000276D01*
X228485714Y-145000276D02*
X228533333Y-145095514D01*
X228533333Y-145095514D02*
X228580952Y-145285990D01*
X228580952Y-145285990D02*
X228580952Y-145428847D01*
X228580952Y-145428847D02*
X228533333Y-145619323D01*
X228533333Y-145619323D02*
X228485714Y-145714561D01*
X228485714Y-145714561D02*
X228390476Y-145809800D01*
X228390476Y-145809800D02*
X228247619Y-145857419D01*
X228247619Y-145857419D02*
X228009524Y-145857419D01*
X266961905Y-107971704D02*
X267438095Y-107971704D01*
X266866667Y-108257419D02*
X267200000Y-107257419D01*
X267200000Y-107257419D02*
X267533333Y-108257419D01*
X267104762Y-106876466D02*
X267247619Y-107019323D01*
X229097619Y-108209800D02*
X229097619Y-108257419D01*
X229097619Y-108257419D02*
X229050000Y-108352657D01*
X229050000Y-108352657D02*
X229002381Y-108400276D01*
X229050000Y-107638371D02*
X229097619Y-107685990D01*
X229097619Y-107685990D02*
X229050000Y-107733609D01*
X229050000Y-107733609D02*
X229002381Y-107685990D01*
X229002381Y-107685990D02*
X229050000Y-107638371D01*
X229050000Y-107638371D02*
X229050000Y-107733609D01*
X71471429Y-88207419D02*
X71709524Y-89207419D01*
X71709524Y-89207419D02*
X71900000Y-88493133D01*
X71900000Y-88493133D02*
X72090476Y-89207419D01*
X72090476Y-89207419D02*
X72328572Y-88207419D01*
X114892857Y-107733609D02*
X114559524Y-107733609D01*
X114559524Y-108257419D02*
X114559524Y-107257419D01*
X114559524Y-107257419D02*
X115035714Y-107257419D01*
X242540476Y-50583609D02*
X242207143Y-50583609D01*
X242207143Y-51107419D02*
X242207143Y-50107419D01*
X242207143Y-50107419D02*
X242683333Y-50107419D01*
X243588095Y-51107419D02*
X243016667Y-51107419D01*
X243302381Y-51107419D02*
X243302381Y-50107419D01*
X243302381Y-50107419D02*
X243207143Y-50250276D01*
X243207143Y-50250276D02*
X243111905Y-50345514D01*
X243111905Y-50345514D02*
X243016667Y-50393133D01*
X244540476Y-51107419D02*
X243969048Y-51107419D01*
X244254762Y-51107419D02*
X244254762Y-50107419D01*
X244254762Y-50107419D02*
X244159524Y-50250276D01*
X244159524Y-50250276D02*
X244064286Y-50345514D01*
X244064286Y-50345514D02*
X243969048Y-50393133D01*
X90604166Y-50583609D02*
X90270833Y-50583609D01*
X90270833Y-51107419D02*
X90270833Y-50107419D01*
X90270833Y-50107419D02*
X90747023Y-50107419D01*
X91032738Y-50107419D02*
X91651785Y-50107419D01*
X91651785Y-50107419D02*
X91318452Y-50488371D01*
X91318452Y-50488371D02*
X91461309Y-50488371D01*
X91461309Y-50488371D02*
X91556547Y-50535990D01*
X91556547Y-50535990D02*
X91604166Y-50583609D01*
X91604166Y-50583609D02*
X91651785Y-50678847D01*
X91651785Y-50678847D02*
X91651785Y-50916942D01*
X91651785Y-50916942D02*
X91604166Y-51012180D01*
X91604166Y-51012180D02*
X91556547Y-51059800D01*
X91556547Y-51059800D02*
X91461309Y-51107419D01*
X91461309Y-51107419D02*
X91175595Y-51107419D01*
X91175595Y-51107419D02*
X91080357Y-51059800D01*
X91080357Y-51059800D02*
X91032738Y-51012180D01*
X90685714Y-88683609D02*
X91019047Y-88683609D01*
X91161904Y-89207419D02*
X90685714Y-89207419D01*
X90685714Y-89207419D02*
X90685714Y-88207419D01*
X90685714Y-88207419D02*
X91161904Y-88207419D01*
X138777976Y-69157419D02*
X138587500Y-69157419D01*
X138587500Y-69157419D02*
X138492262Y-69205038D01*
X138492262Y-69205038D02*
X138444643Y-69252657D01*
X138444643Y-69252657D02*
X138349405Y-69395514D01*
X138349405Y-69395514D02*
X138301786Y-69585990D01*
X138301786Y-69585990D02*
X138301786Y-69966942D01*
X138301786Y-69966942D02*
X138349405Y-70062180D01*
X138349405Y-70062180D02*
X138397024Y-70109800D01*
X138397024Y-70109800D02*
X138492262Y-70157419D01*
X138492262Y-70157419D02*
X138682738Y-70157419D01*
X138682738Y-70157419D02*
X138777976Y-70109800D01*
X138777976Y-70109800D02*
X138825595Y-70062180D01*
X138825595Y-70062180D02*
X138873214Y-69966942D01*
X138873214Y-69966942D02*
X138873214Y-69728847D01*
X138873214Y-69728847D02*
X138825595Y-69633609D01*
X138825595Y-69633609D02*
X138777976Y-69585990D01*
X138777976Y-69585990D02*
X138682738Y-69538371D01*
X138682738Y-69538371D02*
X138492262Y-69538371D01*
X138492262Y-69538371D02*
X138397024Y-69585990D01*
X138397024Y-69585990D02*
X138349405Y-69633609D01*
X138349405Y-69633609D02*
X138301786Y-69728847D01*
X134111904Y-107305038D02*
X134016666Y-107257419D01*
X134016666Y-107257419D02*
X133873809Y-107257419D01*
X133873809Y-107257419D02*
X133730952Y-107305038D01*
X133730952Y-107305038D02*
X133635714Y-107400276D01*
X133635714Y-107400276D02*
X133588095Y-107495514D01*
X133588095Y-107495514D02*
X133540476Y-107685990D01*
X133540476Y-107685990D02*
X133540476Y-107828847D01*
X133540476Y-107828847D02*
X133588095Y-108019323D01*
X133588095Y-108019323D02*
X133635714Y-108114561D01*
X133635714Y-108114561D02*
X133730952Y-108209800D01*
X133730952Y-108209800D02*
X133873809Y-108257419D01*
X133873809Y-108257419D02*
X133969047Y-108257419D01*
X133969047Y-108257419D02*
X134111904Y-108209800D01*
X134111904Y-108209800D02*
X134159523Y-108162180D01*
X134159523Y-108162180D02*
X134159523Y-107828847D01*
X134159523Y-107828847D02*
X133969047Y-107828847D01*
X200522619Y-127259800D02*
X200522619Y-127307419D01*
X200522619Y-127307419D02*
X200475000Y-127402657D01*
X200475000Y-127402657D02*
X200427381Y-127450276D01*
X247885714Y-107733609D02*
X248219047Y-107733609D01*
X248361904Y-108257419D02*
X247885714Y-108257419D01*
X247885714Y-108257419D02*
X247885714Y-107257419D01*
X247885714Y-107257419D02*
X248361904Y-107257419D01*
X248028571Y-106876466D02*
X248171428Y-107019323D01*
X95438095Y-108257419D02*
X95438095Y-107257419D01*
X95438095Y-107257419D02*
X95676190Y-107257419D01*
X95676190Y-107257419D02*
X95819047Y-107305038D01*
X95819047Y-107305038D02*
X95914285Y-107400276D01*
X95914285Y-107400276D02*
X95961904Y-107495514D01*
X95961904Y-107495514D02*
X96009523Y-107685990D01*
X96009523Y-107685990D02*
X96009523Y-107828847D01*
X96009523Y-107828847D02*
X95961904Y-108019323D01*
X95961904Y-108019323D02*
X95914285Y-108114561D01*
X95914285Y-108114561D02*
X95819047Y-108209800D01*
X95819047Y-108209800D02*
X95676190Y-108257419D01*
X95676190Y-108257419D02*
X95438095Y-108257419D01*
X331236606Y-146307419D02*
X330760416Y-146307419D01*
X330760416Y-146307419D02*
X330760416Y-145307419D01*
X331569940Y-145783609D02*
X331903273Y-145783609D01*
X332046130Y-146307419D02*
X331569940Y-146307419D01*
X331569940Y-146307419D02*
X331569940Y-145307419D01*
X331569940Y-145307419D02*
X332046130Y-145307419D01*
X332808035Y-145783609D02*
X332474702Y-145783609D01*
X332474702Y-146307419D02*
X332474702Y-145307419D01*
X332474702Y-145307419D02*
X332950892Y-145307419D01*
X333188988Y-145307419D02*
X333760416Y-145307419D01*
X333474702Y-146307419D02*
X333474702Y-145307419D01*
X334808036Y-146021704D02*
X335284226Y-146021704D01*
X334712798Y-146307419D02*
X335046131Y-145307419D01*
X335046131Y-145307419D02*
X335379464Y-146307419D01*
X336284226Y-146307419D02*
X335950893Y-145831228D01*
X335712798Y-146307419D02*
X335712798Y-145307419D01*
X335712798Y-145307419D02*
X336093750Y-145307419D01*
X336093750Y-145307419D02*
X336188988Y-145355038D01*
X336188988Y-145355038D02*
X336236607Y-145402657D01*
X336236607Y-145402657D02*
X336284226Y-145497895D01*
X336284226Y-145497895D02*
X336284226Y-145640752D01*
X336284226Y-145640752D02*
X336236607Y-145735990D01*
X336236607Y-145735990D02*
X336188988Y-145783609D01*
X336188988Y-145783609D02*
X336093750Y-145831228D01*
X336093750Y-145831228D02*
X335712798Y-145831228D01*
X337284226Y-146307419D02*
X336950893Y-145831228D01*
X336712798Y-146307419D02*
X336712798Y-145307419D01*
X336712798Y-145307419D02*
X337093750Y-145307419D01*
X337093750Y-145307419D02*
X337188988Y-145355038D01*
X337188988Y-145355038D02*
X337236607Y-145402657D01*
X337236607Y-145402657D02*
X337284226Y-145497895D01*
X337284226Y-145497895D02*
X337284226Y-145640752D01*
X337284226Y-145640752D02*
X337236607Y-145735990D01*
X337236607Y-145735990D02*
X337188988Y-145783609D01*
X337188988Y-145783609D02*
X337093750Y-145831228D01*
X337093750Y-145831228D02*
X336712798Y-145831228D01*
X337903274Y-145307419D02*
X338093750Y-145307419D01*
X338093750Y-145307419D02*
X338188988Y-145355038D01*
X338188988Y-145355038D02*
X338284226Y-145450276D01*
X338284226Y-145450276D02*
X338331845Y-145640752D01*
X338331845Y-145640752D02*
X338331845Y-145974085D01*
X338331845Y-145974085D02*
X338284226Y-146164561D01*
X338284226Y-146164561D02*
X338188988Y-146259800D01*
X338188988Y-146259800D02*
X338093750Y-146307419D01*
X338093750Y-146307419D02*
X337903274Y-146307419D01*
X337903274Y-146307419D02*
X337808036Y-146259800D01*
X337808036Y-146259800D02*
X337712798Y-146164561D01*
X337712798Y-146164561D02*
X337665179Y-145974085D01*
X337665179Y-145974085D02*
X337665179Y-145640752D01*
X337665179Y-145640752D02*
X337712798Y-145450276D01*
X337712798Y-145450276D02*
X337808036Y-145355038D01*
X337808036Y-145355038D02*
X337903274Y-145307419D01*
X338665179Y-145307419D02*
X338903274Y-146307419D01*
X338903274Y-146307419D02*
X339093750Y-145593133D01*
X339093750Y-145593133D02*
X339284226Y-146307419D01*
X339284226Y-146307419D02*
X339522322Y-145307419D01*
X105559523Y-127212180D02*
X105511904Y-127259800D01*
X105511904Y-127259800D02*
X105369047Y-127307419D01*
X105369047Y-127307419D02*
X105273809Y-127307419D01*
X105273809Y-127307419D02*
X105130952Y-127259800D01*
X105130952Y-127259800D02*
X105035714Y-127164561D01*
X105035714Y-127164561D02*
X104988095Y-127069323D01*
X104988095Y-127069323D02*
X104940476Y-126878847D01*
X104940476Y-126878847D02*
X104940476Y-126735990D01*
X104940476Y-126735990D02*
X104988095Y-126545514D01*
X104988095Y-126545514D02*
X105035714Y-126450276D01*
X105035714Y-126450276D02*
X105130952Y-126355038D01*
X105130952Y-126355038D02*
X105273809Y-126307419D01*
X105273809Y-126307419D02*
X105369047Y-126307419D01*
X105369047Y-126307419D02*
X105511904Y-126355038D01*
X105511904Y-126355038D02*
X105559523Y-126402657D01*
X223490476Y-50583609D02*
X223157143Y-50583609D01*
X223157143Y-51107419D02*
X223157143Y-50107419D01*
X223157143Y-50107419D02*
X223633333Y-50107419D01*
X224538095Y-51107419D02*
X223966667Y-51107419D01*
X224252381Y-51107419D02*
X224252381Y-50107419D01*
X224252381Y-50107419D02*
X224157143Y-50250276D01*
X224157143Y-50250276D02*
X224061905Y-50345514D01*
X224061905Y-50345514D02*
X223966667Y-50393133D01*
X225157143Y-50107419D02*
X225252381Y-50107419D01*
X225252381Y-50107419D02*
X225347619Y-50155038D01*
X225347619Y-50155038D02*
X225395238Y-50202657D01*
X225395238Y-50202657D02*
X225442857Y-50297895D01*
X225442857Y-50297895D02*
X225490476Y-50488371D01*
X225490476Y-50488371D02*
X225490476Y-50726466D01*
X225490476Y-50726466D02*
X225442857Y-50916942D01*
X225442857Y-50916942D02*
X225395238Y-51012180D01*
X225395238Y-51012180D02*
X225347619Y-51059800D01*
X225347619Y-51059800D02*
X225252381Y-51107419D01*
X225252381Y-51107419D02*
X225157143Y-51107419D01*
X225157143Y-51107419D02*
X225061905Y-51059800D01*
X225061905Y-51059800D02*
X225014286Y-51012180D01*
X225014286Y-51012180D02*
X224966667Y-50916942D01*
X224966667Y-50916942D02*
X224919048Y-50726466D01*
X224919048Y-50726466D02*
X224919048Y-50488371D01*
X224919048Y-50488371D02*
X224966667Y-50297895D01*
X224966667Y-50297895D02*
X225014286Y-50202657D01*
X225014286Y-50202657D02*
X225061905Y-50155038D01*
X225061905Y-50155038D02*
X225157143Y-50107419D01*
X82563095Y-145857419D02*
X82086905Y-145857419D01*
X82086905Y-145857419D02*
X82086905Y-144857419D01*
X83467857Y-145762180D02*
X83420238Y-145809800D01*
X83420238Y-145809800D02*
X83277381Y-145857419D01*
X83277381Y-145857419D02*
X83182143Y-145857419D01*
X83182143Y-145857419D02*
X83039286Y-145809800D01*
X83039286Y-145809800D02*
X82944048Y-145714561D01*
X82944048Y-145714561D02*
X82896429Y-145619323D01*
X82896429Y-145619323D02*
X82848810Y-145428847D01*
X82848810Y-145428847D02*
X82848810Y-145285990D01*
X82848810Y-145285990D02*
X82896429Y-145095514D01*
X82896429Y-145095514D02*
X82944048Y-145000276D01*
X82944048Y-145000276D02*
X83039286Y-144905038D01*
X83039286Y-144905038D02*
X83182143Y-144857419D01*
X83182143Y-144857419D02*
X83277381Y-144857419D01*
X83277381Y-144857419D02*
X83420238Y-144905038D01*
X83420238Y-144905038D02*
X83467857Y-144952657D01*
X83896429Y-145857419D02*
X83896429Y-144857419D01*
X83896429Y-144857419D02*
X84229762Y-145571704D01*
X84229762Y-145571704D02*
X84563095Y-144857419D01*
X84563095Y-144857419D02*
X84563095Y-145857419D01*
X85039286Y-145857419D02*
X85039286Y-144857419D01*
X85039286Y-144857419D02*
X85277381Y-144857419D01*
X85277381Y-144857419D02*
X85420238Y-144905038D01*
X85420238Y-144905038D02*
X85515476Y-145000276D01*
X85515476Y-145000276D02*
X85563095Y-145095514D01*
X85563095Y-145095514D02*
X85610714Y-145285990D01*
X85610714Y-145285990D02*
X85610714Y-145428847D01*
X85610714Y-145428847D02*
X85563095Y-145619323D01*
X85563095Y-145619323D02*
X85515476Y-145714561D01*
X85515476Y-145714561D02*
X85420238Y-145809800D01*
X85420238Y-145809800D02*
X85277381Y-145857419D01*
X85277381Y-145857419D02*
X85039286Y-145857419D01*
X71554166Y-50583609D02*
X71220833Y-50583609D01*
X71220833Y-51107419D02*
X71220833Y-50107419D01*
X71220833Y-50107419D02*
X71697023Y-50107419D01*
X72030357Y-50202657D02*
X72077976Y-50155038D01*
X72077976Y-50155038D02*
X72173214Y-50107419D01*
X72173214Y-50107419D02*
X72411309Y-50107419D01*
X72411309Y-50107419D02*
X72506547Y-50155038D01*
X72506547Y-50155038D02*
X72554166Y-50202657D01*
X72554166Y-50202657D02*
X72601785Y-50297895D01*
X72601785Y-50297895D02*
X72601785Y-50393133D01*
X72601785Y-50393133D02*
X72554166Y-50535990D01*
X72554166Y-50535990D02*
X71982738Y-51107419D01*
X71982738Y-51107419D02*
X72601785Y-51107419D01*
X110309523Y-89207419D02*
X109976190Y-88731228D01*
X109738095Y-89207419D02*
X109738095Y-88207419D01*
X109738095Y-88207419D02*
X110119047Y-88207419D01*
X110119047Y-88207419D02*
X110214285Y-88255038D01*
X110214285Y-88255038D02*
X110261904Y-88302657D01*
X110261904Y-88302657D02*
X110309523Y-88397895D01*
X110309523Y-88397895D02*
X110309523Y-88540752D01*
X110309523Y-88540752D02*
X110261904Y-88635990D01*
X110261904Y-88635990D02*
X110214285Y-88683609D01*
X110214285Y-88683609D02*
X110119047Y-88731228D01*
X110119047Y-88731228D02*
X109738095Y-88731228D01*
X76414286Y-108209800D02*
X76557143Y-108257419D01*
X76557143Y-108257419D02*
X76795238Y-108257419D01*
X76795238Y-108257419D02*
X76890476Y-108209800D01*
X76890476Y-108209800D02*
X76938095Y-108162180D01*
X76938095Y-108162180D02*
X76985714Y-108066942D01*
X76985714Y-108066942D02*
X76985714Y-107971704D01*
X76985714Y-107971704D02*
X76938095Y-107876466D01*
X76938095Y-107876466D02*
X76890476Y-107828847D01*
X76890476Y-107828847D02*
X76795238Y-107781228D01*
X76795238Y-107781228D02*
X76604762Y-107733609D01*
X76604762Y-107733609D02*
X76509524Y-107685990D01*
X76509524Y-107685990D02*
X76461905Y-107638371D01*
X76461905Y-107638371D02*
X76414286Y-107543133D01*
X76414286Y-107543133D02*
X76414286Y-107447895D01*
X76414286Y-107447895D02*
X76461905Y-107352657D01*
X76461905Y-107352657D02*
X76509524Y-107305038D01*
X76509524Y-107305038D02*
X76604762Y-107257419D01*
X76604762Y-107257419D02*
X76842857Y-107257419D01*
X76842857Y-107257419D02*
X76985714Y-107305038D01*
X53230952Y-89302657D02*
X53135714Y-89255038D01*
X53135714Y-89255038D02*
X53040476Y-89159800D01*
X53040476Y-89159800D02*
X52897619Y-89016942D01*
X52897619Y-89016942D02*
X52802381Y-88969323D01*
X52802381Y-88969323D02*
X52707143Y-88969323D01*
X52754762Y-89207419D02*
X52659524Y-89159800D01*
X52659524Y-89159800D02*
X52564286Y-89064561D01*
X52564286Y-89064561D02*
X52516667Y-88874085D01*
X52516667Y-88874085D02*
X52516667Y-88540752D01*
X52516667Y-88540752D02*
X52564286Y-88350276D01*
X52564286Y-88350276D02*
X52659524Y-88255038D01*
X52659524Y-88255038D02*
X52754762Y-88207419D01*
X52754762Y-88207419D02*
X52945238Y-88207419D01*
X52945238Y-88207419D02*
X53040476Y-88255038D01*
X53040476Y-88255038D02*
X53135714Y-88350276D01*
X53135714Y-88350276D02*
X53183333Y-88540752D01*
X53183333Y-88540752D02*
X53183333Y-88874085D01*
X53183333Y-88874085D02*
X53135714Y-89064561D01*
X53135714Y-89064561D02*
X53040476Y-89159800D01*
X53040476Y-89159800D02*
X52945238Y-89207419D01*
X52945238Y-89207419D02*
X52754762Y-89207419D01*
X153083333Y-145809800D02*
X153226190Y-145857419D01*
X153226190Y-145857419D02*
X153464285Y-145857419D01*
X153464285Y-145857419D02*
X153559523Y-145809800D01*
X153559523Y-145809800D02*
X153607142Y-145762180D01*
X153607142Y-145762180D02*
X153654761Y-145666942D01*
X153654761Y-145666942D02*
X153654761Y-145571704D01*
X153654761Y-145571704D02*
X153607142Y-145476466D01*
X153607142Y-145476466D02*
X153559523Y-145428847D01*
X153559523Y-145428847D02*
X153464285Y-145381228D01*
X153464285Y-145381228D02*
X153273809Y-145333609D01*
X153273809Y-145333609D02*
X153178571Y-145285990D01*
X153178571Y-145285990D02*
X153130952Y-145238371D01*
X153130952Y-145238371D02*
X153083333Y-145143133D01*
X153083333Y-145143133D02*
X153083333Y-145047895D01*
X153083333Y-145047895D02*
X153130952Y-144952657D01*
X153130952Y-144952657D02*
X153178571Y-144905038D01*
X153178571Y-144905038D02*
X153273809Y-144857419D01*
X153273809Y-144857419D02*
X153511904Y-144857419D01*
X153511904Y-144857419D02*
X153654761Y-144905038D01*
X154083333Y-145857419D02*
X154083333Y-144857419D01*
X154083333Y-144857419D02*
X154464285Y-144857419D01*
X154464285Y-144857419D02*
X154559523Y-144905038D01*
X154559523Y-144905038D02*
X154607142Y-144952657D01*
X154607142Y-144952657D02*
X154654761Y-145047895D01*
X154654761Y-145047895D02*
X154654761Y-145190752D01*
X154654761Y-145190752D02*
X154607142Y-145285990D01*
X154607142Y-145285990D02*
X154559523Y-145333609D01*
X154559523Y-145333609D02*
X154464285Y-145381228D01*
X154464285Y-145381228D02*
X154083333Y-145381228D01*
X155035714Y-145571704D02*
X155511904Y-145571704D01*
X154940476Y-145857419D02*
X155273809Y-144857419D01*
X155273809Y-144857419D02*
X155607142Y-145857419D01*
X156511904Y-145762180D02*
X156464285Y-145809800D01*
X156464285Y-145809800D02*
X156321428Y-145857419D01*
X156321428Y-145857419D02*
X156226190Y-145857419D01*
X156226190Y-145857419D02*
X156083333Y-145809800D01*
X156083333Y-145809800D02*
X155988095Y-145714561D01*
X155988095Y-145714561D02*
X155940476Y-145619323D01*
X155940476Y-145619323D02*
X155892857Y-145428847D01*
X155892857Y-145428847D02*
X155892857Y-145285990D01*
X155892857Y-145285990D02*
X155940476Y-145095514D01*
X155940476Y-145095514D02*
X155988095Y-145000276D01*
X155988095Y-145000276D02*
X156083333Y-144905038D01*
X156083333Y-144905038D02*
X156226190Y-144857419D01*
X156226190Y-144857419D02*
X156321428Y-144857419D01*
X156321428Y-144857419D02*
X156464285Y-144905038D01*
X156464285Y-144905038D02*
X156511904Y-144952657D01*
X156940476Y-145333609D02*
X157273809Y-145333609D01*
X157416666Y-145857419D02*
X156940476Y-145857419D01*
X156940476Y-145857419D02*
X156940476Y-144857419D01*
X156940476Y-144857419D02*
X157416666Y-144857419D01*
X66816667Y-126307419D02*
X67483333Y-126307419D01*
X67483333Y-126307419D02*
X66816667Y-127307419D01*
X66816667Y-127307419D02*
X67483333Y-127307419D01*
X252506548Y-69633609D02*
X253268453Y-69633609D01*
X253268453Y-69919323D02*
X252506548Y-69919323D01*
X290545238Y-145833609D02*
X290688095Y-145881228D01*
X290688095Y-145881228D02*
X290735714Y-145928847D01*
X290735714Y-145928847D02*
X290783333Y-146024085D01*
X290783333Y-146024085D02*
X290783333Y-146166942D01*
X290783333Y-146166942D02*
X290735714Y-146262180D01*
X290735714Y-146262180D02*
X290688095Y-146309800D01*
X290688095Y-146309800D02*
X290592857Y-146357419D01*
X290592857Y-146357419D02*
X290211905Y-146357419D01*
X290211905Y-146357419D02*
X290211905Y-145357419D01*
X290211905Y-145357419D02*
X290545238Y-145357419D01*
X290545238Y-145357419D02*
X290640476Y-145405038D01*
X290640476Y-145405038D02*
X290688095Y-145452657D01*
X290688095Y-145452657D02*
X290735714Y-145547895D01*
X290735714Y-145547895D02*
X290735714Y-145643133D01*
X290735714Y-145643133D02*
X290688095Y-145738371D01*
X290688095Y-145738371D02*
X290640476Y-145785990D01*
X290640476Y-145785990D02*
X290545238Y-145833609D01*
X290545238Y-145833609D02*
X290211905Y-145833609D01*
X291735714Y-146357419D02*
X291164286Y-146357419D01*
X291450000Y-146357419D02*
X291450000Y-145357419D01*
X291450000Y-145357419D02*
X291354762Y-145500276D01*
X291354762Y-145500276D02*
X291259524Y-145595514D01*
X291259524Y-145595514D02*
X291164286Y-145643133D01*
X334358036Y-88490752D02*
X335072321Y-88490752D01*
X334643750Y-88062180D02*
X334358036Y-89347895D01*
X334977083Y-88919323D02*
X334262798Y-88919323D01*
X334691369Y-89347895D02*
X334977083Y-88062180D01*
X335881845Y-88157419D02*
X335405655Y-88157419D01*
X335405655Y-88157419D02*
X335358036Y-88633609D01*
X335358036Y-88633609D02*
X335405655Y-88585990D01*
X335405655Y-88585990D02*
X335500893Y-88538371D01*
X335500893Y-88538371D02*
X335738988Y-88538371D01*
X335738988Y-88538371D02*
X335834226Y-88585990D01*
X335834226Y-88585990D02*
X335881845Y-88633609D01*
X335881845Y-88633609D02*
X335929464Y-88728847D01*
X335929464Y-88728847D02*
X335929464Y-88966942D01*
X335929464Y-88966942D02*
X335881845Y-89062180D01*
X335881845Y-89062180D02*
X335834226Y-89109800D01*
X335834226Y-89109800D02*
X335738988Y-89157419D01*
X335738988Y-89157419D02*
X335500893Y-89157419D01*
X335500893Y-89157419D02*
X335405655Y-89109800D01*
X335405655Y-89109800D02*
X335358036Y-89062180D01*
X243159524Y-88302657D02*
X243350000Y-88159800D01*
X243350000Y-88159800D02*
X243540476Y-88302657D01*
X365452997Y-106155952D02*
X365452997Y-106870237D01*
X365881569Y-106441666D02*
X364595854Y-106155952D01*
X365024426Y-106774999D02*
X365024426Y-106060714D01*
X364595854Y-106489285D02*
X365881569Y-106774999D01*
X365310140Y-107203571D02*
X365310140Y-107536904D01*
X364786330Y-107679761D02*
X364786330Y-107203571D01*
X364786330Y-107203571D02*
X365786330Y-107203571D01*
X365786330Y-107203571D02*
X365786330Y-107679761D01*
X364786330Y-108108333D02*
X365786330Y-108108333D01*
X365786330Y-108108333D02*
X364786330Y-108679761D01*
X364786330Y-108679761D02*
X365786330Y-108679761D01*
X365786330Y-109013095D02*
X365786330Y-109584523D01*
X364786330Y-109298809D02*
X365786330Y-109298809D01*
X365310140Y-109917857D02*
X365310140Y-110251190D01*
X364786330Y-110394047D02*
X364786330Y-109917857D01*
X364786330Y-109917857D02*
X365786330Y-109917857D01*
X365786330Y-109917857D02*
X365786330Y-110394047D01*
X364786330Y-111394047D02*
X365262521Y-111060714D01*
X364786330Y-110822619D02*
X365786330Y-110822619D01*
X365786330Y-110822619D02*
X365786330Y-111203571D01*
X365786330Y-111203571D02*
X365738711Y-111298809D01*
X365738711Y-111298809D02*
X365691092Y-111346428D01*
X365691092Y-111346428D02*
X365595854Y-111394047D01*
X365595854Y-111394047D02*
X365452997Y-111394047D01*
X365452997Y-111394047D02*
X365357759Y-111346428D01*
X365357759Y-111346428D02*
X365310140Y-111298809D01*
X365310140Y-111298809D02*
X365262521Y-111203571D01*
X365262521Y-111203571D02*
X365262521Y-110822619D01*
X128704166Y-50583609D02*
X128370833Y-50583609D01*
X128370833Y-51107419D02*
X128370833Y-50107419D01*
X128370833Y-50107419D02*
X128847023Y-50107419D01*
X129704166Y-50107419D02*
X129227976Y-50107419D01*
X129227976Y-50107419D02*
X129180357Y-50583609D01*
X129180357Y-50583609D02*
X129227976Y-50535990D01*
X129227976Y-50535990D02*
X129323214Y-50488371D01*
X129323214Y-50488371D02*
X129561309Y-50488371D01*
X129561309Y-50488371D02*
X129656547Y-50535990D01*
X129656547Y-50535990D02*
X129704166Y-50583609D01*
X129704166Y-50583609D02*
X129751785Y-50678847D01*
X129751785Y-50678847D02*
X129751785Y-50916942D01*
X129751785Y-50916942D02*
X129704166Y-51012180D01*
X129704166Y-51012180D02*
X129656547Y-51059800D01*
X129656547Y-51059800D02*
X129561309Y-51107419D01*
X129561309Y-51107419D02*
X129323214Y-51107419D01*
X129323214Y-51107419D02*
X129227976Y-51059800D01*
X129227976Y-51059800D02*
X129180357Y-51012180D01*
X100690476Y-69490752D02*
X100690476Y-70157419D01*
X100452381Y-69109800D02*
X100214286Y-69824085D01*
X100214286Y-69824085D02*
X100833333Y-69824085D01*
X315308036Y-107540752D02*
X316022321Y-107540752D01*
X315593750Y-107112180D02*
X315308036Y-108397895D01*
X315927083Y-107969323D02*
X315212798Y-107969323D01*
X315641369Y-108397895D02*
X315927083Y-107112180D01*
X316879464Y-108207419D02*
X316308036Y-108207419D01*
X316593750Y-108207419D02*
X316593750Y-107207419D01*
X316593750Y-107207419D02*
X316498512Y-107350276D01*
X316498512Y-107350276D02*
X316403274Y-107445514D01*
X316403274Y-107445514D02*
X316308036Y-107493133D01*
X119788095Y-69157419D02*
X119311905Y-69157419D01*
X119311905Y-69157419D02*
X119264286Y-69633609D01*
X119264286Y-69633609D02*
X119311905Y-69585990D01*
X119311905Y-69585990D02*
X119407143Y-69538371D01*
X119407143Y-69538371D02*
X119645238Y-69538371D01*
X119645238Y-69538371D02*
X119740476Y-69585990D01*
X119740476Y-69585990D02*
X119788095Y-69633609D01*
X119788095Y-69633609D02*
X119835714Y-69728847D01*
X119835714Y-69728847D02*
X119835714Y-69966942D01*
X119835714Y-69966942D02*
X119788095Y-70062180D01*
X119788095Y-70062180D02*
X119740476Y-70109800D01*
X119740476Y-70109800D02*
X119645238Y-70157419D01*
X119645238Y-70157419D02*
X119407143Y-70157419D01*
X119407143Y-70157419D02*
X119311905Y-70109800D01*
X119311905Y-70109800D02*
X119264286Y-70062180D01*
X365072045Y-69436905D02*
X365072045Y-69913095D01*
X364786330Y-69341667D02*
X365786330Y-69675000D01*
X365786330Y-69675000D02*
X364786330Y-70008333D01*
X364786330Y-70341667D02*
X365786330Y-70341667D01*
X365786330Y-70341667D02*
X365786330Y-70579762D01*
X365786330Y-70579762D02*
X365738711Y-70722619D01*
X365738711Y-70722619D02*
X365643473Y-70817857D01*
X365643473Y-70817857D02*
X365548235Y-70865476D01*
X365548235Y-70865476D02*
X365357759Y-70913095D01*
X365357759Y-70913095D02*
X365214902Y-70913095D01*
X365214902Y-70913095D02*
X365024426Y-70865476D01*
X365024426Y-70865476D02*
X364929188Y-70817857D01*
X364929188Y-70817857D02*
X364833950Y-70722619D01*
X364833950Y-70722619D02*
X364786330Y-70579762D01*
X364786330Y-70579762D02*
X364786330Y-70341667D01*
X364786330Y-71341667D02*
X365786330Y-71341667D01*
X365786330Y-71341667D02*
X365786330Y-71579762D01*
X365786330Y-71579762D02*
X365738711Y-71722619D01*
X365738711Y-71722619D02*
X365643473Y-71817857D01*
X365643473Y-71817857D02*
X365548235Y-71865476D01*
X365548235Y-71865476D02*
X365357759Y-71913095D01*
X365357759Y-71913095D02*
X365214902Y-71913095D01*
X365214902Y-71913095D02*
X365024426Y-71865476D01*
X365024426Y-71865476D02*
X364929188Y-71817857D01*
X364929188Y-71817857D02*
X364833950Y-71722619D01*
X364833950Y-71722619D02*
X364786330Y-71579762D01*
X364786330Y-71579762D02*
X364786330Y-71341667D01*
X166804166Y-50583609D02*
X166470833Y-50583609D01*
X166470833Y-51107419D02*
X166470833Y-50107419D01*
X166470833Y-50107419D02*
X166947023Y-50107419D01*
X167232738Y-50107419D02*
X167899404Y-50107419D01*
X167899404Y-50107419D02*
X167470833Y-51107419D01*
X52516666Y-50583609D02*
X52183333Y-50583609D01*
X52183333Y-51107419D02*
X52183333Y-50107419D01*
X52183333Y-50107419D02*
X52659523Y-50107419D01*
X53564285Y-51107419D02*
X52992857Y-51107419D01*
X53278571Y-51107419D02*
X53278571Y-50107419D01*
X53278571Y-50107419D02*
X53183333Y-50250276D01*
X53183333Y-50250276D02*
X53088095Y-50345514D01*
X53088095Y-50345514D02*
X52992857Y-50393133D01*
X210309523Y-108257419D02*
X209833333Y-108257419D01*
X209833333Y-108257419D02*
X209833333Y-107257419D01*
X24716071Y-69109800D02*
X23858929Y-70395514D01*
X42323809Y-146262180D02*
X42276190Y-146309800D01*
X42276190Y-146309800D02*
X42133333Y-146357419D01*
X42133333Y-146357419D02*
X42038095Y-146357419D01*
X42038095Y-146357419D02*
X41895238Y-146309800D01*
X41895238Y-146309800D02*
X41800000Y-146214561D01*
X41800000Y-146214561D02*
X41752381Y-146119323D01*
X41752381Y-146119323D02*
X41704762Y-145928847D01*
X41704762Y-145928847D02*
X41704762Y-145785990D01*
X41704762Y-145785990D02*
X41752381Y-145595514D01*
X41752381Y-145595514D02*
X41800000Y-145500276D01*
X41800000Y-145500276D02*
X41895238Y-145405038D01*
X41895238Y-145405038D02*
X42038095Y-145357419D01*
X42038095Y-145357419D02*
X42133333Y-145357419D01*
X42133333Y-145357419D02*
X42276190Y-145405038D01*
X42276190Y-145405038D02*
X42323809Y-145452657D01*
X43323809Y-146357419D02*
X42990476Y-145881228D01*
X42752381Y-146357419D02*
X42752381Y-145357419D01*
X42752381Y-145357419D02*
X43133333Y-145357419D01*
X43133333Y-145357419D02*
X43228571Y-145405038D01*
X43228571Y-145405038D02*
X43276190Y-145452657D01*
X43276190Y-145452657D02*
X43323809Y-145547895D01*
X43323809Y-145547895D02*
X43323809Y-145690752D01*
X43323809Y-145690752D02*
X43276190Y-145785990D01*
X43276190Y-145785990D02*
X43228571Y-145833609D01*
X43228571Y-145833609D02*
X43133333Y-145881228D01*
X43133333Y-145881228D02*
X42752381Y-145881228D01*
X43609524Y-145357419D02*
X44180952Y-145357419D01*
X43895238Y-146357419D02*
X43895238Y-145357419D01*
X44990476Y-146357419D02*
X44514286Y-146357419D01*
X44514286Y-146357419D02*
X44514286Y-145357419D01*
X286553571Y-107233609D02*
X286886904Y-107233609D01*
X287029761Y-107757419D02*
X286553571Y-107757419D01*
X286553571Y-107757419D02*
X286553571Y-106757419D01*
X286553571Y-106757419D02*
X287029761Y-106757419D01*
X287458333Y-107757419D02*
X287458333Y-106757419D01*
X287458333Y-106757419D02*
X288029761Y-107757419D01*
X288029761Y-107757419D02*
X288029761Y-106757419D01*
X288363095Y-106757419D02*
X288934523Y-106757419D01*
X288648809Y-107757419D02*
X288648809Y-106757419D01*
X289267857Y-107233609D02*
X289601190Y-107233609D01*
X289744047Y-107757419D02*
X289267857Y-107757419D01*
X289267857Y-107757419D02*
X289267857Y-106757419D01*
X289267857Y-106757419D02*
X289744047Y-106757419D01*
X290744047Y-107757419D02*
X290410714Y-107281228D01*
X290172619Y-107757419D02*
X290172619Y-106757419D01*
X290172619Y-106757419D02*
X290553571Y-106757419D01*
X290553571Y-106757419D02*
X290648809Y-106805038D01*
X290648809Y-106805038D02*
X290696428Y-106852657D01*
X290696428Y-106852657D02*
X290744047Y-106947895D01*
X290744047Y-106947895D02*
X290744047Y-107090752D01*
X290744047Y-107090752D02*
X290696428Y-107185990D01*
X290696428Y-107185990D02*
X290648809Y-107233609D01*
X290648809Y-107233609D02*
X290553571Y-107281228D01*
X290553571Y-107281228D02*
X290172619Y-107281228D01*
X352550893Y-51057419D02*
X352550893Y-50057419D01*
X352550893Y-50057419D02*
X352884226Y-50771704D01*
X352884226Y-50771704D02*
X353217559Y-50057419D01*
X353217559Y-50057419D02*
X353217559Y-51057419D01*
X353693750Y-50057419D02*
X353693750Y-50866942D01*
X353693750Y-50866942D02*
X353741369Y-50962180D01*
X353741369Y-50962180D02*
X353788988Y-51009800D01*
X353788988Y-51009800D02*
X353884226Y-51057419D01*
X353884226Y-51057419D02*
X354074702Y-51057419D01*
X354074702Y-51057419D02*
X354169940Y-51009800D01*
X354169940Y-51009800D02*
X354217559Y-50962180D01*
X354217559Y-50962180D02*
X354265178Y-50866942D01*
X354265178Y-50866942D02*
X354265178Y-50057419D01*
X355217559Y-51057419D02*
X354741369Y-51057419D01*
X354741369Y-51057419D02*
X354741369Y-50057419D01*
X355408036Y-50057419D02*
X355979464Y-50057419D01*
X355693750Y-51057419D02*
X355693750Y-50057419D01*
X247054761Y-146357419D02*
X246721428Y-145881228D01*
X246483333Y-146357419D02*
X246483333Y-145357419D01*
X246483333Y-145357419D02*
X246864285Y-145357419D01*
X246864285Y-145357419D02*
X246959523Y-145405038D01*
X246959523Y-145405038D02*
X247007142Y-145452657D01*
X247007142Y-145452657D02*
X247054761Y-145547895D01*
X247054761Y-145547895D02*
X247054761Y-145690752D01*
X247054761Y-145690752D02*
X247007142Y-145785990D01*
X247007142Y-145785990D02*
X246959523Y-145833609D01*
X246959523Y-145833609D02*
X246864285Y-145881228D01*
X246864285Y-145881228D02*
X246483333Y-145881228D01*
X247673809Y-145357419D02*
X247864285Y-145357419D01*
X247864285Y-145357419D02*
X247959523Y-145405038D01*
X247959523Y-145405038D02*
X248054761Y-145500276D01*
X248054761Y-145500276D02*
X248102380Y-145690752D01*
X248102380Y-145690752D02*
X248102380Y-146024085D01*
X248102380Y-146024085D02*
X248054761Y-146214561D01*
X248054761Y-146214561D02*
X247959523Y-146309800D01*
X247959523Y-146309800D02*
X247864285Y-146357419D01*
X247864285Y-146357419D02*
X247673809Y-146357419D01*
X247673809Y-146357419D02*
X247578571Y-146309800D01*
X247578571Y-146309800D02*
X247483333Y-146214561D01*
X247483333Y-146214561D02*
X247435714Y-146024085D01*
X247435714Y-146024085D02*
X247435714Y-145690752D01*
X247435714Y-145690752D02*
X247483333Y-145500276D01*
X247483333Y-145500276D02*
X247578571Y-145405038D01*
X247578571Y-145405038D02*
X247673809Y-145357419D01*
X248530952Y-146357419D02*
X248530952Y-145357419D01*
X248530952Y-145357419D02*
X248911904Y-145357419D01*
X248911904Y-145357419D02*
X249007142Y-145405038D01*
X249007142Y-145405038D02*
X249054761Y-145452657D01*
X249054761Y-145452657D02*
X249102380Y-145547895D01*
X249102380Y-145547895D02*
X249102380Y-145690752D01*
X249102380Y-145690752D02*
X249054761Y-145785990D01*
X249054761Y-145785990D02*
X249007142Y-145833609D01*
X249007142Y-145833609D02*
X248911904Y-145881228D01*
X248911904Y-145881228D02*
X248530952Y-145881228D01*
X249388095Y-145357419D02*
X249959523Y-145357419D01*
X249673809Y-146357419D02*
X249673809Y-145357419D01*
X280330952Y-69657419D02*
X280330952Y-68657419D01*
X280330952Y-68657419D02*
X280569047Y-68657419D01*
X280569047Y-68657419D02*
X280711904Y-68705038D01*
X280711904Y-68705038D02*
X280807142Y-68800276D01*
X280807142Y-68800276D02*
X280854761Y-68895514D01*
X280854761Y-68895514D02*
X280902380Y-69085990D01*
X280902380Y-69085990D02*
X280902380Y-69228847D01*
X280902380Y-69228847D02*
X280854761Y-69419323D01*
X280854761Y-69419323D02*
X280807142Y-69514561D01*
X280807142Y-69514561D02*
X280711904Y-69609800D01*
X280711904Y-69609800D02*
X280569047Y-69657419D01*
X280569047Y-69657419D02*
X280330952Y-69657419D01*
X281330952Y-69133609D02*
X281664285Y-69133609D01*
X281807142Y-69657419D02*
X281330952Y-69657419D01*
X281330952Y-69657419D02*
X281330952Y-68657419D01*
X281330952Y-68657419D02*
X281807142Y-68657419D01*
X282711904Y-69657419D02*
X282235714Y-69657419D01*
X282235714Y-69657419D02*
X282235714Y-68657419D01*
X214739881Y-69157419D02*
X214835119Y-69157419D01*
X214835119Y-69157419D02*
X214930357Y-69205038D01*
X214930357Y-69205038D02*
X214977976Y-69252657D01*
X214977976Y-69252657D02*
X215025595Y-69347895D01*
X215025595Y-69347895D02*
X215073214Y-69538371D01*
X215073214Y-69538371D02*
X215073214Y-69776466D01*
X215073214Y-69776466D02*
X215025595Y-69966942D01*
X215025595Y-69966942D02*
X214977976Y-70062180D01*
X214977976Y-70062180D02*
X214930357Y-70109800D01*
X214930357Y-70109800D02*
X214835119Y-70157419D01*
X214835119Y-70157419D02*
X214739881Y-70157419D01*
X214739881Y-70157419D02*
X214644643Y-70109800D01*
X214644643Y-70109800D02*
X214597024Y-70062180D01*
X214597024Y-70062180D02*
X214549405Y-69966942D01*
X214549405Y-69966942D02*
X214501786Y-69776466D01*
X214501786Y-69776466D02*
X214501786Y-69538371D01*
X214501786Y-69538371D02*
X214549405Y-69347895D01*
X214549405Y-69347895D02*
X214597024Y-69252657D01*
X214597024Y-69252657D02*
X214644643Y-69205038D01*
X214644643Y-69205038D02*
X214739881Y-69157419D01*
X186200000Y-89207419D02*
X186200000Y-88207419D01*
X233469048Y-69776466D02*
X234230953Y-69776466D01*
X284153571Y-88183609D02*
X284486904Y-88183609D01*
X284629761Y-88707419D02*
X284153571Y-88707419D01*
X284153571Y-88707419D02*
X284153571Y-87707419D01*
X284153571Y-87707419D02*
X284629761Y-87707419D01*
X285058333Y-88707419D02*
X285058333Y-87707419D01*
X285058333Y-87707419D02*
X285629761Y-88707419D01*
X285629761Y-88707419D02*
X285629761Y-87707419D01*
X285963095Y-87707419D02*
X286534523Y-87707419D01*
X286248809Y-88707419D02*
X286248809Y-87707419D01*
X286867857Y-88183609D02*
X287201190Y-88183609D01*
X287344047Y-88707419D02*
X286867857Y-88707419D01*
X286867857Y-88707419D02*
X286867857Y-87707419D01*
X286867857Y-87707419D02*
X287344047Y-87707419D01*
X288344047Y-88707419D02*
X288010714Y-88231228D01*
X287772619Y-88707419D02*
X287772619Y-87707419D01*
X287772619Y-87707419D02*
X288153571Y-87707419D01*
X288153571Y-87707419D02*
X288248809Y-87755038D01*
X288248809Y-87755038D02*
X288296428Y-87802657D01*
X288296428Y-87802657D02*
X288344047Y-87897895D01*
X288344047Y-87897895D02*
X288344047Y-88040752D01*
X288344047Y-88040752D02*
X288296428Y-88135990D01*
X288296428Y-88135990D02*
X288248809Y-88183609D01*
X288248809Y-88183609D02*
X288153571Y-88231228D01*
X288153571Y-88231228D02*
X287772619Y-88231228D01*
X81116667Y-69157419D02*
X81735714Y-69157419D01*
X81735714Y-69157419D02*
X81402381Y-69538371D01*
X81402381Y-69538371D02*
X81545238Y-69538371D01*
X81545238Y-69538371D02*
X81640476Y-69585990D01*
X81640476Y-69585990D02*
X81688095Y-69633609D01*
X81688095Y-69633609D02*
X81735714Y-69728847D01*
X81735714Y-69728847D02*
X81735714Y-69966942D01*
X81735714Y-69966942D02*
X81688095Y-70062180D01*
X81688095Y-70062180D02*
X81640476Y-70109800D01*
X81640476Y-70109800D02*
X81545238Y-70157419D01*
X81545238Y-70157419D02*
X81259524Y-70157419D01*
X81259524Y-70157419D02*
X81164286Y-70109800D01*
X81164286Y-70109800D02*
X81116667Y-70062180D01*
X349358036Y-146307419D02*
X349358036Y-145307419D01*
X349358036Y-145307419D02*
X349596131Y-145307419D01*
X349596131Y-145307419D02*
X349738988Y-145355038D01*
X349738988Y-145355038D02*
X349834226Y-145450276D01*
X349834226Y-145450276D02*
X349881845Y-145545514D01*
X349881845Y-145545514D02*
X349929464Y-145735990D01*
X349929464Y-145735990D02*
X349929464Y-145878847D01*
X349929464Y-145878847D02*
X349881845Y-146069323D01*
X349881845Y-146069323D02*
X349834226Y-146164561D01*
X349834226Y-146164561D02*
X349738988Y-146259800D01*
X349738988Y-146259800D02*
X349596131Y-146307419D01*
X349596131Y-146307419D02*
X349358036Y-146307419D01*
X350548512Y-145307419D02*
X350738988Y-145307419D01*
X350738988Y-145307419D02*
X350834226Y-145355038D01*
X350834226Y-145355038D02*
X350929464Y-145450276D01*
X350929464Y-145450276D02*
X350977083Y-145640752D01*
X350977083Y-145640752D02*
X350977083Y-145974085D01*
X350977083Y-145974085D02*
X350929464Y-146164561D01*
X350929464Y-146164561D02*
X350834226Y-146259800D01*
X350834226Y-146259800D02*
X350738988Y-146307419D01*
X350738988Y-146307419D02*
X350548512Y-146307419D01*
X350548512Y-146307419D02*
X350453274Y-146259800D01*
X350453274Y-146259800D02*
X350358036Y-146164561D01*
X350358036Y-146164561D02*
X350310417Y-145974085D01*
X350310417Y-145974085D02*
X350310417Y-145640752D01*
X350310417Y-145640752D02*
X350358036Y-145450276D01*
X350358036Y-145450276D02*
X350453274Y-145355038D01*
X350453274Y-145355038D02*
X350548512Y-145307419D01*
X351310417Y-145307419D02*
X351548512Y-146307419D01*
X351548512Y-146307419D02*
X351738988Y-145593133D01*
X351738988Y-145593133D02*
X351929464Y-146307419D01*
X351929464Y-146307419D02*
X352167560Y-145307419D01*
X352548512Y-146307419D02*
X352548512Y-145307419D01*
X352548512Y-145307419D02*
X353119940Y-146307419D01*
X353119940Y-146307419D02*
X353119940Y-145307419D01*
X354310417Y-146021704D02*
X354786607Y-146021704D01*
X354215179Y-146307419D02*
X354548512Y-145307419D01*
X354548512Y-145307419D02*
X354881845Y-146307419D01*
X355786607Y-146307419D02*
X355453274Y-145831228D01*
X355215179Y-146307419D02*
X355215179Y-145307419D01*
X355215179Y-145307419D02*
X355596131Y-145307419D01*
X355596131Y-145307419D02*
X355691369Y-145355038D01*
X355691369Y-145355038D02*
X355738988Y-145402657D01*
X355738988Y-145402657D02*
X355786607Y-145497895D01*
X355786607Y-145497895D02*
X355786607Y-145640752D01*
X355786607Y-145640752D02*
X355738988Y-145735990D01*
X355738988Y-145735990D02*
X355691369Y-145783609D01*
X355691369Y-145783609D02*
X355596131Y-145831228D01*
X355596131Y-145831228D02*
X355215179Y-145831228D01*
X356786607Y-146307419D02*
X356453274Y-145831228D01*
X356215179Y-146307419D02*
X356215179Y-145307419D01*
X356215179Y-145307419D02*
X356596131Y-145307419D01*
X356596131Y-145307419D02*
X356691369Y-145355038D01*
X356691369Y-145355038D02*
X356738988Y-145402657D01*
X356738988Y-145402657D02*
X356786607Y-145497895D01*
X356786607Y-145497895D02*
X356786607Y-145640752D01*
X356786607Y-145640752D02*
X356738988Y-145735990D01*
X356738988Y-145735990D02*
X356691369Y-145783609D01*
X356691369Y-145783609D02*
X356596131Y-145831228D01*
X356596131Y-145831228D02*
X356215179Y-145831228D01*
X357405655Y-145307419D02*
X357596131Y-145307419D01*
X357596131Y-145307419D02*
X357691369Y-145355038D01*
X357691369Y-145355038D02*
X357786607Y-145450276D01*
X357786607Y-145450276D02*
X357834226Y-145640752D01*
X357834226Y-145640752D02*
X357834226Y-145974085D01*
X357834226Y-145974085D02*
X357786607Y-146164561D01*
X357786607Y-146164561D02*
X357691369Y-146259800D01*
X357691369Y-146259800D02*
X357596131Y-146307419D01*
X357596131Y-146307419D02*
X357405655Y-146307419D01*
X357405655Y-146307419D02*
X357310417Y-146259800D01*
X357310417Y-146259800D02*
X357215179Y-146164561D01*
X357215179Y-146164561D02*
X357167560Y-145974085D01*
X357167560Y-145974085D02*
X357167560Y-145640752D01*
X357167560Y-145640752D02*
X357215179Y-145450276D01*
X357215179Y-145450276D02*
X357310417Y-145355038D01*
X357310417Y-145355038D02*
X357405655Y-145307419D01*
X358167560Y-145307419D02*
X358405655Y-146307419D01*
X358405655Y-146307419D02*
X358596131Y-145593133D01*
X358596131Y-145593133D02*
X358786607Y-146307419D01*
X358786607Y-146307419D02*
X359024703Y-145307419D01*
X350490774Y-126257419D02*
X350490774Y-127066942D01*
X350490774Y-127066942D02*
X350538393Y-127162180D01*
X350538393Y-127162180D02*
X350586012Y-127209800D01*
X350586012Y-127209800D02*
X350681250Y-127257419D01*
X350681250Y-127257419D02*
X350871726Y-127257419D01*
X350871726Y-127257419D02*
X350966964Y-127209800D01*
X350966964Y-127209800D02*
X351014583Y-127162180D01*
X351014583Y-127162180D02*
X351062202Y-127066942D01*
X351062202Y-127066942D02*
X351062202Y-126257419D01*
X351538393Y-127257419D02*
X351538393Y-126257419D01*
X351538393Y-126257419D02*
X351919345Y-126257419D01*
X351919345Y-126257419D02*
X352014583Y-126305038D01*
X352014583Y-126305038D02*
X352062202Y-126352657D01*
X352062202Y-126352657D02*
X352109821Y-126447895D01*
X352109821Y-126447895D02*
X352109821Y-126590752D01*
X352109821Y-126590752D02*
X352062202Y-126685990D01*
X352062202Y-126685990D02*
X352014583Y-126733609D01*
X352014583Y-126733609D02*
X351919345Y-126781228D01*
X351919345Y-126781228D02*
X351538393Y-126781228D01*
X353252679Y-126971704D02*
X353728869Y-126971704D01*
X353157441Y-127257419D02*
X353490774Y-126257419D01*
X353490774Y-126257419D02*
X353824107Y-127257419D01*
X354728869Y-127257419D02*
X354395536Y-126781228D01*
X354157441Y-127257419D02*
X354157441Y-126257419D01*
X354157441Y-126257419D02*
X354538393Y-126257419D01*
X354538393Y-126257419D02*
X354633631Y-126305038D01*
X354633631Y-126305038D02*
X354681250Y-126352657D01*
X354681250Y-126352657D02*
X354728869Y-126447895D01*
X354728869Y-126447895D02*
X354728869Y-126590752D01*
X354728869Y-126590752D02*
X354681250Y-126685990D01*
X354681250Y-126685990D02*
X354633631Y-126733609D01*
X354633631Y-126733609D02*
X354538393Y-126781228D01*
X354538393Y-126781228D02*
X354157441Y-126781228D01*
X355728869Y-127257419D02*
X355395536Y-126781228D01*
X355157441Y-127257419D02*
X355157441Y-126257419D01*
X355157441Y-126257419D02*
X355538393Y-126257419D01*
X355538393Y-126257419D02*
X355633631Y-126305038D01*
X355633631Y-126305038D02*
X355681250Y-126352657D01*
X355681250Y-126352657D02*
X355728869Y-126447895D01*
X355728869Y-126447895D02*
X355728869Y-126590752D01*
X355728869Y-126590752D02*
X355681250Y-126685990D01*
X355681250Y-126685990D02*
X355633631Y-126733609D01*
X355633631Y-126733609D02*
X355538393Y-126781228D01*
X355538393Y-126781228D02*
X355157441Y-126781228D01*
X356347917Y-126257419D02*
X356538393Y-126257419D01*
X356538393Y-126257419D02*
X356633631Y-126305038D01*
X356633631Y-126305038D02*
X356728869Y-126400276D01*
X356728869Y-126400276D02*
X356776488Y-126590752D01*
X356776488Y-126590752D02*
X356776488Y-126924085D01*
X356776488Y-126924085D02*
X356728869Y-127114561D01*
X356728869Y-127114561D02*
X356633631Y-127209800D01*
X356633631Y-127209800D02*
X356538393Y-127257419D01*
X356538393Y-127257419D02*
X356347917Y-127257419D01*
X356347917Y-127257419D02*
X356252679Y-127209800D01*
X356252679Y-127209800D02*
X356157441Y-127114561D01*
X356157441Y-127114561D02*
X356109822Y-126924085D01*
X356109822Y-126924085D02*
X356109822Y-126590752D01*
X356109822Y-126590752D02*
X356157441Y-126400276D01*
X356157441Y-126400276D02*
X356252679Y-126305038D01*
X356252679Y-126305038D02*
X356347917Y-126257419D01*
X357109822Y-126257419D02*
X357347917Y-127257419D01*
X357347917Y-127257419D02*
X357538393Y-126543133D01*
X357538393Y-126543133D02*
X357728869Y-127257419D01*
X357728869Y-127257419D02*
X357966965Y-126257419D01*
X147766666Y-50583609D02*
X147433333Y-50583609D01*
X147433333Y-51107419D02*
X147433333Y-50107419D01*
X147433333Y-50107419D02*
X147909523Y-50107419D01*
X148719047Y-50107419D02*
X148528571Y-50107419D01*
X148528571Y-50107419D02*
X148433333Y-50155038D01*
X148433333Y-50155038D02*
X148385714Y-50202657D01*
X148385714Y-50202657D02*
X148290476Y-50345514D01*
X148290476Y-50345514D02*
X148242857Y-50535990D01*
X148242857Y-50535990D02*
X148242857Y-50916942D01*
X148242857Y-50916942D02*
X148290476Y-51012180D01*
X148290476Y-51012180D02*
X148338095Y-51059800D01*
X148338095Y-51059800D02*
X148433333Y-51107419D01*
X148433333Y-51107419D02*
X148623809Y-51107419D01*
X148623809Y-51107419D02*
X148719047Y-51059800D01*
X148719047Y-51059800D02*
X148766666Y-51012180D01*
X148766666Y-51012180D02*
X148814285Y-50916942D01*
X148814285Y-50916942D02*
X148814285Y-50678847D01*
X148814285Y-50678847D02*
X148766666Y-50583609D01*
X148766666Y-50583609D02*
X148719047Y-50535990D01*
X148719047Y-50535990D02*
X148623809Y-50488371D01*
X148623809Y-50488371D02*
X148433333Y-50488371D01*
X148433333Y-50488371D02*
X148338095Y-50535990D01*
X148338095Y-50535990D02*
X148290476Y-50583609D01*
X148290476Y-50583609D02*
X148242857Y-50678847D01*
X353408036Y-88490752D02*
X354122321Y-88490752D01*
X353693750Y-88062180D02*
X353408036Y-89347895D01*
X354027083Y-88919323D02*
X353312798Y-88919323D01*
X353741369Y-89347895D02*
X354027083Y-88062180D01*
X354884226Y-88157419D02*
X354693750Y-88157419D01*
X354693750Y-88157419D02*
X354598512Y-88205038D01*
X354598512Y-88205038D02*
X354550893Y-88252657D01*
X354550893Y-88252657D02*
X354455655Y-88395514D01*
X354455655Y-88395514D02*
X354408036Y-88585990D01*
X354408036Y-88585990D02*
X354408036Y-88966942D01*
X354408036Y-88966942D02*
X354455655Y-89062180D01*
X354455655Y-89062180D02*
X354503274Y-89109800D01*
X354503274Y-89109800D02*
X354598512Y-89157419D01*
X354598512Y-89157419D02*
X354788988Y-89157419D01*
X354788988Y-89157419D02*
X354884226Y-89109800D01*
X354884226Y-89109800D02*
X354931845Y-89062180D01*
X354931845Y-89062180D02*
X354979464Y-88966942D01*
X354979464Y-88966942D02*
X354979464Y-88728847D01*
X354979464Y-88728847D02*
X354931845Y-88633609D01*
X354931845Y-88633609D02*
X354884226Y-88585990D01*
X354884226Y-88585990D02*
X354788988Y-88538371D01*
X354788988Y-88538371D02*
X354598512Y-88538371D01*
X354598512Y-88538371D02*
X354503274Y-88585990D01*
X354503274Y-88585990D02*
X354455655Y-88633609D01*
X354455655Y-88633609D02*
X354408036Y-88728847D01*
X85816667Y-126307419D02*
X86483333Y-127307419D01*
X86483333Y-126307419D02*
X85816667Y-127307419D01*
X176604762Y-69585990D02*
X176509524Y-69538371D01*
X176509524Y-69538371D02*
X176461905Y-69490752D01*
X176461905Y-69490752D02*
X176414286Y-69395514D01*
X176414286Y-69395514D02*
X176414286Y-69347895D01*
X176414286Y-69347895D02*
X176461905Y-69252657D01*
X176461905Y-69252657D02*
X176509524Y-69205038D01*
X176509524Y-69205038D02*
X176604762Y-69157419D01*
X176604762Y-69157419D02*
X176795238Y-69157419D01*
X176795238Y-69157419D02*
X176890476Y-69205038D01*
X176890476Y-69205038D02*
X176938095Y-69252657D01*
X176938095Y-69252657D02*
X176985714Y-69347895D01*
X176985714Y-69347895D02*
X176985714Y-69395514D01*
X176985714Y-69395514D02*
X176938095Y-69490752D01*
X176938095Y-69490752D02*
X176890476Y-69538371D01*
X176890476Y-69538371D02*
X176795238Y-69585990D01*
X176795238Y-69585990D02*
X176604762Y-69585990D01*
X176604762Y-69585990D02*
X176509524Y-69633609D01*
X176509524Y-69633609D02*
X176461905Y-69681228D01*
X176461905Y-69681228D02*
X176414286Y-69776466D01*
X176414286Y-69776466D02*
X176414286Y-69966942D01*
X176414286Y-69966942D02*
X176461905Y-70062180D01*
X176461905Y-70062180D02*
X176509524Y-70109800D01*
X176509524Y-70109800D02*
X176604762Y-70157419D01*
X176604762Y-70157419D02*
X176795238Y-70157419D01*
X176795238Y-70157419D02*
X176890476Y-70109800D01*
X176890476Y-70109800D02*
X176938095Y-70062180D01*
X176938095Y-70062180D02*
X176985714Y-69966942D01*
X176985714Y-69966942D02*
X176985714Y-69776466D01*
X176985714Y-69776466D02*
X176938095Y-69681228D01*
X176938095Y-69681228D02*
X176890476Y-69633609D01*
X176890476Y-69633609D02*
X176795238Y-69585990D01*
X27834524Y-50083609D02*
X28167857Y-50083609D01*
X28310714Y-50607419D02*
X27834524Y-50607419D01*
X27834524Y-50607419D02*
X27834524Y-49607419D01*
X27834524Y-49607419D02*
X28310714Y-49607419D01*
X28691667Y-50559800D02*
X28834524Y-50607419D01*
X28834524Y-50607419D02*
X29072619Y-50607419D01*
X29072619Y-50607419D02*
X29167857Y-50559800D01*
X29167857Y-50559800D02*
X29215476Y-50512180D01*
X29215476Y-50512180D02*
X29263095Y-50416942D01*
X29263095Y-50416942D02*
X29263095Y-50321704D01*
X29263095Y-50321704D02*
X29215476Y-50226466D01*
X29215476Y-50226466D02*
X29167857Y-50178847D01*
X29167857Y-50178847D02*
X29072619Y-50131228D01*
X29072619Y-50131228D02*
X28882143Y-50083609D01*
X28882143Y-50083609D02*
X28786905Y-50035990D01*
X28786905Y-50035990D02*
X28739286Y-49988371D01*
X28739286Y-49988371D02*
X28691667Y-49893133D01*
X28691667Y-49893133D02*
X28691667Y-49797895D01*
X28691667Y-49797895D02*
X28739286Y-49702657D01*
X28739286Y-49702657D02*
X28786905Y-49655038D01*
X28786905Y-49655038D02*
X28882143Y-49607419D01*
X28882143Y-49607419D02*
X29120238Y-49607419D01*
X29120238Y-49607419D02*
X29263095Y-49655038D01*
X30263095Y-50512180D02*
X30215476Y-50559800D01*
X30215476Y-50559800D02*
X30072619Y-50607419D01*
X30072619Y-50607419D02*
X29977381Y-50607419D01*
X29977381Y-50607419D02*
X29834524Y-50559800D01*
X29834524Y-50559800D02*
X29739286Y-50464561D01*
X29739286Y-50464561D02*
X29691667Y-50369323D01*
X29691667Y-50369323D02*
X29644048Y-50178847D01*
X29644048Y-50178847D02*
X29644048Y-50035990D01*
X29644048Y-50035990D02*
X29691667Y-49845514D01*
X29691667Y-49845514D02*
X29739286Y-49750276D01*
X29739286Y-49750276D02*
X29834524Y-49655038D01*
X29834524Y-49655038D02*
X29977381Y-49607419D01*
X29977381Y-49607419D02*
X30072619Y-49607419D01*
X30072619Y-49607419D02*
X30215476Y-49655038D01*
X30215476Y-49655038D02*
X30263095Y-49702657D01*
X172042857Y-107257419D02*
X172042857Y-107971704D01*
X172042857Y-107971704D02*
X171995238Y-108114561D01*
X171995238Y-108114561D02*
X171900000Y-108209800D01*
X171900000Y-108209800D02*
X171757143Y-108257419D01*
X171757143Y-108257419D02*
X171661905Y-108257419D01*
X238385714Y-126783609D02*
X238719047Y-126783609D01*
X238861904Y-127307419D02*
X238385714Y-127307419D01*
X238385714Y-127307419D02*
X238385714Y-126307419D01*
X238385714Y-126307419D02*
X238861904Y-126307419D01*
X238719047Y-125926466D02*
X238576190Y-126069323D01*
X109654166Y-50583609D02*
X109320833Y-50583609D01*
X109320833Y-51107419D02*
X109320833Y-50107419D01*
X109320833Y-50107419D02*
X109797023Y-50107419D01*
X110606547Y-50440752D02*
X110606547Y-51107419D01*
X110368452Y-50059800D02*
X110130357Y-50774085D01*
X110130357Y-50774085D02*
X110749404Y-50774085D01*
X353408036Y-107540752D02*
X354122321Y-107540752D01*
X353693750Y-107112180D02*
X353408036Y-108397895D01*
X354027083Y-107969323D02*
X353312798Y-107969323D01*
X353741369Y-108397895D02*
X354027083Y-107112180D01*
X354360417Y-107207419D02*
X354979464Y-107207419D01*
X354979464Y-107207419D02*
X354646131Y-107588371D01*
X354646131Y-107588371D02*
X354788988Y-107588371D01*
X354788988Y-107588371D02*
X354884226Y-107635990D01*
X354884226Y-107635990D02*
X354931845Y-107683609D01*
X354931845Y-107683609D02*
X354979464Y-107778847D01*
X354979464Y-107778847D02*
X354979464Y-108016942D01*
X354979464Y-108016942D02*
X354931845Y-108112180D01*
X354931845Y-108112180D02*
X354884226Y-108159800D01*
X354884226Y-108159800D02*
X354788988Y-108207419D01*
X354788988Y-108207419D02*
X354503274Y-108207419D01*
X354503274Y-108207419D02*
X354408036Y-108159800D01*
X354408036Y-108159800D02*
X354360417Y-108112180D01*
X23869047Y-145833609D02*
X23535714Y-145833609D01*
X23535714Y-146357419D02*
X23535714Y-145357419D01*
X23535714Y-145357419D02*
X24011904Y-145357419D01*
X24392857Y-146357419D02*
X24392857Y-145357419D01*
X24392857Y-145357419D02*
X24964285Y-146357419D01*
X24964285Y-146357419D02*
X24964285Y-145357419D01*
X185866666Y-50583609D02*
X185533333Y-50583609D01*
X185533333Y-51107419D02*
X185533333Y-50107419D01*
X185533333Y-50107419D02*
X186009523Y-50107419D01*
X186533333Y-50535990D02*
X186438095Y-50488371D01*
X186438095Y-50488371D02*
X186390476Y-50440752D01*
X186390476Y-50440752D02*
X186342857Y-50345514D01*
X186342857Y-50345514D02*
X186342857Y-50297895D01*
X186342857Y-50297895D02*
X186390476Y-50202657D01*
X186390476Y-50202657D02*
X186438095Y-50155038D01*
X186438095Y-50155038D02*
X186533333Y-50107419D01*
X186533333Y-50107419D02*
X186723809Y-50107419D01*
X186723809Y-50107419D02*
X186819047Y-50155038D01*
X186819047Y-50155038D02*
X186866666Y-50202657D01*
X186866666Y-50202657D02*
X186914285Y-50297895D01*
X186914285Y-50297895D02*
X186914285Y-50345514D01*
X186914285Y-50345514D02*
X186866666Y-50440752D01*
X186866666Y-50440752D02*
X186819047Y-50488371D01*
X186819047Y-50488371D02*
X186723809Y-50535990D01*
X186723809Y-50535990D02*
X186533333Y-50535990D01*
X186533333Y-50535990D02*
X186438095Y-50583609D01*
X186438095Y-50583609D02*
X186390476Y-50631228D01*
X186390476Y-50631228D02*
X186342857Y-50726466D01*
X186342857Y-50726466D02*
X186342857Y-50916942D01*
X186342857Y-50916942D02*
X186390476Y-51012180D01*
X186390476Y-51012180D02*
X186438095Y-51059800D01*
X186438095Y-51059800D02*
X186533333Y-51107419D01*
X186533333Y-51107419D02*
X186723809Y-51107419D01*
X186723809Y-51107419D02*
X186819047Y-51059800D01*
X186819047Y-51059800D02*
X186866666Y-51012180D01*
X186866666Y-51012180D02*
X186914285Y-50916942D01*
X186914285Y-50916942D02*
X186914285Y-50726466D01*
X186914285Y-50726466D02*
X186866666Y-50631228D01*
X186866666Y-50631228D02*
X186819047Y-50583609D01*
X186819047Y-50583609D02*
X186723809Y-50535990D01*
X223988095Y-89207419D02*
X223988095Y-88207419D01*
X223988095Y-88207419D02*
X224369047Y-88207419D01*
X224369047Y-88207419D02*
X224464285Y-88255038D01*
X224464285Y-88255038D02*
X224511904Y-88302657D01*
X224511904Y-88302657D02*
X224559523Y-88397895D01*
X224559523Y-88397895D02*
X224559523Y-88540752D01*
X224559523Y-88540752D02*
X224511904Y-88635990D01*
X224511904Y-88635990D02*
X224464285Y-88683609D01*
X224464285Y-88683609D02*
X224369047Y-88731228D01*
X224369047Y-88731228D02*
X223988095Y-88731228D01*
X62164286Y-69252657D02*
X62211905Y-69205038D01*
X62211905Y-69205038D02*
X62307143Y-69157419D01*
X62307143Y-69157419D02*
X62545238Y-69157419D01*
X62545238Y-69157419D02*
X62640476Y-69205038D01*
X62640476Y-69205038D02*
X62688095Y-69252657D01*
X62688095Y-69252657D02*
X62735714Y-69347895D01*
X62735714Y-69347895D02*
X62735714Y-69443133D01*
X62735714Y-69443133D02*
X62688095Y-69585990D01*
X62688095Y-69585990D02*
X62116667Y-70157419D01*
X62116667Y-70157419D02*
X62735714Y-70157419D01*
X313295536Y-51057419D02*
X313295536Y-50057419D01*
X313295536Y-50057419D02*
X313866964Y-51057419D01*
X313866964Y-51057419D02*
X313866964Y-50057419D01*
X314343155Y-50057419D02*
X314343155Y-50866942D01*
X314343155Y-50866942D02*
X314390774Y-50962180D01*
X314390774Y-50962180D02*
X314438393Y-51009800D01*
X314438393Y-51009800D02*
X314533631Y-51057419D01*
X314533631Y-51057419D02*
X314724107Y-51057419D01*
X314724107Y-51057419D02*
X314819345Y-51009800D01*
X314819345Y-51009800D02*
X314866964Y-50962180D01*
X314866964Y-50962180D02*
X314914583Y-50866942D01*
X314914583Y-50866942D02*
X314914583Y-50057419D01*
X315390774Y-51057419D02*
X315390774Y-50057419D01*
X315390774Y-50057419D02*
X315724107Y-50771704D01*
X315724107Y-50771704D02*
X316057440Y-50057419D01*
X316057440Y-50057419D02*
X316057440Y-51057419D01*
X317009821Y-51057419D02*
X316533631Y-51057419D01*
X316533631Y-51057419D02*
X316533631Y-50057419D01*
X317914583Y-50962180D02*
X317866964Y-51009800D01*
X317866964Y-51009800D02*
X317724107Y-51057419D01*
X317724107Y-51057419D02*
X317628869Y-51057419D01*
X317628869Y-51057419D02*
X317486012Y-51009800D01*
X317486012Y-51009800D02*
X317390774Y-50914561D01*
X317390774Y-50914561D02*
X317343155Y-50819323D01*
X317343155Y-50819323D02*
X317295536Y-50628847D01*
X317295536Y-50628847D02*
X317295536Y-50485990D01*
X317295536Y-50485990D02*
X317343155Y-50295514D01*
X317343155Y-50295514D02*
X317390774Y-50200276D01*
X317390774Y-50200276D02*
X317486012Y-50105038D01*
X317486012Y-50105038D02*
X317628869Y-50057419D01*
X317628869Y-50057419D02*
X317724107Y-50057419D01*
X317724107Y-50057419D02*
X317866964Y-50105038D01*
X317866964Y-50105038D02*
X317914583Y-50152657D01*
X318343155Y-51057419D02*
X318343155Y-50057419D01*
X318914583Y-51057419D02*
X318486012Y-50485990D01*
X318914583Y-50057419D02*
X318343155Y-50628847D01*
X261590476Y-50583609D02*
X261257143Y-50583609D01*
X261257143Y-51107419D02*
X261257143Y-50107419D01*
X261257143Y-50107419D02*
X261733333Y-50107419D01*
X262638095Y-51107419D02*
X262066667Y-51107419D01*
X262352381Y-51107419D02*
X262352381Y-50107419D01*
X262352381Y-50107419D02*
X262257143Y-50250276D01*
X262257143Y-50250276D02*
X262161905Y-50345514D01*
X262161905Y-50345514D02*
X262066667Y-50393133D01*
X263019048Y-50202657D02*
X263066667Y-50155038D01*
X263066667Y-50155038D02*
X263161905Y-50107419D01*
X263161905Y-50107419D02*
X263400000Y-50107419D01*
X263400000Y-50107419D02*
X263495238Y-50155038D01*
X263495238Y-50155038D02*
X263542857Y-50202657D01*
X263542857Y-50202657D02*
X263590476Y-50297895D01*
X263590476Y-50297895D02*
X263590476Y-50393133D01*
X263590476Y-50393133D02*
X263542857Y-50535990D01*
X263542857Y-50535990D02*
X262971429Y-51107419D01*
X262971429Y-51107419D02*
X263590476Y-51107419D01*
X28924999Y-107662180D02*
X28877380Y-107709800D01*
X28877380Y-107709800D02*
X28734523Y-107757419D01*
X28734523Y-107757419D02*
X28639285Y-107757419D01*
X28639285Y-107757419D02*
X28496428Y-107709800D01*
X28496428Y-107709800D02*
X28401190Y-107614561D01*
X28401190Y-107614561D02*
X28353571Y-107519323D01*
X28353571Y-107519323D02*
X28305952Y-107328847D01*
X28305952Y-107328847D02*
X28305952Y-107185990D01*
X28305952Y-107185990D02*
X28353571Y-106995514D01*
X28353571Y-106995514D02*
X28401190Y-106900276D01*
X28401190Y-106900276D02*
X28496428Y-106805038D01*
X28496428Y-106805038D02*
X28639285Y-106757419D01*
X28639285Y-106757419D02*
X28734523Y-106757419D01*
X28734523Y-106757419D02*
X28877380Y-106805038D01*
X28877380Y-106805038D02*
X28924999Y-106852657D01*
X29305952Y-107471704D02*
X29782142Y-107471704D01*
X29210714Y-107757419D02*
X29544047Y-106757419D01*
X29544047Y-106757419D02*
X29877380Y-107757419D01*
X30210714Y-107757419D02*
X30210714Y-106757419D01*
X30210714Y-106757419D02*
X30591666Y-106757419D01*
X30591666Y-106757419D02*
X30686904Y-106805038D01*
X30686904Y-106805038D02*
X30734523Y-106852657D01*
X30734523Y-106852657D02*
X30782142Y-106947895D01*
X30782142Y-106947895D02*
X30782142Y-107090752D01*
X30782142Y-107090752D02*
X30734523Y-107185990D01*
X30734523Y-107185990D02*
X30686904Y-107233609D01*
X30686904Y-107233609D02*
X30591666Y-107281228D01*
X30591666Y-107281228D02*
X30210714Y-107281228D01*
X31163095Y-107709800D02*
X31305952Y-107757419D01*
X31305952Y-107757419D02*
X31544047Y-107757419D01*
X31544047Y-107757419D02*
X31639285Y-107709800D01*
X31639285Y-107709800D02*
X31686904Y-107662180D01*
X31686904Y-107662180D02*
X31734523Y-107566942D01*
X31734523Y-107566942D02*
X31734523Y-107471704D01*
X31734523Y-107471704D02*
X31686904Y-107376466D01*
X31686904Y-107376466D02*
X31639285Y-107328847D01*
X31639285Y-107328847D02*
X31544047Y-107281228D01*
X31544047Y-107281228D02*
X31353571Y-107233609D01*
X31353571Y-107233609D02*
X31258333Y-107185990D01*
X31258333Y-107185990D02*
X31210714Y-107138371D01*
X31210714Y-107138371D02*
X31163095Y-107043133D01*
X31163095Y-107043133D02*
X31163095Y-106947895D01*
X31163095Y-106947895D02*
X31210714Y-106852657D01*
X31210714Y-106852657D02*
X31258333Y-106805038D01*
X31258333Y-106805038D02*
X31353571Y-106757419D01*
X31353571Y-106757419D02*
X31591666Y-106757419D01*
X31591666Y-106757419D02*
X31734523Y-106805038D01*
X32639285Y-107757419D02*
X32163095Y-107757419D01*
X32163095Y-107757419D02*
X32163095Y-106757419D01*
X33544047Y-107662180D02*
X33496428Y-107709800D01*
X33496428Y-107709800D02*
X33353571Y-107757419D01*
X33353571Y-107757419D02*
X33258333Y-107757419D01*
X33258333Y-107757419D02*
X33115476Y-107709800D01*
X33115476Y-107709800D02*
X33020238Y-107614561D01*
X33020238Y-107614561D02*
X32972619Y-107519323D01*
X32972619Y-107519323D02*
X32925000Y-107328847D01*
X32925000Y-107328847D02*
X32925000Y-107185990D01*
X32925000Y-107185990D02*
X32972619Y-106995514D01*
X32972619Y-106995514D02*
X33020238Y-106900276D01*
X33020238Y-106900276D02*
X33115476Y-106805038D01*
X33115476Y-106805038D02*
X33258333Y-106757419D01*
X33258333Y-106757419D02*
X33353571Y-106757419D01*
X33353571Y-106757419D02*
X33496428Y-106805038D01*
X33496428Y-106805038D02*
X33544047Y-106852657D01*
X33972619Y-107757419D02*
X33972619Y-106757419D01*
X34544047Y-107757419D02*
X34115476Y-107185990D01*
X34544047Y-106757419D02*
X33972619Y-107328847D01*
X205154762Y-88207419D02*
X205345238Y-88207419D01*
X205345238Y-88207419D02*
X205440476Y-88255038D01*
X205440476Y-88255038D02*
X205535714Y-88350276D01*
X205535714Y-88350276D02*
X205583333Y-88540752D01*
X205583333Y-88540752D02*
X205583333Y-88874085D01*
X205583333Y-88874085D02*
X205535714Y-89064561D01*
X205535714Y-89064561D02*
X205440476Y-89159800D01*
X205440476Y-89159800D02*
X205345238Y-89207419D01*
X205345238Y-89207419D02*
X205154762Y-89207419D01*
X205154762Y-89207419D02*
X205059524Y-89159800D01*
X205059524Y-89159800D02*
X204964286Y-89064561D01*
X204964286Y-89064561D02*
X204916667Y-88874085D01*
X204916667Y-88874085D02*
X204916667Y-88540752D01*
X204916667Y-88540752D02*
X204964286Y-88350276D01*
X204964286Y-88350276D02*
X205059524Y-88255038D01*
X205059524Y-88255038D02*
X205154762Y-88207419D01*
X47814286Y-126307419D02*
X47814286Y-127116942D01*
X47814286Y-127116942D02*
X47861905Y-127212180D01*
X47861905Y-127212180D02*
X47909524Y-127259800D01*
X47909524Y-127259800D02*
X48004762Y-127307419D01*
X48004762Y-127307419D02*
X48195238Y-127307419D01*
X48195238Y-127307419D02*
X48290476Y-127259800D01*
X48290476Y-127259800D02*
X48338095Y-127212180D01*
X48338095Y-127212180D02*
X48385714Y-127116942D01*
X48385714Y-127116942D02*
X48385714Y-126307419D01*
X48004762Y-125926466D02*
X48147619Y-126069323D01*
X315308036Y-88490752D02*
X316022321Y-88490752D01*
X315593750Y-88062180D02*
X315308036Y-89347895D01*
X315927083Y-88919323D02*
X315212798Y-88919323D01*
X315641369Y-89347895D02*
X315927083Y-88062180D01*
X316784226Y-88490752D02*
X316784226Y-89157419D01*
X316546131Y-88109800D02*
X316308036Y-88824085D01*
X316308036Y-88824085D02*
X316927083Y-88824085D01*
X166864286Y-88207419D02*
X166864286Y-89016942D01*
X166864286Y-89016942D02*
X166911905Y-89112180D01*
X166911905Y-89112180D02*
X166959524Y-89159800D01*
X166959524Y-89159800D02*
X167054762Y-89207419D01*
X167054762Y-89207419D02*
X167245238Y-89207419D01*
X167245238Y-89207419D02*
X167340476Y-89159800D01*
X167340476Y-89159800D02*
X167388095Y-89112180D01*
X167388095Y-89112180D02*
X167435714Y-89016942D01*
X167435714Y-89016942D02*
X167435714Y-88207419D01*
X204916666Y-50583609D02*
X204583333Y-50583609D01*
X204583333Y-51107419D02*
X204583333Y-50107419D01*
X204583333Y-50107419D02*
X205059523Y-50107419D01*
X205488095Y-51107419D02*
X205678571Y-51107419D01*
X205678571Y-51107419D02*
X205773809Y-51059800D01*
X205773809Y-51059800D02*
X205821428Y-51012180D01*
X205821428Y-51012180D02*
X205916666Y-50869323D01*
X205916666Y-50869323D02*
X205964285Y-50678847D01*
X205964285Y-50678847D02*
X205964285Y-50297895D01*
X205964285Y-50297895D02*
X205916666Y-50202657D01*
X205916666Y-50202657D02*
X205869047Y-50155038D01*
X205869047Y-50155038D02*
X205773809Y-50107419D01*
X205773809Y-50107419D02*
X205583333Y-50107419D01*
X205583333Y-50107419D02*
X205488095Y-50155038D01*
X205488095Y-50155038D02*
X205440476Y-50202657D01*
X205440476Y-50202657D02*
X205392857Y-50297895D01*
X205392857Y-50297895D02*
X205392857Y-50535990D01*
X205392857Y-50535990D02*
X205440476Y-50631228D01*
X205440476Y-50631228D02*
X205488095Y-50678847D01*
X205488095Y-50678847D02*
X205583333Y-50726466D01*
X205583333Y-50726466D02*
X205773809Y-50726466D01*
X205773809Y-50726466D02*
X205869047Y-50678847D01*
X205869047Y-50678847D02*
X205916666Y-50631228D01*
X205916666Y-50631228D02*
X205964285Y-50535990D01*
X152614286Y-108257419D02*
X152614286Y-107257419D01*
X152614286Y-107733609D02*
X153185714Y-107733609D01*
X153185714Y-108257419D02*
X153185714Y-107257419D01*
X162114286Y-127307419D02*
X162114286Y-126307419D01*
X162114286Y-126307419D02*
X162685714Y-127307419D01*
X162685714Y-127307419D02*
X162685714Y-126307419D01*
X262709523Y-89112180D02*
X262661904Y-89159800D01*
X262661904Y-89159800D02*
X262519047Y-89207419D01*
X262519047Y-89207419D02*
X262423809Y-89207419D01*
X262423809Y-89207419D02*
X262280952Y-89159800D01*
X262280952Y-89159800D02*
X262185714Y-89064561D01*
X262185714Y-89064561D02*
X262138095Y-88969323D01*
X262138095Y-88969323D02*
X262090476Y-88778847D01*
X262090476Y-88778847D02*
X262090476Y-88635990D01*
X262090476Y-88635990D02*
X262138095Y-88445514D01*
X262138095Y-88445514D02*
X262185714Y-88350276D01*
X262185714Y-88350276D02*
X262280952Y-88255038D01*
X262280952Y-88255038D02*
X262423809Y-88207419D01*
X262423809Y-88207419D02*
X262519047Y-88207419D01*
X262519047Y-88207419D02*
X262661904Y-88255038D01*
X262661904Y-88255038D02*
X262709523Y-88302657D01*
X262471428Y-89255038D02*
X262566666Y-89302657D01*
X262566666Y-89302657D02*
X262614285Y-89397895D01*
X262614285Y-89397895D02*
X262566666Y-89493133D01*
X262566666Y-89493133D02*
X262471428Y-89540752D01*
X262471428Y-89540752D02*
X262328571Y-89540752D01*
X315308036Y-69440752D02*
X316022321Y-69440752D01*
X315593750Y-69012180D02*
X315308036Y-70297895D01*
X315927083Y-69869323D02*
X315212798Y-69869323D01*
X315641369Y-70297895D02*
X315927083Y-69012180D01*
X316260417Y-69107419D02*
X316927083Y-69107419D01*
X316927083Y-69107419D02*
X316498512Y-70107419D01*
X143421428Y-126783609D02*
X143564285Y-126831228D01*
X143564285Y-126831228D02*
X143611904Y-126878847D01*
X143611904Y-126878847D02*
X143659523Y-126974085D01*
X143659523Y-126974085D02*
X143659523Y-127116942D01*
X143659523Y-127116942D02*
X143611904Y-127212180D01*
X143611904Y-127212180D02*
X143564285Y-127259800D01*
X143564285Y-127259800D02*
X143469047Y-127307419D01*
X143469047Y-127307419D02*
X143088095Y-127307419D01*
X143088095Y-127307419D02*
X143088095Y-126307419D01*
X143088095Y-126307419D02*
X143421428Y-126307419D01*
X143421428Y-126307419D02*
X143516666Y-126355038D01*
X143516666Y-126355038D02*
X143564285Y-126402657D01*
X143564285Y-126402657D02*
X143611904Y-126497895D01*
X143611904Y-126497895D02*
X143611904Y-126593133D01*
X143611904Y-126593133D02*
X143564285Y-126688371D01*
X143564285Y-126688371D02*
X143516666Y-126735990D01*
X143516666Y-126735990D02*
X143421428Y-126783609D01*
X143421428Y-126783609D02*
X143088095Y-126783609D01*
X123966667Y-126307419D02*
X124300000Y-127307419D01*
X124300000Y-127307419D02*
X124633333Y-126307419D01*
X190688095Y-108257419D02*
X190688095Y-107257419D01*
X191259523Y-108257419D02*
X190830952Y-107685990D01*
X191259523Y-107257419D02*
X190688095Y-107828847D01*
X195559524Y-70157419D02*
X195750000Y-70157419D01*
X195750000Y-70157419D02*
X195845238Y-70109800D01*
X195845238Y-70109800D02*
X195892857Y-70062180D01*
X195892857Y-70062180D02*
X195988095Y-69919323D01*
X195988095Y-69919323D02*
X196035714Y-69728847D01*
X196035714Y-69728847D02*
X196035714Y-69347895D01*
X196035714Y-69347895D02*
X195988095Y-69252657D01*
X195988095Y-69252657D02*
X195940476Y-69205038D01*
X195940476Y-69205038D02*
X195845238Y-69157419D01*
X195845238Y-69157419D02*
X195654762Y-69157419D01*
X195654762Y-69157419D02*
X195559524Y-69205038D01*
X195559524Y-69205038D02*
X195511905Y-69252657D01*
X195511905Y-69252657D02*
X195464286Y-69347895D01*
X195464286Y-69347895D02*
X195464286Y-69585990D01*
X195464286Y-69585990D02*
X195511905Y-69681228D01*
X195511905Y-69681228D02*
X195559524Y-69728847D01*
X195559524Y-69728847D02*
X195654762Y-69776466D01*
X195654762Y-69776466D02*
X195845238Y-69776466D01*
X195845238Y-69776466D02*
X195940476Y-69728847D01*
X195940476Y-69728847D02*
X195988095Y-69681228D01*
X195988095Y-69681228D02*
X196035714Y-69585990D01*
X157316667Y-69157419D02*
X157983333Y-69157419D01*
X157983333Y-69157419D02*
X157554762Y-70157419D01*
X314427083Y-145640752D02*
X315141368Y-145640752D01*
X314712797Y-145212180D02*
X314427083Y-146497895D01*
X315046130Y-146069323D02*
X314331845Y-146069323D01*
X314760416Y-146497895D02*
X315046130Y-145212180D01*
X315474702Y-146307419D02*
X315474702Y-145307419D01*
X315474702Y-145307419D02*
X315712797Y-145307419D01*
X315712797Y-145307419D02*
X315855654Y-145355038D01*
X315855654Y-145355038D02*
X315950892Y-145450276D01*
X315950892Y-145450276D02*
X315998511Y-145545514D01*
X315998511Y-145545514D02*
X316046130Y-145735990D01*
X316046130Y-145735990D02*
X316046130Y-145878847D01*
X316046130Y-145878847D02*
X315998511Y-146069323D01*
X315998511Y-146069323D02*
X315950892Y-146164561D01*
X315950892Y-146164561D02*
X315855654Y-146259800D01*
X315855654Y-146259800D02*
X315712797Y-146307419D01*
X315712797Y-146307419D02*
X315474702Y-146307419D01*
X316474702Y-145783609D02*
X316808035Y-145783609D01*
X316950892Y-146307419D02*
X316474702Y-146307419D01*
X316474702Y-146307419D02*
X316474702Y-145307419D01*
X316474702Y-145307419D02*
X316950892Y-145307419D01*
X317855654Y-146307419D02*
X317379464Y-146307419D01*
X317379464Y-146307419D02*
X317379464Y-145307419D01*
X128764286Y-88207419D02*
X129335714Y-88207419D01*
X129050000Y-89207419D02*
X129050000Y-88207419D01*
X334215179Y-51057419D02*
X334215179Y-50057419D01*
X334215179Y-50057419D02*
X334453274Y-50057419D01*
X334453274Y-50057419D02*
X334596131Y-50105038D01*
X334596131Y-50105038D02*
X334691369Y-50200276D01*
X334691369Y-50200276D02*
X334738988Y-50295514D01*
X334738988Y-50295514D02*
X334786607Y-50485990D01*
X334786607Y-50485990D02*
X334786607Y-50628847D01*
X334786607Y-50628847D02*
X334738988Y-50819323D01*
X334738988Y-50819323D02*
X334691369Y-50914561D01*
X334691369Y-50914561D02*
X334596131Y-51009800D01*
X334596131Y-51009800D02*
X334453274Y-51057419D01*
X334453274Y-51057419D02*
X334215179Y-51057419D01*
X335215179Y-51057419D02*
X335215179Y-50057419D01*
X335548512Y-50057419D02*
X335881845Y-51057419D01*
X335881845Y-51057419D02*
X336215178Y-50057419D01*
X57349405Y-107971704D02*
X57825595Y-107971704D01*
X57254167Y-108257419D02*
X57587500Y-107257419D01*
X57587500Y-107257419D02*
X57920833Y-108257419D01*
X371959226Y-51009800D02*
X372102083Y-51057419D01*
X372102083Y-51057419D02*
X372340178Y-51057419D01*
X372340178Y-51057419D02*
X372435416Y-51009800D01*
X372435416Y-51009800D02*
X372483035Y-50962180D01*
X372483035Y-50962180D02*
X372530654Y-50866942D01*
X372530654Y-50866942D02*
X372530654Y-50771704D01*
X372530654Y-50771704D02*
X372483035Y-50676466D01*
X372483035Y-50676466D02*
X372435416Y-50628847D01*
X372435416Y-50628847D02*
X372340178Y-50581228D01*
X372340178Y-50581228D02*
X372149702Y-50533609D01*
X372149702Y-50533609D02*
X372054464Y-50485990D01*
X372054464Y-50485990D02*
X372006845Y-50438371D01*
X372006845Y-50438371D02*
X371959226Y-50343133D01*
X371959226Y-50343133D02*
X371959226Y-50247895D01*
X371959226Y-50247895D02*
X372006845Y-50152657D01*
X372006845Y-50152657D02*
X372054464Y-50105038D01*
X372054464Y-50105038D02*
X372149702Y-50057419D01*
X372149702Y-50057419D02*
X372387797Y-50057419D01*
X372387797Y-50057419D02*
X372530654Y-50105038D01*
X372959226Y-50057419D02*
X372959226Y-50866942D01*
X372959226Y-50866942D02*
X373006845Y-50962180D01*
X373006845Y-50962180D02*
X373054464Y-51009800D01*
X373054464Y-51009800D02*
X373149702Y-51057419D01*
X373149702Y-51057419D02*
X373340178Y-51057419D01*
X373340178Y-51057419D02*
X373435416Y-51009800D01*
X373435416Y-51009800D02*
X373483035Y-50962180D01*
X373483035Y-50962180D02*
X373530654Y-50866942D01*
X373530654Y-50866942D02*
X373530654Y-50057419D01*
X374340178Y-50533609D02*
X374483035Y-50581228D01*
X374483035Y-50581228D02*
X374530654Y-50628847D01*
X374530654Y-50628847D02*
X374578273Y-50724085D01*
X374578273Y-50724085D02*
X374578273Y-50866942D01*
X374578273Y-50866942D02*
X374530654Y-50962180D01*
X374530654Y-50962180D02*
X374483035Y-51009800D01*
X374483035Y-51009800D02*
X374387797Y-51057419D01*
X374387797Y-51057419D02*
X374006845Y-51057419D01*
X374006845Y-51057419D02*
X374006845Y-50057419D01*
X374006845Y-50057419D02*
X374340178Y-50057419D01*
X374340178Y-50057419D02*
X374435416Y-50105038D01*
X374435416Y-50105038D02*
X374483035Y-50152657D01*
X374483035Y-50152657D02*
X374530654Y-50247895D01*
X374530654Y-50247895D02*
X374530654Y-50343133D01*
X374530654Y-50343133D02*
X374483035Y-50438371D01*
X374483035Y-50438371D02*
X374435416Y-50485990D01*
X374435416Y-50485990D02*
X374340178Y-50533609D01*
X374340178Y-50533609D02*
X374006845Y-50533609D01*
X284866667Y-50607419D02*
X284866667Y-49607419D01*
X284866667Y-49607419D02*
X285247619Y-49607419D01*
X285247619Y-49607419D02*
X285342857Y-49655038D01*
X285342857Y-49655038D02*
X285390476Y-49702657D01*
X285390476Y-49702657D02*
X285438095Y-49797895D01*
X285438095Y-49797895D02*
X285438095Y-49940752D01*
X285438095Y-49940752D02*
X285390476Y-50035990D01*
X285390476Y-50035990D02*
X285342857Y-50083609D01*
X285342857Y-50083609D02*
X285247619Y-50131228D01*
X285247619Y-50131228D02*
X284866667Y-50131228D01*
X285771429Y-49607419D02*
X286009524Y-50607419D01*
X286009524Y-50607419D02*
X286200000Y-49893133D01*
X286200000Y-49893133D02*
X286390476Y-50607419D01*
X286390476Y-50607419D02*
X286628572Y-49607419D01*
X287580952Y-50607419D02*
X287247619Y-50131228D01*
X287009524Y-50607419D02*
X287009524Y-49607419D01*
X287009524Y-49607419D02*
X287390476Y-49607419D01*
X287390476Y-49607419D02*
X287485714Y-49655038D01*
X287485714Y-49655038D02*
X287533333Y-49702657D01*
X287533333Y-49702657D02*
X287580952Y-49797895D01*
X287580952Y-49797895D02*
X287580952Y-49940752D01*
X287580952Y-49940752D02*
X287533333Y-50035990D01*
X287533333Y-50035990D02*
X287485714Y-50083609D01*
X287485714Y-50083609D02*
X287390476Y-50131228D01*
X287390476Y-50131228D02*
X287009524Y-50131228D01*
X272799999Y-126807419D02*
X272466666Y-126331228D01*
X272228571Y-126807419D02*
X272228571Y-125807419D01*
X272228571Y-125807419D02*
X272609523Y-125807419D01*
X272609523Y-125807419D02*
X272704761Y-125855038D01*
X272704761Y-125855038D02*
X272752380Y-125902657D01*
X272752380Y-125902657D02*
X272799999Y-125997895D01*
X272799999Y-125997895D02*
X272799999Y-126140752D01*
X272799999Y-126140752D02*
X272752380Y-126235990D01*
X272752380Y-126235990D02*
X272704761Y-126283609D01*
X272704761Y-126283609D02*
X272609523Y-126331228D01*
X272609523Y-126331228D02*
X272228571Y-126331228D01*
X273180952Y-126759800D02*
X273323809Y-126807419D01*
X273323809Y-126807419D02*
X273561904Y-126807419D01*
X273561904Y-126807419D02*
X273657142Y-126759800D01*
X273657142Y-126759800D02*
X273704761Y-126712180D01*
X273704761Y-126712180D02*
X273752380Y-126616942D01*
X273752380Y-126616942D02*
X273752380Y-126521704D01*
X273752380Y-126521704D02*
X273704761Y-126426466D01*
X273704761Y-126426466D02*
X273657142Y-126378847D01*
X273657142Y-126378847D02*
X273561904Y-126331228D01*
X273561904Y-126331228D02*
X273371428Y-126283609D01*
X273371428Y-126283609D02*
X273276190Y-126235990D01*
X273276190Y-126235990D02*
X273228571Y-126188371D01*
X273228571Y-126188371D02*
X273180952Y-126093133D01*
X273180952Y-126093133D02*
X273180952Y-125997895D01*
X273180952Y-125997895D02*
X273228571Y-125902657D01*
X273228571Y-125902657D02*
X273276190Y-125855038D01*
X273276190Y-125855038D02*
X273371428Y-125807419D01*
X273371428Y-125807419D02*
X273609523Y-125807419D01*
X273609523Y-125807419D02*
X273752380Y-125855038D01*
X274180952Y-126807419D02*
X274180952Y-125807419D01*
X274180952Y-126283609D02*
X274752380Y-126283609D01*
X274752380Y-126807419D02*
X274752380Y-125807419D01*
X275561904Y-126283609D02*
X275228571Y-126283609D01*
X275228571Y-126807419D02*
X275228571Y-125807419D01*
X275228571Y-125807419D02*
X275704761Y-125807419D01*
X275942857Y-125807419D02*
X276514285Y-125807419D01*
X276228571Y-126807419D02*
X276228571Y-125807419D01*
X181116667Y-127307419D02*
X181116667Y-126307419D01*
X181116667Y-126307419D02*
X181450000Y-127021704D01*
X181450000Y-127021704D02*
X181783333Y-126307419D01*
X181783333Y-126307419D02*
X181783333Y-127307419D01*
X61242261Y-146357419D02*
X60766071Y-146357419D01*
X60766071Y-146357419D02*
X60766071Y-145357419D01*
X61766071Y-145357419D02*
X61956547Y-145357419D01*
X61956547Y-145357419D02*
X62051785Y-145405038D01*
X62051785Y-145405038D02*
X62147023Y-145500276D01*
X62147023Y-145500276D02*
X62194642Y-145690752D01*
X62194642Y-145690752D02*
X62194642Y-146024085D01*
X62194642Y-146024085D02*
X62147023Y-146214561D01*
X62147023Y-146214561D02*
X62051785Y-146309800D01*
X62051785Y-146309800D02*
X61956547Y-146357419D01*
X61956547Y-146357419D02*
X61766071Y-146357419D01*
X61766071Y-146357419D02*
X61670833Y-146309800D01*
X61670833Y-146309800D02*
X61575595Y-146214561D01*
X61575595Y-146214561D02*
X61527976Y-146024085D01*
X61527976Y-146024085D02*
X61527976Y-145690752D01*
X61527976Y-145690752D02*
X61575595Y-145500276D01*
X61575595Y-145500276D02*
X61670833Y-145405038D01*
X61670833Y-145405038D02*
X61766071Y-145357419D01*
X62623214Y-146357419D02*
X62623214Y-145357419D01*
X62623214Y-145357419D02*
X63004166Y-145357419D01*
X63004166Y-145357419D02*
X63099404Y-145405038D01*
X63099404Y-145405038D02*
X63147023Y-145452657D01*
X63147023Y-145452657D02*
X63194642Y-145547895D01*
X63194642Y-145547895D02*
X63194642Y-145690752D01*
X63194642Y-145690752D02*
X63147023Y-145785990D01*
X63147023Y-145785990D02*
X63099404Y-145833609D01*
X63099404Y-145833609D02*
X63004166Y-145881228D01*
X63004166Y-145881228D02*
X62623214Y-145881228D01*
X63480357Y-145357419D02*
X64051785Y-145357419D01*
X63766071Y-146357419D02*
X63766071Y-145357419D01*
X269145238Y-145333609D02*
X269288095Y-145381228D01*
X269288095Y-145381228D02*
X269335714Y-145428847D01*
X269335714Y-145428847D02*
X269383333Y-145524085D01*
X269383333Y-145524085D02*
X269383333Y-145666942D01*
X269383333Y-145666942D02*
X269335714Y-145762180D01*
X269335714Y-145762180D02*
X269288095Y-145809800D01*
X269288095Y-145809800D02*
X269192857Y-145857419D01*
X269192857Y-145857419D02*
X268811905Y-145857419D01*
X268811905Y-145857419D02*
X268811905Y-144857419D01*
X268811905Y-144857419D02*
X269145238Y-144857419D01*
X269145238Y-144857419D02*
X269240476Y-144905038D01*
X269240476Y-144905038D02*
X269288095Y-144952657D01*
X269288095Y-144952657D02*
X269335714Y-145047895D01*
X269335714Y-145047895D02*
X269335714Y-145143133D01*
X269335714Y-145143133D02*
X269288095Y-145238371D01*
X269288095Y-145238371D02*
X269240476Y-145285990D01*
X269240476Y-145285990D02*
X269145238Y-145333609D01*
X269145238Y-145333609D02*
X268811905Y-145333609D01*
X270002381Y-144857419D02*
X270097619Y-144857419D01*
X270097619Y-144857419D02*
X270192857Y-144905038D01*
X270192857Y-144905038D02*
X270240476Y-144952657D01*
X270240476Y-144952657D02*
X270288095Y-145047895D01*
X270288095Y-145047895D02*
X270335714Y-145238371D01*
X270335714Y-145238371D02*
X270335714Y-145476466D01*
X270335714Y-145476466D02*
X270288095Y-145666942D01*
X270288095Y-145666942D02*
X270240476Y-145762180D01*
X270240476Y-145762180D02*
X270192857Y-145809800D01*
X270192857Y-145809800D02*
X270097619Y-145857419D01*
X270097619Y-145857419D02*
X270002381Y-145857419D01*
X270002381Y-145857419D02*
X269907143Y-145809800D01*
X269907143Y-145809800D02*
X269859524Y-145762180D01*
X269859524Y-145762180D02*
X269811905Y-145666942D01*
X269811905Y-145666942D02*
X269764286Y-145476466D01*
X269764286Y-145476466D02*
X269764286Y-145238371D01*
X269764286Y-145238371D02*
X269811905Y-145047895D01*
X269811905Y-145047895D02*
X269859524Y-144952657D01*
X269859524Y-144952657D02*
X269907143Y-144905038D01*
X269907143Y-144905038D02*
X270002381Y-144857419D01*
X148050000Y-88731228D02*
X148050000Y-89207419D01*
X147716667Y-88207419D02*
X148050000Y-88731228D01*
X148050000Y-88731228D02*
X148383333Y-88207419D01*
X353408036Y-69440752D02*
X354122321Y-69440752D01*
X353693750Y-69012180D02*
X353408036Y-70297895D01*
X354027083Y-69869323D02*
X353312798Y-69869323D01*
X353741369Y-70297895D02*
X354027083Y-69012180D01*
X354503274Y-70107419D02*
X354693750Y-70107419D01*
X354693750Y-70107419D02*
X354788988Y-70059800D01*
X354788988Y-70059800D02*
X354836607Y-70012180D01*
X354836607Y-70012180D02*
X354931845Y-69869323D01*
X354931845Y-69869323D02*
X354979464Y-69678847D01*
X354979464Y-69678847D02*
X354979464Y-69297895D01*
X354979464Y-69297895D02*
X354931845Y-69202657D01*
X354931845Y-69202657D02*
X354884226Y-69155038D01*
X354884226Y-69155038D02*
X354788988Y-69107419D01*
X354788988Y-69107419D02*
X354598512Y-69107419D01*
X354598512Y-69107419D02*
X354503274Y-69155038D01*
X354503274Y-69155038D02*
X354455655Y-69202657D01*
X354455655Y-69202657D02*
X354408036Y-69297895D01*
X354408036Y-69297895D02*
X354408036Y-69535990D01*
X354408036Y-69535990D02*
X354455655Y-69631228D01*
X354455655Y-69631228D02*
X354503274Y-69678847D01*
X354503274Y-69678847D02*
X354598512Y-69726466D01*
X354598512Y-69726466D02*
X354788988Y-69726466D01*
X354788988Y-69726466D02*
X354884226Y-69678847D01*
X354884226Y-69678847D02*
X354931845Y-69631228D01*
X354931845Y-69631228D02*
X354979464Y-69535990D01*
X368955654Y-146307419D02*
X368622321Y-145831228D01*
X368384226Y-146307419D02*
X368384226Y-145307419D01*
X368384226Y-145307419D02*
X368765178Y-145307419D01*
X368765178Y-145307419D02*
X368860416Y-145355038D01*
X368860416Y-145355038D02*
X368908035Y-145402657D01*
X368908035Y-145402657D02*
X368955654Y-145497895D01*
X368955654Y-145497895D02*
X368955654Y-145640752D01*
X368955654Y-145640752D02*
X368908035Y-145735990D01*
X368908035Y-145735990D02*
X368860416Y-145783609D01*
X368860416Y-145783609D02*
X368765178Y-145831228D01*
X368765178Y-145831228D02*
X368384226Y-145831228D01*
X369384226Y-146307419D02*
X369384226Y-145307419D01*
X370384225Y-145355038D02*
X370288987Y-145307419D01*
X370288987Y-145307419D02*
X370146130Y-145307419D01*
X370146130Y-145307419D02*
X370003273Y-145355038D01*
X370003273Y-145355038D02*
X369908035Y-145450276D01*
X369908035Y-145450276D02*
X369860416Y-145545514D01*
X369860416Y-145545514D02*
X369812797Y-145735990D01*
X369812797Y-145735990D02*
X369812797Y-145878847D01*
X369812797Y-145878847D02*
X369860416Y-146069323D01*
X369860416Y-146069323D02*
X369908035Y-146164561D01*
X369908035Y-146164561D02*
X370003273Y-146259800D01*
X370003273Y-146259800D02*
X370146130Y-146307419D01*
X370146130Y-146307419D02*
X370241368Y-146307419D01*
X370241368Y-146307419D02*
X370384225Y-146259800D01*
X370384225Y-146259800D02*
X370431844Y-146212180D01*
X370431844Y-146212180D02*
X370431844Y-145878847D01*
X370431844Y-145878847D02*
X370241368Y-145878847D01*
X370860416Y-146307419D02*
X370860416Y-145307419D01*
X370860416Y-145783609D02*
X371431844Y-145783609D01*
X371431844Y-146307419D02*
X371431844Y-145307419D01*
X371765178Y-145307419D02*
X372336606Y-145307419D01*
X372050892Y-146307419D02*
X372050892Y-145307419D01*
X373384226Y-146021704D02*
X373860416Y-146021704D01*
X373288988Y-146307419D02*
X373622321Y-145307419D01*
X373622321Y-145307419D02*
X373955654Y-146307419D01*
X374860416Y-146307419D02*
X374527083Y-145831228D01*
X374288988Y-146307419D02*
X374288988Y-145307419D01*
X374288988Y-145307419D02*
X374669940Y-145307419D01*
X374669940Y-145307419D02*
X374765178Y-145355038D01*
X374765178Y-145355038D02*
X374812797Y-145402657D01*
X374812797Y-145402657D02*
X374860416Y-145497895D01*
X374860416Y-145497895D02*
X374860416Y-145640752D01*
X374860416Y-145640752D02*
X374812797Y-145735990D01*
X374812797Y-145735990D02*
X374765178Y-145783609D01*
X374765178Y-145783609D02*
X374669940Y-145831228D01*
X374669940Y-145831228D02*
X374288988Y-145831228D01*
X375860416Y-146307419D02*
X375527083Y-145831228D01*
X375288988Y-146307419D02*
X375288988Y-145307419D01*
X375288988Y-145307419D02*
X375669940Y-145307419D01*
X375669940Y-145307419D02*
X375765178Y-145355038D01*
X375765178Y-145355038D02*
X375812797Y-145402657D01*
X375812797Y-145402657D02*
X375860416Y-145497895D01*
X375860416Y-145497895D02*
X375860416Y-145640752D01*
X375860416Y-145640752D02*
X375812797Y-145735990D01*
X375812797Y-145735990D02*
X375765178Y-145783609D01*
X375765178Y-145783609D02*
X375669940Y-145831228D01*
X375669940Y-145831228D02*
X375288988Y-145831228D01*
X376479464Y-145307419D02*
X376669940Y-145307419D01*
X376669940Y-145307419D02*
X376765178Y-145355038D01*
X376765178Y-145355038D02*
X376860416Y-145450276D01*
X376860416Y-145450276D02*
X376908035Y-145640752D01*
X376908035Y-145640752D02*
X376908035Y-145974085D01*
X376908035Y-145974085D02*
X376860416Y-146164561D01*
X376860416Y-146164561D02*
X376765178Y-146259800D01*
X376765178Y-146259800D02*
X376669940Y-146307419D01*
X376669940Y-146307419D02*
X376479464Y-146307419D01*
X376479464Y-146307419D02*
X376384226Y-146259800D01*
X376384226Y-146259800D02*
X376288988Y-146164561D01*
X376288988Y-146164561D02*
X376241369Y-145974085D01*
X376241369Y-145974085D02*
X376241369Y-145640752D01*
X376241369Y-145640752D02*
X376288988Y-145450276D01*
X376288988Y-145450276D02*
X376384226Y-145355038D01*
X376384226Y-145355038D02*
X376479464Y-145307419D01*
X377241369Y-145307419D02*
X377479464Y-146307419D01*
X377479464Y-146307419D02*
X377669940Y-145593133D01*
X377669940Y-145593133D02*
X377860416Y-146307419D01*
X377860416Y-146307419D02*
X378098512Y-145307419D01*
X334358036Y-69440752D02*
X335072321Y-69440752D01*
X334643750Y-69012180D02*
X334358036Y-70297895D01*
X334977083Y-69869323D02*
X334262798Y-69869323D01*
X334691369Y-70297895D02*
X334977083Y-69012180D01*
X335548512Y-69535990D02*
X335453274Y-69488371D01*
X335453274Y-69488371D02*
X335405655Y-69440752D01*
X335405655Y-69440752D02*
X335358036Y-69345514D01*
X335358036Y-69345514D02*
X335358036Y-69297895D01*
X335358036Y-69297895D02*
X335405655Y-69202657D01*
X335405655Y-69202657D02*
X335453274Y-69155038D01*
X335453274Y-69155038D02*
X335548512Y-69107419D01*
X335548512Y-69107419D02*
X335738988Y-69107419D01*
X335738988Y-69107419D02*
X335834226Y-69155038D01*
X335834226Y-69155038D02*
X335881845Y-69202657D01*
X335881845Y-69202657D02*
X335929464Y-69297895D01*
X335929464Y-69297895D02*
X335929464Y-69345514D01*
X335929464Y-69345514D02*
X335881845Y-69440752D01*
X335881845Y-69440752D02*
X335834226Y-69488371D01*
X335834226Y-69488371D02*
X335738988Y-69535990D01*
X335738988Y-69535990D02*
X335548512Y-69535990D01*
X335548512Y-69535990D02*
X335453274Y-69583609D01*
X335453274Y-69583609D02*
X335405655Y-69631228D01*
X335405655Y-69631228D02*
X335358036Y-69726466D01*
X335358036Y-69726466D02*
X335358036Y-69916942D01*
X335358036Y-69916942D02*
X335405655Y-70012180D01*
X335405655Y-70012180D02*
X335453274Y-70059800D01*
X335453274Y-70059800D02*
X335548512Y-70107419D01*
X335548512Y-70107419D02*
X335738988Y-70107419D01*
X335738988Y-70107419D02*
X335834226Y-70059800D01*
X335834226Y-70059800D02*
X335881845Y-70012180D01*
X335881845Y-70012180D02*
X335929464Y-69916942D01*
X335929464Y-69916942D02*
X335929464Y-69726466D01*
X335929464Y-69726466D02*
X335881845Y-69631228D01*
X335881845Y-69631228D02*
X335834226Y-69583609D01*
X335834226Y-69583609D02*
X335738988Y-69535990D01*
X334345536Y-107540752D02*
X335059821Y-107540752D01*
X334631250Y-107112180D02*
X334345536Y-108397895D01*
X334964583Y-107969323D02*
X334250298Y-107969323D01*
X334678869Y-108397895D02*
X334964583Y-107112180D01*
X335345536Y-107302657D02*
X335393155Y-107255038D01*
X335393155Y-107255038D02*
X335488393Y-107207419D01*
X335488393Y-107207419D02*
X335726488Y-107207419D01*
X335726488Y-107207419D02*
X335821726Y-107255038D01*
X335821726Y-107255038D02*
X335869345Y-107302657D01*
X335869345Y-107302657D02*
X335916964Y-107397895D01*
X335916964Y-107397895D02*
X335916964Y-107493133D01*
X335916964Y-107493133D02*
X335869345Y-107635990D01*
X335869345Y-107635990D02*
X335297917Y-108207419D01*
X335297917Y-108207419D02*
X335916964Y-108207419D01*
X323272917Y-126757419D02*
X323272917Y-125757419D01*
X323749107Y-126757419D02*
X323749107Y-125757419D01*
X323749107Y-125757419D02*
X324320535Y-126757419D01*
X324320535Y-126757419D02*
X324320535Y-125757419D01*
X324749107Y-126709800D02*
X324891964Y-126757419D01*
X324891964Y-126757419D02*
X325130059Y-126757419D01*
X325130059Y-126757419D02*
X325225297Y-126709800D01*
X325225297Y-126709800D02*
X325272916Y-126662180D01*
X325272916Y-126662180D02*
X325320535Y-126566942D01*
X325320535Y-126566942D02*
X325320535Y-126471704D01*
X325320535Y-126471704D02*
X325272916Y-126376466D01*
X325272916Y-126376466D02*
X325225297Y-126328847D01*
X325225297Y-126328847D02*
X325130059Y-126281228D01*
X325130059Y-126281228D02*
X324939583Y-126233609D01*
X324939583Y-126233609D02*
X324844345Y-126185990D01*
X324844345Y-126185990D02*
X324796726Y-126138371D01*
X324796726Y-126138371D02*
X324749107Y-126043133D01*
X324749107Y-126043133D02*
X324749107Y-125947895D01*
X324749107Y-125947895D02*
X324796726Y-125852657D01*
X324796726Y-125852657D02*
X324844345Y-125805038D01*
X324844345Y-125805038D02*
X324939583Y-125757419D01*
X324939583Y-125757419D02*
X325177678Y-125757419D01*
X325177678Y-125757419D02*
X325320535Y-125805038D01*
X325749107Y-126233609D02*
X326082440Y-126233609D01*
X326225297Y-126757419D02*
X325749107Y-126757419D01*
X325749107Y-126757419D02*
X325749107Y-125757419D01*
X325749107Y-125757419D02*
X326225297Y-125757419D01*
X327225297Y-126757419D02*
X326891964Y-126281228D01*
X326653869Y-126757419D02*
X326653869Y-125757419D01*
X326653869Y-125757419D02*
X327034821Y-125757419D01*
X327034821Y-125757419D02*
X327130059Y-125805038D01*
X327130059Y-125805038D02*
X327177678Y-125852657D01*
X327177678Y-125852657D02*
X327225297Y-125947895D01*
X327225297Y-125947895D02*
X327225297Y-126090752D01*
X327225297Y-126090752D02*
X327177678Y-126185990D01*
X327177678Y-126185990D02*
X327130059Y-126233609D01*
X327130059Y-126233609D02*
X327034821Y-126281228D01*
X327034821Y-126281228D02*
X326653869Y-126281228D01*
X327511012Y-125757419D02*
X328082440Y-125757419D01*
X327796726Y-126757419D02*
X327796726Y-125757419D01*
X219550000Y-127212180D02*
X219597619Y-127259800D01*
X219597619Y-127259800D02*
X219550000Y-127307419D01*
X219550000Y-127307419D02*
X219502381Y-127259800D01*
X219502381Y-127259800D02*
X219550000Y-127212180D01*
X219550000Y-127212180D02*
X219550000Y-127307419D01*
X25149999Y-126807419D02*
X24673809Y-126807419D01*
X24673809Y-126807419D02*
X24673809Y-125807419D01*
X25435714Y-126759800D02*
X25578571Y-126807419D01*
X25578571Y-126807419D02*
X25816666Y-126807419D01*
X25816666Y-126807419D02*
X25911904Y-126759800D01*
X25911904Y-126759800D02*
X25959523Y-126712180D01*
X25959523Y-126712180D02*
X26007142Y-126616942D01*
X26007142Y-126616942D02*
X26007142Y-126521704D01*
X26007142Y-126521704D02*
X25959523Y-126426466D01*
X25959523Y-126426466D02*
X25911904Y-126378847D01*
X25911904Y-126378847D02*
X25816666Y-126331228D01*
X25816666Y-126331228D02*
X25626190Y-126283609D01*
X25626190Y-126283609D02*
X25530952Y-126235990D01*
X25530952Y-126235990D02*
X25483333Y-126188371D01*
X25483333Y-126188371D02*
X25435714Y-126093133D01*
X25435714Y-126093133D02*
X25435714Y-125997895D01*
X25435714Y-125997895D02*
X25483333Y-125902657D01*
X25483333Y-125902657D02*
X25530952Y-125855038D01*
X25530952Y-125855038D02*
X25626190Y-125807419D01*
X25626190Y-125807419D02*
X25864285Y-125807419D01*
X25864285Y-125807419D02*
X26007142Y-125855038D01*
X26435714Y-126807419D02*
X26435714Y-125807419D01*
X26435714Y-126283609D02*
X27007142Y-126283609D01*
X27007142Y-126807419D02*
X27007142Y-125807419D01*
X27816666Y-126283609D02*
X27483333Y-126283609D01*
X27483333Y-126807419D02*
X27483333Y-125807419D01*
X27483333Y-125807419D02*
X27959523Y-125807419D01*
X28197619Y-125807419D02*
X28769047Y-125807419D01*
X28483333Y-126807419D02*
X28483333Y-125807419D01*
X27810714Y-87707419D02*
X28382142Y-87707419D01*
X28096428Y-88707419D02*
X28096428Y-87707419D01*
X28667857Y-88421704D02*
X29144047Y-88421704D01*
X28572619Y-88707419D02*
X28905952Y-87707419D01*
X28905952Y-87707419D02*
X29239285Y-88707419D01*
X29905952Y-88183609D02*
X30048809Y-88231228D01*
X30048809Y-88231228D02*
X30096428Y-88278847D01*
X30096428Y-88278847D02*
X30144047Y-88374085D01*
X30144047Y-88374085D02*
X30144047Y-88516942D01*
X30144047Y-88516942D02*
X30096428Y-88612180D01*
X30096428Y-88612180D02*
X30048809Y-88659800D01*
X30048809Y-88659800D02*
X29953571Y-88707419D01*
X29953571Y-88707419D02*
X29572619Y-88707419D01*
X29572619Y-88707419D02*
X29572619Y-87707419D01*
X29572619Y-87707419D02*
X29905952Y-87707419D01*
X29905952Y-87707419D02*
X30001190Y-87755038D01*
X30001190Y-87755038D02*
X30048809Y-87802657D01*
X30048809Y-87802657D02*
X30096428Y-87897895D01*
X30096428Y-87897895D02*
X30096428Y-87993133D01*
X30096428Y-87993133D02*
X30048809Y-88088371D01*
X30048809Y-88088371D02*
X30001190Y-88135990D01*
X30001190Y-88135990D02*
X29905952Y-88183609D01*
X29905952Y-88183609D02*
X29572619Y-88183609D01*
D11*
%TO.C,J5*%
X306743750Y-44750000D03*
D12*
X306743750Y-47290000D03*
X306743750Y-49830000D03*
X306743750Y-52370000D03*
X306743750Y-54910000D03*
%TD*%
D11*
%TO.C,J4*%
X299500000Y-44750000D03*
D12*
X299500000Y-47290000D03*
X299500000Y-49830000D03*
X299500000Y-52370000D03*
X299500000Y-54910000D03*
%TD*%
D11*
%TO.C,J3*%
X306743750Y-117340000D03*
D12*
X306743750Y-119880000D03*
X306743750Y-122420000D03*
X306743750Y-124960000D03*
X306743750Y-127500000D03*
%TD*%
D11*
%TO.C,J2*%
X299500000Y-117340000D03*
D12*
X299500000Y-119880000D03*
X299500000Y-122420000D03*
X299500000Y-124960000D03*
X299500000Y-127500000D03*
%TD*%
M02*
