%TF.GenerationSoftware,KiCad,Pcbnew,9.0.6*%
%TF.CreationDate,2026-04-06T08:56:40-04:00*%
%TF.ProjectId,new-keyboard-pcb,6e65772d-6b65-4796-926f-6172642d7063,rev?*%
%TF.SameCoordinates,Original*%
%TF.FileFunction,Profile,NP*%
%FSLAX46Y46*%
G04 Gerber Fmt 4.6, Leading zero omitted, Abs format (unit mm)*
G04 Created by KiCad (PCBNEW 9.0.6) date 2026-04-06 08:56:40*
%MOMM*%
%LPD*%
G01*
G04 APERTURE LIST*
%TA.AperFunction,Profile*%
%ADD10C,0.050000*%
%TD*%
G04 APERTURE END LIST*
D10*
X383743750Y-146250000D02*
X383743750Y-35500000D01*
X152025126Y-24500000D02*
X163500000Y-24500000D01*
X305243750Y-35500000D02*
G75*
G02*
X308743750Y-32000000I3500000J0D01*
G01*
X305243750Y-35500000D02*
X305243750Y-146250000D01*
X167000000Y-32000000D02*
G75*
G02*
X163500000Y-28500000I0J3500000D01*
G01*
X301500000Y-146250000D02*
X301500000Y-35500000D01*
X13500000Y-35500000D02*
X13500000Y-146250000D01*
X152025126Y-28500000D02*
X152025126Y-24500000D01*
X308743750Y-149750000D02*
X380243750Y-149750000D01*
X383743750Y-146250000D02*
G75*
G02*
X380243750Y-149750000I-3500000J0D01*
G01*
X298000000Y-32000000D02*
G75*
G02*
X301500000Y-35500000I0J-3500000D01*
G01*
X380243750Y-32000000D02*
X308743750Y-32000000D01*
X167000000Y-32000000D02*
X298000000Y-32000000D01*
X148525126Y-32000000D02*
X17000000Y-32000000D01*
X13500000Y-35500000D02*
G75*
G02*
X17000000Y-32000000I3500000J0D01*
G01*
X17000000Y-149750000D02*
G75*
G02*
X13500000Y-146250000I0J3500000D01*
G01*
X17000000Y-149750000D02*
X298000000Y-149750000D01*
X380243750Y-32000000D02*
G75*
G02*
X383743750Y-35500000I0J-3500000D01*
G01*
X301500000Y-146250000D02*
G75*
G02*
X298000000Y-149750000I-3500000J0D01*
G01*
X308743750Y-149750000D02*
G75*
G02*
X305243750Y-146250000I0J3500000D01*
G01*
X152025126Y-28500000D02*
G75*
G02*
X148525126Y-32000026I-3500026J0D01*
G01*
X163500000Y-24500000D02*
X163500000Y-28500000D01*
M02*
