  0
SECTION
  2
HEADER
  9
$ACADVER
  1
AC1014
  9
$HANDSEED
  5
FFFF
  9
$INSUNITS
 70
     4
  9
$MEASUREMENT
 70
     1
  0
ENDSEC
  0
SECTION
  2
TABLES
  0
TABLE
  2
VPORT
  5
8
330
0
100
AcDbSymbolTable
 70
     4
  0
VPORT
  5
2E
330
8
100
AcDbSymbolTableRecord
100
AcDbViewportTableRecord
  2
*ACTIVE
 70
     0
 10
0.0
 20
0.0
 11
1.0
 21
1.0
 12
210.0
 22
148.5
 13
0.0
 23
0.0
 14
10.0
 24
10.0
 15
10.0
 25
10.0
 16
0.0
 26
0.0
 36
1.0
 17
0.0
 27
0.0
 37
0.0
 40
341.0
 41
1.24
 42
50.0
 43
0.0
 44
0.0
 50
0.0
 51
0.0
 71
     0
 72
   100
 73
     1
 74
     3
 75
     0
 76
     0
 77
     0
 78
     0
  0
ENDTAB
  0
TABLE
  2
LTYPE
  5
5
330
0
100
AcDbSymbolTable
 70
     1
  0
LTYPE
  5
14
330
5
100
AcDbSymbolTableRecord
100
AcDbLinetypeTableRecord
  2
BYBLOCK
 70
     0
  3

 72
    65
 73
     0
 40
0.0
  0
LTYPE
  5
15
330
5
100
AcDbSymbolTableRecord
100
AcDbLinetypeTableRecord
  2
BYLAYER
 70
     0
  3

 72
    65
 73
     0
 40
0.0
  0
LTYPE
  5
16
330
5
100
AcDbSymbolTableRecord
100
AcDbLinetypeTableRecord
  2
CONTINUOUS
 70
     0
  3
Solid line
 72
    65
 73
     0
 40
0.0
  0
ENDTAB
  0
TABLE
  2
LAYER
  5
2
100
AcDbSymbolTable
 70
1
  0
LAYER
  5
50
100
AcDbSymbolTableRecord
100
AcDbLayerTableRecord
  2
0
 70
0
  6
CONTINUOUS
  0
ENDTAB
  0
TABLE
  2
STYLE
  5
3
330
0
100
AcDbSymbolTable
 70
     1
  0
STYLE
  5
11
330
3
100
AcDbSymbolTableRecord
100
AcDbTextStyleTableRecord
  2
STANDARD
 70
     0
 40
0.0
 41
1.0
 50
0.0
 71
     0
 42
2.5
  3
txt
  4

  0
ENDTAB
  0
TABLE
  2
VIEW
  5
6
330
0
100
AcDbSymbolTable
 70
     0
  0
ENDTAB
  0
TABLE
  2
UCS
  5
7
330
0
100
AcDbSymbolTable
 70
     0
  0
ENDTAB
  0
TABLE
  2
APPID
  5
9
330
0
100
AcDbSymbolTable
 70
     2
  0
APPID
  5
12
330
9
100
AcDbSymbolTableRecord
100
AcDbRegAppTableRecord
  2
ACAD
 70
     0
  0
ENDTAB
  0
TABLE
  2
DIMSTYLE
  5
A
330
0
100
AcDbSymbolTable
 70
     1
  0
DIMSTYLE
105
27
330
A
100
AcDbSymbolTableRecord
100
AcDbDimStyleTableRecord
  2
ISO-25
 70
     0
  3

  4

  5

  6

  7

 40
1.0
 41
2.5
 42
0.625
 43
3.75
 44
1.25
 45
0.0
 46
0.0
 47
0.0
 48
0.0
140
2.5
141
2.5
142
0.0
143
0.03937007874016
144
1.0
145
0.0
146
1.0
147
0.625
 71
     0
 72
     0
 73
     0
 74
     0
 75
     0
 76
     0
 77
     1
 78
     8
170
     0
171
     3
172
     1
173
     0
174
     0
175
     0
176
     0
177
     0
178
     0
270
     2
271
     2
272
     2
273
     2
274
     3
340
11
275
     0
280
     0
281
     0
282
     0
283
     0
284
     8
285
     0
286
     0
287
     3
288
     0
  0
ENDTAB
  0
TABLE
  2
BLOCK_RECORD
  5
1
330
0
100
AcDbSymbolTable
 70
     1
  0
BLOCK_RECORD
  5
1F
330
1
100
AcDbSymbolTableRecord
100
AcDbBlockTableRecord
  2
*MODEL_SPACE
  0
BLOCK_RECORD
  5
1B
330
1
100
AcDbSymbolTableRecord
100
AcDbBlockTableRecord
  2
*PAPER_SPACE
  0
ENDTAB
  0
ENDSEC
  0
SECTION
  2
BLOCKS
  0
BLOCK
  5
20
330
1F
100
AcDbEntity
  8
0
100
AcDbBlockBegin
  2
*MODEL_SPACE
 70
     0
 10
0.0
 20
0.0
 30
0.0
  3
*MODEL_SPACE
  1

  0
ENDBLK
  5
21
330
1F
100
AcDbEntity
  8
0
100
AcDbBlockEnd
  0
BLOCK
  5
1C
330
1B
100
AcDbEntity
 67
     1
  8
0
100
AcDbBlockBegin
  2
*PAPER_SPACE
  1

  0
ENDBLK
  5
1D
330
1B
100
AcDbEntity
 67
     1
  8
0
100
AcDbBlockEnd
  0
ENDSEC
  0
SECTION
  2
ENTITIES
  0
LWPOLYLINE
  5
100
100
AcDbEntity
  8
0
 62
7
100
AcDbPolyline
 90
2
 70
0
 10
374.225900
 20
4.724200
 30
0.0
 10
374.225900
 20
115.474200
 30
0.0
  0
SPLINE
  5
101
100
AcDbEntity
  8
0
 62
7
100
AcDbSpline
 70
8
 71
3
 72
8
 73
4
 74
0
 40
0
 40
0
 40
0
 40
0
 40
1
 40
1
 40
1
 40
1
 10
299.225900
 20
118.974100
 30
0.0
 10
298.297651
 20
118.974127
 30
0.0
 10
297.407413
 20
118.605400
 30
0.0
 10
296.751032
 20
117.949038
 30
0.0
  0
SPLINE
  5
102
100
AcDbEntity
  8
0
 62
7
100
AcDbSpline
 70
8
 71
3
 72
8
 73
4
 74
0
 40
0
 40
0
 40
0
 40
0
 40
1
 40
1
 40
1
 40
1
 10
296.751032
 20
117.949038
 30
0.0
 10
296.094652
 20
117.292677
 30
0.0
 10
295.725900
 20
116.402449
 30
0.0
 10
295.725900
 20
115.474200
 30
0.0
  0
LWPOLYLINE
  5
103
100
AcDbEntity
  8
0
 62
7
100
AcDbPolyline
 90
2
 70
0
 10
142.507300
 20
126.474100
 30
0.0
 10
153.982100
 20
126.474100
 30
0.0
  0
SPLINE
  5
104
100
AcDbEntity
  8
0
 62
7
100
AcDbSpline
 70
8
 71
3
 72
8
 73
4
 74
0
 40
0
 40
0
 40
0
 40
0
 40
1
 40
1
 40
1
 40
1
 10
153.982100
 20
122.474200
 30
0.0
 10
153.982100
 20
121.545942
 30
0.0
 10
154.350849
 20
120.655704
 30
0.0
 10
155.007226
 20
119.999326
 30
0.0
  0
SPLINE
  5
105
100
AcDbEntity
  8
0
 62
7
100
AcDbSpline
 70
8
 71
3
 72
8
 73
4
 74
0
 40
0
 40
0
 40
0
 40
0
 40
1
 40
1
 40
1
 40
1
 10
155.007226
 20
119.999326
 30
0.0
 10
155.663604
 20
119.342949
 30
0.0
 10
156.553842
 20
118.974200
 30
0.0
 10
157.482100
 20
118.974200
 30
0.0
  0
LWPOLYLINE
  5
106
100
AcDbEntity
  8
0
 62
7
100
AcDbPolyline
 90
2
 70
0
 10
295.725900
 20
115.474200
 30
0.0
 10
295.725900
 20
4.724200
 30
0.0
  0
LWPOLYLINE
  5
107
100
AcDbEntity
  8
0
 62
7
100
AcDbPolyline
 90
2
 70
0
 10
291.982100
 20
4.724200
 30
0.0
 10
291.982100
 20
115.474200
 30
0.0
  0
LWPOLYLINE
  5
108
100
AcDbEntity
  8
0
 62
7
100
AcDbPolyline
 90
2
 70
0
 10
3.982100
 20
115.474200
 30
0.0
 10
3.982100
 20
4.724200
 30
0.0
  0
LWPOLYLINE
  5
109
100
AcDbEntity
  8
0
 62
7
100
AcDbPolyline
 90
2
 70
0
 10
142.507300
 20
122.474200
 30
0.0
 10
142.507300
 20
126.474100
 30
0.0
  0
SPLINE
  5
10a
100
AcDbEntity
  8
0
 62
7
100
AcDbSpline
 70
8
 71
3
 72
8
 73
4
 74
0
 40
0
 40
0
 40
0
 40
0
 40
1
 40
1
 40
1
 40
1
 10
370.725900
 20
1.224200
 30
0.0
 10
371.654166
 20
1.224173
 30
0.0
 10
372.544420
 20
1.592914
 30
0.0
 10
373.200803
 20
2.249297
 30
0.0
  0
SPLINE
  5
10b
100
AcDbEntity
  8
0
 62
7
100
AcDbSpline
 70
8
 71
3
 72
8
 73
4
 74
0
 40
0
 40
0
 40
0
 40
0
 40
1
 40
1
 40
1
 40
1
 10
373.200803
 20
2.249297
 30
0.0
 10
373.857186
 20
2.905680
 30
0.0
 10
374.225927
 20
3.795934
 30
0.0
 10
374.225900
 20
4.724200
 30
0.0
  0
SPLINE
  5
10c
100
AcDbEntity
  8
0
 62
7
100
AcDbSpline
 70
8
 71
3
 72
8
 73
4
 74
0
 40
0
 40
0
 40
0
 40
0
 40
1
 40
1
 40
1
 40
1
 10
291.982100
 20
115.474200
 30
0.0
 10
291.982100
 20
116.402458
 30
0.0
 10
291.613351
 20
117.292696
 30
0.0
 10
290.956974
 20
117.949074
 30
0.0
  0
SPLINE
  5
10d
100
AcDbEntity
  8
0
 62
7
100
AcDbSpline
 70
8
 71
3
 72
8
 73
4
 74
0
 40
0
 40
0
 40
0
 40
0
 40
1
 40
1
 40
1
 40
1
 10
290.956974
 20
117.949074
 30
0.0
 10
290.300596
 20
118.605451
 30
0.0
 10
289.410358
 20
118.974200
 30
0.0
 10
288.482100
 20
118.974200
 30
0.0
  0
LWPOLYLINE
  5
10e
100
AcDbEntity
  8
0
 62
7
100
AcDbPolyline
 90
2
 70
0
 10
299.225900
 20
1.224200
 30
0.0
 10
370.725900
 20
1.224200
 30
0.0
  0
LWPOLYLINE
  5
10f
100
AcDbEntity
  8
0
 62
7
100
AcDbPolyline
 90
2
 70
0
 10
370.725900
 20
118.974200
 30
0.0
 10
299.225900
 20
118.974200
 30
0.0
  0
LWPOLYLINE
  5
110
100
AcDbEntity
  8
0
 62
7
100
AcDbPolyline
 90
2
 70
0
 10
157.482100
 20
118.974200
 30
0.0
 10
288.482100
 20
118.974200
 30
0.0
  0
SPLINE
  5
111
100
AcDbEntity
  8
0
 62
7
100
AcDbSpline
 70
8
 71
3
 72
8
 73
4
 74
0
 40
0
 40
0
 40
0
 40
0
 40
1
 40
1
 40
1
 40
1
 10
7.482100
 20
118.974200
 30
0.0
 10
6.553842
 20
118.974200
 30
0.0
 10
5.663604
 20
118.605451
 30
0.0
 10
5.007226
 20
117.949074
 30
0.0
  0
SPLINE
  5
112
100
AcDbEntity
  8
0
 62
7
100
AcDbSpline
 70
8
 71
3
 72
8
 73
4
 74
0
 40
0
 40
0
 40
0
 40
0
 40
1
 40
1
 40
1
 40
1
 10
5.007226
 20
117.949074
 30
0.0
 10
4.350849
 20
117.292696
 30
0.0
 10
3.982100
 20
116.402458
 30
0.0
 10
3.982100
 20
115.474200
 30
0.0
  0
SPLINE
  5
113
100
AcDbEntity
  8
0
 62
7
100
AcDbSpline
 70
8
 71
3
 72
8
 73
4
 74
0
 40
0
 40
0
 40
0
 40
0
 40
1
 40
1
 40
1
 40
1
 10
3.982100
 20
4.724200
 30
0.0
 10
3.982100
 20
3.795942
 30
0.0
 10
4.350849
 20
2.905704
 30
0.0
 10
5.007226
 20
2.249326
 30
0.0
  0
SPLINE
  5
114
100
AcDbEntity
  8
0
 62
7
100
AcDbSpline
 70
8
 71
3
 72
8
 73
4
 74
0
 40
0
 40
0
 40
0
 40
0
 40
1
 40
1
 40
1
 40
1
 10
5.007226
 20
2.249326
 30
0.0
 10
5.663604
 20
1.592949
 30
0.0
 10
6.553842
 20
1.224200
 30
0.0
 10
7.482100
 20
1.224200
 30
0.0
  0
LWPOLYLINE
  5
115
100
AcDbEntity
  8
0
 62
7
100
AcDbPolyline
 90
2
 70
0
 10
139.007300
 20
118.974200
 30
0.0
 10
7.482100
 20
118.974200
 30
0.0
  0
SPLINE
  5
116
100
AcDbEntity
  8
0
 62
7
100
AcDbSpline
 70
8
 71
3
 72
8
 73
4
 74
0
 40
0
 40
0
 40
0
 40
0
 40
1
 40
1
 40
1
 40
1
 10
374.225900
 20
115.474200
 30
0.0
 10
374.225900
 20
116.402458
 30
0.0
 10
373.857151
 20
117.292696
 30
0.0
 10
373.200774
 20
117.949074
 30
0.0
  0
SPLINE
  5
117
100
AcDbEntity
  8
0
 62
7
100
AcDbSpline
 70
8
 71
3
 72
8
 73
4
 74
0
 40
0
 40
0
 40
0
 40
0
 40
1
 40
1
 40
1
 40
1
 10
373.200774
 20
117.949074
 30
0.0
 10
372.544396
 20
118.605451
 30
0.0
 10
371.654158
 20
118.974200
 30
0.0
 10
370.725900
 20
118.974200
 30
0.0
  0
SPLINE
  5
118
100
AcDbEntity
  8
0
 62
7
100
AcDbSpline
 70
8
 71
3
 72
8
 73
4
 74
0
 40
0
 40
0
 40
0
 40
0
 40
1
 40
1
 40
1
 40
1
 10
288.482100
 20
1.224200
 30
0.0
 10
289.410358
 20
1.224200
 30
0.0
 10
290.300596
 20
1.592949
 30
0.0
 10
290.956974
 20
2.249326
 30
0.0
  0
SPLINE
  5
119
100
AcDbEntity
  8
0
 62
7
100
AcDbSpline
 70
8
 71
3
 72
8
 73
4
 74
0
 40
0
 40
0
 40
0
 40
0
 40
1
 40
1
 40
1
 40
1
 10
290.956974
 20
2.249326
 30
0.0
 10
291.613351
 20
2.905704
 30
0.0
 10
291.982100
 20
3.795942
 30
0.0
 10
291.982100
 20
4.724200
 30
0.0
  0
SPLINE
  5
11a
100
AcDbEntity
  8
0
 62
7
100
AcDbSpline
 70
8
 71
3
 72
8
 73
4
 74
0
 40
0
 40
0
 40
0
 40
0
 40
1
 40
1
 40
1
 40
1
 10
295.725800
 20
4.724200
 30
0.0
 10
295.725800
 20
3.795925
 30
0.0
 10
296.094563
 20
2.905671
 30
0.0
 10
296.750962
 20
2.249291
 30
0.0
  0
SPLINE
  5
11b
100
AcDbEntity
  8
0
 62
7
100
AcDbSpline
 70
8
 71
3
 72
8
 73
4
 74
0
 40
0
 40
0
 40
0
 40
0
 40
1
 40
1
 40
1
 40
1
 10
296.750962
 20
2.249291
 30
0.0
 10
297.407361
 20
1.592911
 30
0.0
 10
298.297625
 20
1.224173
 30
0.0
 10
299.225900
 20
1.224200
 30
0.0
  0
SPLINE
  5
11c
100
AcDbEntity
  8
0
 62
7
100
AcDbSpline
 70
8
 71
3
 72
8
 73
4
 74
0
 40
0
 40
0
 40
0
 40
0
 40
1
 40
1
 40
1
 40
1
 10
139.007300
 20
118.974100
 30
0.0
 10
139.935575
 20
118.974100
 30
0.0
 10
140.825829
 20
119.342863
 30
0.0
 10
141.482209
 20
119.999262
 30
0.0
  0
SPLINE
  5
11d
100
AcDbEntity
  8
0
 62
7
100
AcDbSpline
 70
8
 71
3
 72
8
 73
4
 74
0
 40
0
 40
0
 40
0
 40
0
 40
1
 40
1
 40
1
 40
1
 10
141.482209
 20
119.999262
 30
0.0
 10
142.138589
 20
120.655661
 30
0.0
 10
142.507327
 20
121.545925
 30
0.0
 10
142.507300
 20
122.474200
 30
0.0
  0
LWPOLYLINE
  5
11e
100
AcDbEntity
  8
0
 62
7
100
AcDbPolyline
 90
2
 70
0
 10
7.482100
 20
1.224200
 30
0.0
 10
288.482100
 20
1.224200
 30
0.0
  0
SPLINE
  5
11f
100
AcDbEntity
  8
0
 62
7
100
AcDbSpline
 70
8
 71
3
 72
8
 73
4
 74
0
 40
0
 40
0
 40
0
 40
0
 40
1
 40
1
 40
1
 40
1
 10
203.482100
 20
15.974200
 30
0.0
 10
202.470944
 20
15.974200
 30
0.0
 10
201.559354
 20
15.365095
 30
0.0
 10
201.172401
 20
14.430909
 30
0.0
  0
SPLINE
  5
120
100
AcDbEntity
  8
0
 62
7
100
AcDbSpline
 70
8
 71
3
 72
8
 73
4
 74
0
 40
0
 40
0
 40
0
 40
0
 40
1
 40
1
 40
1
 40
1
 10
201.172401
 20
14.430909
 30
0.0
 10
200.785449
 20
13.496723
 30
0.0
 10
200.999338
 20
12.421428
 30
0.0
 10
201.714333
 20
11.706433
 30
0.0
  0
SPLINE
  5
121
100
AcDbEntity
  8
0
 62
7
100
AcDbSpline
 70
8
 71
3
 72
8
 73
4
 74
0
 40
0
 40
0
 40
0
 40
0
 40
1
 40
1
 40
1
 40
1
 10
201.714333
 20
11.706433
 30
0.0
 10
202.429328
 20
10.991438
 30
0.0
 10
203.504623
 20
10.777549
 30
0.0
 10
204.438809
 20
11.164501
 30
0.0
  0
SPLINE
  5
122
100
AcDbEntity
  8
0
 62
7
100
AcDbSpline
 70
8
 71
3
 72
8
 73
4
 74
0
 40
0
 40
0
 40
0
 40
0
 40
1
 40
1
 40
1
 40
1
 10
204.438809
 20
11.164501
 30
0.0
 10
205.372995
 20
11.551454
 30
0.0
 10
205.982100
 20
12.463044
 30
0.0
 10
205.982100
 20
13.474200
 30
0.0
  0
SPLINE
  5
123
100
AcDbEntity
  8
0
 62
7
100
AcDbSpline
 70
8
 71
3
 72
8
 73
4
 74
0
 40
0
 40
0
 40
0
 40
0
 40
1
 40
1
 40
1
 40
1
 10
205.982100
 20
13.474200
 30
0.0
 10
205.982100
 20
14.137241
 30
0.0
 10
205.718708
 20
14.773126
 30
0.0
 10
205.249867
 20
15.241967
 30
0.0
  0
SPLINE
  5
124
100
AcDbEntity
  8
0
 62
7
100
AcDbSpline
 70
8
 71
3
 72
8
 73
4
 74
0
 40
0
 40
0
 40
0
 40
0
 40
1
 40
1
 40
1
 40
1
 10
205.249867
 20
15.241967
 30
0.0
 10
204.781026
 20
15.710808
 30
0.0
 10
204.145141
 20
15.974200
 30
0.0
 10
203.482100
 20
15.974200
 30
0.0
  0
LWPOLYLINE
  5
125
100
AcDbEntity
  8
0
 62
7
100
AcDbPolyline
 90
2
 70
0
 10
153.982100
 20
126.474100
 30
0.0
 10
153.982100
 20
122.474200
 30
0.0
  0
SPLINE
  5
126
100
AcDbEntity
  8
0
 62
7
100
AcDbSpline
 70
8
 71
3
 72
8
 73
4
 74
0
 40
0
 40
0
 40
0
 40
0
 40
1
 40
1
 40
1
 40
1
 10
67.732100
 20
25.974200
 30
0.0
 10
66.720944
 20
25.974200
 30
0.0
 10
65.809354
 20
25.365095
 30
0.0
 10
65.422401
 20
24.430909
 30
0.0
  0
SPLINE
  5
127
100
AcDbEntity
  8
0
 62
7
100
AcDbSpline
 70
8
 71
3
 72
8
 73
4
 74
0
 40
0
 40
0
 40
0
 40
0
 40
1
 40
1
 40
1
 40
1
 10
65.422401
 20
24.430909
 30
0.0
 10
65.035449
 20
23.496723
 30
0.0
 10
65.249338
 20
22.421428
 30
0.0
 10
65.964333
 20
21.706433
 30
0.0
  0
SPLINE
  5
128
100
AcDbEntity
  8
0
 62
7
100
AcDbSpline
 70
8
 71
3
 72
8
 73
4
 74
0
 40
0
 40
0
 40
0
 40
0
 40
1
 40
1
 40
1
 40
1
 10
65.964333
 20
21.706433
 30
0.0
 10
66.679328
 20
20.991438
 30
0.0
 10
67.754623
 20
20.777549
 30
0.0
 10
68.688809
 20
21.164501
 30
0.0
  0
SPLINE
  5
129
100
AcDbEntity
  8
0
 62
7
100
AcDbSpline
 70
8
 71
3
 72
8
 73
4
 74
0
 40
0
 40
0
 40
0
 40
0
 40
1
 40
1
 40
1
 40
1
 10
68.688809
 20
21.164501
 30
0.0
 10
69.622995
 20
21.551454
 30
0.0
 10
70.232100
 20
22.463044
 30
0.0
 10
70.232100
 20
23.474200
 30
0.0
  0
SPLINE
  5
12a
100
AcDbEntity
  8
0
 62
7
100
AcDbSpline
 70
8
 71
3
 72
8
 73
4
 74
0
 40
0
 40
0
 40
0
 40
0
 40
1
 40
1
 40
1
 40
1
 10
70.232100
 20
23.474200
 30
0.0
 10
70.232100
 20
24.137241
 30
0.0
 10
69.968708
 20
24.773126
 30
0.0
 10
69.499867
 20
25.241967
 30
0.0
  0
SPLINE
  5
12b
100
AcDbEntity
  8
0
 62
7
100
AcDbSpline
 70
8
 71
3
 72
8
 73
4
 74
0
 40
0
 40
0
 40
0
 40
0
 40
1
 40
1
 40
1
 40
1
 10
69.499867
 20
25.241967
 30
0.0
 10
69.031026
 20
25.710808
 30
0.0
 10
68.395141
 20
25.974200
 30
0.0
 10
67.732100
 20
25.974200
 30
0.0
  0
LWPOLYLINE
  5
12c
100
AcDbEntity
  8
0
 62
7
100
AcDbPolyline
 90
1
 70
1
 10
203.482100
 20
15.974200
 30
0.0
  0
SPLINE
  5
12d
100
AcDbEntity
  8
0
 62
7
100
AcDbSpline
 70
8
 71
3
 72
8
 73
4
 74
0
 40
0
 40
0
 40
0
 40
0
 40
1
 40
1
 40
1
 40
1
 10
303.982100
 20
30.974200
 30
0.0
 10
302.970944
 20
30.974200
 30
0.0
 10
302.059354
 20
30.365095
 30
0.0
 10
301.672401
 20
29.430909
 30
0.0
  0
SPLINE
  5
12e
100
AcDbEntity
  8
0
 62
7
100
AcDbSpline
 70
8
 71
3
 72
8
 73
4
 74
0
 40
0
 40
0
 40
0
 40
0
 40
1
 40
1
 40
1
 40
1
 10
301.672401
 20
29.430909
 30
0.0
 10
301.285449
 20
28.496723
 30
0.0
 10
301.499338
 20
27.421428
 30
0.0
 10
302.214333
 20
26.706433
 30
0.0
  0
SPLINE
  5
12f
100
AcDbEntity
  8
0
 62
7
100
AcDbSpline
 70
8
 71
3
 72
8
 73
4
 74
0
 40
0
 40
0
 40
0
 40
0
 40
1
 40
1
 40
1
 40
1
 10
302.214333
 20
26.706433
 30
0.0
 10
302.929328
 20
25.991438
 30
0.0
 10
304.004623
 20
25.777549
 30
0.0
 10
304.938809
 20
26.164501
 30
0.0
  0
SPLINE
  5
130
100
AcDbEntity
  8
0
 62
7
100
AcDbSpline
 70
8
 71
3
 72
8
 73
4
 74
0
 40
0
 40
0
 40
0
 40
0
 40
1
 40
1
 40
1
 40
1
 10
304.938809
 20
26.164501
 30
0.0
 10
305.872995
 20
26.551454
 30
0.0
 10
306.482100
 20
27.463044
 30
0.0
 10
306.482100
 20
28.474200
 30
0.0
  0
SPLINE
  5
131
100
AcDbEntity
  8
0
 62
7
100
AcDbSpline
 70
8
 71
3
 72
8
 73
4
 74
0
 40
0
 40
0
 40
0
 40
0
 40
1
 40
1
 40
1
 40
1
 10
306.482100
 20
28.474200
 30
0.0
 10
306.482100
 20
29.137241
 30
0.0
 10
306.218708
 20
29.773126
 30
0.0
 10
305.749867
 20
30.241967
 30
0.0
  0
SPLINE
  5
132
100
AcDbEntity
  8
0
 62
7
100
AcDbSpline
 70
8
 71
3
 72
8
 73
4
 74
0
 40
0
 40
0
 40
0
 40
0
 40
1
 40
1
 40
1
 40
1
 10
305.749867
 20
30.241967
 30
0.0
 10
305.281026
 20
30.710808
 30
0.0
 10
304.645141
 20
30.974200
 30
0.0
 10
303.982100
 20
30.974200
 30
0.0
  0
LWPOLYLINE
  5
133
100
AcDbEntity
  8
0
 62
7
100
AcDbPolyline
 90
1
 70
1
 10
67.732100
 20
25.974200
 30
0.0
  0
SPLINE
  5
134
100
AcDbEntity
  8
0
 62
7
100
AcDbSpline
 70
8
 71
3
 72
8
 73
4
 74
0
 40
0
 40
0
 40
0
 40
0
 40
1
 40
1
 40
1
 40
1
 10
361.482100
 20
28.974200
 30
0.0
 10
360.470944
 20
28.974200
 30
0.0
 10
359.559354
 20
28.365095
 30
0.0
 10
359.172401
 20
27.430909
 30
0.0
  0
SPLINE
  5
135
100
AcDbEntity
  8
0
 62
7
100
AcDbSpline
 70
8
 71
3
 72
8
 73
4
 74
0
 40
0
 40
0
 40
0
 40
0
 40
1
 40
1
 40
1
 40
1
 10
359.172401
 20
27.430909
 30
0.0
 10
358.785449
 20
26.496723
 30
0.0
 10
358.999338
 20
25.421428
 30
0.0
 10
359.714333
 20
24.706433
 30
0.0
  0
SPLINE
  5
136
100
AcDbEntity
  8
0
 62
7
100
AcDbSpline
 70
8
 71
3
 72
8
 73
4
 74
0
 40
0
 40
0
 40
0
 40
0
 40
1
 40
1
 40
1
 40
1
 10
359.714333
 20
24.706433
 30
0.0
 10
360.429328
 20
23.991438
 30
0.0
 10
361.504623
 20
23.777549
 30
0.0
 10
362.438809
 20
24.164501
 30
0.0
  0
SPLINE
  5
137
100
AcDbEntity
  8
0
 62
7
100
AcDbSpline
 70
8
 71
3
 72
8
 73
4
 74
0
 40
0
 40
0
 40
0
 40
0
 40
1
 40
1
 40
1
 40
1
 10
362.438809
 20
24.164501
 30
0.0
 10
363.372995
 20
24.551454
 30
0.0
 10
363.982100
 20
25.463044
 30
0.0
 10
363.982100
 20
26.474200
 30
0.0
  0
SPLINE
  5
138
100
AcDbEntity
  8
0
 62
7
100
AcDbSpline
 70
8
 71
3
 72
8
 73
4
 74
0
 40
0
 40
0
 40
0
 40
0
 40
1
 40
1
 40
1
 40
1
 10
363.982100
 20
26.474200
 30
0.0
 10
363.982100
 20
27.137241
 30
0.0
 10
363.718708
 20
27.773126
 30
0.0
 10
363.249867
 20
28.241967
 30
0.0
  0
SPLINE
  5
139
100
AcDbEntity
  8
0
 62
7
100
AcDbSpline
 70
8
 71
3
 72
8
 73
4
 74
0
 40
0
 40
0
 40
0
 40
0
 40
1
 40
1
 40
1
 40
1
 10
363.249867
 20
28.241967
 30
0.0
 10
362.781026
 20
28.710808
 30
0.0
 10
362.145141
 20
28.974200
 30
0.0
 10
361.482100
 20
28.974200
 30
0.0
  0
LWPOLYLINE
  5
13a
100
AcDbEntity
  8
0
 62
7
100
AcDbPolyline
 90
1
 70
1
 10
303.982100
 20
30.974200
 30
0.0
  0
SPLINE
  5
13b
100
AcDbEntity
  8
0
 62
7
100
AcDbSpline
 70
8
 71
3
 72
8
 73
4
 74
0
 40
0
 40
0
 40
0
 40
0
 40
1
 40
1
 40
1
 40
1
 10
110.482100
 20
63.974200
 30
0.0
 10
109.470944
 20
63.974200
 30
0.0
 10
108.559354
 20
63.365095
 30
0.0
 10
108.172401
 20
62.430909
 30
0.0
  0
SPLINE
  5
13c
100
AcDbEntity
  8
0
 62
7
100
AcDbSpline
 70
8
 71
3
 72
8
 73
4
 74
0
 40
0
 40
0
 40
0
 40
0
 40
1
 40
1
 40
1
 40
1
 10
108.172401
 20
62.430909
 30
0.0
 10
107.785449
 20
61.496723
 30
0.0
 10
107.999338
 20
60.421428
 30
0.0
 10
108.714333
 20
59.706433
 30
0.0
  0
SPLINE
  5
13d
100
AcDbEntity
  8
0
 62
7
100
AcDbSpline
 70
8
 71
3
 72
8
 73
4
 74
0
 40
0
 40
0
 40
0
 40
0
 40
1
 40
1
 40
1
 40
1
 10
108.714333
 20
59.706433
 30
0.0
 10
109.429328
 20
58.991438
 30
0.0
 10
110.504623
 20
58.777549
 30
0.0
 10
111.438809
 20
59.164501
 30
0.0
  0
SPLINE
  5
13e
100
AcDbEntity
  8
0
 62
7
100
AcDbSpline
 70
8
 71
3
 72
8
 73
4
 74
0
 40
0
 40
0
 40
0
 40
0
 40
1
 40
1
 40
1
 40
1
 10
111.438809
 20
59.164501
 30
0.0
 10
112.372995
 20
59.551454
 30
0.0
 10
112.982100
 20
60.463044
 30
0.0
 10
112.982100
 20
61.474200
 30
0.0
  0
SPLINE
  5
13f
100
AcDbEntity
  8
0
 62
7
100
AcDbSpline
 70
8
 71
3
 72
8
 73
4
 74
0
 40
0
 40
0
 40
0
 40
0
 40
1
 40
1
 40
1
 40
1
 10
112.982100
 20
61.474200
 30
0.0
 10
112.982100
 20
62.137241
 30
0.0
 10
112.718708
 20
62.773126
 30
0.0
 10
112.249867
 20
63.241967
 30
0.0
  0
SPLINE
  5
140
100
AcDbEntity
  8
0
 62
7
100
AcDbSpline
 70
8
 71
3
 72
8
 73
4
 74
0
 40
0
 40
0
 40
0
 40
0
 40
1
 40
1
 40
1
 40
1
 10
112.249867
 20
63.241967
 30
0.0
 10
111.781026
 20
63.710808
 30
0.0
 10
111.145141
 20
63.974200
 30
0.0
 10
110.482100
 20
63.974200
 30
0.0
  0
LWPOLYLINE
  5
141
100
AcDbEntity
  8
0
 62
7
100
AcDbPolyline
 90
1
 70
1
 10
361.482100
 20
28.974200
 30
0.0
  0
SPLINE
  5
142
100
AcDbEntity
  8
0
 62
7
100
AcDbSpline
 70
8
 71
3
 72
8
 73
4
 74
0
 40
0
 40
0
 40
0
 40
0
 40
1
 40
1
 40
1
 40
1
 10
315.982100
 20
63.974200
 30
0.0
 10
314.970944
 20
63.974200
 30
0.0
 10
314.059354
 20
63.365095
 30
0.0
 10
313.672401
 20
62.430909
 30
0.0
  0
SPLINE
  5
143
100
AcDbEntity
  8
0
 62
7
100
AcDbSpline
 70
8
 71
3
 72
8
 73
4
 74
0
 40
0
 40
0
 40
0
 40
0
 40
1
 40
1
 40
1
 40
1
 10
313.672401
 20
62.430909
 30
0.0
 10
313.285449
 20
61.496723
 30
0.0
 10
313.499338
 20
60.421428
 30
0.0
 10
314.214333
 20
59.706433
 30
0.0
  0
SPLINE
  5
144
100
AcDbEntity
  8
0
 62
7
100
AcDbSpline
 70
8
 71
3
 72
8
 73
4
 74
0
 40
0
 40
0
 40
0
 40
0
 40
1
 40
1
 40
1
 40
1
 10
314.214333
 20
59.706433
 30
0.0
 10
314.929328
 20
58.991438
 30
0.0
 10
316.004623
 20
58.777549
 30
0.0
 10
316.938809
 20
59.164501
 30
0.0
  0
SPLINE
  5
145
100
AcDbEntity
  8
0
 62
7
100
AcDbSpline
 70
8
 71
3
 72
8
 73
4
 74
0
 40
0
 40
0
 40
0
 40
0
 40
1
 40
1
 40
1
 40
1
 10
316.938809
 20
59.164501
 30
0.0
 10
317.872995
 20
59.551454
 30
0.0
 10
318.482100
 20
60.463044
 30
0.0
 10
318.482100
 20
61.474200
 30
0.0
  0
SPLINE
  5
146
100
AcDbEntity
  8
0
 62
7
100
AcDbSpline
 70
8
 71
3
 72
8
 73
4
 74
0
 40
0
 40
0
 40
0
 40
0
 40
1
 40
1
 40
1
 40
1
 10
318.482100
 20
61.474200
 30
0.0
 10
318.482100
 20
62.137241
 30
0.0
 10
318.218708
 20
62.773126
 30
0.0
 10
317.749867
 20
63.241967
 30
0.0
  0
SPLINE
  5
147
100
AcDbEntity
  8
0
 62
7
100
AcDbSpline
 70
8
 71
3
 72
8
 73
4
 74
0
 40
0
 40
0
 40
0
 40
0
 40
1
 40
1
 40
1
 40
1
 10
317.749867
 20
63.241967
 30
0.0
 10
317.281026
 20
63.710808
 30
0.0
 10
316.645141
 20
63.974200
 30
0.0
 10
315.982100
 20
63.974200
 30
0.0
  0
LWPOLYLINE
  5
148
100
AcDbEntity
  8
0
 62
7
100
AcDbPolyline
 90
1
 70
1
 10
110.482100
 20
63.974200
 30
0.0
  0
SPLINE
  5
149
100
AcDbEntity
  8
0
 62
7
100
AcDbSpline
 70
8
 71
3
 72
8
 73
4
 74
0
 40
0
 40
0
 40
0
 40
0
 40
1
 40
1
 40
1
 40
1
 10
265.982100
 20
114.974200
 30
0.0
 10
264.970944
 20
114.974200
 30
0.0
 10
264.059354
 20
114.365095
 30
0.0
 10
263.672401
 20
113.430909
 30
0.0
  0
SPLINE
  5
14a
100
AcDbEntity
  8
0
 62
7
100
AcDbSpline
 70
8
 71
3
 72
8
 73
4
 74
0
 40
0
 40
0
 40
0
 40
0
 40
1
 40
1
 40
1
 40
1
 10
263.672401
 20
113.430909
 30
0.0
 10
263.285449
 20
112.496723
 30
0.0
 10
263.499338
 20
111.421428
 30
0.0
 10
264.214333
 20
110.706433
 30
0.0
  0
SPLINE
  5
14b
100
AcDbEntity
  8
0
 62
7
100
AcDbSpline
 70
8
 71
3
 72
8
 73
4
 74
0
 40
0
 40
0
 40
0
 40
0
 40
1
 40
1
 40
1
 40
1
 10
264.214333
 20
110.706433
 30
0.0
 10
264.929328
 20
109.991438
 30
0.0
 10
266.004623
 20
109.777549
 30
0.0
 10
266.938809
 20
110.164501
 30
0.0
  0
SPLINE
  5
14c
100
AcDbEntity
  8
0
 62
7
100
AcDbSpline
 70
8
 71
3
 72
8
 73
4
 74
0
 40
0
 40
0
 40
0
 40
0
 40
1
 40
1
 40
1
 40
1
 10
266.938809
 20
110.164501
 30
0.0
 10
267.872995
 20
110.551454
 30
0.0
 10
268.482100
 20
111.463044
 30
0.0
 10
268.482100
 20
112.474200
 30
0.0
  0
SPLINE
  5
14d
100
AcDbEntity
  8
0
 62
7
100
AcDbSpline
 70
8
 71
3
 72
8
 73
4
 74
0
 40
0
 40
0
 40
0
 40
0
 40
1
 40
1
 40
1
 40
1
 10
268.482100
 20
112.474200
 30
0.0
 10
268.482100
 20
113.137241
 30
0.0
 10
268.218708
 20
113.773126
 30
0.0
 10
267.749867
 20
114.241967
 30
0.0
  0
SPLINE
  5
14e
100
AcDbEntity
  8
0
 62
7
100
AcDbSpline
 70
8
 71
3
 72
8
 73
4
 74
0
 40
0
 40
0
 40
0
 40
0
 40
1
 40
1
 40
1
 40
1
 10
267.749867
 20
114.241967
 30
0.0
 10
267.281026
 20
114.710808
 30
0.0
 10
266.645141
 20
114.974200
 30
0.0
 10
265.982100
 20
114.974200
 30
0.0
  0
LWPOLYLINE
  5
14f
100
AcDbEntity
  8
0
 62
7
100
AcDbPolyline
 90
1
 70
1
 10
315.982100
 20
63.974200
 30
0.0
  0
SPLINE
  5
150
100
AcDbEntity
  8
0
 62
7
100
AcDbSpline
 70
8
 71
3
 72
8
 73
4
 74
0
 40
0
 40
0
 40
0
 40
0
 40
1
 40
1
 40
1
 40
1
 10
270.982100
 20
7.474200
 30
0.0
 10
269.970944
 20
7.474200
 30
0.0
 10
269.059354
 20
6.865095
 30
0.0
 10
268.672401
 20
5.930909
 30
0.0
  0
SPLINE
  5
151
100
AcDbEntity
  8
0
 62
7
100
AcDbSpline
 70
8
 71
3
 72
8
 73
4
 74
0
 40
0
 40
0
 40
0
 40
0
 40
1
 40
1
 40
1
 40
1
 10
268.672401
 20
5.930909
 30
0.0
 10
268.285449
 20
4.996723
 30
0.0
 10
268.499338
 20
3.921428
 30
0.0
 10
269.214333
 20
3.206433
 30
0.0
  0
SPLINE
  5
152
100
AcDbEntity
  8
0
 62
7
100
AcDbSpline
 70
8
 71
3
 72
8
 73
4
 74
0
 40
0
 40
0
 40
0
 40
0
 40
1
 40
1
 40
1
 40
1
 10
269.214333
 20
3.206433
 30
0.0
 10
269.929328
 20
2.491438
 30
0.0
 10
271.004623
 20
2.277549
 30
0.0
 10
271.938809
 20
2.664501
 30
0.0
  0
SPLINE
  5
153
100
AcDbEntity
  8
0
 62
7
100
AcDbSpline
 70
8
 71
3
 72
8
 73
4
 74
0
 40
0
 40
0
 40
0
 40
0
 40
1
 40
1
 40
1
 40
1
 10
271.938809
 20
2.664501
 30
0.0
 10
272.872995
 20
3.051454
 30
0.0
 10
273.482100
 20
3.963044
 30
0.0
 10
273.482100
 20
4.974200
 30
0.0
  0
SPLINE
  5
154
100
AcDbEntity
  8
0
 62
7
100
AcDbSpline
 70
8
 71
3
 72
8
 73
4
 74
0
 40
0
 40
0
 40
0
 40
0
 40
1
 40
1
 40
1
 40
1
 10
273.482100
 20
4.974200
 30
0.0
 10
273.482100
 20
5.637241
 30
0.0
 10
273.218708
 20
6.273126
 30
0.0
 10
272.749867
 20
6.741967
 30
0.0
  0
SPLINE
  5
155
100
AcDbEntity
  8
0
 62
7
100
AcDbSpline
 70
8
 71
3
 72
8
 73
4
 74
0
 40
0
 40
0
 40
0
 40
0
 40
1
 40
1
 40
1
 40
1
 10
272.749867
 20
6.741967
 30
0.0
 10
272.281026
 20
7.210808
 30
0.0
 10
271.645141
 20
7.474200
 30
0.0
 10
270.982100
 20
7.474200
 30
0.0
  0
LWPOLYLINE
  5
156
100
AcDbEntity
  8
0
 62
7
100
AcDbPolyline
 90
1
 70
1
 10
265.982100
 20
114.974200
 30
0.0
  0
SPLINE
  5
157
100
AcDbEntity
  8
0
 62
7
100
AcDbSpline
 70
8
 71
3
 72
8
 73
4
 74
0
 40
0
 40
0
 40
0
 40
0
 40
1
 40
1
 40
1
 40
1
 10
205.232100
 20
103.224200
 30
0.0
 10
204.220944
 20
103.224200
 30
0.0
 10
203.309354
 20
102.615095
 30
0.0
 10
202.922401
 20
101.680909
 30
0.0
  0
SPLINE
  5
158
100
AcDbEntity
  8
0
 62
7
100
AcDbSpline
 70
8
 71
3
 72
8
 73
4
 74
0
 40
0
 40
0
 40
0
 40
0
 40
1
 40
1
 40
1
 40
1
 10
202.922401
 20
101.680909
 30
0.0
 10
202.535449
 20
100.746723
 30
0.0
 10
202.749338
 20
99.671428
 30
0.0
 10
203.464333
 20
98.956433
 30
0.0
  0
SPLINE
  5
159
100
AcDbEntity
  8
0
 62
7
100
AcDbSpline
 70
8
 71
3
 72
8
 73
4
 74
0
 40
0
 40
0
 40
0
 40
0
 40
1
 40
1
 40
1
 40
1
 10
203.464333
 20
98.956433
 30
0.0
 10
204.179328
 20
98.241438
 30
0.0
 10
205.254623
 20
98.027549
 30
0.0
 10
206.188809
 20
98.414501
 30
0.0
  0
SPLINE
  5
15a
100
AcDbEntity
  8
0
 62
7
100
AcDbSpline
 70
8
 71
3
 72
8
 73
4
 74
0
 40
0
 40
0
 40
0
 40
0
 40
1
 40
1
 40
1
 40
1
 10
206.188809
 20
98.414501
 30
0.0
 10
207.122995
 20
98.801454
 30
0.0
 10
207.732100
 20
99.713044
 30
0.0
 10
207.732100
 20
100.724200
 30
0.0
  0
SPLINE
  5
15b
100
AcDbEntity
  8
0
 62
7
100
AcDbSpline
 70
8
 71
3
 72
8
 73
4
 74
0
 40
0
 40
0
 40
0
 40
0
 40
1
 40
1
 40
1
 40
1
 10
207.732100
 20
100.724200
 30
0.0
 10
207.732100
 20
101.387241
 30
0.0
 10
207.468708
 20
102.023126
 30
0.0
 10
206.999867
 20
102.491967
 30
0.0
  0
SPLINE
  5
15c
100
AcDbEntity
  8
0
 62
7
100
AcDbSpline
 70
8
 71
3
 72
8
 73
4
 74
0
 40
0
 40
0
 40
0
 40
0
 40
1
 40
1
 40
1
 40
1
 10
206.999867
 20
102.491967
 30
0.0
 10
206.531026
 20
102.960808
 30
0.0
 10
205.895141
 20
103.224200
 30
0.0
 10
205.232100
 20
103.224200
 30
0.0
  0
LWPOLYLINE
  5
15d
100
AcDbEntity
  8
0
 62
7
100
AcDbPolyline
 90
1
 70
1
 10
270.982100
 20
7.474200
 30
0.0
  0
SPLINE
  5
15e
100
AcDbEntity
  8
0
 62
7
100
AcDbSpline
 70
8
 71
3
 72
8
 73
4
 74
0
 40
0
 40
0
 40
0
 40
0
 40
1
 40
1
 40
1
 40
1
 10
9.982100
 20
63.974200
 30
0.0
 10
8.970944
 20
63.974200
 30
0.0
 10
8.059354
 20
63.365095
 30
0.0
 10
7.672401
 20
62.430909
 30
0.0
  0
SPLINE
  5
15f
100
AcDbEntity
  8
0
 62
7
100
AcDbSpline
 70
8
 71
3
 72
8
 73
4
 74
0
 40
0
 40
0
 40
0
 40
0
 40
1
 40
1
 40
1
 40
1
 10
7.672401
 20
62.430909
 30
0.0
 10
7.285449
 20
61.496723
 30
0.0
 10
7.499338
 20
60.421428
 30
0.0
 10
8.214333
 20
59.706433
 30
0.0
  0
SPLINE
  5
160
100
AcDbEntity
  8
0
 62
7
100
AcDbSpline
 70
8
 71
3
 72
8
 73
4
 74
0
 40
0
 40
0
 40
0
 40
0
 40
1
 40
1
 40
1
 40
1
 10
8.214333
 20
59.706433
 30
0.0
 10
8.929328
 20
58.991438
 30
0.0
 10
10.004623
 20
58.777549
 30
0.0
 10
10.938809
 20
59.164501
 30
0.0
  0
SPLINE
  5
161
100
AcDbEntity
  8
0
 62
7
100
AcDbSpline
 70
8
 71
3
 72
8
 73
4
 74
0
 40
0
 40
0
 40
0
 40
0
 40
1
 40
1
 40
1
 40
1
 10
10.938809
 20
59.164501
 30
0.0
 10
11.872995
 20
59.551454
 30
0.0
 10
12.482100
 20
60.463044
 30
0.0
 10
12.482100
 20
61.474200
 30
0.0
  0
SPLINE
  5
162
100
AcDbEntity
  8
0
 62
7
100
AcDbSpline
 70
8
 71
3
 72
8
 73
4
 74
0
 40
0
 40
0
 40
0
 40
0
 40
1
 40
1
 40
1
 40
1
 10
12.482100
 20
61.474200
 30
0.0
 10
12.482100
 20
62.137241
 30
0.0
 10
12.218708
 20
62.773126
 30
0.0
 10
11.749867
 20
63.241967
 30
0.0
  0
SPLINE
  5
163
100
AcDbEntity
  8
0
 62
7
100
AcDbSpline
 70
8
 71
3
 72
8
 73
4
 74
0
 40
0
 40
0
 40
0
 40
0
 40
1
 40
1
 40
1
 40
1
 10
11.749867
 20
63.241967
 30
0.0
 10
11.281026
 20
63.710808
 30
0.0
 10
10.645141
 20
63.974200
 30
0.0
 10
9.982100
 20
63.974200
 30
0.0
  0
LWPOLYLINE
  5
164
100
AcDbEntity
  8
0
 62
7
100
AcDbPolyline
 90
1
 70
1
 10
205.232100
 20
103.224200
 30
0.0
  0
SPLINE
  5
165
100
AcDbEntity
  8
0
 62
7
100
AcDbSpline
 70
8
 71
3
 72
8
 73
4
 74
0
 40
0
 40
0
 40
0
 40
0
 40
1
 40
1
 40
1
 40
1
 10
9.482100
 20
105.474200
 30
0.0
 10
8.470944
 20
105.474200
 30
0.0
 10
7.559354
 20
104.865095
 30
0.0
 10
7.172401
 20
103.930909
 30
0.0
  0
SPLINE
  5
166
100
AcDbEntity
  8
0
 62
7
100
AcDbSpline
 70
8
 71
3
 72
8
 73
4
 74
0
 40
0
 40
0
 40
0
 40
0
 40
1
 40
1
 40
1
 40
1
 10
7.172401
 20
103.930909
 30
0.0
 10
6.785449
 20
102.996723
 30
0.0
 10
6.999338
 20
101.921428
 30
0.0
 10
7.714333
 20
101.206433
 30
0.0
  0
SPLINE
  5
167
100
AcDbEntity
  8
0
 62
7
100
AcDbSpline
 70
8
 71
3
 72
8
 73
4
 74
0
 40
0
 40
0
 40
0
 40
0
 40
1
 40
1
 40
1
 40
1
 10
7.714333
 20
101.206433
 30
0.0
 10
8.429328
 20
100.491438
 30
0.0
 10
9.504623
 20
100.277549
 30
0.0
 10
10.438809
 20
100.664501
 30
0.0
  0
SPLINE
  5
168
100
AcDbEntity
  8
0
 62
7
100
AcDbSpline
 70
8
 71
3
 72
8
 73
4
 74
0
 40
0
 40
0
 40
0
 40
0
 40
1
 40
1
 40
1
 40
1
 10
10.438809
 20
100.664501
 30
0.0
 10
11.372995
 20
101.051454
 30
0.0
 10
11.982100
 20
101.963044
 30
0.0
 10
11.982100
 20
102.974200
 30
0.0
  0
SPLINE
  5
169
100
AcDbEntity
  8
0
 62
7
100
AcDbSpline
 70
8
 71
3
 72
8
 73
4
 74
0
 40
0
 40
0
 40
0
 40
0
 40
1
 40
1
 40
1
 40
1
 10
11.982100
 20
102.974200
 30
0.0
 10
11.982100
 20
104.354912
 30
0.0
 10
10.862812
 20
105.474200
 30
0.0
 10
9.482100
 20
105.474200
 30
0.0
  0
LWPOLYLINE
  5
16a
100
AcDbEntity
  8
0
 62
7
100
AcDbPolyline
 90
1
 70
1
 10
9.982100
 20
63.974200
 30
0.0
  0
SPLINE
  5
16b
100
AcDbEntity
  8
0
 62
7
100
AcDbSpline
 70
8
 71
3
 72
8
 73
4
 74
0
 40
0
 40
0
 40
0
 40
0
 40
1
 40
1
 40
1
 40
1
 10
109.982100
 20
102.724200
 30
0.0
 10
108.970944
 20
102.724200
 30
0.0
 10
108.059354
 20
102.115095
 30
0.0
 10
107.672401
 20
101.180909
 30
0.0
  0
SPLINE
  5
16c
100
AcDbEntity
  8
0
 62
7
100
AcDbSpline
 70
8
 71
3
 72
8
 73
4
 74
0
 40
0
 40
0
 40
0
 40
0
 40
1
 40
1
 40
1
 40
1
 10
107.672401
 20
101.180909
 30
0.0
 10
107.285449
 20
100.246723
 30
0.0
 10
107.499338
 20
99.171428
 30
0.0
 10
108.214333
 20
98.456433
 30
0.0
  0
SPLINE
  5
16d
100
AcDbEntity
  8
0
 62
7
100
AcDbSpline
 70
8
 71
3
 72
8
 73
4
 74
0
 40
0
 40
0
 40
0
 40
0
 40
1
 40
1
 40
1
 40
1
 10
108.214333
 20
98.456433
 30
0.0
 10
108.929328
 20
97.741438
 30
0.0
 10
110.004623
 20
97.527549
 30
0.0
 10
110.938809
 20
97.914501
 30
0.0
  0
SPLINE
  5
16e
100
AcDbEntity
  8
0
 62
7
100
AcDbSpline
 70
8
 71
3
 72
8
 73
4
 74
0
 40
0
 40
0
 40
0
 40
0
 40
1
 40
1
 40
1
 40
1
 10
110.938809
 20
97.914501
 30
0.0
 10
111.872995
 20
98.301454
 30
0.0
 10
112.482100
 20
99.213044
 30
0.0
 10
112.482100
 20
100.224200
 30
0.0
  0
SPLINE
  5
16f
100
AcDbEntity
  8
0
 62
7
100
AcDbSpline
 70
8
 71
3
 72
8
 73
4
 74
0
 40
0
 40
0
 40
0
 40
0
 40
1
 40
1
 40
1
 40
1
 10
112.482100
 20
100.224200
 30
0.0
 10
112.482100
 20
100.887241
 30
0.0
 10
112.218708
 20
101.523126
 30
0.0
 10
111.749867
 20
101.991967
 30
0.0
  0
SPLINE
  5
170
100
AcDbEntity
  8
0
 62
7
100
AcDbSpline
 70
8
 71
3
 72
8
 73
4
 74
0
 40
0
 40
0
 40
0
 40
0
 40
1
 40
1
 40
1
 40
1
 10
111.749867
 20
101.991967
 30
0.0
 10
111.281026
 20
102.460808
 30
0.0
 10
110.645141
 20
102.724200
 30
0.0
 10
109.982100
 20
102.724200
 30
0.0
  0
LWPOLYLINE
  5
171
100
AcDbEntity
  8
0
 62
7
100
AcDbPolyline
 90
1
 70
1
 10
9.482100
 20
105.474200
 30
0.0
  0
SPLINE
  5
172
100
AcDbEntity
  8
0
 62
7
100
AcDbSpline
 70
8
 71
3
 72
8
 73
4
 74
0
 40
0
 40
0
 40
0
 40
0
 40
1
 40
1
 40
1
 40
1
 10
270.482100
 20
63.474200
 30
0.0
 10
269.470944
 20
63.474200
 30
0.0
 10
268.559354
 20
62.865095
 30
0.0
 10
268.172401
 20
61.930909
 30
0.0
  0
SPLINE
  5
173
100
AcDbEntity
  8
0
 62
7
100
AcDbSpline
 70
8
 71
3
 72
8
 73
4
 74
0
 40
0
 40
0
 40
0
 40
0
 40
1
 40
1
 40
1
 40
1
 10
268.172401
 20
61.930909
 30
0.0
 10
267.785449
 20
60.996723
 30
0.0
 10
267.999338
 20
59.921428
 30
0.0
 10
268.714333
 20
59.206433
 30
0.0
  0
SPLINE
  5
174
100
AcDbEntity
  8
0
 62
7
100
AcDbSpline
 70
8
 71
3
 72
8
 73
4
 74
0
 40
0
 40
0
 40
0
 40
0
 40
1
 40
1
 40
1
 40
1
 10
268.714333
 20
59.206433
 30
0.0
 10
269.429328
 20
58.491438
 30
0.0
 10
270.504623
 20
58.277549
 30
0.0
 10
271.438809
 20
58.664501
 30
0.0
  0
SPLINE
  5
175
100
AcDbEntity
  8
0
 62
7
100
AcDbSpline
 70
8
 71
3
 72
8
 73
4
 74
0
 40
0
 40
0
 40
0
 40
0
 40
1
 40
1
 40
1
 40
1
 10
271.438809
 20
58.664501
 30
0.0
 10
272.372995
 20
59.051454
 30
0.0
 10
272.982100
 20
59.963044
 30
0.0
 10
272.982100
 20
60.974200
 30
0.0
  0
SPLINE
  5
176
100
AcDbEntity
  8
0
 62
7
100
AcDbSpline
 70
8
 71
3
 72
8
 73
4
 74
0
 40
0
 40
0
 40
0
 40
0
 40
1
 40
1
 40
1
 40
1
 10
272.982100
 20
60.974200
 30
0.0
 10
272.982100
 20
61.637241
 30
0.0
 10
272.718708
 20
62.273126
 30
0.0
 10
272.249867
 20
62.741967
 30
0.0
  0
SPLINE
  5
177
100
AcDbEntity
  8
0
 62
7
100
AcDbSpline
 70
8
 71
3
 72
8
 73
4
 74
0
 40
0
 40
0
 40
0
 40
0
 40
1
 40
1
 40
1
 40
1
 10
272.249867
 20
62.741967
 30
0.0
 10
271.781026
 20
63.210808
 30
0.0
 10
271.145141
 20
63.474200
 30
0.0
 10
270.482100
 20
63.474200
 30
0.0
  0
LWPOLYLINE
  5
178
100
AcDbEntity
  8
0
 62
7
100
AcDbPolyline
 90
1
 70
1
 10
109.982100
 20
102.724200
 30
0.0
  0
SPLINE
  5
179
100
AcDbEntity
  8
0
 62
7
100
AcDbSpline
 70
8
 71
3
 72
8
 73
4
 74
0
 40
0
 40
0
 40
0
 40
0
 40
1
 40
1
 40
1
 40
1
 10
360.982100
 20
71.474200
 30
0.0
 10
359.970944
 20
71.474200
 30
0.0
 10
359.059354
 20
70.865095
 30
0.0
 10
358.672401
 20
69.930909
 30
0.0
  0
SPLINE
  5
17a
100
AcDbEntity
  8
0
 62
7
100
AcDbSpline
 70
8
 71
3
 72
8
 73
4
 74
0
 40
0
 40
0
 40
0
 40
0
 40
1
 40
1
 40
1
 40
1
 10
358.672401
 20
69.930909
 30
0.0
 10
358.285449
 20
68.996723
 30
0.0
 10
358.499338
 20
67.921428
 30
0.0
 10
359.214333
 20
67.206433
 30
0.0
  0
SPLINE
  5
17b
100
AcDbEntity
  8
0
 62
7
100
AcDbSpline
 70
8
 71
3
 72
8
 73
4
 74
0
 40
0
 40
0
 40
0
 40
0
 40
1
 40
1
 40
1
 40
1
 10
359.214333
 20
67.206433
 30
0.0
 10
359.929328
 20
66.491438
 30
0.0
 10
361.004623
 20
66.277549
 30
0.0
 10
361.938809
 20
66.664501
 30
0.0
  0
SPLINE
  5
17c
100
AcDbEntity
  8
0
 62
7
100
AcDbSpline
 70
8
 71
3
 72
8
 73
4
 74
0
 40
0
 40
0
 40
0
 40
0
 40
1
 40
1
 40
1
 40
1
 10
361.938809
 20
66.664501
 30
0.0
 10
362.872995
 20
67.051454
 30
0.0
 10
363.482100
 20
67.963044
 30
0.0
 10
363.482100
 20
68.974200
 30
0.0
  0
SPLINE
  5
17d
100
AcDbEntity
  8
0
 62
7
100
AcDbSpline
 70
8
 71
3
 72
8
 73
4
 74
0
 40
0
 40
0
 40
0
 40
0
 40
1
 40
1
 40
1
 40
1
 10
363.482100
 20
68.974200
 30
0.0
 10
363.482100
 20
69.637241
 30
0.0
 10
363.218708
 20
70.273126
 30
0.0
 10
362.749867
 20
70.741967
 30
0.0
  0
SPLINE
  5
17e
100
AcDbEntity
  8
0
 62
7
100
AcDbSpline
 70
8
 71
3
 72
8
 73
4
 74
0
 40
0
 40
0
 40
0
 40
0
 40
1
 40
1
 40
1
 40
1
 10
362.749867
 20
70.741967
 30
0.0
 10
362.281026
 20
71.210808
 30
0.0
 10
361.645141
 20
71.474200
 30
0.0
 10
360.982100
 20
71.474200
 30
0.0
  0
LWPOLYLINE
  5
17f
100
AcDbEntity
  8
0
 62
7
100
AcDbPolyline
 90
1
 70
1
 10
270.482100
 20
63.474200
 30
0.0
  0
SPLINE
  5
180
100
AcDbEntity
  8
0
 62
7
100
AcDbSpline
 70
8
 71
3
 72
8
 73
4
 74
0
 40
0
 40
0
 40
0
 40
0
 40
1
 40
1
 40
1
 40
1
 10
204.982100
 20
64.224200
 30
0.0
 10
203.970944
 20
64.224200
 30
0.0
 10
203.059354
 20
63.615095
 30
0.0
 10
202.672401
 20
62.680909
 30
0.0
  0
SPLINE
  5
181
100
AcDbEntity
  8
0
 62
7
100
AcDbSpline
 70
8
 71
3
 72
8
 73
4
 74
0
 40
0
 40
0
 40
0
 40
0
 40
1
 40
1
 40
1
 40
1
 10
202.672401
 20
62.680909
 30
0.0
 10
202.285449
 20
61.746723
 30
0.0
 10
202.499338
 20
60.671428
 30
0.0
 10
203.214333
 20
59.956433
 30
0.0
  0
SPLINE
  5
182
100
AcDbEntity
  8
0
 62
7
100
AcDbSpline
 70
8
 71
3
 72
8
 73
4
 74
0
 40
0
 40
0
 40
0
 40
0
 40
1
 40
1
 40
1
 40
1
 10
203.214333
 20
59.956433
 30
0.0
 10
203.929328
 20
59.241438
 30
0.0
 10
205.004623
 20
59.027549
 30
0.0
 10
205.938809
 20
59.414501
 30
0.0
  0
SPLINE
  5
183
100
AcDbEntity
  8
0
 62
7
100
AcDbSpline
 70
8
 71
3
 72
8
 73
4
 74
0
 40
0
 40
0
 40
0
 40
0
 40
1
 40
1
 40
1
 40
1
 10
205.938809
 20
59.414501
 30
0.0
 10
206.872995
 20
59.801454
 30
0.0
 10
207.482100
 20
60.713044
 30
0.0
 10
207.482100
 20
61.724200
 30
0.0
  0
SPLINE
  5
184
100
AcDbEntity
  8
0
 62
7
100
AcDbSpline
 70
8
 71
3
 72
8
 73
4
 74
0
 40
0
 40
0
 40
0
 40
0
 40
1
 40
1
 40
1
 40
1
 10
207.482100
 20
61.724200
 30
0.0
 10
207.482100
 20
62.387241
 30
0.0
 10
207.218708
 20
63.023126
 30
0.0
 10
206.749867
 20
63.491967
 30
0.0
  0
SPLINE
  5
185
100
AcDbEntity
  8
0
 62
7
100
AcDbSpline
 70
8
 71
3
 72
8
 73
4
 74
0
 40
0
 40
0
 40
0
 40
0
 40
1
 40
1
 40
1
 40
1
 10
206.749867
 20
63.491967
 30
0.0
 10
206.281026
 20
63.960808
 30
0.0
 10
205.645141
 20
64.224200
 30
0.0
 10
204.982100
 20
64.224200
 30
0.0
  0
LWPOLYLINE
  5
186
100
AcDbEntity
  8
0
 62
7
100
AcDbPolyline
 90
1
 70
1
 10
360.982100
 20
71.474200
 30
0.0
  0
SPLINE
  5
187
100
AcDbEntity
  8
0
 62
7
100
AcDbSpline
 70
8
 71
3
 72
8
 73
4
 74
0
 40
0
 40
0
 40
0
 40
0
 40
1
 40
1
 40
1
 40
1
 10
363.482100
 20
99.974200
 30
0.0
 10
362.470944
 20
99.974200
 30
0.0
 10
361.559354
 20
99.365095
 30
0.0
 10
361.172401
 20
98.430909
 30
0.0
  0
SPLINE
  5
188
100
AcDbEntity
  8
0
 62
7
100
AcDbSpline
 70
8
 71
3
 72
8
 73
4
 74
0
 40
0
 40
0
 40
0
 40
0
 40
1
 40
1
 40
1
 40
1
 10
361.172401
 20
98.430909
 30
0.0
 10
360.785449
 20
97.496723
 30
0.0
 10
360.999338
 20
96.421428
 30
0.0
 10
361.714333
 20
95.706433
 30
0.0
  0
SPLINE
  5
189
100
AcDbEntity
  8
0
 62
7
100
AcDbSpline
 70
8
 71
3
 72
8
 73
4
 74
0
 40
0
 40
0
 40
0
 40
0
 40
1
 40
1
 40
1
 40
1
 10
361.714333
 20
95.706433
 30
0.0
 10
362.429328
 20
94.991438
 30
0.0
 10
363.504623
 20
94.777549
 30
0.0
 10
364.438809
 20
95.164501
 30
0.0
  0
SPLINE
  5
18a
100
AcDbEntity
  8
0
 62
7
100
AcDbSpline
 70
8
 71
3
 72
8
 73
4
 74
0
 40
0
 40
0
 40
0
 40
0
 40
1
 40
1
 40
1
 40
1
 10
364.438809
 20
95.164501
 30
0.0
 10
365.372995
 20
95.551454
 30
0.0
 10
365.982100
 20
96.463044
 30
0.0
 10
365.982100
 20
97.474200
 30
0.0
  0
SPLINE
  5
18b
100
AcDbEntity
  8
0
 62
7
100
AcDbSpline
 70
8
 71
3
 72
8
 73
4
 74
0
 40
0
 40
0
 40
0
 40
0
 40
1
 40
1
 40
1
 40
1
 10
365.982100
 20
97.474200
 30
0.0
 10
365.982100
 20
98.137241
 30
0.0
 10
365.718708
 20
98.773126
 30
0.0
 10
365.249867
 20
99.241967
 30
0.0
  0
SPLINE
  5
18c
100
AcDbEntity
  8
0
 62
7
100
AcDbSpline
 70
8
 71
3
 72
8
 73
4
 74
0
 40
0
 40
0
 40
0
 40
0
 40
1
 40
1
 40
1
 40
1
 10
365.249867
 20
99.241967
 30
0.0
 10
364.781026
 20
99.710808
 30
0.0
 10
364.145141
 20
99.974200
 30
0.0
 10
363.482100
 20
99.974200
 30
0.0
  0
LWPOLYLINE
  5
18d
100
AcDbEntity
  8
0
 62
7
100
AcDbPolyline
 90
1
 70
1
 10
204.982100
 20
64.224200
 30
0.0
  0
SPLINE
  5
18e
100
AcDbEntity
  8
0
 62
7
100
AcDbSpline
 70
8
 71
3
 72
8
 73
4
 74
0
 40
0
 40
0
 40
0
 40
0
 40
1
 40
1
 40
1
 40
1
 10
316.482100
 20
101.474200
 30
0.0
 10
315.470944
 20
101.474200
 30
0.0
 10
314.559354
 20
100.865095
 30
0.0
 10
314.172401
 20
99.930909
 30
0.0
  0
SPLINE
  5
18f
100
AcDbEntity
  8
0
 62
7
100
AcDbSpline
 70
8
 71
3
 72
8
 73
4
 74
0
 40
0
 40
0
 40
0
 40
0
 40
1
 40
1
 40
1
 40
1
 10
314.172401
 20
99.930909
 30
0.0
 10
313.785449
 20
98.996723
 30
0.0
 10
313.999338
 20
97.921428
 30
0.0
 10
314.714333
 20
97.206433
 30
0.0
  0
SPLINE
  5
190
100
AcDbEntity
  8
0
 62
7
100
AcDbSpline
 70
8
 71
3
 72
8
 73
4
 74
0
 40
0
 40
0
 40
0
 40
0
 40
1
 40
1
 40
1
 40
1
 10
314.714333
 20
97.206433
 30
0.0
 10
315.429328
 20
96.491438
 30
0.0
 10
316.504623
 20
96.277549
 30
0.0
 10
317.438809
 20
96.664501
 30
0.0
  0
SPLINE
  5
191
100
AcDbEntity
  8
0
 62
7
100
AcDbSpline
 70
8
 71
3
 72
8
 73
4
 74
0
 40
0
 40
0
 40
0
 40
0
 40
1
 40
1
 40
1
 40
1
 10
317.438809
 20
96.664501
 30
0.0
 10
318.372995
 20
97.051454
 30
0.0
 10
318.982100
 20
97.963044
 30
0.0
 10
318.982100
 20
98.974200
 30
0.0
  0
SPLINE
  5
192
100
AcDbEntity
  8
0
 62
7
100
AcDbSpline
 70
8
 71
3
 72
8
 73
4
 74
0
 40
0
 40
0
 40
0
 40
0
 40
1
 40
1
 40
1
 40
1
 10
318.982100
 20
98.974200
 30
0.0
 10
318.982100
 20
99.637241
 30
0.0
 10
318.718708
 20
100.273126
 30
0.0
 10
318.249867
 20
100.741967
 30
0.0
  0
SPLINE
  5
193
100
AcDbEntity
  8
0
 62
7
100
AcDbSpline
 70
8
 71
3
 72
8
 73
4
 74
0
 40
0
 40
0
 40
0
 40
0
 40
1
 40
1
 40
1
 40
1
 10
318.249867
 20
100.741967
 30
0.0
 10
317.781026
 20
101.210808
 30
0.0
 10
317.145141
 20
101.474200
 30
0.0
 10
316.482100
 20
101.474200
 30
0.0
  0
LWPOLYLINE
  5
194
100
AcDbEntity
  8
0
 62
7
100
AcDbPolyline
 90
1
 70
1
 10
363.482100
 20
99.974200
 30
0.0
  0
SPLINE
  5
195
100
AcDbEntity
  8
0
 62
7
100
AcDbSpline
 70
8
 71
3
 72
8
 73
4
 74
0
 40
0
 40
0
 40
0
 40
0
 40
1
 40
1
 40
1
 40
1
 10
18.232100
 20
6.474200
 30
0.0
 10
17.220944
 20
6.474200
 30
0.0
 10
16.309354
 20
5.865095
 30
0.0
 10
15.922401
 20
4.930909
 30
0.0
  0
SPLINE
  5
196
100
AcDbEntity
  8
0
 62
7
100
AcDbSpline
 70
8
 71
3
 72
8
 73
4
 74
0
 40
0
 40
0
 40
0
 40
0
 40
1
 40
1
 40
1
 40
1
 10
15.922401
 20
4.930909
 30
0.0
 10
15.535449
 20
3.996723
 30
0.0
 10
15.749338
 20
2.921428
 30
0.0
 10
16.464333
 20
2.206433
 30
0.0
  0
SPLINE
  5
197
100
AcDbEntity
  8
0
 62
7
100
AcDbSpline
 70
8
 71
3
 72
8
 73
4
 74
0
 40
0
 40
0
 40
0
 40
0
 40
1
 40
1
 40
1
 40
1
 10
16.464333
 20
2.206433
 30
0.0
 10
17.179328
 20
1.491438
 30
0.0
 10
18.254623
 20
1.277549
 30
0.0
 10
19.188809
 20
1.664501
 30
0.0
  0
SPLINE
  5
198
100
AcDbEntity
  8
0
 62
7
100
AcDbSpline
 70
8
 71
3
 72
8
 73
4
 74
0
 40
0
 40
0
 40
0
 40
0
 40
1
 40
1
 40
1
 40
1
 10
19.188809
 20
1.664501
 30
0.0
 10
20.122995
 20
2.051454
 30
0.0
 10
20.732100
 20
2.963044
 30
0.0
 10
20.732100
 20
3.974200
 30
0.0
  0
SPLINE
  5
199
100
AcDbEntity
  8
0
 62
7
100
AcDbSpline
 70
8
 71
3
 72
8
 73
4
 74
0
 40
0
 40
0
 40
0
 40
0
 40
1
 40
1
 40
1
 40
1
 10
20.732100
 20
3.974200
 30
0.0
 10
20.732100
 20
4.637241
 30
0.0
 10
20.468708
 20
5.273126
 30
0.0
 10
19.999867
 20
5.741967
 30
0.0
  0
SPLINE
  5
19a
100
AcDbEntity
  8
0
 62
7
100
AcDbSpline
 70
8
 71
3
 72
8
 73
4
 74
0
 40
0
 40
0
 40
0
 40
0
 40
1
 40
1
 40
1
 40
1
 10
19.999867
 20
5.741967
 30
0.0
 10
19.531026
 20
6.210808
 30
0.0
 10
18.895141
 20
6.474200
 30
0.0
 10
18.232100
 20
6.474200
 30
0.0
  0
LWPOLYLINE
  5
19b
100
AcDbEntity
  8
0
 62
7
100
AcDbPolyline
 90
1
 70
1
 10
316.482100
 20
101.474200
 30
0.0
  0
LWPOLYLINE
  5
19c
100
AcDbEntity
  8
0
 62
7
100
AcDbPolyline
 90
1
 70
1
 10
18.232100
 20
6.474200
 30
0.0
  0
LWPOLYLINE
  5
19d
100
AcDbEntity
  8
0
 62
7
100
AcDbPolyline
 90
4
 70
1
 10
40.832100
 20
96.774200
 30
0.0
 10
26.832100
 20
96.774200
 30
0.0
 10
26.832100
 20
82.774200
 30
0.0
 10
40.832100
 20
82.774200
 30
0.0
  0
LWPOLYLINE
  5
19e
100
AcDbEntity
  8
0
 62
7
100
AcDbPolyline
 90
4
 70
1
 10
224.182100
 20
20.574200
 30
0.0
 10
210.182100
 20
20.574200
 30
0.0
 10
210.182100
 20
6.574200
 30
0.0
 10
224.182100
 20
6.574200
 30
0.0
  0
LWPOLYLINE
  5
19f
100
AcDbEntity
  8
0
 62
7
100
AcDbPolyline
 90
4
 70
1
 10
264.682100
 20
58.674100
 30
0.0
 10
250.682100
 20
58.674100
 30
0.0
 10
250.682100
 20
44.674200
 30
0.0
 10
264.682100
 20
44.674200
 30
0.0
  0
LWPOLYLINE
  5
1a0
100
AcDbEntity
  8
0
 62
7
100
AcDbPolyline
 90
4
 70
1
 10
226.532100
 20
58.674100
 30
0.0
 10
212.532100
 20
58.674100
 30
0.0
 10
212.532100
 20
44.674200
 30
0.0
 10
226.532100
 20
44.674200
 30
0.0
  0
LWPOLYLINE
  5
1a1
100
AcDbEntity
  8
0
 62
7
100
AcDbPolyline
 90
4
 70
1
 10
69.382100
 20
77.724200
 30
0.0
 10
55.382100
 20
77.724200
 30
0.0
 10
55.382100
 20
63.724200
 30
0.0
 10
69.382100
 20
63.724200
 30
0.0
  0
LWPOLYLINE
  5
1a2
100
AcDbEntity
  8
0
 62
7
100
AcDbPolyline
 90
4
 70
1
 10
112.232100
 20
58.674100
 30
0.0
 10
98.232100
 20
58.674100
 30
0.0
 10
98.232100
 20
44.674200
 30
0.0
 10
112.232100
 20
44.674200
 30
0.0
  0
LWPOLYLINE
  5
1a3
100
AcDbEntity
  8
0
 62
7
100
AcDbPolyline
 90
4
 70
1
 10
240.832100
 20
115.824200
 30
0.0
 10
226.832100
 20
115.824200
 30
0.0
 10
226.832100
 20
101.824200
 30
0.0
 10
240.832100
 20
101.824200
 30
0.0
  0
LWPOLYLINE
  5
1a4
100
AcDbEntity
  8
0
 62
7
100
AcDbPolyline
 90
4
 70
1
 10
88.419600
 20
115.824200
 30
0.0
 10
74.419600
 20
115.824200
 30
0.0
 10
74.419600
 20
101.824200
 30
0.0
 10
88.419600
 20
101.824200
 30
0.0
  0
LWPOLYLINE
  5
1a5
100
AcDbEntity
  8
0
 62
7
100
AcDbPolyline
 90
4
 70
1
 10
88.382100
 20
77.724200
 30
0.0
 10
74.382100
 20
77.724200
 30
0.0
 10
74.382100
 20
63.724200
 30
0.0
 10
88.382100
 20
63.724200
 30
0.0
  0
LWPOLYLINE
  5
1a6
100
AcDbEntity
  8
0
 62
7
100
AcDbPolyline
 90
4
 70
1
 10
136.069600
 20
96.774200
 30
0.0
 10
122.069600
 20
96.774200
 30
0.0
 10
122.069600
 20
82.774200
 30
0.0
 10
136.069600
 20
82.774200
 30
0.0
  0
LWPOLYLINE
  5
1a7
100
AcDbEntity
  8
0
 62
7
100
AcDbPolyline
 90
4
 70
1
 10
131.332100
 20
58.674100
 30
0.0
 10
117.332100
 20
58.674100
 30
0.0
 10
117.332100
 20
44.674200
 30
0.0
 10
131.332100
 20
44.674200
 30
0.0
  0
LWPOLYLINE
  5
1a8
100
AcDbEntity
  8
0
 62
7
100
AcDbPolyline
 90
4
 70
1
 10
197.957100
 20
39.624100
 30
0.0
 10
183.957100
 20
39.624100
 30
0.0
 10
183.957100
 20
25.624100
 30
0.0
 10
197.957100
 20
25.624100
 30
0.0
  0
LWPOLYLINE
  5
1a9
100
AcDbEntity
  8
0
 62
7
100
AcDbPolyline
 90
4
 70
1
 10
245.582100
 20
58.674100
 30
0.0
 10
231.582100
 20
58.674100
 30
0.0
 10
231.582100
 20
44.674200
 30
0.0
 10
245.582100
 20
44.674200
 30
0.0
  0
LWPOLYLINE
  5
1aa
100
AcDbEntity
  8
0
 62
7
100
AcDbPolyline
 90
4
 70
1
 10
93.182100
 20
58.674100
 30
0.0
 10
79.182100
 20
58.674100
 30
0.0
 10
79.182100
 20
44.674200
 30
0.0
 10
93.182100
 20
44.674200
 30
0.0
  0
LWPOLYLINE
  5
1ab
100
AcDbEntity
  8
0
 62
7
100
AcDbPolyline
 90
4
 70
1
 10
332.575900
 20
20.624100
 30
0.0
 10
318.575900
 20
20.624100
 30
0.0
 10
318.575900
 20
6.624100
 30
0.0
 10
332.575900
 20
6.624100
 30
0.0
  0
LWPOLYLINE
  5
1ac
100
AcDbEntity
  8
0
 62
7
100
AcDbPolyline
 90
4
 70
1
 10
102.732100
 20
39.624100
 30
0.0
 10
88.732100
 20
39.624100
 30
0.0
 10
88.732100
 20
25.624100
 30
0.0
 10
102.732100
 20
25.624100
 30
0.0
  0
LWPOLYLINE
  5
1ad
100
AcDbEntity
  8
0
 62
7
100
AcDbPolyline
 90
4
 70
1
 10
221.782100
 20
115.824200
 30
0.0
 10
207.782100
 20
115.824200
 30
0.0
 10
207.782100
 20
101.824200
 30
0.0
 10
221.782100
 20
101.824200
 30
0.0
  0
LWPOLYLINE
  5
1ae
100
AcDbEntity
  8
0
 62
7
100
AcDbPolyline
 90
4
 70
1
 10
81.307100
 20
20.574200
 30
0.0
 10
67.307100
 20
20.574200
 30
0.0
 10
67.307100
 20
6.574200
 30
0.0
 10
81.307100
 20
6.574200
 30
0.0
  0
LWPOLYLINE
  5
1af
100
AcDbEntity
  8
0
 62
7
100
AcDbPolyline
 90
4
 70
1
 10
69.369600
 20
115.824200
 30
0.0
 10
55.369600
 20
115.824200
 30
0.0
 10
55.369600
 20
101.824200
 30
0.0
 10
69.369600
 20
101.824200
 30
0.0
  0
LWPOLYLINE
  5
1b0
100
AcDbEntity
  8
0
 62
7
100
AcDbPolyline
 90
4
 70
1
 10
107.482100
 20
77.724200
 30
0.0
 10
93.482100
 20
77.724200
 30
0.0
 10
93.482100
 20
63.724200
 30
0.0
 10
107.482100
 20
63.724200
 30
0.0
  0
LWPOLYLINE
  5
1b1
100
AcDbEntity
  8
0
 62
7
100
AcDbPolyline
 90
4
 70
1
 10
74.182100
 20
58.674100
 30
0.0
 10
60.182100
 20
58.674100
 30
0.0
 10
60.182100
 20
44.674200
 30
0.0
 10
74.182100
 20
44.674200
 30
0.0
  0
LWPOLYLINE
  5
1b2
100
AcDbEntity
  8
0
 62
7
100
AcDbPolyline
 90
4
 70
1
 10
50.332100
 20
77.724200
 30
0.0
 10
36.332100
 20
77.724200
 30
0.0
 10
36.332100
 20
63.724200
 30
0.0
 10
50.332100
 20
63.724200
 30
0.0
  0
LWPOLYLINE
  5
1b3
100
AcDbEntity
  8
0
 62
7
100
AcDbPolyline
 90
4
 70
1
 10
152.732100
 20
20.574200
 30
0.0
 10
138.732100
 20
20.574200
 30
0.0
 10
138.732100
 20
6.574200
 30
0.0
 10
152.732100
 20
6.574200
 30
0.0
  0
LWPOLYLINE
  5
1b4
100
AcDbEntity
  8
0
 62
7
100
AcDbPolyline
 90
4
 70
1
 10
64.632100
 20
39.624100
 30
0.0
 10
50.632100
 20
39.624100
 30
0.0
 10
50.632100
 20
25.624100
 30
0.0
 10
64.632100
 20
25.624100
 30
0.0
  0
LWPOLYLINE
  5
1b5
100
AcDbEntity
  8
0
 62
7
100
AcDbPolyline
 90
4
 70
1
 10
250.369600
 20
96.774200
 30
0.0
 10
236.369600
 20
96.774200
 30
0.0
 10
236.369600
 20
82.774200
 30
0.0
 10
250.369600
 20
82.774200
 30
0.0
  0
LWPOLYLINE
  5
1b6
100
AcDbEntity
  8
0
 62
7
100
AcDbPolyline
 90
4
 70
1
 10
288.432100
 20
20.574200
 30
0.0
 10
274.432100
 20
20.574200
 30
0.0
 10
274.432100
 20
6.574200
 30
0.0
 10
288.432100
 20
6.574200
 30
0.0
  0
LWPOLYLINE
  5
1b7
100
AcDbEntity
  8
0
 62
7
100
AcDbPolyline
 90
4
 70
1
 10
332.625900
 20
77.774200
 30
0.0
 10
318.625900
 20
77.774200
 30
0.0
 10
318.625900
 20
63.774200
 30
0.0
 10
332.625900
 20
63.774200
 30
0.0
  0
LWPOLYLINE
  5
1b8
100
AcDbEntity
  8
0
 62
7
100
AcDbPolyline
 90
4
 70
1
 10
240.832100
 20
77.724200
 30
0.0
 10
226.832100
 20
77.724200
 30
0.0
 10
226.832100
 20
63.724200
 30
0.0
 10
240.832100
 20
63.724200
 30
0.0
  0
LWPOLYLINE
  5
1b9
100
AcDbEntity
  8
0
 62
7
100
AcDbPolyline
 90
4
 70
1
 10
370.725900
 20
35.199200
 30
0.0
 10
356.725900
 20
35.199200
 30
0.0
 10
356.725900
 20
49.199200
 30
0.0
 10
370.725900
 20
49.199200
 30
0.0
  0
LWPOLYLINE
  5
1ba
100
AcDbEntity
  8
0
 62
7
100
AcDbPolyline
 90
4
 70
1
 10
126.519600
 20
115.824200
 30
0.0
 10
112.519600
 20
115.824200
 30
0.0
 10
112.519600
 20
101.824200
 30
0.0
 10
126.519600
 20
101.824200
 30
0.0
  0
LWPOLYLINE
  5
1bb
100
AcDbEntity
  8
0
 62
7
100
AcDbPolyline
 90
4
 70
1
 10
97.982100
 20
96.774200
 30
0.0
 10
83.982100
 20
96.774200
 30
0.0
 10
83.982100
 20
82.774200
 30
0.0
 10
97.982100
 20
82.774200
 30
0.0
  0
LWPOLYLINE
  5
1bc
100
AcDbEntity
  8
0
 62
7
100
AcDbPolyline
 90
4
 70
1
 10
313.575900
 20
58.724200
 30
0.0
 10
299.575900
 20
58.724200
 30
0.0
 10
299.575900
 20
44.724200
 30
0.0
 10
313.575900
 20
44.724200
 30
0.0
  0
LWPOLYLINE
  5
1bd
100
AcDbEntity
  8
0
 62
7
100
AcDbPolyline
 90
4
 70
1
 10
117.032100
 20
96.774200
 30
0.0
 10
103.032100
 20
96.774200
 30
0.0
 10
103.032100
 20
82.774200
 30
0.0
 10
117.032100
 20
82.774200
 30
0.0
  0
LWPOLYLINE
  5
1be
100
AcDbEntity
  8
0
 62
7
100
AcDbPolyline
 90
4
 70
1
 10
370.725900
 20
73.299200
 30
0.0
 10
356.725900
 20
73.299200
 30
0.0
 10
356.725900
 20
87.299200
 30
0.0
 10
370.725900
 20
87.299200
 30
0.0
  0
LWPOLYLINE
  5
1bf
100
AcDbEntity
  8
0
 62
7
100
AcDbPolyline
 90
4
 70
1
 10
164.619600
 20
115.824200
 30
0.0
 10
150.619600
 20
115.824200
 30
0.0
 10
150.619600
 20
101.824200
 30
0.0
 10
164.619600
 20
101.824200
 30
0.0
  0
LWPOLYLINE
  5
1c0
100
AcDbEntity
  8
0
 62
7
100
AcDbPolyline
 90
4
 70
1
 10
50.332100
 20
115.824200
 30
0.0
 10
36.332100
 20
115.824200
 30
0.0
 10
36.332100
 20
101.824200
 30
0.0
 10
50.332100
 20
101.824200
 30
0.0
  0
LWPOLYLINE
  5
1c1
100
AcDbEntity
  8
0
 62
7
100
AcDbPolyline
 90
4
 70
1
 10
207.482100
 20
58.674100
 30
0.0
 10
193.482100
 20
58.674100
 30
0.0
 10
193.482100
 20
44.674200
 30
0.0
 10
207.482100
 20
44.674200
 30
0.0
  0
LWPOLYLINE
  5
1c2
100
AcDbEntity
  8
0
 62
7
100
AcDbPolyline
 90
4
 70
1
 10
21.769600
 20
96.774200
 30
0.0
 10
7.769600
 20
96.774200
 30
0.0
 10
7.769600
 20
82.774200
 30
0.0
 10
21.769600
 20
82.774200
 30
0.0
  0
LWPOLYLINE
  5
1c3
100
AcDbEntity
  8
0
 62
7
100
AcDbPolyline
 90
4
 70
1
 10
40.782100
 20
20.574200
 30
0.0
 10
26.782100
 20
20.574200
 30
0.0
 10
26.782100
 20
6.574200
 30
0.0
 10
40.782100
 20
6.574200
 30
0.0
  0
LWPOLYLINE
  5
1c4
100
AcDbEntity
  8
0
 62
7
100
AcDbPolyline
 90
4
 70
1
 10
286.107100
 20
58.674100
 30
0.0
 10
272.107100
 20
58.674100
 30
0.0
 10
272.107100
 20
44.674200
 30
0.0
 10
286.107100
 20
44.674200
 30
0.0
  0
LWPOLYLINE
  5
1c5
100
AcDbEntity
  8
0
 62
7
100
AcDbPolyline
 90
4
 70
1
 10
351.675900
 20
115.874200
 30
0.0
 10
337.675900
 20
115.874200
 30
0.0
 10
337.675900
 20
101.874200
 30
0.0
 10
351.675900
 20
101.874200
 30
0.0
  0
LWPOLYLINE
  5
1c6
100
AcDbEntity
  8
0
 62
7
100
AcDbPolyline
 90
4
 70
1
 10
245.632100
 20
20.574200
 30
0.0
 10
231.632100
 20
20.574200
 30
0.0
 10
231.632100
 20
6.574200
 30
0.0
 10
245.632100
 20
6.574200
 30
0.0
  0
LWPOLYLINE
  5
1c7
100
AcDbEntity
  8
0
 62
7
100
AcDbPolyline
 90
4
 70
1
 10
278.932100
 20
96.774200
 30
0.0
 10
264.932100
 20
96.774200
 30
0.0
 10
264.932100
 20
82.774200
 30
0.0
 10
278.932100
 20
82.774200
 30
0.0
  0
LWPOLYLINE
  5
1c8
100
AcDbEntity
  8
0
 62
7
100
AcDbPolyline
 90
4
 70
1
 10
212.269600
 20
96.774200
 30
0.0
 10
198.269600
 20
96.774200
 30
0.0
 10
198.269600
 20
82.774200
 30
0.0
 10
212.269600
 20
82.774200
 30
0.0
  0
LWPOLYLINE
  5
1c9
100
AcDbEntity
  8
0
 62
7
100
AcDbPolyline
 90
4
 70
1
 10
183.682100
 20
77.724200
 30
0.0
 10
169.682100
 20
77.724200
 30
0.0
 10
169.682100
 20
63.724200
 30
0.0
 10
183.682100
 20
63.724200
 30
0.0
  0
LWPOLYLINE
  5
1ca
100
AcDbEntity
  8
0
 62
7
100
AcDbPolyline
 90
4
 70
1
 10
231.332100
 20
96.774200
 30
0.0
 10
217.332100
 20
96.774200
 30
0.0
 10
217.332100
 20
82.774200
 30
0.0
 10
231.332100
 20
82.774200
 30
0.0
  0
LWPOLYLINE
  5
1cb
100
AcDbEntity
  8
0
 62
7
100
AcDbPolyline
 90
4
 70
1
 10
283.707100
 20
77.724200
 30
0.0
 10
269.707100
 20
77.724200
 30
0.0
 10
269.707100
 20
63.724200
 30
0.0
 10
283.707100
 20
63.724200
 30
0.0
  0
LWPOLYLINE
  5
1cc
100
AcDbEntity
  8
0
 62
7
100
AcDbPolyline
 90
4
 70
1
 10
78.932100
 20
96.774200
 30
0.0
 10
64.932100
 20
96.774200
 30
0.0
 10
64.932100
 20
82.774200
 30
0.0
 10
78.932100
 20
82.774200
 30
0.0
  0
LWPOLYLINE
  5
1cd
100
AcDbEntity
  8
0
 62
7
100
AcDbPolyline
 90
4
 70
1
 10
351.625900
 20
20.624100
 30
0.0
 10
337.625900
 20
20.624100
 30
0.0
 10
337.625900
 20
6.624100
 30
0.0
 10
351.625900
 20
6.624100
 30
0.0
  0
LWPOLYLINE
  5
1ce
100
AcDbEntity
  8
0
 62
7
100
AcDbPolyline
 90
4
 70
1
 10
351.663400
 20
39.674200
 30
0.0
 10
337.663400
 20
39.674200
 30
0.0
 10
337.663400
 20
25.674200
 30
0.0
 10
351.663400
 20
25.674200
 30
0.0
  0
LWPOLYLINE
  5
1cf
100
AcDbEntity
  8
0
 62
7
100
AcDbPolyline
 90
4
 70
1
 10
145.582100
 20
115.824200
 30
0.0
 10
131.582100
 20
115.824200
 30
0.0
 10
131.582100
 20
101.824200
 30
0.0
 10
145.582100
 20
101.824200
 30
0.0
  0
LWPOLYLINE
  5
1d0
100
AcDbEntity
  8
0
 62
7
100
AcDbPolyline
 90
4
 70
1
 10
351.675900
 20
77.774200
 30
0.0
 10
337.675900
 20
77.774200
 30
0.0
 10
337.675900
 20
63.774200
 30
0.0
 10
351.675900
 20
63.774200
 30
0.0
  0
LWPOLYLINE
  5
1d1
100
AcDbEntity
  8
0
 62
7
100
AcDbPolyline
 90
4
 70
1
 10
83.632100
 20
39.624100
 30
0.0
 10
69.632100
 20
39.624100
 30
0.0
 10
69.632100
 20
25.624100
 30
0.0
 10
83.632100
 20
25.624100
 30
0.0
  0
LWPOLYLINE
  5
1d2
100
AcDbEntity
  8
0
 62
7
100
AcDbPolyline
 90
4
 70
1
 10
174.182100
 20
96.774200
 30
0.0
 10
160.182100
 20
96.774200
 30
0.0
 10
160.182100
 20
82.774200
 30
0.0
 10
174.182100
 20
82.774200
 30
0.0
  0
LWPOLYLINE
  5
1d3
100
AcDbEntity
  8
0
 62
7
100
AcDbPolyline
 90
4
 70
1
 10
26.507100
 20
115.824200
 30
0.0
 10
12.507100
 20
115.824200
 30
0.0
 10
12.507100
 20
101.824200
 30
0.0
 10
26.507100
 20
101.824200
 30
0.0
  0
LWPOLYLINE
  5
1d4
100
AcDbEntity
  8
0
 62
7
100
AcDbPolyline
 90
4
 70
1
 10
169.382100
 20
58.674100
 30
0.0
 10
155.382100
 20
58.674100
 30
0.0
 10
155.382100
 20
44.674200
 30
0.0
 10
169.382100
 20
44.674200
 30
0.0
  0
LWPOLYLINE
  5
1d5
100
AcDbEntity
  8
0
 62
7
100
AcDbPolyline
 90
4
 70
1
 10
236.082100
 20
39.624100
 30
0.0
 10
222.082100
 20
39.624100
 30
0.0
 10
222.082100
 20
25.624100
 30
0.0
 10
236.082100
 20
25.624100
 30
0.0
  0
LWPOLYLINE
  5
1d6
100
AcDbEntity
  8
0
 62
7
100
AcDbPolyline
 90
4
 70
1
 10
107.469600
 20
115.824200
 30
0.0
 10
93.469600
 20
115.824200
 30
0.0
 10
93.469600
 20
101.824200
 30
0.0
 10
107.469600
 20
101.824200
 30
0.0
  0
LWPOLYLINE
  5
1d7
100
AcDbEntity
  8
0
 62
7
100
AcDbPolyline
 90
4
 70
1
 10
351.675900
 20
58.724200
 30
0.0
 10
337.675900
 20
58.724200
 30
0.0
 10
337.675900
 20
44.724200
 30
0.0
 10
351.675900
 20
44.724200
 30
0.0
  0
LWPOLYLINE
  5
1d8
100
AcDbEntity
  8
0
 62
7
100
AcDbPolyline
 90
4
 70
1
 10
21.732100
 20
20.574200
 30
0.0
 10
7.732100
 20
20.574200
 30
0.0
 10
7.732100
 20
6.574200
 30
0.0
 10
21.732100
 20
6.574200
 30
0.0
  0
LWPOLYLINE
  5
1d9
100
AcDbEntity
  8
0
 62
7
100
AcDbPolyline
 90
4
 70
1
 10
183.682100
 20
115.824200
 30
0.0
 10
169.682100
 20
115.824200
 30
0.0
 10
169.682100
 20
101.824200
 30
0.0
 10
183.682100
 20
101.824200
 30
0.0
  0
LWPOLYLINE
  5
1da
100
AcDbEntity
  8
0
 62
7
100
AcDbPolyline
 90
4
 70
1
 10
221.732100
 20
77.724200
 30
0.0
 10
207.732100
 20
77.724200
 30
0.0
 10
207.732100
 20
63.724200
 30
0.0
 10
221.732100
 20
63.724200
 30
0.0
  0
LWPOLYLINE
  5
1db
100
AcDbEntity
  8
0
 62
7
100
AcDbPolyline
 90
4
 70
1
 10
59.932100
 20
96.774200
 30
0.0
 10
45.932100
 20
96.774200
 30
0.0
 10
45.932100
 20
82.774200
 30
0.0
 10
59.932100
 20
82.774200
 30
0.0
  0
LWPOLYLINE
  5
1dc
100
AcDbEntity
  8
0
 62
7
100
AcDbPolyline
 90
4
 70
1
 10
313.563400
 20
115.874200
 30
0.0
 10
299.563400
 20
115.874200
 30
0.0
 10
299.563400
 20
101.874200
 30
0.0
 10
313.563400
 20
101.874200
 30
0.0
  0
LWPOLYLINE
  5
1dd
100
AcDbEntity
  8
0
 62
7
100
AcDbPolyline
 90
4
 70
1
 10
259.882100
 20
115.824200
 30
0.0
 10
245.882100
 20
115.824200
 30
0.0
 10
245.882100
 20
101.824200
 30
0.0
 10
259.882100
 20
101.824200
 30
0.0
  0
LWPOLYLINE
  5
1de
100
AcDbEntity
  8
0
 62
7
100
AcDbPolyline
 90
4
 70
1
 10
28.907100
 20
58.674100
 30
0.0
 10
14.907100
 20
58.674100
 30
0.0
 10
14.907100
 20
44.674200
 30
0.0
 10
28.907100
 20
44.674200
 30
0.0
  0
LWPOLYLINE
  5
1df
100
AcDbEntity
  8
0
 62
7
100
AcDbPolyline
 90
4
 70
1
 10
202.732100
 20
77.724200
 30
0.0
 10
188.732100
 20
77.724200
 30
0.0
 10
188.732100
 20
63.724200
 30
0.0
 10
202.732100
 20
63.724200
 30
0.0
  0
LWPOLYLINE
  5
1e0
100
AcDbEntity
  8
0
 62
7
100
AcDbPolyline
 90
4
 70
1
 10
45.582100
 20
39.624100
 30
0.0
 10
31.582100
 20
39.624100
 30
0.0
 10
31.582100
 20
25.624100
 30
0.0
 10
45.582100
 20
25.624100
 30
0.0
  0
LWPOLYLINE
  5
1e1
100
AcDbEntity
  8
0
 62
7
100
AcDbPolyline
 90
4
 70
1
 10
313.575900
 20
77.774200
 30
0.0
 10
299.575900
 20
77.774200
 30
0.0
 10
299.575900
 20
63.774200
 30
0.0
 10
313.575900
 20
63.774200
 30
0.0
  0
LWPOLYLINE
  5
1e2
100
AcDbEntity
  8
0
 62
7
100
AcDbPolyline
 90
4
 70
1
 10
164.632100
 20
77.724200
 30
0.0
 10
150.632100
 20
77.724200
 30
0.0
 10
150.632100
 20
63.724200
 30
0.0
 10
164.632100
 20
63.724200
 30
0.0
  0
LWPOLYLINE
  5
1e3
100
AcDbEntity
  8
0
 62
7
100
AcDbPolyline
 90
4
 70
1
 10
202.732100
 20
115.824200
 30
0.0
 10
188.732100
 20
115.824200
 30
0.0
 10
188.732100
 20
101.824200
 30
0.0
 10
202.732100
 20
101.824200
 30
0.0
  0
LWPOLYLINE
  5
1e4
100
AcDbEntity
  8
0
 62
7
100
AcDbPolyline
 90
4
 70
1
 10
150.382100
 20
58.674100
 30
0.0
 10
136.382100
 20
58.674100
 30
0.0
 10
136.382100
 20
44.674200
 30
0.0
 10
150.382100
 20
44.674200
 30
0.0
  0
LWPOLYLINE
  5
1e5
100
AcDbEntity
  8
0
 62
7
100
AcDbPolyline
 90
4
 70
1
 10
159.882100
 20
39.624100
 30
0.0
 10
145.882100
 20
39.624100
 30
0.0
 10
145.882100
 20
25.624100
 30
0.0
 10
159.882100
 20
25.624100
 30
0.0
  0
LWPOLYLINE
  5
1e6
100
AcDbEntity
  8
0
 62
7
100
AcDbPolyline
 90
4
 70
1
 10
259.882100
 20
77.724200
 30
0.0
 10
245.882100
 20
77.724200
 30
0.0
 10
245.882100
 20
63.724200
 30
0.0
 10
259.882100
 20
63.724200
 30
0.0
  0
LWPOLYLINE
  5
1e7
100
AcDbEntity
  8
0
 62
7
100
AcDbPolyline
 90
4
 70
1
 10
313.575900
 20
96.824200
 30
0.0
 10
299.575900
 20
96.824200
 30
0.0
 10
299.575900
 20
82.824200
 30
0.0
 10
313.575900
 20
82.824200
 30
0.0
  0
LWPOLYLINE
  5
1e8
100
AcDbEntity
  8
0
 62
7
100
AcDbPolyline
 90
4
 70
1
 10
140.832100
 20
39.624100
 30
0.0
 10
126.832100
 20
39.624100
 30
0.0
 10
126.832100
 20
25.624100
 30
0.0
 10
140.832100
 20
25.624100
 30
0.0
  0
LWPOLYLINE
  5
1e9
100
AcDbEntity
  8
0
 62
7
100
AcDbPolyline
 90
4
 70
1
 10
121.782100
 20
39.624100
 30
0.0
 10
107.782100
 20
39.624100
 30
0.0
 10
107.782100
 20
25.624100
 30
0.0
 10
121.782100
 20
25.624100
 30
0.0
  0
LWPOLYLINE
  5
1ea
100
AcDbEntity
  8
0
 62
7
100
AcDbPolyline
 90
4
 70
1
 10
188.432100
 20
58.674100
 30
0.0
 10
174.432100
 20
58.674100
 30
0.0
 10
174.432100
 20
44.674200
 30
0.0
 10
188.432100
 20
44.674200
 30
0.0
  0
LWPOLYLINE
  5
1eb
100
AcDbEntity
  8
0
 62
7
100
AcDbPolyline
 90
4
 70
1
 10
193.232100
 20
96.774200
 30
0.0
 10
179.232100
 20
96.774200
 30
0.0
 10
179.232100
 20
82.774200
 30
0.0
 10
193.232100
 20
82.774200
 30
0.0
  0
LWPOLYLINE
  5
1ec
100
AcDbEntity
  8
0
 62
7
100
AcDbPolyline
 90
4
 70
1
 10
155.132100
 20
96.774200
 30
0.0
 10
141.132100
 20
96.774200
 30
0.0
 10
141.132100
 20
82.774200
 30
0.0
 10
155.132100
 20
82.774200
 30
0.0
  0
LWPOLYLINE
  5
1ed
100
AcDbEntity
  8
0
 62
7
100
AcDbPolyline
 90
4
 70
1
 10
313.575900
 20
20.624100
 30
0.0
 10
299.575900
 20
20.624100
 30
0.0
 10
299.575900
 20
6.624100
 30
0.0
 10
313.575900
 20
6.624100
 30
0.0
  0
LWPOLYLINE
  5
1ee
100
AcDbEntity
  8
0
 62
7
100
AcDbPolyline
 90
4
 70
1
 10
126.532100
 20
77.724200
 30
0.0
 10
112.532100
 20
77.724200
 30
0.0
 10
112.532100
 20
63.724200
 30
0.0
 10
126.532100
 20
63.724200
 30
0.0
  0
LWPOLYLINE
  5
1ef
100
AcDbEntity
  8
0
 62
7
100
AcDbPolyline
 90
4
 70
1
 10
332.625900
 20
115.874200
 30
0.0
 10
318.625900
 20
115.874200
 30
0.0
 10
318.625900
 20
101.874200
 30
0.0
 10
332.625900
 20
101.874200
 30
0.0
  0
LWPOLYLINE
  5
1f0
100
AcDbEntity
  8
0
 62
7
100
AcDbPolyline
 90
4
 70
1
 10
55.069600
 20
58.674100
 30
0.0
 10
41.069600
 20
58.674100
 30
0.0
 10
41.069600
 20
44.674200
 30
0.0
 10
55.069600
 20
44.674200
 30
0.0
  0
LWPOLYLINE
  5
1f1
100
AcDbEntity
  8
0
 62
7
100
AcDbPolyline
 90
4
 70
1
 10
370.750900
 20
115.874200
 30
0.0
 10
356.750900
 20
115.874200
 30
0.0
 10
356.750900
 20
101.874200
 30
0.0
 10
370.750900
 20
101.874200
 30
0.0
  0
LWPOLYLINE
  5
1f2
100
AcDbEntity
  8
0
 62
7
100
AcDbPolyline
 90
4
 70
1
 10
283.682100
 20
115.824200
 30
0.0
 10
269.682100
 20
115.824200
 30
0.0
 10
269.682100
 20
101.824200
 30
0.0
 10
283.682100
 20
101.824200
 30
0.0
  0
LWPOLYLINE
  5
1f3
100
AcDbEntity
  8
0
 62
7
100
AcDbPolyline
 90
4
 70
1
 10
271.782100
 20
39.624100
 30
0.0
 10
257.782100
 20
39.624100
 30
0.0
 10
257.782100
 20
25.624100
 30
0.0
 10
271.782100
 20
25.624100
 30
0.0
  0
LWPOLYLINE
  5
1f4
100
AcDbEntity
  8
0
 62
7
100
AcDbPolyline
 90
4
 70
1
 10
178.932100
 20
39.624100
 30
0.0
 10
164.932100
 20
39.624100
 30
0.0
 10
164.932100
 20
25.624100
 30
0.0
 10
178.932100
 20
25.624100
 30
0.0
  0
LWPOLYLINE
  5
1f5
100
AcDbEntity
  8
0
 62
7
100
AcDbPolyline
 90
4
 70
1
 10
59.819600
 20
20.574200
 30
0.0
 10
45.819600
 20
20.574200
 30
0.0
 10
45.819600
 20
6.574200
 30
0.0
 10
59.819600
 20
6.574200
 30
0.0
  0
LWPOLYLINE
  5
1f6
100
AcDbEntity
  8
0
 62
7
100
AcDbPolyline
 90
4
 70
1
 10
267.032100
 20
20.574200
 30
0.0
 10
253.032100
 20
20.574200
 30
0.0
 10
253.032100
 20
6.574200
 30
0.0
 10
267.032100
 20
6.574200
 30
0.0
  0
LWPOLYLINE
  5
1f7
100
AcDbEntity
  8
0
 62
7
100
AcDbPolyline
 90
4
 70
1
 10
145.532100
 20
77.724200
 30
0.0
 10
131.532100
 20
77.724200
 30
0.0
 10
131.532100
 20
63.724200
 30
0.0
 10
145.532100
 20
63.724200
 30
0.0
  0
LWPOLYLINE
  5
1f8
100
AcDbEntity
  8
0
 62
7
100
AcDbPolyline
 90
4
 70
1
 10
351.675900
 20
96.824200
 30
0.0
 10
337.675900
 20
96.824200
 30
0.0
 10
337.675900
 20
82.824200
 30
0.0
 10
351.675900
 20
82.824200
 30
0.0
  0
LWPOLYLINE
  5
1f9
100
AcDbEntity
  8
0
 62
7
100
AcDbPolyline
 90
4
 70
1
 10
370.675900
 20
20.624100
 30
0.0
 10
356.675900
 20
20.624100
 30
0.0
 10
356.675900
 20
6.624100
 30
0.0
 10
370.675900
 20
6.624100
 30
0.0
  0
LWPOLYLINE
  5
1fa
100
AcDbEntity
  8
0
 62
7
100
AcDbPolyline
 90
4
 70
1
 10
332.625900
 20
96.824200
 30
0.0
 10
318.625900
 20
96.824200
 30
0.0
 10
318.625900
 20
82.824200
 30
0.0
 10
332.625900
 20
82.824200
 30
0.0
  0
LWPOLYLINE
  5
1fb
100
AcDbEntity
  8
0
 62
7
100
AcDbPolyline
 90
4
 70
1
 10
332.613400
 20
58.724200
 30
0.0
 10
318.613400
 20
58.724200
 30
0.0
 10
318.613400
 20
44.724200
 30
0.0
 10
332.613400
 20
44.724200
 30
0.0
  0
LWPOLYLINE
  5
1fc
100
AcDbEntity
  8
0
 62
7
100
AcDbPolyline
 90
4
 70
1
 10
323.088400
 20
39.674200
 30
0.0
 10
309.088400
 20
39.674200
 30
0.0
 10
309.088400
 20
25.674200
 30
0.0
 10
323.088400
 20
25.674200
 30
0.0
  0
LWPOLYLINE
  5
1fd
100
AcDbEntity
  8
0
 62
7
100
AcDbPolyline
 90
4
 70
1
 10
217.032100
 20
39.624100
 30
0.0
 10
203.032100
 20
39.624100
 30
0.0
 10
203.032100
 20
25.624100
 30
0.0
 10
217.032100
 20
25.624100
 30
0.0
  0
LWPOLYLINE
  5
1fe
100
AcDbEntity
  8
0
 62
7
100
AcDbPolyline
 90
4
 70
1
 10
24.132100
 20
39.624100
 30
0.0
 10
10.132100
 20
39.624100
 30
0.0
 10
10.132100
 20
25.624100
 30
0.0
 10
24.132100
 20
25.624100
 30
0.0
  0
LWPOLYLINE
  5
1ff
100
AcDbEntity
  8
0
 62
7
100
AcDbPolyline
 90
4
 70
1
 10
26.507100
 20
77.724200
 30
0.0
 10
12.507100
 20
77.724200
 30
0.0
 10
12.507100
 20
63.724200
 30
0.0
 10
26.507100
 20
63.724200
 30
0.0
  0
ENDSEC
  0
SECTION
  2
OBJECTS
  0
DICTIONARY
  5
C
330
0
100
AcDbDictionary
  3
ACAD_GROUP
350
D
  3
ACAD_MLINESTYLE
350
17
  0
DICTIONARY
  5
D
330
C
100
AcDbDictionary
  0
DICTIONARY
  5
1A
330
C
100
AcDbDictionary
  0
DICTIONARY
  5
17
330
C
100
AcDbDictionary
  3
STANDARD
350
18
  0
DICTIONARY
  5
19
330
C
100
AcDbDictionary
  0
ENDSEC
  0
EOF
