<?xml version="1.0" standalone="no"?>
 <!DOCTYPE svg PUBLIC "-//W3C//DTD SVG 1.1//EN" 
 "http://www.w3.org/Graphics/SVG/1.1/DTD/svg11.dtd"> 
<svg
  xmlns:svg="http://www.w3.org/2000/svg"
  xmlns="http://www.w3.org/2000/svg"
  xmlns:xlink="http://www.w3.org/1999/xlink"
  version="1.1"
  width="419.9890mm" height="297.0022mm" viewBox="0.0000 0.0000 419.9890 297.0022">
<title>SVG Image created as new-keyboard-pcb-User_Eco2.svg date 2026/04/06 12:20:45 </title>
  <desc>Image generated by PCBNEW </desc>
<g style="fill:#000000; fill-opacity:1.0000;stroke:#000000; stroke-opacity:1.0000;
stroke-linecap:round; stroke-linejoin:round;"
 transform="translate(0 0) scale(1 1)">
</g>
<g style="fill:none; 
stroke:#000000; stroke-width:0.1000; stroke-opacity:1; 
stroke-linecap:round; stroke-linejoin:round;">
<circle cx="19.5000" cy="89.5000" r="2.5000" /> 
<circle cx="27.7500" cy="147.0000" r="2.5000" /> 
<circle cx="77.2500" cy="127.5000" r="2.5000" /> 
<circle cx="120.0000" cy="89.5000" r="2.5000" /> 
<circle cx="280.5000" cy="146.0000" r="2.5000" /> 
<circle cx="280.0000" cy="90.0000" r="2.5000" /> 
<circle cx="213.0000" cy="137.5000" r="2.5000" /> 
<circle cx="214.5000" cy="89.2500" r="2.5000" /> 
<circle cx="214.7500" cy="50.2500" r="2.5000" /> 
<circle cx="119.5000" cy="50.7500" r="2.5000" /> 
<circle cx="19.0000" cy="48.0000" r="2.5000" /> 
<circle cx="275.5000" cy="38.5000" r="2.5000" /> 
<circle cx="326.0000" cy="52.0000" r="2.5000" /> 
<circle cx="373.0000" cy="53.5000" r="2.5000" /> 
<circle cx="325.5000" cy="89.5000" r="2.5000" /> 
<circle cx="370.5000" cy="82.0000" r="2.5000" /> 
<circle cx="371.0000" cy="124.5000" r="2.5000" /> 
<circle cx="313.5000" cy="122.5000" r="2.5000" /> 
<path style="fill:none; 
stroke:#000000; stroke-width:0.1000; stroke-opacity:1; 
stroke-linecap:round; stroke-linejoin:round;fill:none"
d="M 50.3500,54.2000
36.3500,54.2000
36.3500,68.2000
50.3500,68.2000
Z" /> 
<path style="fill:none; 
stroke:#000000; stroke-width:0.1000; stroke-opacity:1; 
stroke-linecap:round; stroke-linejoin:round;fill:none"
d="M 233.7000,130.4000
219.7000,130.4000
219.7000,144.4000
233.7000,144.4000
Z" /> 
<path style="fill:none; 
stroke:#000000; stroke-width:0.1000; stroke-opacity:1; 
stroke-linecap:round; stroke-linejoin:round;fill:none"
d="M 274.2000,92.3000
260.2000,92.3000
260.2000,106.3000
274.2000,106.3000
Z" /> 
<path style="fill:none; 
stroke:#000000; stroke-width:0.1000; stroke-opacity:1; 
stroke-linecap:round; stroke-linejoin:round;fill:none"
d="M 236.0500,92.3000
222.0500,92.3000
222.0500,106.3000
236.0500,106.3000
Z" /> 
<path style="fill:none; 
stroke:#000000; stroke-width:0.1000; stroke-opacity:1; 
stroke-linecap:round; stroke-linejoin:round;fill:none"
d="M 78.9000,73.2500
64.9000,73.2500
64.9000,87.2500
78.9000,87.2500
Z" /> 
<path style="fill:none; 
stroke:#000000; stroke-width:0.1000; stroke-opacity:1; 
stroke-linecap:round; stroke-linejoin:round;fill:none"
d="M 121.7500,92.3000
107.7500,92.3000
107.7500,106.3000
121.7500,106.3000
Z" /> 
<path style="fill:none; 
stroke:#000000; stroke-width:0.1000; stroke-opacity:1; 
stroke-linecap:round; stroke-linejoin:round;fill:none"
d="M 250.3500,35.1500
236.3500,35.1500
236.3500,49.1500
250.3500,49.1500
Z" /> 
<path style="fill:none; 
stroke:#000000; stroke-width:0.1000; stroke-opacity:1; 
stroke-linecap:round; stroke-linejoin:round;fill:none"
d="M 97.9375,35.1500
83.9375,35.1500
83.9375,49.1500
97.9375,49.1500
Z" /> 
<path style="fill:none; 
stroke:#000000; stroke-width:0.1000; stroke-opacity:1; 
stroke-linecap:round; stroke-linejoin:round;fill:none"
d="M 97.9000,73.2500
83.9000,73.2500
83.9000,87.2500
97.9000,87.2500
Z" /> 
<path style="fill:none; 
stroke:#000000; stroke-width:0.1000; stroke-opacity:1; 
stroke-linecap:round; stroke-linejoin:round;fill:none"
d="M 145.5875,54.2000
131.5875,54.2000
131.5875,68.2000
145.5875,68.2000
Z" /> 
<path style="fill:none; 
stroke:#000000; stroke-width:0.1000; stroke-opacity:1; 
stroke-linecap:round; stroke-linejoin:round;fill:none"
d="M 140.8500,92.3000
126.8500,92.3000
126.8500,106.3000
140.8500,106.3000
Z" /> 
<path style="fill:none; 
stroke:#000000; stroke-width:0.1000; stroke-opacity:1; 
stroke-linecap:round; stroke-linejoin:round;fill:none"
d="M 207.4750,111.3500
193.4750,111.3500
193.4750,125.3500
207.4750,125.3500
Z" /> 
<path style="fill:none; 
stroke:#000000; stroke-width:0.1000; stroke-opacity:1; 
stroke-linecap:round; stroke-linejoin:round;fill:none"
d="M 255.1000,92.3000
241.1000,92.3000
241.1000,106.3000
255.1000,106.3000
Z" /> 
<path style="fill:none; 
stroke:#000000; stroke-width:0.1000; stroke-opacity:1; 
stroke-linecap:round; stroke-linejoin:round;fill:none"
d="M 102.7000,92.3000
88.7000,92.3000
88.7000,106.3000
102.7000,106.3000
Z" /> 
<path style="fill:none; 
stroke:#000000; stroke-width:0.1000; stroke-opacity:1; 
stroke-linecap:round; stroke-linejoin:round;fill:none"
d="M 342.0938,130.3500
328.0938,130.3500
328.0938,144.3500
342.0938,144.3500
Z" /> 
<path style="fill:none; 
stroke:#000000; stroke-width:0.1000; stroke-opacity:1; 
stroke-linecap:round; stroke-linejoin:round;fill:none"
d="M 112.2500,111.3500
98.2500,111.3500
98.2500,125.3500
112.2500,125.3500
Z" /> 
<path style="fill:none; 
stroke:#000000; stroke-width:0.1000; stroke-opacity:1; 
stroke-linecap:round; stroke-linejoin:round;fill:none"
d="M 231.3000,35.1500
217.3000,35.1500
217.3000,49.1500
231.3000,49.1500
Z" /> 
<path style="fill:none; 
stroke:#000000; stroke-width:0.1000; stroke-opacity:1; 
stroke-linecap:round; stroke-linejoin:round;fill:none"
d="M 90.8250,130.4000
76.8250,130.4000
76.8250,144.4000
90.8250,144.4000
Z" /> 
<path style="fill:none; 
stroke:#000000; stroke-width:0.1000; stroke-opacity:1; 
stroke-linecap:round; stroke-linejoin:round;fill:none"
d="M 78.8875,35.1500
64.8875,35.1500
64.8875,49.1500
78.8875,49.1500
Z" /> 
<path style="fill:none; 
stroke:#000000; stroke-width:0.1000; stroke-opacity:1; 
stroke-linecap:round; stroke-linejoin:round;fill:none"
d="M 117.0000,73.2500
103.0000,73.2500
103.0000,87.2500
117.0000,87.2500
Z" /> 
<path style="fill:none; 
stroke:#000000; stroke-width:0.1000; stroke-opacity:1; 
stroke-linecap:round; stroke-linejoin:round;fill:none"
d="M 83.7000,92.3000
69.7000,92.3000
69.7000,106.3000
83.7000,106.3000
Z" /> 
<path style="fill:none; 
stroke:#000000; stroke-width:0.1000; stroke-opacity:1; 
stroke-linecap:round; stroke-linejoin:round;fill:none"
d="M 59.8500,73.2500
45.8500,73.2500
45.8500,87.2500
59.8500,87.2500
Z" /> 
<path style="fill:none; 
stroke:#000000; stroke-width:0.1000; stroke-opacity:1; 
stroke-linecap:round; stroke-linejoin:round;fill:none"
d="M 162.2500,130.4000
148.2500,130.4000
148.2500,144.4000
162.2500,144.4000
Z" /> 
<path style="fill:none; 
stroke:#000000; stroke-width:0.1000; stroke-opacity:1; 
stroke-linecap:round; stroke-linejoin:round;fill:none"
d="M 74.1500,111.3500
60.1500,111.3500
60.1500,125.3500
74.1500,125.3500
Z" /> 
<path style="fill:none; 
stroke:#000000; stroke-width:0.1000; stroke-opacity:1; 
stroke-linecap:round; stroke-linejoin:round;fill:none"
d="M 259.8875,54.2000
245.8875,54.2000
245.8875,68.2000
259.8875,68.2000
Z" /> 
<path style="fill:none; 
stroke:#000000; stroke-width:0.1000; stroke-opacity:1; 
stroke-linecap:round; stroke-linejoin:round;fill:none"
d="M 297.9500,130.4000
283.9500,130.4000
283.9500,144.4000
297.9500,144.4000
Z" /> 
<path style="fill:none; 
stroke:#000000; stroke-width:0.1000; stroke-opacity:1; 
stroke-linecap:round; stroke-linejoin:round;fill:none"
d="M 342.1438,73.2000
328.1438,73.2000
328.1438,87.2000
342.1438,87.2000
Z" /> 
<path style="fill:none; 
stroke:#000000; stroke-width:0.1000; stroke-opacity:1; 
stroke-linecap:round; stroke-linejoin:round;fill:none"
d="M 250.3500,73.2500
236.3500,73.2500
236.3500,87.2500
250.3500,87.2500
Z" /> 
<path style="fill:none; 
stroke:#000000; stroke-width:0.1000; stroke-opacity:1; 
stroke-linecap:round; stroke-linejoin:round;fill:none"
d="M 380.2437,115.7750
366.2437,115.7750
366.2437,101.7750
380.2437,101.7750
Z" /> 
<path style="fill:none; 
stroke:#000000; stroke-width:0.1000; stroke-opacity:1; 
stroke-linecap:round; stroke-linejoin:round;fill:none"
d="M 136.0375,35.1500
122.0375,35.1500
122.0375,49.1500
136.0375,49.1500
Z" /> 
<path style="fill:none; 
stroke:#000000; stroke-width:0.1000; stroke-opacity:1; 
stroke-linecap:round; stroke-linejoin:round;fill:none"
d="M 107.5000,54.2000
93.5000,54.2000
93.5000,68.2000
107.5000,68.2000
Z" /> 
<path style="fill:none; 
stroke:#000000; stroke-width:0.1000; stroke-opacity:1; 
stroke-linecap:round; stroke-linejoin:round;fill:none"
d="M 323.0938,92.2500
309.0938,92.2500
309.0938,106.2500
323.0938,106.2500
Z" /> 
<path style="fill:none; 
stroke:#000000; stroke-width:0.1000; stroke-opacity:1; 
stroke-linecap:round; stroke-linejoin:round;fill:none"
d="M 126.5500,54.2000
112.5500,54.2000
112.5500,68.2000
126.5500,68.2000
Z" /> 
<path style="fill:none; 
stroke:#000000; stroke-width:0.1000; stroke-opacity:1; 
stroke-linecap:round; stroke-linejoin:round;fill:none"
d="M 380.2437,77.6750
366.2437,77.6750
366.2437,63.6750
380.2437,63.6750
Z" /> 
<path style="fill:none; 
stroke:#000000; stroke-width:0.1000; stroke-opacity:1; 
stroke-linecap:round; stroke-linejoin:round;fill:none"
d="M 174.1375,35.1500
160.1375,35.1500
160.1375,49.1500
174.1375,49.1500
Z" /> 
<path style="fill:none; 
stroke:#000000; stroke-width:0.1000; stroke-opacity:1; 
stroke-linecap:round; stroke-linejoin:round;fill:none"
d="M 59.8500,35.1500
45.8500,35.1500
45.8500,49.1500
59.8500,49.1500
Z" /> 
<path style="fill:none; 
stroke:#000000; stroke-width:0.1000; stroke-opacity:1; 
stroke-linecap:round; stroke-linejoin:round;fill:none"
d="M 217.0000,92.3000
203.0000,92.3000
203.0000,106.3000
217.0000,106.3000
Z" /> 
<path style="fill:none; 
stroke:#000000; stroke-width:0.1000; stroke-opacity:1; 
stroke-linecap:round; stroke-linejoin:round;fill:none"
d="M 31.2875,54.2000
17.2875,54.2000
17.2875,68.2000
31.2875,68.2000
Z" /> 
<path style="fill:none; 
stroke:#000000; stroke-width:0.1000; stroke-opacity:1; 
stroke-linecap:round; stroke-linejoin:round;fill:none"
d="M 50.3000,130.4000
36.3000,130.4000
36.3000,144.4000
50.3000,144.4000
Z" /> 
<path style="fill:none; 
stroke:#000000; stroke-width:0.1000; stroke-opacity:1; 
stroke-linecap:round; stroke-linejoin:round;fill:none"
d="M 295.6250,92.3000
281.6250,92.3000
281.6250,106.3000
295.6250,106.3000
Z" /> 
<path style="fill:none; 
stroke:#000000; stroke-width:0.1000; stroke-opacity:1; 
stroke-linecap:round; stroke-linejoin:round;fill:none"
d="M 361.1937,35.1000
347.1937,35.1000
347.1937,49.1000
361.1937,49.1000
Z" /> 
<path style="fill:none; 
stroke:#000000; stroke-width:0.1000; stroke-opacity:1; 
stroke-linecap:round; stroke-linejoin:round;fill:none"
d="M 255.1500,130.4000
241.1500,130.4000
241.1500,144.4000
255.1500,144.4000
Z" /> 
<path style="fill:none; 
stroke:#000000; stroke-width:0.1000; stroke-opacity:1; 
stroke-linecap:round; stroke-linejoin:round;fill:none"
d="M 288.4500,54.2000
274.4500,54.2000
274.4500,68.2000
288.4500,68.2000
Z" /> 
<path style="fill:none; 
stroke:#000000; stroke-width:0.1000; stroke-opacity:1; 
stroke-linecap:round; stroke-linejoin:round;fill:none"
d="M 221.7875,54.2000
207.7875,54.2000
207.7875,68.2000
221.7875,68.2000
Z" /> 
<path style="fill:none; 
stroke:#000000; stroke-width:0.1000; stroke-opacity:1; 
stroke-linecap:round; stroke-linejoin:round;fill:none"
d="M 193.2000,73.2500
179.2000,73.2500
179.2000,87.2500
193.2000,87.2500
Z" /> 
<path style="fill:none; 
stroke:#000000; stroke-width:0.1000; stroke-opacity:1; 
stroke-linecap:round; stroke-linejoin:round;fill:none"
d="M 240.8500,54.2000
226.8500,54.2000
226.8500,68.2000
240.8500,68.2000
Z" /> 
<path style="fill:none; 
stroke:#000000; stroke-width:0.1000; stroke-opacity:1; 
stroke-linecap:round; stroke-linejoin:round;fill:none"
d="M 293.2250,73.2500
279.2250,73.2500
279.2250,87.2500
293.2250,87.2500
Z" /> 
<path style="fill:none; 
stroke:#000000; stroke-width:0.1000; stroke-opacity:1; 
stroke-linecap:round; stroke-linejoin:round;fill:none"
d="M 88.4500,54.2000
74.4500,54.2000
74.4500,68.2000
88.4500,68.2000
Z" /> 
<path style="fill:none; 
stroke:#000000; stroke-width:0.1000; stroke-opacity:1; 
stroke-linecap:round; stroke-linejoin:round;fill:none"
d="M 361.1438,130.3500
347.1438,130.3500
347.1438,144.3500
361.1438,144.3500
Z" /> 
<path style="fill:none; 
stroke:#000000; stroke-width:0.1000; stroke-opacity:1; 
stroke-linecap:round; stroke-linejoin:round;fill:none"
d="M 361.1812,111.3000
347.1812,111.3000
347.1812,125.3000
361.1812,125.3000
Z" /> 
<path style="fill:none; 
stroke:#000000; stroke-width:0.1000; stroke-opacity:1; 
stroke-linecap:round; stroke-linejoin:round;fill:none"
d="M 155.1000,35.1500
141.1000,35.1500
141.1000,49.1500
155.1000,49.1500
Z" /> 
<path style="fill:none; 
stroke:#000000; stroke-width:0.1000; stroke-opacity:1; 
stroke-linecap:round; stroke-linejoin:round;fill:none"
d="M 361.1937,73.2000
347.1937,73.2000
347.1937,87.2000
361.1937,87.2000
Z" /> 
<path style="fill:none; 
stroke:#000000; stroke-width:0.1000; stroke-opacity:1; 
stroke-linecap:round; stroke-linejoin:round;fill:none"
d="M 93.1500,111.3500
79.1500,111.3500
79.1500,125.3500
93.1500,125.3500
Z" /> 
<path style="fill:none; 
stroke:#000000; stroke-width:0.1000; stroke-opacity:1; 
stroke-linecap:round; stroke-linejoin:round;fill:none"
d="M 183.7000,54.2000
169.7000,54.2000
169.7000,68.2000
183.7000,68.2000
Z" /> 
<path style="fill:none; 
stroke:#000000; stroke-width:0.1000; stroke-opacity:1; 
stroke-linecap:round; stroke-linejoin:round;fill:none"
d="M 36.0250,35.1500
22.0250,35.1500
22.0250,49.1500
36.0250,49.1500
Z" /> 
<path style="fill:none; 
stroke:#000000; stroke-width:0.1000; stroke-opacity:1; 
stroke-linecap:round; stroke-linejoin:round;fill:none"
d="M 178.9000,92.3000
164.9000,92.3000
164.9000,106.3000
178.9000,106.3000
Z" /> 
<path style="fill:none; 
stroke:#000000; stroke-width:0.1000; stroke-opacity:1; 
stroke-linecap:round; stroke-linejoin:round;fill:none"
d="M 245.6000,111.3500
231.6000,111.3500
231.6000,125.3500
245.6000,125.3500
Z" /> 
<path style="fill:none; 
stroke:#000000; stroke-width:0.1000; stroke-opacity:1; 
stroke-linecap:round; stroke-linejoin:round;fill:none"
d="M 116.9875,35.1500
102.9875,35.1500
102.9875,49.1500
116.9875,49.1500
Z" /> 
<path style="fill:none; 
stroke:#000000; stroke-width:0.1000; stroke-opacity:1; 
stroke-linecap:round; stroke-linejoin:round;fill:none"
d="M 361.1937,92.2500
347.1937,92.2500
347.1937,106.2500
361.1937,106.2500
Z" /> 
<path style="fill:none; 
stroke:#000000; stroke-width:0.1000; stroke-opacity:1; 
stroke-linecap:round; stroke-linejoin:round;fill:none"
d="M 31.2500,130.4000
17.2500,130.4000
17.2500,144.4000
31.2500,144.4000
Z" /> 
<path style="fill:none; 
stroke:#000000; stroke-width:0.1000; stroke-opacity:1; 
stroke-linecap:round; stroke-linejoin:round;fill:none"
d="M 193.2000,35.1500
179.2000,35.1500
179.2000,49.1500
193.2000,49.1500
Z" /> 
<path style="fill:none; 
stroke:#000000; stroke-width:0.1000; stroke-opacity:1; 
stroke-linecap:round; stroke-linejoin:round;fill:none"
d="M 231.2500,73.2500
217.2500,73.2500
217.2500,87.2500
231.2500,87.2500
Z" /> 
<path style="fill:none; 
stroke:#000000; stroke-width:0.1000; stroke-opacity:1; 
stroke-linecap:round; stroke-linejoin:round;fill:none"
d="M 69.4500,54.2000
55.4500,54.2000
55.4500,68.2000
69.4500,68.2000
Z" /> 
<path style="fill:none; 
stroke:#000000; stroke-width:0.1000; stroke-opacity:1; 
stroke-linecap:round; stroke-linejoin:round;fill:none"
d="M 323.0813,35.1000
309.0813,35.1000
309.0813,49.1000
323.0813,49.1000
Z" /> 
<path style="fill:none; 
stroke:#000000; stroke-width:0.1000; stroke-opacity:1; 
stroke-linecap:round; stroke-linejoin:round;fill:none"
d="M 269.4000,35.1500
255.4000,35.1500
255.4000,49.1500
269.4000,49.1500
Z" /> 
<path style="fill:none; 
stroke:#000000; stroke-width:0.1000; stroke-opacity:1; 
stroke-linecap:round; stroke-linejoin:round;fill:none"
d="M 38.4250,92.3000
24.4250,92.3000
24.4250,106.3000
38.4250,106.3000
Z" /> 
<path style="fill:none; 
stroke:#000000; stroke-width:0.1000; stroke-opacity:1; 
stroke-linecap:round; stroke-linejoin:round;fill:none"
d="M 212.2500,73.2500
198.2500,73.2500
198.2500,87.2500
212.2500,87.2500
Z" /> 
<path style="fill:none; 
stroke:#000000; stroke-width:0.1000; stroke-opacity:1; 
stroke-linecap:round; stroke-linejoin:round;fill:none"
d="M 55.1000,111.3500
41.1000,111.3500
41.1000,125.3500
55.1000,125.3500
Z" /> 
<path style="fill:none; 
stroke:#000000; stroke-width:0.1000; stroke-opacity:1; 
stroke-linecap:round; stroke-linejoin:round;fill:none"
d="M 323.0938,73.2000
309.0938,73.2000
309.0938,87.2000
323.0938,87.2000
Z" /> 
<path style="fill:none; 
stroke:#000000; stroke-width:0.1000; stroke-opacity:1; 
stroke-linecap:round; stroke-linejoin:round;fill:none"
d="M 174.1500,73.2500
160.1500,73.2500
160.1500,87.2500
174.1500,87.2500
Z" /> 
<path style="fill:none; 
stroke:#000000; stroke-width:0.1000; stroke-opacity:1; 
stroke-linecap:round; stroke-linejoin:round;fill:none"
d="M 212.2500,35.1500
198.2500,35.1500
198.2500,49.1500
212.2500,49.1500
Z" /> 
<path style="fill:none; 
stroke:#000000; stroke-width:0.1000; stroke-opacity:1; 
stroke-linecap:round; stroke-linejoin:round;fill:none"
d="M 159.9000,92.3000
145.9000,92.3000
145.9000,106.3000
159.9000,106.3000
Z" /> 
<path style="fill:none; 
stroke:#000000; stroke-width:0.1000; stroke-opacity:1; 
stroke-linecap:round; stroke-linejoin:round;fill:none"
d="M 169.4000,111.3500
155.4000,111.3500
155.4000,125.3500
169.4000,125.3500
Z" /> 
<path style="fill:none; 
stroke:#000000; stroke-width:0.1000; stroke-opacity:1; 
stroke-linecap:round; stroke-linejoin:round;fill:none"
d="M 269.4000,73.2500
255.4000,73.2500
255.4000,87.2500
269.4000,87.2500
Z" /> 
<path style="fill:none; 
stroke:#000000; stroke-width:0.1000; stroke-opacity:1; 
stroke-linecap:round; stroke-linejoin:round;fill:none"
d="M 323.0938,54.1500
309.0938,54.1500
309.0938,68.1500
323.0938,68.1500
Z" /> 
<path style="fill:none; 
stroke:#000000; stroke-width:0.1000; stroke-opacity:1; 
stroke-linecap:round; stroke-linejoin:round;fill:none"
d="M 150.3500,111.3500
136.3500,111.3500
136.3500,125.3500
150.3500,125.3500
Z" /> 
<path style="fill:none; 
stroke:#000000; stroke-width:0.1000; stroke-opacity:1; 
stroke-linecap:round; stroke-linejoin:round;fill:none"
d="M 131.3000,111.3500
117.3000,111.3500
117.3000,125.3500
131.3000,125.3500
Z" /> 
<path style="fill:none; 
stroke:#000000; stroke-width:0.1000; stroke-opacity:1; 
stroke-linecap:round; stroke-linejoin:round;fill:none"
d="M 197.9500,92.3000
183.9500,92.3000
183.9500,106.3000
197.9500,106.3000
Z" /> 
<path style="fill:none; 
stroke:#000000; stroke-width:0.1000; stroke-opacity:1; 
stroke-linecap:round; stroke-linejoin:round;fill:none"
d="M 202.7500,54.2000
188.7500,54.2000
188.7500,68.2000
202.7500,68.2000
Z" /> 
<path style="fill:none; 
stroke:#000000; stroke-width:0.1000; stroke-opacity:1; 
stroke-linecap:round; stroke-linejoin:round;fill:none"
d="M 164.6500,54.2000
150.6500,54.2000
150.6500,68.2000
164.6500,68.2000
Z" /> 
<path style="fill:none; 
stroke:#000000; stroke-width:0.1000; stroke-opacity:1; 
stroke-linecap:round; stroke-linejoin:round;fill:none"
d="M 323.0938,130.3500
309.0938,130.3500
309.0938,144.3500
323.0938,144.3500
Z" /> 
<path style="fill:none; 
stroke:#000000; stroke-width:0.1000; stroke-opacity:1; 
stroke-linecap:round; stroke-linejoin:round;fill:none"
d="M 136.0500,73.2500
122.0500,73.2500
122.0500,87.2500
136.0500,87.2500
Z" /> 
<path style="fill:none; 
stroke:#000000; stroke-width:0.1000; stroke-opacity:1; 
stroke-linecap:round; stroke-linejoin:round;fill:none"
d="M 342.1438,35.1000
328.1438,35.1000
328.1438,49.1000
342.1438,49.1000
Z" /> 
<path style="fill:none; 
stroke:#000000; stroke-width:0.1000; stroke-opacity:1; 
stroke-linecap:round; stroke-linejoin:round;fill:none"
d="M 64.5875,92.3000
50.5875,92.3000
50.5875,106.3000
64.5875,106.3000
Z" /> 
<path style="fill:none; 
stroke:#000000; stroke-width:0.1000; stroke-opacity:1; 
stroke-linecap:round; stroke-linejoin:round;fill:none"
d="M 380.2687,35.1000
366.2688,35.1000
366.2688,49.1000
380.2687,49.1000
Z" /> 
<path style="fill:none; 
stroke:#000000; stroke-width:0.1000; stroke-opacity:1; 
stroke-linecap:round; stroke-linejoin:round;fill:none"
d="M 293.2000,35.1500
279.2000,35.1500
279.2000,49.1500
293.2000,49.1500
Z" /> 
<path style="fill:none; 
stroke:#000000; stroke-width:0.1000; stroke-opacity:1; 
stroke-linecap:round; stroke-linejoin:round;fill:none"
d="M 281.3000,111.3500
267.3000,111.3500
267.3000,125.3500
281.3000,125.3500
Z" /> 
<path style="fill:none; 
stroke:#000000; stroke-width:0.1000; stroke-opacity:1; 
stroke-linecap:round; stroke-linejoin:round;fill:none"
d="M 188.4500,111.3500
174.4500,111.3500
174.4500,125.3500
188.4500,125.3500
Z" /> 
<path style="fill:none; 
stroke:#000000; stroke-width:0.1000; stroke-opacity:1; 
stroke-linecap:round; stroke-linejoin:round;fill:none"
d="M 69.3375,130.4000
55.3375,130.4000
55.3375,144.4000
69.3375,144.4000
Z" /> 
<path style="fill:none; 
stroke:#000000; stroke-width:0.1000; stroke-opacity:1; 
stroke-linecap:round; stroke-linejoin:round;fill:none"
d="M 276.5500,130.4000
262.5500,130.4000
262.5500,144.4000
276.5500,144.4000
Z" /> 
<path style="fill:none; 
stroke:#000000; stroke-width:0.1000; stroke-opacity:1; 
stroke-linecap:round; stroke-linejoin:round;fill:none"
d="M 155.0500,73.2500
141.0500,73.2500
141.0500,87.2500
155.0500,87.2500
Z" /> 
<path style="fill:none; 
stroke:#000000; stroke-width:0.1000; stroke-opacity:1; 
stroke-linecap:round; stroke-linejoin:round;fill:none"
d="M 361.1937,54.1500
347.1937,54.1500
347.1937,68.1500
361.1937,68.1500
Z" /> 
<path style="fill:none; 
stroke:#000000; stroke-width:0.1000; stroke-opacity:1; 
stroke-linecap:round; stroke-linejoin:round;fill:none"
d="M 380.1937,130.3500
366.1937,130.3500
366.1937,144.3500
380.1937,144.3500
Z" /> 
<path style="fill:none; 
stroke:#000000; stroke-width:0.1000; stroke-opacity:1; 
stroke-linecap:round; stroke-linejoin:round;fill:none"
d="M 342.1438,54.1500
328.1438,54.1500
328.1438,68.1500
342.1438,68.1500
Z" /> 
<path style="fill:none; 
stroke:#000000; stroke-width:0.1000; stroke-opacity:1; 
stroke-linecap:round; stroke-linejoin:round;fill:none"
d="M 342.1312,92.2500
328.1312,92.2500
328.1312,106.2500
342.1312,106.2500
Z" /> 
<path style="fill:none; 
stroke:#000000; stroke-width:0.1000; stroke-opacity:1; 
stroke-linecap:round; stroke-linejoin:round;fill:none"
d="M 332.6062,111.3000
318.6062,111.3000
318.6062,125.3000
332.6062,125.3000
Z" /> 
<path style="fill:none; 
stroke:#000000; stroke-width:0.1000; stroke-opacity:1; 
stroke-linecap:round; stroke-linejoin:round;fill:none"
d="M 226.5500,111.3500
212.5500,111.3500
212.5500,125.3500
226.5500,125.3500
Z" /> 
<path style="fill:none; 
stroke:#000000; stroke-width:0.1000; stroke-opacity:1; 
stroke-linecap:round; stroke-linejoin:round;fill:none"
d="M 33.6500,111.3500
19.6500,111.3500
19.6500,125.3500
33.6500,125.3500
Z" /> 
<path style="fill:none; 
stroke:#000000; stroke-width:0.1000; stroke-opacity:1; 
stroke-linecap:round; stroke-linejoin:round;fill:none"
d="M 36.0250,73.2500
22.0250,73.2500
22.0250,87.2500
36.0250,87.2500
Z" /> 
</g> 
</svg>
