<?xml version="1.0" standalone="no"?>
 <!DOCTYPE svg PUBLIC "-//W3C//DTD SVG 1.1//EN" 
 "http://www.w3.org/Graphics/SVG/1.1/DTD/svg11.dtd"> 
<svg
  xmlns:svg="http://www.w3.org/2000/svg"
  xmlns="http://www.w3.org/2000/svg"
  xmlns:xlink="http://www.w3.org/1999/xlink"
  version="1.1"
  width="419.9890mm" height="297.0022mm" viewBox="0.0000 0.0000 419.9890 297.0022">
<title>SVG Image created as new-keyboard-pcb-F_Courtyard.svg date 2026/04/06 12:20:45 </title>
  <desc>Image generated by PCBNEW </desc>
<g style="fill:#000000; fill-opacity:1.0000;stroke:#000000; stroke-opacity:1.0000;
stroke-linecap:round; stroke-linejoin:round;"
 transform="translate(0 0) scale(1 1)">
</g>
<g style="fill:none; 
stroke:#000000; stroke-width:0.0500; stroke-opacity:1; 
stroke-linecap:round; stroke-linejoin:round;">
<circle cx="19.5000" cy="89.5000" r="2.4500" /> 
<circle cx="27.7500" cy="147.0000" r="2.4500" /> 
<circle cx="77.2500" cy="127.5000" r="2.4500" /> 
<circle cx="120.0000" cy="89.5000" r="2.4500" /> 
<circle cx="280.5000" cy="146.0000" r="2.4500" /> 
<circle cx="280.0000" cy="90.0000" r="2.4500" /> 
<circle cx="213.0000" cy="137.5000" r="2.4500" /> 
<circle cx="214.5000" cy="89.2500" r="2.4500" /> 
<circle cx="214.7500" cy="50.2500" r="2.4500" /> 
<circle cx="119.5000" cy="50.7500" r="2.4500" /> 
<circle cx="19.0000" cy="48.0000" r="2.4500" /> 
<circle cx="275.5000" cy="38.5000" r="2.4500" /> 
<circle cx="326.0000" cy="52.0000" r="2.4500" /> 
<circle cx="373.0000" cy="53.5000" r="2.4500" /> 
<circle cx="325.5000" cy="89.5000" r="2.4500" /> 
<circle cx="370.5000" cy="82.0000" r="2.4500" /> 
<circle cx="371.0000" cy="124.5000" r="2.4500" /> 
<circle cx="313.5000" cy="122.5000" r="2.4500" /> 
</g> 
</svg>
