<?xml version="1.0" standalone="no"?>
 <!DOCTYPE svg PUBLIC "-//W3C//DTD SVG 1.1//EN" 
 "http://www.w3.org/Graphics/SVG/1.1/DTD/svg11.dtd"> 
<svg
  xmlns:svg="http://www.w3.org/2000/svg"
  xmlns="http://www.w3.org/2000/svg"
  xmlns:xlink="http://www.w3.org/1999/xlink"
  version="1.1"
  width="374.2436mm" height="129.0574mm" viewBox="0.0000 0.0000 374.2436 129.0574">
<title>SVG Image created as new-keyboard-pcb-Edge_Cuts.svg date 2026/04/06 12:31:04 </title>
  <desc>Image generated by PCBNEW </desc>
<g style="fill:#000000; fill-opacity:1.0000;stroke:#000000; stroke-opacity:1.0000;
stroke-linecap:round; stroke-linejoin:round;"
 transform="translate(0 0) scale(1 1)">
</g>
<g style="fill:none; 
stroke:#000000; stroke-width:0.0500; stroke-opacity:1; 
stroke-linecap:round; stroke-linejoin:round;">
<path d="M374.2259 124.3332
L374.2259 13.5832
" />
<path d="M142.5073 2.5833
L153.9821 2.5833
" />
<path d="M299.2259 10.0833 A3.4999 3.4999 0.0 0 0 295.7259 13.5832" />
<path d="M295.7259 13.5832
L295.7259 124.3332
" />
<path d="M153.9821 6.5832 A3.5000 3.5000 0.0 0 0 157.4821 10.0832" />
<path d="M291.9821 124.3332
L291.9821 13.5832
" />
<path d="M3.9821 13.5832
L3.9821 124.3332
" />
<path d="M142.5073 6.5832
L142.5073 2.5833
" />
<path d="M299.2259 127.8332
L370.7259 127.8332
" />
<path d="M370.7259 127.8332 A3.4999 3.4999 0.0 0 0 374.2259 124.3332" />
<path d="M291.9821 13.5832 A3.5000 3.5000 0.0 0 0 288.4821 10.0832" />
<path d="M370.7259 10.0832
L299.2259 10.0832
" />
<path d="M157.4821 10.0832
L288.4821 10.0832
" />
<path d="M139.0073 10.0832
L7.4821 10.0832
" />
<path d="M7.4821 10.0832 A3.5000 3.5000 0.0 0 0 3.9821 13.5832" />
<path d="M3.9821 124.3332 A3.5000 3.5000 0.0 0 0 7.4821 127.8332" />
<path d="M7.4821 127.8332
L288.4821 127.8332
" />
<path d="M374.2259 13.5832 A3.5000 3.5000 0.0 0 0 370.7259 10.0832" />
<path d="M288.4821 127.8332 A3.5000 3.5000 0.0 0 0 291.9821 124.3332" />
<path d="M295.7258 124.3332 A3.5000 3.5000 0.0 0 0 299.2259 127.8332" />
<path d="M139.0073 10.0833 A3.5000 3.5000 0.0 0 0 142.5073 6.5832" />
<path d="M153.9821 2.5833
L153.9821 6.5832
" />
</g> 
</svg>
