<?xml version="1.0" standalone="no"?>
 <!DOCTYPE svg PUBLIC "-//W3C//DTD SVG 1.1//EN" 
 "http://www.w3.org/Graphics/SVG/1.1/DTD/svg11.dtd"> 
<svg
  xmlns:svg="http://www.w3.org/2000/svg"
  xmlns="http://www.w3.org/2000/svg"
  xmlns:xlink="http://www.w3.org/1999/xlink"
  version="1.1"
  width="419.9890mm" height="297.0022mm" viewBox="0.0000 0.0000 419.9890 297.0022">
<title>SVG Image created as new-keyboard-pcb-Edge_Cuts.svg date 2026/04/06 12:20:45 </title>
  <desc>Image generated by PCBNEW </desc>
<g style="fill:#000000; fill-opacity:1.0000;stroke:#000000; stroke-opacity:1.0000;
stroke-linecap:round; stroke-linejoin:round;"
 transform="translate(0 0) scale(1 1)">
</g>
<g style="fill:none; 
stroke:#000000; stroke-width:0.0500; stroke-opacity:1; 
stroke-linecap:round; stroke-linejoin:round;">
<path d="M383.7437 146.2500
L383.7437 35.5000
" />
<path d="M152.0251 24.5000
L163.5000 24.5000
" />
<path d="M308.7437 32.0001 A3.4999 3.4999 0.0 0 0 305.2437 35.5000" />
<path d="M305.2437 35.5000
L305.2437 146.2500
" />
<path d="M163.5000 28.5000 A3.5000 3.5000 0.0 0 0 167.0000 32.0000" />
<path d="M301.5000 146.2500
L301.5000 35.5000
" />
<path d="M13.5000 35.5000
L13.5000 146.2500
" />
<path d="M152.0251 28.5000
L152.0251 24.5000
" />
<path d="M308.7437 149.7500
L380.2437 149.7500
" />
<path d="M380.2438 149.7499 A3.4999 3.4999 0.0 0 0 383.7437 146.2500" />
<path d="M301.5000 35.5000 A3.5000 3.5000 0.0 0 0 298.0000 32.0000" />
<path d="M380.2437 32.0000
L308.7437 32.0000
" />
<path d="M167.0000 32.0000
L298.0000 32.0000
" />
<path d="M148.5251 32.0000
L17.0000 32.0000
" />
<path d="M17.0000 32.0000 A3.5000 3.5000 0.0 0 0 13.5000 35.5000" />
<path d="M13.5000 146.2500 A3.5000 3.5000 0.0 0 0 17.0000 149.7500" />
<path d="M17.0000 149.7500
L298.0000 149.7500
" />
<path d="M383.7438 35.5000 A3.5000 3.5000 0.0 0 0 380.2437 32.0000" />
<path d="M298.0000 149.7500 A3.5000 3.5000 0.0 0 0 301.5000 146.2500" />
<path d="M305.2437 146.2500 A3.5000 3.5000 0.0 0 0 308.7437 149.7500" />
<path d="M148.5251 32.0000 A3.5000 3.5000 0.0 0 0 152.0251 28.5000" />
<path d="M163.5000 24.5000
L163.5000 28.5000
" />
</g> 
</svg>
